%TF.GenerationSoftware,KiCad,Pcbnew,(5.1.8)-1*%
%TF.CreationDate,2021-01-04T21:32:55+01:00*%
%TF.ProjectId,StepstickAdaptor,53746570-7374-4696-936b-41646170746f,rev?*%
%TF.SameCoordinates,Original*%
%TF.FileFunction,Legend,Bot*%
%TF.FilePolarity,Positive*%
%FSLAX46Y46*%
G04 Gerber Fmt 4.6, Leading zero omitted, Abs format (unit mm)*
G04 Created by KiCad (PCBNEW (5.1.8)-1) date 2021-01-04 21:32:55*
%MOMM*%
%LPD*%
G01*
G04 APERTURE LIST*
%ADD10C,0.304800*%
%ADD11C,0.120000*%
G04 APERTURE END LIST*
D10*
X133232071Y-95204642D02*
X133014357Y-95277214D01*
X132941785Y-95349785D01*
X132869214Y-95494928D01*
X132869214Y-95712642D01*
X132941785Y-95857785D01*
X133014357Y-95930357D01*
X133159500Y-96002928D01*
X133740071Y-96002928D01*
X133740071Y-94478928D01*
X133232071Y-94478928D01*
X133086928Y-94551500D01*
X133014357Y-94624071D01*
X132941785Y-94769214D01*
X132941785Y-94914357D01*
X133014357Y-95059500D01*
X133086928Y-95132071D01*
X133232071Y-95204642D01*
X133740071Y-95204642D01*
X132433785Y-94478928D02*
X131562928Y-94478928D01*
X131998357Y-96002928D02*
X131998357Y-94478928D01*
X131054928Y-96002928D02*
X131054928Y-94478928D01*
X130546928Y-95567500D01*
X130038928Y-94478928D01*
X130038928Y-96002928D01*
D11*
%TO.C,J6*%
X140268000Y-97342000D02*
X137608000Y-97342000D01*
X140268000Y-94742000D02*
X140268000Y-97342000D01*
X137608000Y-94742000D02*
X137608000Y-97342000D01*
X140268000Y-94742000D02*
X137608000Y-94742000D01*
X140268000Y-93472000D02*
X140268000Y-92142000D01*
X140268000Y-92142000D02*
X138938000Y-92142000D01*
%TO.C,J5*%
X140318800Y-82063900D02*
X137658800Y-82063900D01*
X140318800Y-79463900D02*
X140318800Y-82063900D01*
X137658800Y-79463900D02*
X137658800Y-82063900D01*
X140318800Y-79463900D02*
X137658800Y-79463900D01*
X140318800Y-78193900D02*
X140318800Y-76863900D01*
X140318800Y-76863900D02*
X138988800Y-76863900D01*
%TO.C,J4*%
X133410000Y-79511200D02*
X133410000Y-78181200D01*
X132080000Y-79511200D02*
X133410000Y-79511200D01*
X130810000Y-79511200D02*
X130810000Y-76851200D01*
X130810000Y-76851200D02*
X128210000Y-76851200D01*
X130810000Y-79511200D02*
X128210000Y-79511200D01*
X128210000Y-79511200D02*
X128210000Y-76851200D01*
%TO.C,J2*%
X127618800Y-76863900D02*
X126288800Y-76863900D01*
X127618800Y-78193900D02*
X127618800Y-76863900D01*
X127618800Y-79463900D02*
X124958800Y-79463900D01*
X124958800Y-79463900D02*
X124958800Y-97303900D01*
X127618800Y-79463900D02*
X127618800Y-97303900D01*
X127618800Y-97303900D02*
X124958800Y-97303900D01*
%TD*%
M02*
