%TF.GenerationSoftware,KiCad,Pcbnew,(5.1.8)-1*%
%TF.CreationDate,2021-01-04T21:32:55+01:00*%
%TF.ProjectId,StepstickAdaptor,53746570-7374-4696-936b-41646170746f,rev?*%
%TF.SameCoordinates,Original*%
%TF.FileFunction,Copper,L4,Bot*%
%TF.FilePolarity,Positive*%
%FSLAX46Y46*%
G04 Gerber Fmt 4.6, Leading zero omitted, Abs format (unit mm)*
G04 Created by KiCad (PCBNEW (5.1.8)-1) date 2021-01-04 21:32:55*
%MOMM*%
%LPD*%
G01*
G04 APERTURE LIST*
%TA.AperFunction,ComponentPad*%
%ADD10C,1.700000*%
%TD*%
%TA.AperFunction,ComponentPad*%
%ADD11R,1.700000X1.700000*%
%TD*%
%TA.AperFunction,ComponentPad*%
%ADD12O,1.700000X1.700000*%
%TD*%
%TA.AperFunction,ViaPad*%
%ADD13C,0.600000*%
%TD*%
%TA.AperFunction,Conductor*%
%ADD14C,0.250000*%
%TD*%
%TA.AperFunction,Conductor*%
%ADD15C,0.254000*%
%TD*%
%TA.AperFunction,Conductor*%
%ADD16C,0.100000*%
%TD*%
G04 APERTURE END LIST*
D10*
%TO.P,J1,15*%
%TO.N,/sck*%
X129985000Y-83601000D03*
%TO.P,J1,13*%
%TO.N,/sdo*%
X132525000Y-83601000D03*
%TO.P,J1,11*%
%TO.N,/sdi*%
X135065000Y-83601000D03*
%TO.P,J1,9*%
%TO.N,/csn*%
X137605000Y-83601000D03*
%TO.P,J1,16*%
%TO.N,GND*%
X128715000Y-86141000D03*
%TO.P,J1,14*%
X131255000Y-86141000D03*
%TO.P,J1,12*%
X133795000Y-86141000D03*
%TO.P,J1,10*%
X136335000Y-86141000D03*
%TO.P,J1,2*%
%TO.N,/ENCN*%
X129985000Y-90201000D03*
%TO.P,J1,4*%
%TO.N,GND*%
X132525000Y-90201000D03*
%TO.P,J1,6*%
X135065000Y-90201000D03*
%TO.P,J1,8*%
%TO.N,VCC*%
X137605000Y-90201000D03*
%TO.P,J1,1*%
%TO.N,/Diag1*%
X128715000Y-92741000D03*
%TO.P,J1,3*%
%TO.N,/en*%
X131255000Y-92741000D03*
%TO.P,J1,5*%
%TO.N,/step*%
X133795000Y-92741000D03*
%TO.P,J1,7*%
%TO.N,/dir*%
X136335000Y-92741000D03*
%TD*%
D11*
%TO.P,J6,1*%
%TO.N,GND*%
X138938000Y-93472000D03*
D12*
%TO.P,J6,2*%
%TO.N,VCC*%
X138938000Y-96012000D03*
%TD*%
D11*
%TO.P,J5,1*%
%TO.N,Net-(J5-Pad1)*%
X138988800Y-78193900D03*
D12*
%TO.P,J5,2*%
%TO.N,GND*%
X138988800Y-80733900D03*
%TD*%
%TO.P,J4,2*%
%TO.N,/ENCN*%
X129540000Y-78181200D03*
D11*
%TO.P,J4,1*%
%TO.N,/Diag1*%
X132080000Y-78181200D03*
%TD*%
D12*
%TO.P,J2,8*%
%TO.N,/dir*%
X126288800Y-95973900D03*
%TO.P,J2,7*%
%TO.N,/step*%
X126288800Y-93433900D03*
%TO.P,J2,6*%
%TO.N,/sdo*%
X126288800Y-90893900D03*
%TO.P,J2,5*%
%TO.N,/clk*%
X126288800Y-88353900D03*
%TO.P,J2,4*%
%TO.N,/csn*%
X126288800Y-85813900D03*
%TO.P,J2,3*%
%TO.N,/sck*%
X126288800Y-83273900D03*
%TO.P,J2,2*%
%TO.N,/sdi*%
X126288800Y-80733900D03*
D11*
%TO.P,J2,1*%
%TO.N,/en*%
X126288800Y-78193900D03*
%TD*%
D13*
%TO.N,GND*%
X132524500Y-81851500D03*
X129984500Y-81851500D03*
X130873500Y-94361000D03*
X127762000Y-84899500D03*
X136779000Y-81851500D03*
X129032000Y-95631000D03*
X130873500Y-95631000D03*
X132588000Y-95694500D03*
X135001000Y-95694500D03*
X129032000Y-94424500D03*
X132588000Y-94297500D03*
X127952500Y-81851500D03*
%TO.N,/Diag1*%
X135128000Y-88518996D03*
%TD*%
D14*
%TO.N,GND*%
X135001000Y-90265000D02*
X135065000Y-90201000D01*
X135001000Y-94297500D02*
X135001000Y-90265000D01*
X132588000Y-90264000D02*
X132525000Y-90201000D01*
X132588000Y-94107000D02*
X132588000Y-90264000D01*
X129159000Y-94107000D02*
X129032000Y-94234000D01*
X132588000Y-94107000D02*
X129159000Y-94107000D01*
X136335000Y-81152500D02*
X136779000Y-80708500D01*
X136335000Y-86141000D02*
X136335000Y-81152500D01*
%TO.N,/ENCN*%
X131762500Y-88074500D02*
X130683000Y-88074500D01*
X132524500Y-87312500D02*
X131762500Y-88074500D01*
X129985000Y-88772500D02*
X129985000Y-90201000D01*
X132524500Y-85471000D02*
X132524500Y-87312500D01*
X131191000Y-84137500D02*
X132524500Y-85471000D01*
X131191000Y-81534000D02*
X131191000Y-84137500D01*
X129540000Y-79883000D02*
X131191000Y-81534000D01*
X130683000Y-88074500D02*
X129985000Y-88772500D01*
X129540000Y-78181200D02*
X129540000Y-79883000D01*
%TO.N,VCC*%
X137605000Y-95441000D02*
X137605000Y-90201000D01*
X138176000Y-96012000D02*
X137605000Y-95441000D01*
X138938000Y-96012000D02*
X138176000Y-96012000D01*
%TO.N,/Diag1*%
X135128000Y-85725000D02*
X135128000Y-88518996D01*
X133731000Y-84328000D02*
X135128000Y-85725000D01*
X133731000Y-81534000D02*
X133731000Y-84328000D01*
X132080000Y-79883000D02*
X133731000Y-81534000D01*
X132080000Y-78181200D02*
X132080000Y-79883000D01*
%TO.N,/en*%
X126288800Y-78193900D02*
X126644400Y-78193900D01*
X129576981Y-91413481D02*
X130904500Y-92741000D01*
X128333500Y-90805000D02*
X128941981Y-91413481D01*
X130904500Y-92741000D02*
X131255000Y-92741000D01*
X128333500Y-88963500D02*
X128333500Y-90805000D01*
X128651000Y-84137500D02*
X129984500Y-85471000D01*
X128941981Y-91413481D02*
X129576981Y-91413481D01*
X129984500Y-85471000D02*
X129984500Y-87312500D01*
X128651000Y-80327500D02*
X128651000Y-84137500D01*
X129984500Y-87312500D02*
X128333500Y-88963500D01*
X126517400Y-78193900D02*
X128651000Y-80327500D01*
X126288800Y-78193900D02*
X126517400Y-78193900D01*
%TO.N,/step*%
X133795000Y-94551000D02*
X133795000Y-92741000D01*
X133286500Y-95059500D02*
X133795000Y-94551000D01*
X127914400Y-95059500D02*
X133286500Y-95059500D01*
X126288800Y-93433900D02*
X127914400Y-95059500D01*
%TO.N,/dir*%
X126707900Y-96393000D02*
X126288800Y-95973900D01*
X135255000Y-96393000D02*
X126707900Y-96393000D01*
X136335000Y-95313000D02*
X135255000Y-96393000D01*
X136335000Y-92741000D02*
X136335000Y-95313000D01*
%TD*%
D15*
%TO.N,GND*%
X137755957Y-77343900D02*
X137755957Y-79043900D01*
X137763313Y-79118589D01*
X137785099Y-79190408D01*
X137820478Y-79256596D01*
X137868089Y-79314611D01*
X137926104Y-79362222D01*
X137992292Y-79397601D01*
X138064111Y-79419387D01*
X138138800Y-79426743D01*
X139838800Y-79426743D01*
X139878200Y-79422863D01*
X139878201Y-95211304D01*
X139722717Y-95055820D01*
X139521097Y-94921102D01*
X139297069Y-94828307D01*
X139059243Y-94781000D01*
X138816757Y-94781000D01*
X138578931Y-94828307D01*
X138354903Y-94921102D01*
X138153283Y-95055820D01*
X138111000Y-95098103D01*
X138111000Y-91323832D01*
X138188097Y-91291898D01*
X138389717Y-91157180D01*
X138561180Y-90985717D01*
X138695898Y-90784097D01*
X138788693Y-90560069D01*
X138836000Y-90322243D01*
X138836000Y-90079757D01*
X138788693Y-89841931D01*
X138695898Y-89617903D01*
X138561180Y-89416283D01*
X138389717Y-89244820D01*
X138188097Y-89110102D01*
X137964069Y-89017307D01*
X137726243Y-88970000D01*
X137483757Y-88970000D01*
X137245931Y-89017307D01*
X137021903Y-89110102D01*
X136820283Y-89244820D01*
X136648820Y-89416283D01*
X136514102Y-89617903D01*
X136421307Y-89841931D01*
X136374000Y-90079757D01*
X136374000Y-90322243D01*
X136421307Y-90560069D01*
X136514102Y-90784097D01*
X136648820Y-90985717D01*
X136820283Y-91157180D01*
X137021903Y-91291898D01*
X137099001Y-91323833D01*
X137099001Y-91770978D01*
X136918097Y-91650102D01*
X136694069Y-91557307D01*
X136456243Y-91510000D01*
X136213757Y-91510000D01*
X135975931Y-91557307D01*
X135751903Y-91650102D01*
X135550283Y-91784820D01*
X135378820Y-91956283D01*
X135244102Y-92157903D01*
X135151307Y-92381931D01*
X135104000Y-92619757D01*
X135104000Y-92862243D01*
X135151307Y-93100069D01*
X135244102Y-93324097D01*
X135378820Y-93525717D01*
X135550283Y-93697180D01*
X135751903Y-93831898D01*
X135829000Y-93863833D01*
X135829001Y-95103407D01*
X135045409Y-95887000D01*
X127519800Y-95887000D01*
X127519800Y-95852657D01*
X127472493Y-95614831D01*
X127379698Y-95390803D01*
X127244980Y-95189183D01*
X127073517Y-95017720D01*
X126871897Y-94883002D01*
X126647869Y-94790207D01*
X126410043Y-94742900D01*
X126167557Y-94742900D01*
X125929731Y-94790207D01*
X125705703Y-94883002D01*
X125504083Y-95017720D01*
X125386700Y-95135103D01*
X125386700Y-94272697D01*
X125504083Y-94390080D01*
X125705703Y-94524798D01*
X125929731Y-94617593D01*
X126167557Y-94664900D01*
X126410043Y-94664900D01*
X126647869Y-94617593D01*
X126724967Y-94585658D01*
X127539028Y-95399720D01*
X127554873Y-95419027D01*
X127631921Y-95482259D01*
X127719825Y-95529245D01*
X127815207Y-95558178D01*
X127914400Y-95567948D01*
X127939254Y-95565500D01*
X133261654Y-95565500D01*
X133286500Y-95567947D01*
X133311346Y-95565500D01*
X133311354Y-95565500D01*
X133385693Y-95558178D01*
X133481075Y-95529245D01*
X133568979Y-95482259D01*
X133646027Y-95419027D01*
X133661876Y-95399715D01*
X134135220Y-94926372D01*
X134154527Y-94910527D01*
X134217759Y-94833479D01*
X134264745Y-94745575D01*
X134293678Y-94650193D01*
X134301000Y-94575854D01*
X134301000Y-94575853D01*
X134303448Y-94551000D01*
X134301000Y-94526146D01*
X134301000Y-93863832D01*
X134378097Y-93831898D01*
X134579717Y-93697180D01*
X134751180Y-93525717D01*
X134885898Y-93324097D01*
X134978693Y-93100069D01*
X135026000Y-92862243D01*
X135026000Y-92619757D01*
X134978693Y-92381931D01*
X134885898Y-92157903D01*
X134751180Y-91956283D01*
X134579717Y-91784820D01*
X134378097Y-91650102D01*
X134154069Y-91557307D01*
X133916243Y-91510000D01*
X133673757Y-91510000D01*
X133435931Y-91557307D01*
X133211903Y-91650102D01*
X133010283Y-91784820D01*
X132838820Y-91956283D01*
X132704102Y-92157903D01*
X132611307Y-92381931D01*
X132564000Y-92619757D01*
X132564000Y-92862243D01*
X132611307Y-93100069D01*
X132704102Y-93324097D01*
X132838820Y-93525717D01*
X133010283Y-93697180D01*
X133211903Y-93831898D01*
X133289000Y-93863833D01*
X133289000Y-94341408D01*
X133076909Y-94553500D01*
X128123992Y-94553500D01*
X127440558Y-93870067D01*
X127472493Y-93792969D01*
X127519800Y-93555143D01*
X127519800Y-93312657D01*
X127472493Y-93074831D01*
X127379698Y-92850803D01*
X127244980Y-92649183D01*
X127073517Y-92477720D01*
X126871897Y-92343002D01*
X126647869Y-92250207D01*
X126410043Y-92202900D01*
X126167557Y-92202900D01*
X125929731Y-92250207D01*
X125705703Y-92343002D01*
X125504083Y-92477720D01*
X125386700Y-92595103D01*
X125386700Y-91732697D01*
X125504083Y-91850080D01*
X125705703Y-91984798D01*
X125929731Y-92077593D01*
X126167557Y-92124900D01*
X126410043Y-92124900D01*
X126647869Y-92077593D01*
X126871897Y-91984798D01*
X127073517Y-91850080D01*
X127244980Y-91678617D01*
X127379698Y-91476997D01*
X127472493Y-91252969D01*
X127519800Y-91015143D01*
X127519800Y-90772657D01*
X127472493Y-90534831D01*
X127379698Y-90310803D01*
X127244980Y-90109183D01*
X127073517Y-89937720D01*
X126871897Y-89803002D01*
X126647869Y-89710207D01*
X126410043Y-89662900D01*
X126167557Y-89662900D01*
X125929731Y-89710207D01*
X125705703Y-89803002D01*
X125504083Y-89937720D01*
X125386700Y-90055103D01*
X125386700Y-89192697D01*
X125504083Y-89310080D01*
X125705703Y-89444798D01*
X125929731Y-89537593D01*
X126167557Y-89584900D01*
X126410043Y-89584900D01*
X126647869Y-89537593D01*
X126871897Y-89444798D01*
X127073517Y-89310080D01*
X127244980Y-89138617D01*
X127379698Y-88936997D01*
X127472493Y-88712969D01*
X127519800Y-88475143D01*
X127519800Y-88232657D01*
X127472493Y-87994831D01*
X127379698Y-87770803D01*
X127244980Y-87569183D01*
X127073517Y-87397720D01*
X126871897Y-87263002D01*
X126647869Y-87170207D01*
X126410043Y-87122900D01*
X126167557Y-87122900D01*
X125929731Y-87170207D01*
X125705703Y-87263002D01*
X125504083Y-87397720D01*
X125386700Y-87515103D01*
X125386700Y-86652697D01*
X125504083Y-86770080D01*
X125705703Y-86904798D01*
X125929731Y-86997593D01*
X126167557Y-87044900D01*
X126410043Y-87044900D01*
X126647869Y-86997593D01*
X126871897Y-86904798D01*
X127073517Y-86770080D01*
X127244980Y-86598617D01*
X127379698Y-86396997D01*
X127472493Y-86172969D01*
X127519800Y-85935143D01*
X127519800Y-85692657D01*
X127472493Y-85454831D01*
X127379698Y-85230803D01*
X127244980Y-85029183D01*
X127073517Y-84857720D01*
X126871897Y-84723002D01*
X126647869Y-84630207D01*
X126410043Y-84582900D01*
X126167557Y-84582900D01*
X125929731Y-84630207D01*
X125705703Y-84723002D01*
X125504083Y-84857720D01*
X125386700Y-84975103D01*
X125386700Y-84112697D01*
X125504083Y-84230080D01*
X125705703Y-84364798D01*
X125929731Y-84457593D01*
X126167557Y-84504900D01*
X126410043Y-84504900D01*
X126647869Y-84457593D01*
X126871897Y-84364798D01*
X127073517Y-84230080D01*
X127244980Y-84058617D01*
X127379698Y-83856997D01*
X127472493Y-83632969D01*
X127519800Y-83395143D01*
X127519800Y-83152657D01*
X127472493Y-82914831D01*
X127379698Y-82690803D01*
X127244980Y-82489183D01*
X127073517Y-82317720D01*
X126871897Y-82183002D01*
X126647869Y-82090207D01*
X126410043Y-82042900D01*
X126167557Y-82042900D01*
X125929731Y-82090207D01*
X125705703Y-82183002D01*
X125504083Y-82317720D01*
X125386700Y-82435103D01*
X125386700Y-81572697D01*
X125504083Y-81690080D01*
X125705703Y-81824798D01*
X125929731Y-81917593D01*
X126167557Y-81964900D01*
X126410043Y-81964900D01*
X126647869Y-81917593D01*
X126871897Y-81824798D01*
X127073517Y-81690080D01*
X127244980Y-81518617D01*
X127379698Y-81316997D01*
X127472493Y-81092969D01*
X127519800Y-80855143D01*
X127519800Y-80612657D01*
X127472493Y-80374831D01*
X127379698Y-80150803D01*
X127244980Y-79949183D01*
X127073517Y-79777720D01*
X126871897Y-79643002D01*
X126647869Y-79550207D01*
X126410043Y-79502900D01*
X126167557Y-79502900D01*
X125929731Y-79550207D01*
X125705703Y-79643002D01*
X125504083Y-79777720D01*
X125386700Y-79895103D01*
X125386700Y-79421612D01*
X125438800Y-79426743D01*
X127034652Y-79426743D01*
X128145000Y-80537092D01*
X128145001Y-84112644D01*
X128142553Y-84137500D01*
X128152322Y-84236692D01*
X128181255Y-84332074D01*
X128198747Y-84364798D01*
X128228242Y-84419979D01*
X128291474Y-84497027D01*
X128310780Y-84512871D01*
X129478500Y-85680592D01*
X129478501Y-87102907D01*
X127993285Y-88588124D01*
X127973973Y-88603973D01*
X127910741Y-88681021D01*
X127863755Y-88768926D01*
X127834822Y-88864308D01*
X127827500Y-88938647D01*
X127827500Y-88938654D01*
X127825053Y-88963500D01*
X127827500Y-88988346D01*
X127827501Y-90780144D01*
X127825053Y-90805000D01*
X127834822Y-90904192D01*
X127863755Y-90999574D01*
X127863756Y-90999575D01*
X127910742Y-91087479D01*
X127973974Y-91164527D01*
X127993280Y-91180371D01*
X128367845Y-91554937D01*
X128355931Y-91557307D01*
X128131903Y-91650102D01*
X127930283Y-91784820D01*
X127758820Y-91956283D01*
X127624102Y-92157903D01*
X127531307Y-92381931D01*
X127484000Y-92619757D01*
X127484000Y-92862243D01*
X127531307Y-93100069D01*
X127624102Y-93324097D01*
X127758820Y-93525717D01*
X127930283Y-93697180D01*
X128131903Y-93831898D01*
X128355931Y-93924693D01*
X128593757Y-93972000D01*
X128836243Y-93972000D01*
X129074069Y-93924693D01*
X129298097Y-93831898D01*
X129499717Y-93697180D01*
X129671180Y-93525717D01*
X129805898Y-93324097D01*
X129898693Y-93100069D01*
X129946000Y-92862243D01*
X129946000Y-92619757D01*
X129915790Y-92467881D01*
X130031245Y-92583336D01*
X130024000Y-92619757D01*
X130024000Y-92862243D01*
X130071307Y-93100069D01*
X130164102Y-93324097D01*
X130298820Y-93525717D01*
X130470283Y-93697180D01*
X130671903Y-93831898D01*
X130895931Y-93924693D01*
X131133757Y-93972000D01*
X131376243Y-93972000D01*
X131614069Y-93924693D01*
X131838097Y-93831898D01*
X132039717Y-93697180D01*
X132211180Y-93525717D01*
X132345898Y-93324097D01*
X132438693Y-93100069D01*
X132486000Y-92862243D01*
X132486000Y-92619757D01*
X132438693Y-92381931D01*
X132345898Y-92157903D01*
X132211180Y-91956283D01*
X132039717Y-91784820D01*
X131838097Y-91650102D01*
X131614069Y-91557307D01*
X131376243Y-91510000D01*
X131133757Y-91510000D01*
X130895931Y-91557307D01*
X130671903Y-91650102D01*
X130586355Y-91707263D01*
X130277104Y-91398013D01*
X130344069Y-91384693D01*
X130568097Y-91291898D01*
X130769717Y-91157180D01*
X130941180Y-90985717D01*
X131075898Y-90784097D01*
X131168693Y-90560069D01*
X131216000Y-90322243D01*
X131216000Y-90079757D01*
X131168693Y-89841931D01*
X131075898Y-89617903D01*
X130941180Y-89416283D01*
X130769717Y-89244820D01*
X130568097Y-89110102D01*
X130491000Y-89078168D01*
X130491000Y-88982091D01*
X130892592Y-88580500D01*
X131737654Y-88580500D01*
X131762500Y-88582947D01*
X131787346Y-88580500D01*
X131787354Y-88580500D01*
X131861693Y-88573178D01*
X131957075Y-88544245D01*
X132044979Y-88497259D01*
X132122027Y-88434027D01*
X132137876Y-88414715D01*
X132864720Y-87687872D01*
X132884027Y-87672027D01*
X132947259Y-87594979D01*
X132994245Y-87507075D01*
X133023178Y-87411693D01*
X133030500Y-87337354D01*
X133032948Y-87312500D01*
X133030500Y-87287646D01*
X133030500Y-85495854D01*
X133032948Y-85471000D01*
X133023178Y-85371807D01*
X132994245Y-85276425D01*
X132967464Y-85226322D01*
X132947259Y-85188521D01*
X132884027Y-85111473D01*
X132864720Y-85095628D01*
X132601092Y-84832000D01*
X132646243Y-84832000D01*
X132884069Y-84784693D01*
X133108097Y-84691898D01*
X133287638Y-84571932D01*
X133308242Y-84610479D01*
X133371474Y-84687527D01*
X133390780Y-84703372D01*
X134622000Y-85934592D01*
X134622001Y-88061916D01*
X134599033Y-88084884D01*
X134524506Y-88196422D01*
X134473171Y-88320356D01*
X134447000Y-88451923D01*
X134447000Y-88586069D01*
X134473171Y-88717636D01*
X134524506Y-88841570D01*
X134599033Y-88953108D01*
X134693888Y-89047963D01*
X134805426Y-89122490D01*
X134929360Y-89173825D01*
X135060927Y-89199996D01*
X135195073Y-89199996D01*
X135326640Y-89173825D01*
X135450574Y-89122490D01*
X135562112Y-89047963D01*
X135656967Y-88953108D01*
X135731494Y-88841570D01*
X135782829Y-88717636D01*
X135809000Y-88586069D01*
X135809000Y-88451923D01*
X135782829Y-88320356D01*
X135731494Y-88196422D01*
X135656967Y-88084884D01*
X135634000Y-88061917D01*
X135634000Y-85749845D01*
X135636447Y-85724999D01*
X135634000Y-85700153D01*
X135634000Y-85700146D01*
X135626678Y-85625807D01*
X135597745Y-85530425D01*
X135550759Y-85442521D01*
X135487527Y-85365473D01*
X135468220Y-85349628D01*
X134950592Y-84832000D01*
X135186243Y-84832000D01*
X135424069Y-84784693D01*
X135648097Y-84691898D01*
X135849717Y-84557180D01*
X136021180Y-84385717D01*
X136155898Y-84184097D01*
X136248693Y-83960069D01*
X136296000Y-83722243D01*
X136296000Y-83479757D01*
X136374000Y-83479757D01*
X136374000Y-83722243D01*
X136421307Y-83960069D01*
X136514102Y-84184097D01*
X136648820Y-84385717D01*
X136820283Y-84557180D01*
X137021903Y-84691898D01*
X137245931Y-84784693D01*
X137483757Y-84832000D01*
X137726243Y-84832000D01*
X137964069Y-84784693D01*
X138188097Y-84691898D01*
X138389717Y-84557180D01*
X138561180Y-84385717D01*
X138695898Y-84184097D01*
X138788693Y-83960069D01*
X138836000Y-83722243D01*
X138836000Y-83479757D01*
X138788693Y-83241931D01*
X138695898Y-83017903D01*
X138561180Y-82816283D01*
X138389717Y-82644820D01*
X138188097Y-82510102D01*
X137964069Y-82417307D01*
X137726243Y-82370000D01*
X137483757Y-82370000D01*
X137245931Y-82417307D01*
X137021903Y-82510102D01*
X136820283Y-82644820D01*
X136648820Y-82816283D01*
X136514102Y-83017903D01*
X136421307Y-83241931D01*
X136374000Y-83479757D01*
X136296000Y-83479757D01*
X136248693Y-83241931D01*
X136155898Y-83017903D01*
X136021180Y-82816283D01*
X135849717Y-82644820D01*
X135648097Y-82510102D01*
X135424069Y-82417307D01*
X135186243Y-82370000D01*
X134943757Y-82370000D01*
X134705931Y-82417307D01*
X134481903Y-82510102D01*
X134280283Y-82644820D01*
X134237000Y-82688103D01*
X134237000Y-81558854D01*
X134239448Y-81534000D01*
X134229678Y-81434807D01*
X134200745Y-81339425D01*
X134188757Y-81316997D01*
X134153759Y-81251521D01*
X134090527Y-81174473D01*
X134071220Y-81158628D01*
X132586000Y-79673409D01*
X132586000Y-79414043D01*
X132930000Y-79414043D01*
X133004689Y-79406687D01*
X133076508Y-79384901D01*
X133142696Y-79349522D01*
X133200711Y-79301911D01*
X133248322Y-79243896D01*
X133283701Y-79177708D01*
X133305487Y-79105889D01*
X133312843Y-79031200D01*
X133312843Y-77331200D01*
X133310213Y-77304500D01*
X137759837Y-77304500D01*
X137755957Y-77343900D01*
%TA.AperFunction,Conductor*%
D16*
G36*
X137755957Y-77343900D02*
G01*
X137755957Y-79043900D01*
X137763313Y-79118589D01*
X137785099Y-79190408D01*
X137820478Y-79256596D01*
X137868089Y-79314611D01*
X137926104Y-79362222D01*
X137992292Y-79397601D01*
X138064111Y-79419387D01*
X138138800Y-79426743D01*
X139838800Y-79426743D01*
X139878200Y-79422863D01*
X139878201Y-95211304D01*
X139722717Y-95055820D01*
X139521097Y-94921102D01*
X139297069Y-94828307D01*
X139059243Y-94781000D01*
X138816757Y-94781000D01*
X138578931Y-94828307D01*
X138354903Y-94921102D01*
X138153283Y-95055820D01*
X138111000Y-95098103D01*
X138111000Y-91323832D01*
X138188097Y-91291898D01*
X138389717Y-91157180D01*
X138561180Y-90985717D01*
X138695898Y-90784097D01*
X138788693Y-90560069D01*
X138836000Y-90322243D01*
X138836000Y-90079757D01*
X138788693Y-89841931D01*
X138695898Y-89617903D01*
X138561180Y-89416283D01*
X138389717Y-89244820D01*
X138188097Y-89110102D01*
X137964069Y-89017307D01*
X137726243Y-88970000D01*
X137483757Y-88970000D01*
X137245931Y-89017307D01*
X137021903Y-89110102D01*
X136820283Y-89244820D01*
X136648820Y-89416283D01*
X136514102Y-89617903D01*
X136421307Y-89841931D01*
X136374000Y-90079757D01*
X136374000Y-90322243D01*
X136421307Y-90560069D01*
X136514102Y-90784097D01*
X136648820Y-90985717D01*
X136820283Y-91157180D01*
X137021903Y-91291898D01*
X137099001Y-91323833D01*
X137099001Y-91770978D01*
X136918097Y-91650102D01*
X136694069Y-91557307D01*
X136456243Y-91510000D01*
X136213757Y-91510000D01*
X135975931Y-91557307D01*
X135751903Y-91650102D01*
X135550283Y-91784820D01*
X135378820Y-91956283D01*
X135244102Y-92157903D01*
X135151307Y-92381931D01*
X135104000Y-92619757D01*
X135104000Y-92862243D01*
X135151307Y-93100069D01*
X135244102Y-93324097D01*
X135378820Y-93525717D01*
X135550283Y-93697180D01*
X135751903Y-93831898D01*
X135829000Y-93863833D01*
X135829001Y-95103407D01*
X135045409Y-95887000D01*
X127519800Y-95887000D01*
X127519800Y-95852657D01*
X127472493Y-95614831D01*
X127379698Y-95390803D01*
X127244980Y-95189183D01*
X127073517Y-95017720D01*
X126871897Y-94883002D01*
X126647869Y-94790207D01*
X126410043Y-94742900D01*
X126167557Y-94742900D01*
X125929731Y-94790207D01*
X125705703Y-94883002D01*
X125504083Y-95017720D01*
X125386700Y-95135103D01*
X125386700Y-94272697D01*
X125504083Y-94390080D01*
X125705703Y-94524798D01*
X125929731Y-94617593D01*
X126167557Y-94664900D01*
X126410043Y-94664900D01*
X126647869Y-94617593D01*
X126724967Y-94585658D01*
X127539028Y-95399720D01*
X127554873Y-95419027D01*
X127631921Y-95482259D01*
X127719825Y-95529245D01*
X127815207Y-95558178D01*
X127914400Y-95567948D01*
X127939254Y-95565500D01*
X133261654Y-95565500D01*
X133286500Y-95567947D01*
X133311346Y-95565500D01*
X133311354Y-95565500D01*
X133385693Y-95558178D01*
X133481075Y-95529245D01*
X133568979Y-95482259D01*
X133646027Y-95419027D01*
X133661876Y-95399715D01*
X134135220Y-94926372D01*
X134154527Y-94910527D01*
X134217759Y-94833479D01*
X134264745Y-94745575D01*
X134293678Y-94650193D01*
X134301000Y-94575854D01*
X134301000Y-94575853D01*
X134303448Y-94551000D01*
X134301000Y-94526146D01*
X134301000Y-93863832D01*
X134378097Y-93831898D01*
X134579717Y-93697180D01*
X134751180Y-93525717D01*
X134885898Y-93324097D01*
X134978693Y-93100069D01*
X135026000Y-92862243D01*
X135026000Y-92619757D01*
X134978693Y-92381931D01*
X134885898Y-92157903D01*
X134751180Y-91956283D01*
X134579717Y-91784820D01*
X134378097Y-91650102D01*
X134154069Y-91557307D01*
X133916243Y-91510000D01*
X133673757Y-91510000D01*
X133435931Y-91557307D01*
X133211903Y-91650102D01*
X133010283Y-91784820D01*
X132838820Y-91956283D01*
X132704102Y-92157903D01*
X132611307Y-92381931D01*
X132564000Y-92619757D01*
X132564000Y-92862243D01*
X132611307Y-93100069D01*
X132704102Y-93324097D01*
X132838820Y-93525717D01*
X133010283Y-93697180D01*
X133211903Y-93831898D01*
X133289000Y-93863833D01*
X133289000Y-94341408D01*
X133076909Y-94553500D01*
X128123992Y-94553500D01*
X127440558Y-93870067D01*
X127472493Y-93792969D01*
X127519800Y-93555143D01*
X127519800Y-93312657D01*
X127472493Y-93074831D01*
X127379698Y-92850803D01*
X127244980Y-92649183D01*
X127073517Y-92477720D01*
X126871897Y-92343002D01*
X126647869Y-92250207D01*
X126410043Y-92202900D01*
X126167557Y-92202900D01*
X125929731Y-92250207D01*
X125705703Y-92343002D01*
X125504083Y-92477720D01*
X125386700Y-92595103D01*
X125386700Y-91732697D01*
X125504083Y-91850080D01*
X125705703Y-91984798D01*
X125929731Y-92077593D01*
X126167557Y-92124900D01*
X126410043Y-92124900D01*
X126647869Y-92077593D01*
X126871897Y-91984798D01*
X127073517Y-91850080D01*
X127244980Y-91678617D01*
X127379698Y-91476997D01*
X127472493Y-91252969D01*
X127519800Y-91015143D01*
X127519800Y-90772657D01*
X127472493Y-90534831D01*
X127379698Y-90310803D01*
X127244980Y-90109183D01*
X127073517Y-89937720D01*
X126871897Y-89803002D01*
X126647869Y-89710207D01*
X126410043Y-89662900D01*
X126167557Y-89662900D01*
X125929731Y-89710207D01*
X125705703Y-89803002D01*
X125504083Y-89937720D01*
X125386700Y-90055103D01*
X125386700Y-89192697D01*
X125504083Y-89310080D01*
X125705703Y-89444798D01*
X125929731Y-89537593D01*
X126167557Y-89584900D01*
X126410043Y-89584900D01*
X126647869Y-89537593D01*
X126871897Y-89444798D01*
X127073517Y-89310080D01*
X127244980Y-89138617D01*
X127379698Y-88936997D01*
X127472493Y-88712969D01*
X127519800Y-88475143D01*
X127519800Y-88232657D01*
X127472493Y-87994831D01*
X127379698Y-87770803D01*
X127244980Y-87569183D01*
X127073517Y-87397720D01*
X126871897Y-87263002D01*
X126647869Y-87170207D01*
X126410043Y-87122900D01*
X126167557Y-87122900D01*
X125929731Y-87170207D01*
X125705703Y-87263002D01*
X125504083Y-87397720D01*
X125386700Y-87515103D01*
X125386700Y-86652697D01*
X125504083Y-86770080D01*
X125705703Y-86904798D01*
X125929731Y-86997593D01*
X126167557Y-87044900D01*
X126410043Y-87044900D01*
X126647869Y-86997593D01*
X126871897Y-86904798D01*
X127073517Y-86770080D01*
X127244980Y-86598617D01*
X127379698Y-86396997D01*
X127472493Y-86172969D01*
X127519800Y-85935143D01*
X127519800Y-85692657D01*
X127472493Y-85454831D01*
X127379698Y-85230803D01*
X127244980Y-85029183D01*
X127073517Y-84857720D01*
X126871897Y-84723002D01*
X126647869Y-84630207D01*
X126410043Y-84582900D01*
X126167557Y-84582900D01*
X125929731Y-84630207D01*
X125705703Y-84723002D01*
X125504083Y-84857720D01*
X125386700Y-84975103D01*
X125386700Y-84112697D01*
X125504083Y-84230080D01*
X125705703Y-84364798D01*
X125929731Y-84457593D01*
X126167557Y-84504900D01*
X126410043Y-84504900D01*
X126647869Y-84457593D01*
X126871897Y-84364798D01*
X127073517Y-84230080D01*
X127244980Y-84058617D01*
X127379698Y-83856997D01*
X127472493Y-83632969D01*
X127519800Y-83395143D01*
X127519800Y-83152657D01*
X127472493Y-82914831D01*
X127379698Y-82690803D01*
X127244980Y-82489183D01*
X127073517Y-82317720D01*
X126871897Y-82183002D01*
X126647869Y-82090207D01*
X126410043Y-82042900D01*
X126167557Y-82042900D01*
X125929731Y-82090207D01*
X125705703Y-82183002D01*
X125504083Y-82317720D01*
X125386700Y-82435103D01*
X125386700Y-81572697D01*
X125504083Y-81690080D01*
X125705703Y-81824798D01*
X125929731Y-81917593D01*
X126167557Y-81964900D01*
X126410043Y-81964900D01*
X126647869Y-81917593D01*
X126871897Y-81824798D01*
X127073517Y-81690080D01*
X127244980Y-81518617D01*
X127379698Y-81316997D01*
X127472493Y-81092969D01*
X127519800Y-80855143D01*
X127519800Y-80612657D01*
X127472493Y-80374831D01*
X127379698Y-80150803D01*
X127244980Y-79949183D01*
X127073517Y-79777720D01*
X126871897Y-79643002D01*
X126647869Y-79550207D01*
X126410043Y-79502900D01*
X126167557Y-79502900D01*
X125929731Y-79550207D01*
X125705703Y-79643002D01*
X125504083Y-79777720D01*
X125386700Y-79895103D01*
X125386700Y-79421612D01*
X125438800Y-79426743D01*
X127034652Y-79426743D01*
X128145000Y-80537092D01*
X128145001Y-84112644D01*
X128142553Y-84137500D01*
X128152322Y-84236692D01*
X128181255Y-84332074D01*
X128198747Y-84364798D01*
X128228242Y-84419979D01*
X128291474Y-84497027D01*
X128310780Y-84512871D01*
X129478500Y-85680592D01*
X129478501Y-87102907D01*
X127993285Y-88588124D01*
X127973973Y-88603973D01*
X127910741Y-88681021D01*
X127863755Y-88768926D01*
X127834822Y-88864308D01*
X127827500Y-88938647D01*
X127827500Y-88938654D01*
X127825053Y-88963500D01*
X127827500Y-88988346D01*
X127827501Y-90780144D01*
X127825053Y-90805000D01*
X127834822Y-90904192D01*
X127863755Y-90999574D01*
X127863756Y-90999575D01*
X127910742Y-91087479D01*
X127973974Y-91164527D01*
X127993280Y-91180371D01*
X128367845Y-91554937D01*
X128355931Y-91557307D01*
X128131903Y-91650102D01*
X127930283Y-91784820D01*
X127758820Y-91956283D01*
X127624102Y-92157903D01*
X127531307Y-92381931D01*
X127484000Y-92619757D01*
X127484000Y-92862243D01*
X127531307Y-93100069D01*
X127624102Y-93324097D01*
X127758820Y-93525717D01*
X127930283Y-93697180D01*
X128131903Y-93831898D01*
X128355931Y-93924693D01*
X128593757Y-93972000D01*
X128836243Y-93972000D01*
X129074069Y-93924693D01*
X129298097Y-93831898D01*
X129499717Y-93697180D01*
X129671180Y-93525717D01*
X129805898Y-93324097D01*
X129898693Y-93100069D01*
X129946000Y-92862243D01*
X129946000Y-92619757D01*
X129915790Y-92467881D01*
X130031245Y-92583336D01*
X130024000Y-92619757D01*
X130024000Y-92862243D01*
X130071307Y-93100069D01*
X130164102Y-93324097D01*
X130298820Y-93525717D01*
X130470283Y-93697180D01*
X130671903Y-93831898D01*
X130895931Y-93924693D01*
X131133757Y-93972000D01*
X131376243Y-93972000D01*
X131614069Y-93924693D01*
X131838097Y-93831898D01*
X132039717Y-93697180D01*
X132211180Y-93525717D01*
X132345898Y-93324097D01*
X132438693Y-93100069D01*
X132486000Y-92862243D01*
X132486000Y-92619757D01*
X132438693Y-92381931D01*
X132345898Y-92157903D01*
X132211180Y-91956283D01*
X132039717Y-91784820D01*
X131838097Y-91650102D01*
X131614069Y-91557307D01*
X131376243Y-91510000D01*
X131133757Y-91510000D01*
X130895931Y-91557307D01*
X130671903Y-91650102D01*
X130586355Y-91707263D01*
X130277104Y-91398013D01*
X130344069Y-91384693D01*
X130568097Y-91291898D01*
X130769717Y-91157180D01*
X130941180Y-90985717D01*
X131075898Y-90784097D01*
X131168693Y-90560069D01*
X131216000Y-90322243D01*
X131216000Y-90079757D01*
X131168693Y-89841931D01*
X131075898Y-89617903D01*
X130941180Y-89416283D01*
X130769717Y-89244820D01*
X130568097Y-89110102D01*
X130491000Y-89078168D01*
X130491000Y-88982091D01*
X130892592Y-88580500D01*
X131737654Y-88580500D01*
X131762500Y-88582947D01*
X131787346Y-88580500D01*
X131787354Y-88580500D01*
X131861693Y-88573178D01*
X131957075Y-88544245D01*
X132044979Y-88497259D01*
X132122027Y-88434027D01*
X132137876Y-88414715D01*
X132864720Y-87687872D01*
X132884027Y-87672027D01*
X132947259Y-87594979D01*
X132994245Y-87507075D01*
X133023178Y-87411693D01*
X133030500Y-87337354D01*
X133032948Y-87312500D01*
X133030500Y-87287646D01*
X133030500Y-85495854D01*
X133032948Y-85471000D01*
X133023178Y-85371807D01*
X132994245Y-85276425D01*
X132967464Y-85226322D01*
X132947259Y-85188521D01*
X132884027Y-85111473D01*
X132864720Y-85095628D01*
X132601092Y-84832000D01*
X132646243Y-84832000D01*
X132884069Y-84784693D01*
X133108097Y-84691898D01*
X133287638Y-84571932D01*
X133308242Y-84610479D01*
X133371474Y-84687527D01*
X133390780Y-84703372D01*
X134622000Y-85934592D01*
X134622001Y-88061916D01*
X134599033Y-88084884D01*
X134524506Y-88196422D01*
X134473171Y-88320356D01*
X134447000Y-88451923D01*
X134447000Y-88586069D01*
X134473171Y-88717636D01*
X134524506Y-88841570D01*
X134599033Y-88953108D01*
X134693888Y-89047963D01*
X134805426Y-89122490D01*
X134929360Y-89173825D01*
X135060927Y-89199996D01*
X135195073Y-89199996D01*
X135326640Y-89173825D01*
X135450574Y-89122490D01*
X135562112Y-89047963D01*
X135656967Y-88953108D01*
X135731494Y-88841570D01*
X135782829Y-88717636D01*
X135809000Y-88586069D01*
X135809000Y-88451923D01*
X135782829Y-88320356D01*
X135731494Y-88196422D01*
X135656967Y-88084884D01*
X135634000Y-88061917D01*
X135634000Y-85749845D01*
X135636447Y-85724999D01*
X135634000Y-85700153D01*
X135634000Y-85700146D01*
X135626678Y-85625807D01*
X135597745Y-85530425D01*
X135550759Y-85442521D01*
X135487527Y-85365473D01*
X135468220Y-85349628D01*
X134950592Y-84832000D01*
X135186243Y-84832000D01*
X135424069Y-84784693D01*
X135648097Y-84691898D01*
X135849717Y-84557180D01*
X136021180Y-84385717D01*
X136155898Y-84184097D01*
X136248693Y-83960069D01*
X136296000Y-83722243D01*
X136296000Y-83479757D01*
X136374000Y-83479757D01*
X136374000Y-83722243D01*
X136421307Y-83960069D01*
X136514102Y-84184097D01*
X136648820Y-84385717D01*
X136820283Y-84557180D01*
X137021903Y-84691898D01*
X137245931Y-84784693D01*
X137483757Y-84832000D01*
X137726243Y-84832000D01*
X137964069Y-84784693D01*
X138188097Y-84691898D01*
X138389717Y-84557180D01*
X138561180Y-84385717D01*
X138695898Y-84184097D01*
X138788693Y-83960069D01*
X138836000Y-83722243D01*
X138836000Y-83479757D01*
X138788693Y-83241931D01*
X138695898Y-83017903D01*
X138561180Y-82816283D01*
X138389717Y-82644820D01*
X138188097Y-82510102D01*
X137964069Y-82417307D01*
X137726243Y-82370000D01*
X137483757Y-82370000D01*
X137245931Y-82417307D01*
X137021903Y-82510102D01*
X136820283Y-82644820D01*
X136648820Y-82816283D01*
X136514102Y-83017903D01*
X136421307Y-83241931D01*
X136374000Y-83479757D01*
X136296000Y-83479757D01*
X136248693Y-83241931D01*
X136155898Y-83017903D01*
X136021180Y-82816283D01*
X135849717Y-82644820D01*
X135648097Y-82510102D01*
X135424069Y-82417307D01*
X135186243Y-82370000D01*
X134943757Y-82370000D01*
X134705931Y-82417307D01*
X134481903Y-82510102D01*
X134280283Y-82644820D01*
X134237000Y-82688103D01*
X134237000Y-81558854D01*
X134239448Y-81534000D01*
X134229678Y-81434807D01*
X134200745Y-81339425D01*
X134188757Y-81316997D01*
X134153759Y-81251521D01*
X134090527Y-81174473D01*
X134071220Y-81158628D01*
X132586000Y-79673409D01*
X132586000Y-79414043D01*
X132930000Y-79414043D01*
X133004689Y-79406687D01*
X133076508Y-79384901D01*
X133142696Y-79349522D01*
X133200711Y-79301911D01*
X133248322Y-79243896D01*
X133283701Y-79177708D01*
X133305487Y-79105889D01*
X133312843Y-79031200D01*
X133312843Y-77331200D01*
X133310213Y-77304500D01*
X137759837Y-77304500D01*
X137755957Y-77343900D01*
G37*
%TD.AperFunction*%
D15*
X130831474Y-84497027D02*
X130850780Y-84512871D01*
X132018500Y-85680592D01*
X132018501Y-87102907D01*
X131552909Y-87568500D01*
X130707845Y-87568500D01*
X130682999Y-87566053D01*
X130658153Y-87568500D01*
X130658146Y-87568500D01*
X130583807Y-87575822D01*
X130488425Y-87604755D01*
X130400521Y-87651741D01*
X130323473Y-87714973D01*
X130307629Y-87734279D01*
X129644785Y-88397124D01*
X129625473Y-88412973D01*
X129562241Y-88490021D01*
X129515255Y-88577926D01*
X129486322Y-88673308D01*
X129479000Y-88747647D01*
X129479000Y-88747654D01*
X129476553Y-88772500D01*
X129479000Y-88797347D01*
X129479000Y-89078167D01*
X129401903Y-89110102D01*
X129200283Y-89244820D01*
X129028820Y-89416283D01*
X128894102Y-89617903D01*
X128839500Y-89749725D01*
X128839500Y-89173091D01*
X130324720Y-87687872D01*
X130344027Y-87672027D01*
X130407259Y-87594979D01*
X130454245Y-87507075D01*
X130483178Y-87411693D01*
X130490500Y-87337354D01*
X130492948Y-87312500D01*
X130490500Y-87287646D01*
X130490500Y-85495854D01*
X130492948Y-85471000D01*
X130483178Y-85371807D01*
X130454245Y-85276425D01*
X130427464Y-85226322D01*
X130407259Y-85188521D01*
X130344027Y-85111473D01*
X130324720Y-85095628D01*
X130061092Y-84832000D01*
X130106243Y-84832000D01*
X130344069Y-84784693D01*
X130568097Y-84691898D01*
X130769717Y-84557180D01*
X130830751Y-84496146D01*
X130831474Y-84497027D01*
%TA.AperFunction,Conductor*%
D16*
G36*
X130831474Y-84497027D02*
G01*
X130850780Y-84512871D01*
X132018500Y-85680592D01*
X132018501Y-87102907D01*
X131552909Y-87568500D01*
X130707845Y-87568500D01*
X130682999Y-87566053D01*
X130658153Y-87568500D01*
X130658146Y-87568500D01*
X130583807Y-87575822D01*
X130488425Y-87604755D01*
X130400521Y-87651741D01*
X130323473Y-87714973D01*
X130307629Y-87734279D01*
X129644785Y-88397124D01*
X129625473Y-88412973D01*
X129562241Y-88490021D01*
X129515255Y-88577926D01*
X129486322Y-88673308D01*
X129479000Y-88747647D01*
X129479000Y-88747654D01*
X129476553Y-88772500D01*
X129479000Y-88797347D01*
X129479000Y-89078167D01*
X129401903Y-89110102D01*
X129200283Y-89244820D01*
X129028820Y-89416283D01*
X128894102Y-89617903D01*
X128839500Y-89749725D01*
X128839500Y-89173091D01*
X130324720Y-87687872D01*
X130344027Y-87672027D01*
X130407259Y-87594979D01*
X130454245Y-87507075D01*
X130483178Y-87411693D01*
X130490500Y-87337354D01*
X130492948Y-87312500D01*
X130490500Y-87287646D01*
X130490500Y-85495854D01*
X130492948Y-85471000D01*
X130483178Y-85371807D01*
X130454245Y-85276425D01*
X130427464Y-85226322D01*
X130407259Y-85188521D01*
X130344027Y-85111473D01*
X130324720Y-85095628D01*
X130061092Y-84832000D01*
X130106243Y-84832000D01*
X130344069Y-84784693D01*
X130568097Y-84691898D01*
X130769717Y-84557180D01*
X130830751Y-84496146D01*
X130831474Y-84497027D01*
G37*
%TD.AperFunction*%
D15*
X129180474Y-80242527D02*
X129199780Y-80258372D01*
X130685000Y-81743592D01*
X130685000Y-82588214D01*
X130568097Y-82510102D01*
X130344069Y-82417307D01*
X130106243Y-82370000D01*
X129863757Y-82370000D01*
X129625931Y-82417307D01*
X129401903Y-82510102D01*
X129200283Y-82644820D01*
X129157000Y-82688103D01*
X129157000Y-80352345D01*
X129159447Y-80327499D01*
X129157000Y-80302653D01*
X129157000Y-80302646D01*
X129149678Y-80228307D01*
X129138464Y-80191338D01*
X129180474Y-80242527D01*
%TA.AperFunction,Conductor*%
D16*
G36*
X129180474Y-80242527D02*
G01*
X129199780Y-80258372D01*
X130685000Y-81743592D01*
X130685000Y-82588214D01*
X130568097Y-82510102D01*
X130344069Y-82417307D01*
X130106243Y-82370000D01*
X129863757Y-82370000D01*
X129625931Y-82417307D01*
X129401903Y-82510102D01*
X129200283Y-82644820D01*
X129157000Y-82688103D01*
X129157000Y-80352345D01*
X129159447Y-80327499D01*
X129157000Y-80302653D01*
X129157000Y-80302646D01*
X129149678Y-80228307D01*
X129138464Y-80191338D01*
X129180474Y-80242527D01*
G37*
%TD.AperFunction*%
D15*
X130847157Y-77331200D02*
X130847157Y-79031200D01*
X130854513Y-79105889D01*
X130876299Y-79177708D01*
X130911678Y-79243896D01*
X130959289Y-79301911D01*
X131017304Y-79349522D01*
X131083492Y-79384901D01*
X131155311Y-79406687D01*
X131230000Y-79414043D01*
X131574001Y-79414043D01*
X131574001Y-79858144D01*
X131571553Y-79883000D01*
X131581322Y-79982192D01*
X131610255Y-80077574D01*
X131610256Y-80077575D01*
X131657242Y-80165479D01*
X131720474Y-80242527D01*
X131739780Y-80258372D01*
X133225000Y-81743592D01*
X133225000Y-82588214D01*
X133108097Y-82510102D01*
X132884069Y-82417307D01*
X132646243Y-82370000D01*
X132403757Y-82370000D01*
X132165931Y-82417307D01*
X131941903Y-82510102D01*
X131740283Y-82644820D01*
X131697000Y-82688103D01*
X131697000Y-81558854D01*
X131699448Y-81534000D01*
X131689678Y-81434807D01*
X131660745Y-81339425D01*
X131648757Y-81316997D01*
X131613759Y-81251521D01*
X131550527Y-81174473D01*
X131531220Y-81158628D01*
X130046000Y-79673409D01*
X130046000Y-79304032D01*
X130123097Y-79272098D01*
X130324717Y-79137380D01*
X130496180Y-78965917D01*
X130630898Y-78764297D01*
X130723693Y-78540269D01*
X130771000Y-78302443D01*
X130771000Y-78059957D01*
X130723693Y-77822131D01*
X130630898Y-77598103D01*
X130496180Y-77396483D01*
X130404197Y-77304500D01*
X130849787Y-77304500D01*
X130847157Y-77331200D01*
%TA.AperFunction,Conductor*%
D16*
G36*
X130847157Y-77331200D02*
G01*
X130847157Y-79031200D01*
X130854513Y-79105889D01*
X130876299Y-79177708D01*
X130911678Y-79243896D01*
X130959289Y-79301911D01*
X131017304Y-79349522D01*
X131083492Y-79384901D01*
X131155311Y-79406687D01*
X131230000Y-79414043D01*
X131574001Y-79414043D01*
X131574001Y-79858144D01*
X131571553Y-79883000D01*
X131581322Y-79982192D01*
X131610255Y-80077574D01*
X131610256Y-80077575D01*
X131657242Y-80165479D01*
X131720474Y-80242527D01*
X131739780Y-80258372D01*
X133225000Y-81743592D01*
X133225000Y-82588214D01*
X133108097Y-82510102D01*
X132884069Y-82417307D01*
X132646243Y-82370000D01*
X132403757Y-82370000D01*
X132165931Y-82417307D01*
X131941903Y-82510102D01*
X131740283Y-82644820D01*
X131697000Y-82688103D01*
X131697000Y-81558854D01*
X131699448Y-81534000D01*
X131689678Y-81434807D01*
X131660745Y-81339425D01*
X131648757Y-81316997D01*
X131613759Y-81251521D01*
X131550527Y-81174473D01*
X131531220Y-81158628D01*
X130046000Y-79673409D01*
X130046000Y-79304032D01*
X130123097Y-79272098D01*
X130324717Y-79137380D01*
X130496180Y-78965917D01*
X130630898Y-78764297D01*
X130723693Y-78540269D01*
X130771000Y-78302443D01*
X130771000Y-78059957D01*
X130723693Y-77822131D01*
X130630898Y-77598103D01*
X130496180Y-77396483D01*
X130404197Y-77304500D01*
X130849787Y-77304500D01*
X130847157Y-77331200D01*
G37*
%TD.AperFunction*%
%TD*%
M02*
