M48
; DRILL file {KiCad (5.1.8)-1} date 01/05/21 07:53:44
; FORMAT={-:-/ absolute / inch / decimal}
; #@! TF.CreationDate,2021-01-05T07:53:44+01:00
; #@! TF.GenerationSoftware,Kicad,Pcbnew,(5.1.8)-1
; #@! TF.FileFunction,Plated,1,4,PTH
FMAT,2
INCH
T1C0.0079
T2C0.0197
T3C0.0276
T4C0.0354
T5C0.0394
T6C0.0472
T7C0.0551
T8C0.0630
%
G90
G05
T1
X2.426Y-4.288
X2.426Y-4.35
X2.426Y-4.414
X2.426Y-4.478
X2.426Y-4.542
X2.426Y-4.608
X2.428Y-3.636
X2.428Y-3.7
X2.428Y-3.764
X2.428Y-3.83
X2.428Y-4.67
X2.428Y-4.736
X2.428Y-4.802
X2.428Y-4.868
X2.428Y-4.93
X2.428Y-4.994
X2.43Y-4.024
X2.43Y-4.09
X2.43Y-4.152
X2.43Y-4.216
X2.432Y-2.734
X2.432Y-2.796
X2.432Y-2.86
X2.432Y-2.924
X2.432Y-2.988
X2.432Y-3.054
X2.434Y-3.182
X2.434Y-3.248
X2.434Y-3.314
X2.434Y-3.376
X2.434Y-3.44
X2.514Y-4.636
X2.5147Y-3.65
X2.5147Y-3.7287
X2.5147Y-3.8075
X2.528Y-4.356
X2.528Y-4.4426
X2.528Y-4.5132
X2.5455Y-3.048
X2.5455Y-3.1267
X2.5455Y-3.2055
X2.5935Y-3.65
X2.5935Y-3.7287
X2.5935Y-3.8075
X2.614Y-4.718
X2.618Y-4.566
X2.6426Y-4.356
X2.6426Y-4.5132
X2.682Y-3.668
X2.682Y-3.768
X2.684Y-5.216
X2.688Y-2.48
X2.726Y-2.65
X2.734Y-4.642
X2.734Y-4.718
X2.734Y-4.7967
X2.734Y-4.8755
X2.748Y-5.216
X2.7492Y-4.356
X2.752Y-2.48
X2.776Y-4.458
X2.782Y-3.668
X2.782Y-3.768
X2.7825Y-2.6035
X2.801Y-3.1305
X2.81Y-5.216
X2.814Y-2.48
X2.8587Y-4.74
X2.8587Y-4.7907
X2.8587Y-4.8475
X2.86Y-4.458
X2.876Y-3.564
X2.876Y-3.664
X2.876Y-3.764
X2.876Y-3.864
X2.876Y-3.964
X2.876Y-5.216
X2.88Y-2.48
X2.88Y-2.67
X2.884Y-2.55
X2.921Y-3.2505
X2.922Y-3.314
X2.9375Y-4.74
X2.9375Y-4.7907
X2.9375Y-4.8475
X2.942Y-5.216
X2.946Y-2.48
X2.968Y-4.406
X2.968Y-4.4847
X2.968Y-4.5575
X2.974Y-4.942
X2.974Y-5.0107
X2.974Y-5.0795
X2.976Y-3.564
X2.976Y-3.664
X2.976Y-3.764
X2.976Y-3.864
X2.976Y-3.964
X3.0Y-3.158
X3.0028Y-2.6342
X3.008Y-5.216
X3.012Y-2.48
X3.016Y-2.606
X3.0447Y-4.942
X3.0447Y-5.0795
X3.046Y-3.2423
X3.046Y-3.292
X3.046Y-3.345
X3.0467Y-4.406
X3.0467Y-4.5575
X3.07Y-5.214
X3.074Y-2.478
X3.083Y-3.158
X3.085Y-3.345
X3.086Y-3.2423
X3.086Y-3.292
X3.1115Y-4.406
X3.1115Y-4.4847
X3.1115Y-4.5575
X3.1115Y-4.942
X3.1115Y-5.0107
X3.1115Y-5.0795
X3.124Y-2.634
X3.124Y-3.345
X3.124Y-3.758
X3.124Y-3.9
X3.126Y-3.2423
X3.126Y-3.292
X3.126Y-3.552
X3.126Y-3.616
X3.136Y-5.214
X3.14Y-2.478
X3.162Y-4.932
X3.162Y-5.0107
X3.162Y-5.0895
X3.164Y-4.252
X3.164Y-4.3307
X3.164Y-4.404
X3.164Y-4.4827
X3.164Y-4.5615
X3.17Y-3.158
X3.196Y-2.526
X3.2Y-5.214
X3.204Y-2.478
X3.21Y-2.632
X3.2407Y-4.932
X3.2407Y-5.0895
X3.2427Y-4.404
X3.2427Y-4.5615
X3.248Y-3.3926
X3.252Y-3.278
X3.252Y-4.712
X3.252Y-4.7907
X3.252Y-4.8695
X3.256Y-2.6702
X3.264Y-5.214
X3.268Y-2.478
X3.308Y-2.682
X3.3195Y-4.932
X3.3195Y-5.0107
X3.3195Y-5.0895
X3.3215Y-4.5615
X3.328Y-5.214
X3.3307Y-4.712
X3.3307Y-4.7907
X3.3307Y-4.8695
X3.332Y-2.478
X3.335Y-2.523
X3.39Y-5.214
X3.394Y-2.478
X3.4095Y-4.712
X3.4095Y-4.7907
X3.4095Y-4.8695
X3.414Y-4.3725
X3.414Y-4.4
X3.424Y-2.602
X3.428Y-2.788
X3.428Y-2.636
X3.44Y-3.504
X3.442Y-3.788
X3.454Y-5.214
X3.4562Y-3.6275
X3.4562Y-3.91
X3.462Y-4.3725
X3.462Y-4.4025
X3.4677Y-3.1563
X3.468Y-2.476
X3.47Y-2.71
X3.47Y-3.292
X3.496Y-4.898
X3.496Y-4.96
X3.496Y-5.024
X3.496Y-5.086
X3.496Y-5.15
X3.5065Y-4.3725
X3.5065Y-4.4025
X3.51Y-4.5575
X3.5125Y-4.4625
X3.52Y-2.5957
X3.532Y-2.476
X3.534Y-3.226
X3.536Y-3.408
X3.5875Y-3.9575
X3.5875Y-3.995
X3.594Y-2.476
X3.596Y-3.286
X3.598Y-3.886
X3.6075Y-5.0075
X3.6098Y-3.6047
X3.6155Y-3.764
X3.621Y-4.405
X3.621Y-4.435
X3.621Y-4.465
X3.63Y-5.08
X3.6336Y-3.8025
X3.642Y-2.894
X3.6425Y-3.9575
X3.6425Y-3.995
X3.644Y-3.466
X3.65Y-3.646
X3.652Y-3.572
X3.6577Y-3.7102
X3.66Y-2.476
X3.68Y-4.405
X3.68Y-4.435
X3.68Y-4.465
X3.68Y-4.905
X3.69Y-2.84
X3.69Y-3.294
X3.6925Y-3.9575
X3.6925Y-3.995
X3.696Y-2.754
X3.696Y-3.028
X3.696Y-3.068
X3.696Y-3.198
X3.696Y-3.246
X3.703Y-2.657
X3.7075Y-5.1545
X3.7125Y-5.0125
X3.721Y-3.302
X3.726Y-2.476
X3.7325Y-5.215
X3.7375Y-4.905
X3.775Y-4.465
X3.782Y-4.54
X3.7825Y-3.2995
X3.7895Y-3.9295
X3.792Y-2.476
X3.8Y-4.574
X3.8225Y-3.6225
X3.8225Y-3.6766
X3.8225Y-3.73
X3.832Y-2.658
X3.832Y-4.526
X3.835Y-3.8991
X3.84Y-3.084
X3.84Y-3.198
X3.843Y-5.1545
X3.845Y-5.0075
X3.854Y-2.474
X3.854Y-2.522
X3.8556Y-4.574
X3.8677Y-3.8984
X3.8766Y-3.6225
X3.8766Y-3.6766
X3.8766Y-3.73
X3.88Y-4.905
X3.882Y-4.526
X3.9Y-2.976
X3.9014Y-3.448
X3.9112Y-4.574
X3.912Y-3.29
X3.92Y-2.474
X3.93Y-3.6225
X3.93Y-3.6766
X3.93Y-3.73
X3.9375Y-4.905
X3.938Y-3.198
X3.948Y-4.526
X3.9669Y-4.574
X3.968Y-3.176
X3.97Y-3.444
X3.9825Y-5.1545
X3.984Y-2.474
X3.985Y-5.0075
X3.9975Y-4.526
X4.0Y-3.282
X4.018Y-3.182
X4.0225Y-4.574
X4.036Y-3.442
X4.038Y-4.538
X4.042Y-2.934
X4.0438Y-2.7062
X4.0458Y-4.4625
X4.048Y-2.474
X4.0652Y-2.9983
X4.07Y-4.904
X4.074Y-3.14
X4.074Y-3.174
X4.112Y-2.474
X4.1125Y-5.21
X4.1132Y-3.7791
X4.1137Y-3.7535
X4.114Y-3.81
X4.115Y-3.966
X4.115Y-4.0035
X4.116Y-3.728
X4.118Y-3.652
X4.118Y-3.7
X4.1225Y-5.01
X4.1225Y-5.1545
X4.124Y-2.776
X4.126Y-3.496
X4.142Y-4.905
X4.1465Y-4.405
X4.1465Y-4.435
X4.1465Y-4.465
X4.152Y-3.65
X4.17Y-3.966
X4.17Y-4.0035
X4.174Y-2.474
X4.1766Y-3.5413
X4.196Y-3.7097
X4.2Y-5.01
X4.2025Y-5.0825
X4.2025Y-5.1625
X4.206Y-4.405
X4.206Y-4.435
X4.206Y-4.465
X4.212Y-3.47
X4.22Y-3.966
X4.22Y-4.0035
X4.232Y-3.264
X4.2322Y-3.2212
X4.234Y-2.856
X4.234Y-3.31
X4.24Y-3.07
X4.2433Y-3.0079
X4.244Y-2.472
X4.262Y-3.47
X4.272Y-2.774
X4.284Y-3.208
X4.302Y-3.12
X4.304Y-2.986
X4.304Y-3.068
X4.308Y-2.472
X4.308Y-3.7097
X4.31Y-4.5575
X4.3125Y-4.4625
X4.314Y-4.896
X4.316Y-4.96
X4.316Y-5.022
X4.316Y-5.086
X4.316Y-5.15
X4.316Y-5.214
X4.335Y-4.3725
X4.335Y-4.4
X4.37Y-2.472
X4.382Y-5.214
X4.383Y-4.3725
X4.383Y-4.4025
X4.3834Y-3.6107
X4.399Y-2.879
X4.426Y-3.5
X4.4275Y-4.3725
X4.4275Y-4.4025
X4.436Y-2.472
X4.446Y-2.78
X4.446Y-5.216
X4.452Y-3.836
X4.4572Y-3.7097
X4.458Y-3.448
X4.482Y-4.098
X4.486Y-3.408
X4.4871Y-3.7291
X4.4887Y-3.486
X4.502Y-2.472
X4.506Y-3.766
X4.512Y-5.216
X4.516Y-3.018
X4.516Y-4.39
X4.516Y-4.4687
X4.516Y-4.5475
X4.522Y-3.918
X4.522Y-4.918
X4.522Y-4.9967
X4.522Y-5.0755
X4.526Y-3.21
X4.5304Y-3.5523
X4.5506Y-3.3574
X4.552Y-3.42
X4.552Y-3.628
X4.558Y-3.252
X4.568Y-2.472
X4.574Y-3.754
X4.578Y-5.216
X4.5947Y-4.39
X4.5947Y-4.5475
X4.596Y-3.196
X4.596Y-3.718
X4.598Y-2.998
X4.5994Y-2.8546
X4.6Y-3.902
X4.6Y-4.044
X4.6007Y-4.918
X4.6007Y-5.0755
X4.6026Y-2.9294
X4.6034Y-3.0734
X4.6046Y-3.1337
X4.606Y-3.754
X4.6106Y-3.8266
X4.6106Y-3.9706
X4.63Y-2.47
X4.642Y-5.216
X4.6735Y-4.39
X4.6735Y-4.4687
X4.6735Y-4.5475
X4.6795Y-4.918
X4.6795Y-4.9967
X4.6795Y-5.0755
X4.694Y-3.53
X4.696Y-2.47
X4.702Y-3.256
X4.706Y-5.216
X4.73Y-4.39
X4.73Y-4.4687
X4.73Y-4.5475
X4.734Y-4.92
X4.734Y-4.9987
X4.734Y-5.0775
X4.76Y-2.47
X4.772Y-5.216
X4.788Y-2.702
X4.7967Y-4.39
X4.7967Y-4.5475
X4.8007Y-4.92
X4.8007Y-5.0775
X4.824Y-2.47
X4.834Y-5.216
X4.838Y-3.35
X4.868Y-2.94
X4.868Y-3.114
X4.868Y-3.206
X4.868Y-3.03
X4.8755Y-4.39
X4.8755Y-4.4687
X4.8755Y-4.5475
X4.876Y-2.622
X4.8795Y-4.92
X4.8795Y-4.9987
X4.8795Y-5.0775
X4.888Y-2.47
X4.894Y-3.652
X4.9Y-5.216
X4.902Y-2.756
X4.904Y-3.858
X4.906Y-3.692
X4.908Y-4.144
X4.91Y-3.774
X4.95Y-2.47
X4.958Y-3.484
X4.964Y-5.216
X5.014Y-2.47
X5.028Y-5.216
X5.078Y-2.47
X5.092Y-5.216
X5.14Y-2.47
X5.336Y-2.904
X5.336Y-2.97
X5.336Y-3.036
X5.336Y-3.102
X5.336Y-3.164
X5.336Y-3.228
X5.338Y-3.44
X5.338Y-3.634
X5.338Y-4.214
X5.34Y-3.696
X5.34Y-3.762
X5.34Y-3.828
X5.34Y-3.894
X5.34Y-3.956
X5.34Y-4.02
X5.34Y-4.3
X5.34Y-4.362
X5.34Y-4.426
X5.34Y-4.49
X5.34Y-4.554
X5.34Y-4.62
X5.342Y-4.682
X5.342Y-4.748
X5.342Y-4.814
X5.342Y-4.88
X5.342Y-4.942
X5.342Y-5.006
T2
X3.534Y-3.0512
X3.534Y-3.1563
X4.814Y-2.814
X3.534Y-2.946
T3
X3.534Y-3.292
T4
X5.144Y-2.946
X5.144Y-3.0263
X5.144Y-3.1066
X5.144Y-3.1869
X5.244Y-2.9862
X5.244Y-3.0665
X5.244Y-3.1468
X5.244Y-3.2271
X5.142Y-3.698
X5.142Y-3.7783
X5.142Y-3.8586
X5.142Y-3.9389
X5.242Y-3.7382
X5.242Y-3.8185
X5.242Y-3.8988
X5.242Y-3.9791
T5
X2.4771Y-3.126
X2.674Y-3.126
T6
X3.7075Y-5.0825
X3.8453Y-5.0825
X3.9831Y-5.0825
X4.1209Y-5.0825
X4.5004Y-2.61
X4.6382Y-2.61
X4.776Y-2.61
X4.6Y-4.998
X4.7969Y-4.998
X3.0451Y-5.01
X3.242Y-5.01
X4.6Y-4.472
X4.7969Y-4.472
X4.0484Y-2.61
X4.1862Y-2.61
X4.324Y-2.61
X3.0451Y-4.486
X3.242Y-4.486
T7
X3.6075Y-4.9025
X3.8075Y-4.9025
X4.0075Y-4.9025
X4.2075Y-4.9025
X2.618Y-4.442
X2.618Y-4.6389
T8
X5.144Y-2.756
X5.144Y-3.396
X5.142Y-3.508
X5.142Y-4.148
T0
M30
