G04 #@! TF.GenerationSoftware,KiCad,Pcbnew,(5.1.8)-1*
G04 #@! TF.CreationDate,2021-01-05T07:53:39+01:00*
G04 #@! TF.ProjectId,TMC51604Axis,544d4335-3136-4303-9441-7869732e6b69,rev?*
G04 #@! TF.SameCoordinates,Original*
G04 #@! TF.FileFunction,Soldermask,Bot*
G04 #@! TF.FilePolarity,Negative*
%FSLAX46Y46*%
G04 Gerber Fmt 4.6, Leading zero omitted, Abs format (unit mm)*
G04 Created by KiCad (PCBNEW (5.1.8)-1) date 2021-01-05 07:53:39*
%MOMM*%
%LPD*%
G01*
G04 APERTURE LIST*
%ADD10C,0.100000*%
%ADD11C,2.502000*%
%ADD12C,2.802000*%
%ADD13C,1.802000*%
%ADD14C,1.702000*%
%ADD15C,1.102000*%
%ADD16O,2.182000X3.702000*%
%ADD17O,3.702000X2.102000*%
%ADD18C,3.302000*%
%ADD19C,2.102000*%
G04 APERTURE END LIST*
G36*
G01*
X77221000Y-123472400D02*
X78071000Y-123472400D01*
G75*
G02*
X78122000Y-123523400I0J-51000D01*
G01*
X78122000Y-123973400D01*
G75*
G02*
X78071000Y-124024400I-51000J0D01*
G01*
X77221000Y-124024400D01*
G75*
G02*
X77170000Y-123973400I0J51000D01*
G01*
X77170000Y-123523400D01*
G75*
G02*
X77221000Y-123472400I51000J0D01*
G01*
G37*
G36*
G01*
X77221000Y-122202400D02*
X78071000Y-122202400D01*
G75*
G02*
X78122000Y-122253400I0J-51000D01*
G01*
X78122000Y-122703400D01*
G75*
G02*
X78071000Y-122754400I-51000J0D01*
G01*
X77221000Y-122754400D01*
G75*
G02*
X77170000Y-122703400I0J51000D01*
G01*
X77170000Y-122253400D01*
G75*
G02*
X77221000Y-122202400I51000J0D01*
G01*
G37*
G36*
G01*
X77221000Y-120932400D02*
X78071000Y-120932400D01*
G75*
G02*
X78122000Y-120983400I0J-51000D01*
G01*
X78122000Y-121433400D01*
G75*
G02*
X78071000Y-121484400I-51000J0D01*
G01*
X77221000Y-121484400D01*
G75*
G02*
X77170000Y-121433400I0J51000D01*
G01*
X77170000Y-120983400D01*
G75*
G02*
X77221000Y-120932400I51000J0D01*
G01*
G37*
G36*
G01*
X77221000Y-119662400D02*
X78071000Y-119662400D01*
G75*
G02*
X78122000Y-119713400I0J-51000D01*
G01*
X78122000Y-120163400D01*
G75*
G02*
X78071000Y-120214400I-51000J0D01*
G01*
X77221000Y-120214400D01*
G75*
G02*
X77170000Y-120163400I0J51000D01*
G01*
X77170000Y-119713400D01*
G75*
G02*
X77221000Y-119662400I51000J0D01*
G01*
G37*
D10*
G36*
X75986754Y-123883400D02*
G01*
X75985793Y-123893155D01*
X75983843Y-123902959D01*
X75980998Y-123912338D01*
X75977172Y-123921576D01*
X75972551Y-123930221D01*
X75966995Y-123938535D01*
X75960777Y-123946111D01*
X75953711Y-123953177D01*
X75946135Y-123959395D01*
X75937821Y-123964951D01*
X75929176Y-123969572D01*
X75919938Y-123973398D01*
X75910559Y-123976243D01*
X75900755Y-123978193D01*
X75891000Y-123979154D01*
X75886000Y-123979400D01*
X73887000Y-123979400D01*
X73887000Y-124478400D01*
X73886754Y-124483400D01*
X73885793Y-124493155D01*
X73883843Y-124502959D01*
X73880998Y-124512338D01*
X73877172Y-124521576D01*
X73872551Y-124530221D01*
X73866995Y-124538535D01*
X73860777Y-124546111D01*
X73853711Y-124553177D01*
X73846135Y-124559395D01*
X73837821Y-124564951D01*
X73829176Y-124569572D01*
X73819938Y-124573398D01*
X73810559Y-124576243D01*
X73800755Y-124578193D01*
X73791000Y-124579154D01*
X73786000Y-124579400D01*
X73116000Y-124579400D01*
X73111000Y-124579154D01*
X73101245Y-124578193D01*
X73091441Y-124576243D01*
X73082062Y-124573398D01*
X73072824Y-124569572D01*
X73064179Y-124564951D01*
X73055865Y-124559395D01*
X73048289Y-124553177D01*
X73041223Y-124546111D01*
X73035005Y-124538535D01*
X73029449Y-124530221D01*
X73024828Y-124521576D01*
X73021002Y-124512338D01*
X73018157Y-124502959D01*
X73016207Y-124493155D01*
X73015246Y-124483400D01*
X73015000Y-124478400D01*
X73015000Y-123999400D01*
X72357000Y-123999400D01*
X72357000Y-124348400D01*
X72356754Y-124353400D01*
X72355793Y-124363155D01*
X72353843Y-124372959D01*
X72350998Y-124382338D01*
X72347172Y-124391576D01*
X72342551Y-124400221D01*
X72336995Y-124408535D01*
X72330777Y-124416111D01*
X72323711Y-124423177D01*
X72316135Y-124429395D01*
X72307821Y-124434951D01*
X72299176Y-124439572D01*
X72289938Y-124443398D01*
X72280559Y-124446243D01*
X72270755Y-124448193D01*
X72261000Y-124449154D01*
X72256000Y-124449400D01*
X71726000Y-124449400D01*
X71721000Y-124449154D01*
X71711245Y-124448193D01*
X71701441Y-124446243D01*
X71692062Y-124443398D01*
X71682824Y-124439572D01*
X71674179Y-124434951D01*
X71665865Y-124429395D01*
X71658289Y-124423177D01*
X71651223Y-124416111D01*
X71645005Y-124408535D01*
X71639449Y-124400221D01*
X71634828Y-124391576D01*
X71631002Y-124382338D01*
X71628157Y-124372959D01*
X71626207Y-124363155D01*
X71625246Y-124353400D01*
X71625000Y-124348400D01*
X71625000Y-119328400D01*
X71625246Y-119323400D01*
X71626207Y-119313645D01*
X71628157Y-119303841D01*
X71631002Y-119294462D01*
X71634828Y-119285224D01*
X71639449Y-119276579D01*
X71645005Y-119268265D01*
X71651223Y-119260689D01*
X71658289Y-119253623D01*
X71665865Y-119247405D01*
X71674179Y-119241849D01*
X71682824Y-119237228D01*
X71692062Y-119233402D01*
X71701441Y-119230557D01*
X71711245Y-119228607D01*
X71721000Y-119227646D01*
X71726000Y-119227400D01*
X72256000Y-119227400D01*
X72261000Y-119227646D01*
X72270755Y-119228607D01*
X72280559Y-119230557D01*
X72289938Y-119233402D01*
X72299176Y-119237228D01*
X72307821Y-119241849D01*
X72316135Y-119247405D01*
X72323711Y-119253623D01*
X72330777Y-119260689D01*
X72336995Y-119268265D01*
X72342551Y-119276579D01*
X72347172Y-119285224D01*
X72350998Y-119294462D01*
X72353843Y-119303841D01*
X72355793Y-119313645D01*
X72356754Y-119323400D01*
X72357000Y-119328400D01*
X72357000Y-119687400D01*
X73055000Y-119687400D01*
X73055000Y-119178400D01*
X73055246Y-119173400D01*
X73056207Y-119163645D01*
X73058157Y-119153841D01*
X73061002Y-119144462D01*
X73064828Y-119135224D01*
X73069449Y-119126579D01*
X73075005Y-119118265D01*
X73081223Y-119110689D01*
X73088289Y-119103623D01*
X73095865Y-119097405D01*
X73104179Y-119091849D01*
X73112824Y-119087228D01*
X73122062Y-119083402D01*
X73131441Y-119080557D01*
X73141245Y-119078607D01*
X73151000Y-119077646D01*
X73156000Y-119077400D01*
X73786000Y-119077400D01*
X73791000Y-119077646D01*
X73800755Y-119078607D01*
X73810559Y-119080557D01*
X73819938Y-119083402D01*
X73829176Y-119087228D01*
X73837821Y-119091849D01*
X73846135Y-119097405D01*
X73853711Y-119103623D01*
X73860777Y-119110689D01*
X73866995Y-119118265D01*
X73872551Y-119126579D01*
X73877172Y-119135224D01*
X73880998Y-119144462D01*
X73883843Y-119153841D01*
X73885793Y-119163645D01*
X73886754Y-119173400D01*
X73887000Y-119178400D01*
X73887000Y-119687400D01*
X75886000Y-119687400D01*
X75891000Y-119687646D01*
X75900755Y-119688607D01*
X75910559Y-119690557D01*
X75919938Y-119693402D01*
X75929176Y-119697228D01*
X75937821Y-119701849D01*
X75946135Y-119707405D01*
X75953711Y-119713623D01*
X75960777Y-119720689D01*
X75966995Y-119728265D01*
X75972551Y-119736579D01*
X75977172Y-119745224D01*
X75980998Y-119754462D01*
X75983843Y-119763841D01*
X75985793Y-119773645D01*
X75986754Y-119783400D01*
X75987000Y-119788400D01*
X75987000Y-123878400D01*
X75986754Y-123883400D01*
G37*
G36*
G01*
X114066000Y-91969500D02*
X114066000Y-91418500D01*
G75*
G02*
X114316500Y-91168000I250500J0D01*
G01*
X114817500Y-91168000D01*
G75*
G02*
X115068000Y-91418500I0J-250500D01*
G01*
X115068000Y-91969500D01*
G75*
G02*
X114817500Y-92220000I-250500J0D01*
G01*
X114316500Y-92220000D01*
G75*
G02*
X114066000Y-91969500I0J250500D01*
G01*
G37*
G36*
G01*
X112516000Y-91969500D02*
X112516000Y-91418500D01*
G75*
G02*
X112766500Y-91168000I250500J0D01*
G01*
X113267500Y-91168000D01*
G75*
G02*
X113518000Y-91418500I0J-250500D01*
G01*
X113518000Y-91969500D01*
G75*
G02*
X113267500Y-92220000I-250500J0D01*
G01*
X112766500Y-92220000D01*
G75*
G02*
X112516000Y-91969500I0J250500D01*
G01*
G37*
D11*
X77346800Y-113944400D03*
G36*
G01*
X83597800Y-112744400D02*
X83597800Y-115144400D01*
G75*
G02*
X83546800Y-115195400I-51000J0D01*
G01*
X81146800Y-115195400D01*
G75*
G02*
X81095800Y-115144400I0J51000D01*
G01*
X81095800Y-112744400D01*
G75*
G02*
X81146800Y-112693400I51000J0D01*
G01*
X83546800Y-112693400D01*
G75*
G02*
X83597800Y-112744400I0J-51000D01*
G01*
G37*
X121840000Y-113588800D03*
G36*
G01*
X115589000Y-114788800D02*
X115589000Y-112388800D01*
G75*
G02*
X115640000Y-112337800I51000J0D01*
G01*
X118040000Y-112337800D01*
G75*
G02*
X118091000Y-112388800I0J-51000D01*
G01*
X118091000Y-114788800D01*
G75*
G02*
X118040000Y-114839800I-51000J0D01*
G01*
X115640000Y-114839800D01*
G75*
G02*
X115589000Y-114788800I0J51000D01*
G01*
G37*
X77346800Y-127254000D03*
G36*
G01*
X83597800Y-126054000D02*
X83597800Y-128454000D01*
G75*
G02*
X83546800Y-128505000I-51000J0D01*
G01*
X81146800Y-128505000D01*
G75*
G02*
X81095800Y-128454000I0J51000D01*
G01*
X81095800Y-126054000D01*
G75*
G02*
X81146800Y-126003000I51000J0D01*
G01*
X83546800Y-126003000D01*
G75*
G02*
X83597800Y-126054000I0J-51000D01*
G01*
G37*
X121840000Y-126949200D03*
G36*
G01*
X115589000Y-128149200D02*
X115589000Y-125749200D01*
G75*
G02*
X115640000Y-125698200I51000J0D01*
G01*
X118040000Y-125698200D01*
G75*
G02*
X118091000Y-125749200I0J-51000D01*
G01*
X118091000Y-128149200D01*
G75*
G02*
X118040000Y-128200200I-51000J0D01*
G01*
X115640000Y-128200200D01*
G75*
G02*
X115589000Y-128149200I0J51000D01*
G01*
G37*
G36*
G01*
X98381500Y-100478500D02*
X98381500Y-99927500D01*
G75*
G02*
X98632000Y-99677000I250500J0D01*
G01*
X99133000Y-99677000D01*
G75*
G02*
X99383500Y-99927500I0J-250500D01*
G01*
X99383500Y-100478500D01*
G75*
G02*
X99133000Y-100729000I-250500J0D01*
G01*
X98632000Y-100729000D01*
G75*
G02*
X98381500Y-100478500I0J250500D01*
G01*
G37*
G36*
G01*
X96831500Y-100478500D02*
X96831500Y-99927500D01*
G75*
G02*
X97082000Y-99677000I250500J0D01*
G01*
X97583000Y-99677000D01*
G75*
G02*
X97833500Y-99927500I0J-250500D01*
G01*
X97833500Y-100478500D01*
G75*
G02*
X97583000Y-100729000I-250500J0D01*
G01*
X97082000Y-100729000D01*
G75*
G02*
X96831500Y-100478500I0J250500D01*
G01*
G37*
D12*
X135432800Y-104420200D03*
X135432800Y-89838200D03*
D13*
X130606800Y-105359200D03*
X130606800Y-89103200D03*
D14*
X133146800Y-101069200D03*
X130606800Y-100049200D03*
X133146800Y-99029200D03*
X130606800Y-98009200D03*
X133146800Y-96989200D03*
X130606800Y-95969200D03*
X133146800Y-94949200D03*
X130606800Y-93929200D03*
D12*
X135483600Y-85319400D03*
X135483600Y-70737400D03*
D13*
X130657600Y-86258400D03*
X130657600Y-70002400D03*
D14*
X133197600Y-81968400D03*
X130657600Y-80948400D03*
X133197600Y-79928400D03*
X130657600Y-78908400D03*
X133197600Y-77888400D03*
X130657600Y-76868400D03*
X133197600Y-75848400D03*
X130657600Y-74828400D03*
D11*
X114310400Y-66294000D03*
X117810400Y-66294000D03*
G36*
G01*
X122561400Y-65094000D02*
X122561400Y-67494000D01*
G75*
G02*
X122510400Y-67545000I-51000J0D01*
G01*
X120110400Y-67545000D01*
G75*
G02*
X120059400Y-67494000I0J51000D01*
G01*
X120059400Y-65094000D01*
G75*
G02*
X120110400Y-65043000I51000J0D01*
G01*
X122510400Y-65043000D01*
G75*
G02*
X122561400Y-65094000I0J-51000D01*
G01*
G37*
G36*
G01*
X126726000Y-89437300D02*
X126726000Y-89988300D01*
G75*
G02*
X126475500Y-90238800I-250500J0D01*
G01*
X125974500Y-90238800D01*
G75*
G02*
X125724000Y-89988300I0J250500D01*
G01*
X125724000Y-89437300D01*
G75*
G02*
X125974500Y-89186800I250500J0D01*
G01*
X126475500Y-89186800D01*
G75*
G02*
X126726000Y-89437300I0J-250500D01*
G01*
G37*
G36*
G01*
X128276000Y-89437300D02*
X128276000Y-89988300D01*
G75*
G02*
X128025500Y-90238800I-250500J0D01*
G01*
X127524500Y-90238800D01*
G75*
G02*
X127274000Y-89988300I0J250500D01*
G01*
X127274000Y-89437300D01*
G75*
G02*
X127524500Y-89186800I250500J0D01*
G01*
X128025500Y-89186800D01*
G75*
G02*
X128276000Y-89437300I0J-250500D01*
G01*
G37*
G36*
G01*
X127348200Y-98474950D02*
X127348200Y-97511450D01*
G75*
G02*
X127617450Y-97242200I269250J0D01*
G01*
X128155950Y-97242200D01*
G75*
G02*
X128425200Y-97511450I0J-269250D01*
G01*
X128425200Y-98474950D01*
G75*
G02*
X128155950Y-98744200I-269250J0D01*
G01*
X127617450Y-98744200D01*
G75*
G02*
X127348200Y-98474950I0J269250D01*
G01*
G37*
G36*
G01*
X125473200Y-98474950D02*
X125473200Y-97511450D01*
G75*
G02*
X125742450Y-97242200I269250J0D01*
G01*
X126280950Y-97242200D01*
G75*
G02*
X126550200Y-97511450I0J-269250D01*
G01*
X126550200Y-98474950D01*
G75*
G02*
X126280950Y-98744200I-269250J0D01*
G01*
X125742450Y-98744200D01*
G75*
G02*
X125473200Y-98474950I0J269250D01*
G01*
G37*
G36*
G01*
X127348200Y-100659350D02*
X127348200Y-99695850D01*
G75*
G02*
X127617450Y-99426600I269250J0D01*
G01*
X128155950Y-99426600D01*
G75*
G02*
X128425200Y-99695850I0J-269250D01*
G01*
X128425200Y-100659350D01*
G75*
G02*
X128155950Y-100928600I-269250J0D01*
G01*
X127617450Y-100928600D01*
G75*
G02*
X127348200Y-100659350I0J269250D01*
G01*
G37*
G36*
G01*
X125473200Y-100659350D02*
X125473200Y-99695850D01*
G75*
G02*
X125742450Y-99426600I269250J0D01*
G01*
X126280950Y-99426600D01*
G75*
G02*
X126550200Y-99695850I0J-269250D01*
G01*
X126550200Y-100659350D01*
G75*
G02*
X126280950Y-100928600I-269250J0D01*
G01*
X125742450Y-100928600D01*
G75*
G02*
X125473200Y-100659350I0J269250D01*
G01*
G37*
G36*
G01*
X127399000Y-79577350D02*
X127399000Y-78613850D01*
G75*
G02*
X127668250Y-78344600I269250J0D01*
G01*
X128206750Y-78344600D01*
G75*
G02*
X128476000Y-78613850I0J-269250D01*
G01*
X128476000Y-79577350D01*
G75*
G02*
X128206750Y-79846600I-269250J0D01*
G01*
X127668250Y-79846600D01*
G75*
G02*
X127399000Y-79577350I0J269250D01*
G01*
G37*
G36*
G01*
X125524000Y-79577350D02*
X125524000Y-78613850D01*
G75*
G02*
X125793250Y-78344600I269250J0D01*
G01*
X126331750Y-78344600D01*
G75*
G02*
X126601000Y-78613850I0J-269250D01*
G01*
X126601000Y-79577350D01*
G75*
G02*
X126331750Y-79846600I-269250J0D01*
G01*
X125793250Y-79846600D01*
G75*
G02*
X125524000Y-79577350I0J269250D01*
G01*
G37*
G36*
G01*
X127399000Y-77392950D02*
X127399000Y-76429450D01*
G75*
G02*
X127668250Y-76160200I269250J0D01*
G01*
X128206750Y-76160200D01*
G75*
G02*
X128476000Y-76429450I0J-269250D01*
G01*
X128476000Y-77392950D01*
G75*
G02*
X128206750Y-77662200I-269250J0D01*
G01*
X127668250Y-77662200D01*
G75*
G02*
X127399000Y-77392950I0J269250D01*
G01*
G37*
G36*
G01*
X125524000Y-77392950D02*
X125524000Y-76429450D01*
G75*
G02*
X125793250Y-76160200I269250J0D01*
G01*
X126331750Y-76160200D01*
G75*
G02*
X126601000Y-76429450I0J-269250D01*
G01*
X126601000Y-77392950D01*
G75*
G02*
X126331750Y-77662200I-269250J0D01*
G01*
X125793250Y-77662200D01*
G75*
G02*
X125524000Y-77392950I0J269250D01*
G01*
G37*
G36*
G01*
X127348200Y-94156950D02*
X127348200Y-93193450D01*
G75*
G02*
X127617450Y-92924200I269250J0D01*
G01*
X128155950Y-92924200D01*
G75*
G02*
X128425200Y-93193450I0J-269250D01*
G01*
X128425200Y-94156950D01*
G75*
G02*
X128155950Y-94426200I-269250J0D01*
G01*
X127617450Y-94426200D01*
G75*
G02*
X127348200Y-94156950I0J269250D01*
G01*
G37*
G36*
G01*
X125473200Y-94156950D02*
X125473200Y-93193450D01*
G75*
G02*
X125742450Y-92924200I269250J0D01*
G01*
X126280950Y-92924200D01*
G75*
G02*
X126550200Y-93193450I0J-269250D01*
G01*
X126550200Y-94156950D01*
G75*
G02*
X126280950Y-94426200I-269250J0D01*
G01*
X125742450Y-94426200D01*
G75*
G02*
X125473200Y-94156950I0J269250D01*
G01*
G37*
G36*
G01*
X127399000Y-75208550D02*
X127399000Y-74245050D01*
G75*
G02*
X127668250Y-73975800I269250J0D01*
G01*
X128206750Y-73975800D01*
G75*
G02*
X128476000Y-74245050I0J-269250D01*
G01*
X128476000Y-75208550D01*
G75*
G02*
X128206750Y-75477800I-269250J0D01*
G01*
X127668250Y-75477800D01*
G75*
G02*
X127399000Y-75208550I0J269250D01*
G01*
G37*
G36*
G01*
X125524000Y-75208550D02*
X125524000Y-74245050D01*
G75*
G02*
X125793250Y-73975800I269250J0D01*
G01*
X126331750Y-73975800D01*
G75*
G02*
X126601000Y-74245050I0J-269250D01*
G01*
X126601000Y-75208550D01*
G75*
G02*
X126331750Y-75477800I-269250J0D01*
G01*
X125793250Y-75477800D01*
G75*
G02*
X125524000Y-75208550I0J269250D01*
G01*
G37*
G36*
G01*
X127399000Y-81761750D02*
X127399000Y-80798250D01*
G75*
G02*
X127668250Y-80529000I269250J0D01*
G01*
X128206750Y-80529000D01*
G75*
G02*
X128476000Y-80798250I0J-269250D01*
G01*
X128476000Y-81761750D01*
G75*
G02*
X128206750Y-82031000I-269250J0D01*
G01*
X127668250Y-82031000D01*
G75*
G02*
X127399000Y-81761750I0J269250D01*
G01*
G37*
G36*
G01*
X125524000Y-81761750D02*
X125524000Y-80798250D01*
G75*
G02*
X125793250Y-80529000I269250J0D01*
G01*
X126331750Y-80529000D01*
G75*
G02*
X126601000Y-80798250I0J-269250D01*
G01*
X126601000Y-81761750D01*
G75*
G02*
X126331750Y-82031000I-269250J0D01*
G01*
X125793250Y-82031000D01*
G75*
G02*
X125524000Y-81761750I0J269250D01*
G01*
G37*
G36*
G01*
X127399000Y-92023350D02*
X127399000Y-91059850D01*
G75*
G02*
X127668250Y-90790600I269250J0D01*
G01*
X128206750Y-90790600D01*
G75*
G02*
X128476000Y-91059850I0J-269250D01*
G01*
X128476000Y-92023350D01*
G75*
G02*
X128206750Y-92292600I-269250J0D01*
G01*
X127668250Y-92292600D01*
G75*
G02*
X127399000Y-92023350I0J269250D01*
G01*
G37*
G36*
G01*
X125524000Y-92023350D02*
X125524000Y-91059850D01*
G75*
G02*
X125793250Y-90790600I269250J0D01*
G01*
X126331750Y-90790600D01*
G75*
G02*
X126601000Y-91059850I0J-269250D01*
G01*
X126601000Y-92023350D01*
G75*
G02*
X126331750Y-92292600I-269250J0D01*
G01*
X125793250Y-92292600D01*
G75*
G02*
X125524000Y-92023350I0J269250D01*
G01*
G37*
G36*
G01*
X127348200Y-96290550D02*
X127348200Y-95327050D01*
G75*
G02*
X127617450Y-95057800I269250J0D01*
G01*
X128155950Y-95057800D01*
G75*
G02*
X128425200Y-95327050I0J-269250D01*
G01*
X128425200Y-96290550D01*
G75*
G02*
X128155950Y-96559800I-269250J0D01*
G01*
X127617450Y-96559800D01*
G75*
G02*
X127348200Y-96290550I0J269250D01*
G01*
G37*
G36*
G01*
X125473200Y-96290550D02*
X125473200Y-95327050D01*
G75*
G02*
X125742450Y-95057800I269250J0D01*
G01*
X126280950Y-95057800D01*
G75*
G02*
X126550200Y-95327050I0J-269250D01*
G01*
X126550200Y-96290550D01*
G75*
G02*
X126280950Y-96559800I-269250J0D01*
G01*
X125742450Y-96559800D01*
G75*
G02*
X125473200Y-96290550I0J269250D01*
G01*
G37*
G36*
G01*
X111080600Y-65094000D02*
X111080600Y-67494000D01*
G75*
G02*
X111029600Y-67545000I-51000J0D01*
G01*
X108629600Y-67545000D01*
G75*
G02*
X108578600Y-67494000I0J51000D01*
G01*
X108578600Y-65094000D01*
G75*
G02*
X108629600Y-65043000I51000J0D01*
G01*
X111029600Y-65043000D01*
G75*
G02*
X111080600Y-65094000I0J-51000D01*
G01*
G37*
X106329600Y-66294000D03*
X102829600Y-66294000D03*
G36*
G01*
X118091200Y-92299000D02*
X116491200Y-92299000D01*
G75*
G02*
X116421200Y-92229000I0J70000D01*
G01*
X116421200Y-91929000D01*
G75*
G02*
X116491200Y-91859000I70000J0D01*
G01*
X118091200Y-91859000D01*
G75*
G02*
X118161200Y-91929000I0J-70000D01*
G01*
X118161200Y-92229000D01*
G75*
G02*
X118091200Y-92299000I-70000J0D01*
G01*
G37*
G36*
G01*
X118091200Y-91649000D02*
X116491200Y-91649000D01*
G75*
G02*
X116421200Y-91579000I0J70000D01*
G01*
X116421200Y-91279000D01*
G75*
G02*
X116491200Y-91209000I70000J0D01*
G01*
X118091200Y-91209000D01*
G75*
G02*
X118161200Y-91279000I0J-70000D01*
G01*
X118161200Y-91579000D01*
G75*
G02*
X118091200Y-91649000I-70000J0D01*
G01*
G37*
G36*
G01*
X118091200Y-90999000D02*
X116491200Y-90999000D01*
G75*
G02*
X116421200Y-90929000I0J70000D01*
G01*
X116421200Y-90629000D01*
G75*
G02*
X116491200Y-90559000I70000J0D01*
G01*
X118091200Y-90559000D01*
G75*
G02*
X118161200Y-90629000I0J-70000D01*
G01*
X118161200Y-90929000D01*
G75*
G02*
X118091200Y-90999000I-70000J0D01*
G01*
G37*
G36*
G01*
X118091200Y-90349000D02*
X116491200Y-90349000D01*
G75*
G02*
X116421200Y-90279000I0J70000D01*
G01*
X116421200Y-89979000D01*
G75*
G02*
X116491200Y-89909000I70000J0D01*
G01*
X118091200Y-89909000D01*
G75*
G02*
X118161200Y-89979000I0J-70000D01*
G01*
X118161200Y-90279000D01*
G75*
G02*
X118091200Y-90349000I-70000J0D01*
G01*
G37*
G36*
G01*
X118091200Y-89699000D02*
X116491200Y-89699000D01*
G75*
G02*
X116421200Y-89629000I0J70000D01*
G01*
X116421200Y-89329000D01*
G75*
G02*
X116491200Y-89259000I70000J0D01*
G01*
X118091200Y-89259000D01*
G75*
G02*
X118161200Y-89329000I0J-70000D01*
G01*
X118161200Y-89629000D01*
G75*
G02*
X118091200Y-89699000I-70000J0D01*
G01*
G37*
G36*
G01*
X118091200Y-89049000D02*
X116491200Y-89049000D01*
G75*
G02*
X116421200Y-88979000I0J70000D01*
G01*
X116421200Y-88679000D01*
G75*
G02*
X116491200Y-88609000I70000J0D01*
G01*
X118091200Y-88609000D01*
G75*
G02*
X118161200Y-88679000I0J-70000D01*
G01*
X118161200Y-88979000D01*
G75*
G02*
X118091200Y-89049000I-70000J0D01*
G01*
G37*
G36*
G01*
X118091200Y-88399000D02*
X116491200Y-88399000D01*
G75*
G02*
X116421200Y-88329000I0J70000D01*
G01*
X116421200Y-88029000D01*
G75*
G02*
X116491200Y-87959000I70000J0D01*
G01*
X118091200Y-87959000D01*
G75*
G02*
X118161200Y-88029000I0J-70000D01*
G01*
X118161200Y-88329000D01*
G75*
G02*
X118091200Y-88399000I-70000J0D01*
G01*
G37*
G36*
G01*
X118091200Y-87749000D02*
X116491200Y-87749000D01*
G75*
G02*
X116421200Y-87679000I0J70000D01*
G01*
X116421200Y-87379000D01*
G75*
G02*
X116491200Y-87309000I70000J0D01*
G01*
X118091200Y-87309000D01*
G75*
G02*
X118161200Y-87379000I0J-70000D01*
G01*
X118161200Y-87679000D01*
G75*
G02*
X118091200Y-87749000I-70000J0D01*
G01*
G37*
G36*
G01*
X118091200Y-87099000D02*
X116491200Y-87099000D01*
G75*
G02*
X116421200Y-87029000I0J70000D01*
G01*
X116421200Y-86729000D01*
G75*
G02*
X116491200Y-86659000I70000J0D01*
G01*
X118091200Y-86659000D01*
G75*
G02*
X118161200Y-86729000I0J-70000D01*
G01*
X118161200Y-87029000D01*
G75*
G02*
X118091200Y-87099000I-70000J0D01*
G01*
G37*
G36*
G01*
X118091200Y-86449000D02*
X116491200Y-86449000D01*
G75*
G02*
X116421200Y-86379000I0J70000D01*
G01*
X116421200Y-86079000D01*
G75*
G02*
X116491200Y-86009000I70000J0D01*
G01*
X118091200Y-86009000D01*
G75*
G02*
X118161200Y-86079000I0J-70000D01*
G01*
X118161200Y-86379000D01*
G75*
G02*
X118091200Y-86449000I-70000J0D01*
G01*
G37*
G36*
G01*
X123691200Y-86449000D02*
X122091200Y-86449000D01*
G75*
G02*
X122021200Y-86379000I0J70000D01*
G01*
X122021200Y-86079000D01*
G75*
G02*
X122091200Y-86009000I70000J0D01*
G01*
X123691200Y-86009000D01*
G75*
G02*
X123761200Y-86079000I0J-70000D01*
G01*
X123761200Y-86379000D01*
G75*
G02*
X123691200Y-86449000I-70000J0D01*
G01*
G37*
G36*
G01*
X123691200Y-87099000D02*
X122091200Y-87099000D01*
G75*
G02*
X122021200Y-87029000I0J70000D01*
G01*
X122021200Y-86729000D01*
G75*
G02*
X122091200Y-86659000I70000J0D01*
G01*
X123691200Y-86659000D01*
G75*
G02*
X123761200Y-86729000I0J-70000D01*
G01*
X123761200Y-87029000D01*
G75*
G02*
X123691200Y-87099000I-70000J0D01*
G01*
G37*
G36*
G01*
X123691200Y-87749000D02*
X122091200Y-87749000D01*
G75*
G02*
X122021200Y-87679000I0J70000D01*
G01*
X122021200Y-87379000D01*
G75*
G02*
X122091200Y-87309000I70000J0D01*
G01*
X123691200Y-87309000D01*
G75*
G02*
X123761200Y-87379000I0J-70000D01*
G01*
X123761200Y-87679000D01*
G75*
G02*
X123691200Y-87749000I-70000J0D01*
G01*
G37*
G36*
G01*
X123691200Y-88399000D02*
X122091200Y-88399000D01*
G75*
G02*
X122021200Y-88329000I0J70000D01*
G01*
X122021200Y-88029000D01*
G75*
G02*
X122091200Y-87959000I70000J0D01*
G01*
X123691200Y-87959000D01*
G75*
G02*
X123761200Y-88029000I0J-70000D01*
G01*
X123761200Y-88329000D01*
G75*
G02*
X123691200Y-88399000I-70000J0D01*
G01*
G37*
G36*
G01*
X123691200Y-89049000D02*
X122091200Y-89049000D01*
G75*
G02*
X122021200Y-88979000I0J70000D01*
G01*
X122021200Y-88679000D01*
G75*
G02*
X122091200Y-88609000I70000J0D01*
G01*
X123691200Y-88609000D01*
G75*
G02*
X123761200Y-88679000I0J-70000D01*
G01*
X123761200Y-88979000D01*
G75*
G02*
X123691200Y-89049000I-70000J0D01*
G01*
G37*
G36*
G01*
X123691200Y-89699000D02*
X122091200Y-89699000D01*
G75*
G02*
X122021200Y-89629000I0J70000D01*
G01*
X122021200Y-89329000D01*
G75*
G02*
X122091200Y-89259000I70000J0D01*
G01*
X123691200Y-89259000D01*
G75*
G02*
X123761200Y-89329000I0J-70000D01*
G01*
X123761200Y-89629000D01*
G75*
G02*
X123691200Y-89699000I-70000J0D01*
G01*
G37*
G36*
G01*
X123691200Y-90349000D02*
X122091200Y-90349000D01*
G75*
G02*
X122021200Y-90279000I0J70000D01*
G01*
X122021200Y-89979000D01*
G75*
G02*
X122091200Y-89909000I70000J0D01*
G01*
X123691200Y-89909000D01*
G75*
G02*
X123761200Y-89979000I0J-70000D01*
G01*
X123761200Y-90279000D01*
G75*
G02*
X123691200Y-90349000I-70000J0D01*
G01*
G37*
G36*
G01*
X123691200Y-90999000D02*
X122091200Y-90999000D01*
G75*
G02*
X122021200Y-90929000I0J70000D01*
G01*
X122021200Y-90629000D01*
G75*
G02*
X122091200Y-90559000I70000J0D01*
G01*
X123691200Y-90559000D01*
G75*
G02*
X123761200Y-90629000I0J-70000D01*
G01*
X123761200Y-90929000D01*
G75*
G02*
X123691200Y-90999000I-70000J0D01*
G01*
G37*
G36*
G01*
X123691200Y-91649000D02*
X122091200Y-91649000D01*
G75*
G02*
X122021200Y-91579000I0J70000D01*
G01*
X122021200Y-91279000D01*
G75*
G02*
X122091200Y-91209000I70000J0D01*
G01*
X123691200Y-91209000D01*
G75*
G02*
X123761200Y-91279000I0J-70000D01*
G01*
X123761200Y-91579000D01*
G75*
G02*
X123691200Y-91649000I-70000J0D01*
G01*
G37*
G36*
G01*
X123691200Y-92299000D02*
X122091200Y-92299000D01*
G75*
G02*
X122021200Y-92229000I0J70000D01*
G01*
X122021200Y-91929000D01*
G75*
G02*
X122091200Y-91859000I70000J0D01*
G01*
X123691200Y-91859000D01*
G75*
G02*
X123761200Y-91929000I0J-70000D01*
G01*
X123761200Y-92229000D01*
G75*
G02*
X123691200Y-92299000I-70000J0D01*
G01*
G37*
G36*
G01*
X117575750Y-83116200D02*
X116612250Y-83116200D01*
G75*
G02*
X116343000Y-82846950I0J269250D01*
G01*
X116343000Y-82308450D01*
G75*
G02*
X116612250Y-82039200I269250J0D01*
G01*
X117575750Y-82039200D01*
G75*
G02*
X117845000Y-82308450I0J-269250D01*
G01*
X117845000Y-82846950D01*
G75*
G02*
X117575750Y-83116200I-269250J0D01*
G01*
G37*
G36*
G01*
X117575750Y-84991200D02*
X116612250Y-84991200D01*
G75*
G02*
X116343000Y-84721950I0J269250D01*
G01*
X116343000Y-84183450D01*
G75*
G02*
X116612250Y-83914200I269250J0D01*
G01*
X117575750Y-83914200D01*
G75*
G02*
X117845000Y-84183450I0J-269250D01*
G01*
X117845000Y-84721950D01*
G75*
G02*
X117575750Y-84991200I-269250J0D01*
G01*
G37*
D15*
X89763600Y-74828400D03*
X89763600Y-77499533D03*
X89763600Y-80170666D03*
G36*
G01*
X86875000Y-115460000D02*
X86875000Y-116061000D01*
G75*
G02*
X86649500Y-116286500I-225500J0D01*
G01*
X86198500Y-116286500D01*
G75*
G02*
X85973000Y-116061000I0J225500D01*
G01*
X85973000Y-115460000D01*
G75*
G02*
X86198500Y-115234500I225500J0D01*
G01*
X86649500Y-115234500D01*
G75*
G02*
X86875000Y-115460000I0J-225500D01*
G01*
G37*
G36*
G01*
X88525000Y-115460000D02*
X88525000Y-116061000D01*
G75*
G02*
X88299500Y-116286500I-225500J0D01*
G01*
X87848500Y-116286500D01*
G75*
G02*
X87623000Y-116061000I0J225500D01*
G01*
X87623000Y-115460000D01*
G75*
G02*
X87848500Y-115234500I225500J0D01*
G01*
X88299500Y-115234500D01*
G75*
G02*
X88525000Y-115460000I0J-225500D01*
G01*
G37*
D16*
X106870500Y-124523500D03*
X101790500Y-124523500D03*
X96710500Y-124523500D03*
G36*
G01*
X90539500Y-126112244D02*
X90539500Y-122934756D01*
G75*
G02*
X90801756Y-122672500I262256J0D01*
G01*
X92459244Y-122672500D01*
G75*
G02*
X92721500Y-122934756I0J-262256D01*
G01*
X92721500Y-126112244D01*
G75*
G02*
X92459244Y-126374500I-262256J0D01*
G01*
X90801756Y-126374500D01*
G75*
G02*
X90539500Y-126112244I0J262256D01*
G01*
G37*
G36*
G01*
X98200700Y-112134000D02*
X98801700Y-112134000D01*
G75*
G02*
X99027200Y-112359500I0J-225500D01*
G01*
X99027200Y-112810500D01*
G75*
G02*
X98801700Y-113036000I-225500J0D01*
G01*
X98200700Y-113036000D01*
G75*
G02*
X97975200Y-112810500I0J225500D01*
G01*
X97975200Y-112359500D01*
G75*
G02*
X98200700Y-112134000I225500J0D01*
G01*
G37*
G36*
G01*
X98200700Y-110484000D02*
X98801700Y-110484000D01*
G75*
G02*
X99027200Y-110709500I0J-225500D01*
G01*
X99027200Y-111160500D01*
G75*
G02*
X98801700Y-111386000I-225500J0D01*
G01*
X98200700Y-111386000D01*
G75*
G02*
X97975200Y-111160500I0J225500D01*
G01*
X97975200Y-110709500D01*
G75*
G02*
X98200700Y-110484000I225500J0D01*
G01*
G37*
G36*
G01*
X111796400Y-81963500D02*
X111796400Y-81612500D01*
G75*
G02*
X111971900Y-81437000I175500J0D01*
G01*
X113697900Y-81437000D01*
G75*
G02*
X113873400Y-81612500I0J-175500D01*
G01*
X113873400Y-81963500D01*
G75*
G02*
X113697900Y-82139000I-175500J0D01*
G01*
X111971900Y-82139000D01*
G75*
G02*
X111796400Y-81963500I0J175500D01*
G01*
G37*
G36*
G01*
X111796400Y-80693500D02*
X111796400Y-80342500D01*
G75*
G02*
X111971900Y-80167000I175500J0D01*
G01*
X113697900Y-80167000D01*
G75*
G02*
X113873400Y-80342500I0J-175500D01*
G01*
X113873400Y-80693500D01*
G75*
G02*
X113697900Y-80869000I-175500J0D01*
G01*
X111971900Y-80869000D01*
G75*
G02*
X111796400Y-80693500I0J175500D01*
G01*
G37*
G36*
G01*
X111796400Y-79423500D02*
X111796400Y-79072500D01*
G75*
G02*
X111971900Y-78897000I175500J0D01*
G01*
X113697900Y-78897000D01*
G75*
G02*
X113873400Y-79072500I0J-175500D01*
G01*
X113873400Y-79423500D01*
G75*
G02*
X113697900Y-79599000I-175500J0D01*
G01*
X111971900Y-79599000D01*
G75*
G02*
X111796400Y-79423500I0J175500D01*
G01*
G37*
G36*
G01*
X111796400Y-78153500D02*
X111796400Y-77802500D01*
G75*
G02*
X111971900Y-77627000I175500J0D01*
G01*
X113697900Y-77627000D01*
G75*
G02*
X113873400Y-77802500I0J-175500D01*
G01*
X113873400Y-78153500D01*
G75*
G02*
X113697900Y-78329000I-175500J0D01*
G01*
X111971900Y-78329000D01*
G75*
G02*
X111796400Y-78153500I0J175500D01*
G01*
G37*
G36*
G01*
X111796400Y-76883500D02*
X111796400Y-76532500D01*
G75*
G02*
X111971900Y-76357000I175500J0D01*
G01*
X113697900Y-76357000D01*
G75*
G02*
X113873400Y-76532500I0J-175500D01*
G01*
X113873400Y-76883500D01*
G75*
G02*
X113697900Y-77059000I-175500J0D01*
G01*
X111971900Y-77059000D01*
G75*
G02*
X111796400Y-76883500I0J175500D01*
G01*
G37*
G36*
G01*
X111796400Y-75613500D02*
X111796400Y-75262500D01*
G75*
G02*
X111971900Y-75087000I175500J0D01*
G01*
X113697900Y-75087000D01*
G75*
G02*
X113873400Y-75262500I0J-175500D01*
G01*
X113873400Y-75613500D01*
G75*
G02*
X113697900Y-75789000I-175500J0D01*
G01*
X111971900Y-75789000D01*
G75*
G02*
X111796400Y-75613500I0J175500D01*
G01*
G37*
G36*
G01*
X111796400Y-74343500D02*
X111796400Y-73992500D01*
G75*
G02*
X111971900Y-73817000I175500J0D01*
G01*
X113697900Y-73817000D01*
G75*
G02*
X113873400Y-73992500I0J-175500D01*
G01*
X113873400Y-74343500D01*
G75*
G02*
X113697900Y-74519000I-175500J0D01*
G01*
X111971900Y-74519000D01*
G75*
G02*
X111796400Y-74343500I0J175500D01*
G01*
G37*
G36*
G01*
X104871400Y-74343500D02*
X104871400Y-73992500D01*
G75*
G02*
X105046900Y-73817000I175500J0D01*
G01*
X106772900Y-73817000D01*
G75*
G02*
X106948400Y-73992500I0J-175500D01*
G01*
X106948400Y-74343500D01*
G75*
G02*
X106772900Y-74519000I-175500J0D01*
G01*
X105046900Y-74519000D01*
G75*
G02*
X104871400Y-74343500I0J175500D01*
G01*
G37*
G36*
G01*
X104871400Y-75613500D02*
X104871400Y-75262500D01*
G75*
G02*
X105046900Y-75087000I175500J0D01*
G01*
X106772900Y-75087000D01*
G75*
G02*
X106948400Y-75262500I0J-175500D01*
G01*
X106948400Y-75613500D01*
G75*
G02*
X106772900Y-75789000I-175500J0D01*
G01*
X105046900Y-75789000D01*
G75*
G02*
X104871400Y-75613500I0J175500D01*
G01*
G37*
G36*
G01*
X104871400Y-76883500D02*
X104871400Y-76532500D01*
G75*
G02*
X105046900Y-76357000I175500J0D01*
G01*
X106772900Y-76357000D01*
G75*
G02*
X106948400Y-76532500I0J-175500D01*
G01*
X106948400Y-76883500D01*
G75*
G02*
X106772900Y-77059000I-175500J0D01*
G01*
X105046900Y-77059000D01*
G75*
G02*
X104871400Y-76883500I0J175500D01*
G01*
G37*
G36*
G01*
X104871400Y-78153500D02*
X104871400Y-77802500D01*
G75*
G02*
X105046900Y-77627000I175500J0D01*
G01*
X106772900Y-77627000D01*
G75*
G02*
X106948400Y-77802500I0J-175500D01*
G01*
X106948400Y-78153500D01*
G75*
G02*
X106772900Y-78329000I-175500J0D01*
G01*
X105046900Y-78329000D01*
G75*
G02*
X104871400Y-78153500I0J175500D01*
G01*
G37*
G36*
G01*
X104871400Y-79423500D02*
X104871400Y-79072500D01*
G75*
G02*
X105046900Y-78897000I175500J0D01*
G01*
X106772900Y-78897000D01*
G75*
G02*
X106948400Y-79072500I0J-175500D01*
G01*
X106948400Y-79423500D01*
G75*
G02*
X106772900Y-79599000I-175500J0D01*
G01*
X105046900Y-79599000D01*
G75*
G02*
X104871400Y-79423500I0J175500D01*
G01*
G37*
G36*
G01*
X104871400Y-80693500D02*
X104871400Y-80342500D01*
G75*
G02*
X105046900Y-80167000I175500J0D01*
G01*
X106772900Y-80167000D01*
G75*
G02*
X106948400Y-80342500I0J-175500D01*
G01*
X106948400Y-80693500D01*
G75*
G02*
X106772900Y-80869000I-175500J0D01*
G01*
X105046900Y-80869000D01*
G75*
G02*
X104871400Y-80693500I0J175500D01*
G01*
G37*
G36*
G01*
X104871400Y-81963500D02*
X104871400Y-81612500D01*
G75*
G02*
X105046900Y-81437000I175500J0D01*
G01*
X106772900Y-81437000D01*
G75*
G02*
X106948400Y-81612500I0J-175500D01*
G01*
X106948400Y-81963500D01*
G75*
G02*
X106772900Y-82139000I-175500J0D01*
G01*
X105046900Y-82139000D01*
G75*
G02*
X104871400Y-81963500I0J175500D01*
G01*
G37*
G36*
G01*
X80077000Y-68803600D02*
X80077000Y-65003600D01*
G75*
G02*
X80128000Y-64952600I51000J0D01*
G01*
X82128000Y-64952600D01*
G75*
G02*
X82179000Y-65003600I0J-51000D01*
G01*
X82179000Y-68803600D01*
G75*
G02*
X82128000Y-68854600I-51000J0D01*
G01*
X80128000Y-68854600D01*
G75*
G02*
X80077000Y-68803600I0J51000D01*
G01*
G37*
G36*
G01*
X73777000Y-67653600D02*
X73777000Y-66153600D01*
G75*
G02*
X73828000Y-66102600I51000J0D01*
G01*
X75828000Y-66102600D01*
G75*
G02*
X75879000Y-66153600I0J-51000D01*
G01*
X75879000Y-67653600D01*
G75*
G02*
X75828000Y-67704600I-51000J0D01*
G01*
X73828000Y-67704600D01*
G75*
G02*
X73777000Y-67653600I0J51000D01*
G01*
G37*
G36*
G01*
X73777000Y-65353600D02*
X73777000Y-63853600D01*
G75*
G02*
X73828000Y-63802600I51000J0D01*
G01*
X75828000Y-63802600D01*
G75*
G02*
X75879000Y-63853600I0J-51000D01*
G01*
X75879000Y-65353600D01*
G75*
G02*
X75828000Y-65404600I-51000J0D01*
G01*
X73828000Y-65404600D01*
G75*
G02*
X73777000Y-65353600I0J51000D01*
G01*
G37*
G36*
G01*
X73777000Y-69953600D02*
X73777000Y-68453600D01*
G75*
G02*
X73828000Y-68402600I51000J0D01*
G01*
X75828000Y-68402600D01*
G75*
G02*
X75879000Y-68453600I0J-51000D01*
G01*
X75879000Y-69953600D01*
G75*
G02*
X75828000Y-70004600I-51000J0D01*
G01*
X73828000Y-70004600D01*
G75*
G02*
X73777000Y-69953600I0J51000D01*
G01*
G37*
G36*
G01*
X88649400Y-70261401D02*
X88649400Y-69611399D01*
G75*
G02*
X88700399Y-69560400I50999J0D01*
G01*
X90260401Y-69560400D01*
G75*
G02*
X90311400Y-69611399I0J-50999D01*
G01*
X90311400Y-70261401D01*
G75*
G02*
X90260401Y-70312400I-50999J0D01*
G01*
X88700399Y-70312400D01*
G75*
G02*
X88649400Y-70261401I0J50999D01*
G01*
G37*
G36*
G01*
X88649400Y-69311401D02*
X88649400Y-68661399D01*
G75*
G02*
X88700399Y-68610400I50999J0D01*
G01*
X90260401Y-68610400D01*
G75*
G02*
X90311400Y-68661399I0J-50999D01*
G01*
X90311400Y-69311401D01*
G75*
G02*
X90260401Y-69362400I-50999J0D01*
G01*
X88700399Y-69362400D01*
G75*
G02*
X88649400Y-69311401I0J50999D01*
G01*
G37*
G36*
G01*
X88649400Y-68361401D02*
X88649400Y-67711399D01*
G75*
G02*
X88700399Y-67660400I50999J0D01*
G01*
X90260401Y-67660400D01*
G75*
G02*
X90311400Y-67711399I0J-50999D01*
G01*
X90311400Y-68361401D01*
G75*
G02*
X90260401Y-68412400I-50999J0D01*
G01*
X88700399Y-68412400D01*
G75*
G02*
X88649400Y-68361401I0J50999D01*
G01*
G37*
G36*
G01*
X91349400Y-68361401D02*
X91349400Y-67711399D01*
G75*
G02*
X91400399Y-67660400I50999J0D01*
G01*
X92960401Y-67660400D01*
G75*
G02*
X93011400Y-67711399I0J-50999D01*
G01*
X93011400Y-68361401D01*
G75*
G02*
X92960401Y-68412400I-50999J0D01*
G01*
X91400399Y-68412400D01*
G75*
G02*
X91349400Y-68361401I0J50999D01*
G01*
G37*
G36*
G01*
X91349400Y-70261401D02*
X91349400Y-69611399D01*
G75*
G02*
X91400399Y-69560400I50999J0D01*
G01*
X92960401Y-69560400D01*
G75*
G02*
X93011400Y-69611399I0J-50999D01*
G01*
X93011400Y-70261401D01*
G75*
G02*
X92960401Y-70312400I-50999J0D01*
G01*
X91400399Y-70312400D01*
G75*
G02*
X91349400Y-70261401I0J50999D01*
G01*
G37*
G36*
G01*
X90513600Y-84417800D02*
X89013600Y-84417800D01*
G75*
G02*
X88962600Y-84366800I0J51000D01*
G01*
X88962600Y-82866800D01*
G75*
G02*
X89013600Y-82815800I51000J0D01*
G01*
X90513600Y-82815800D01*
G75*
G02*
X90564600Y-82866800I0J-51000D01*
G01*
X90564600Y-84366800D01*
G75*
G02*
X90513600Y-84417800I-51000J0D01*
G01*
G37*
G36*
G01*
X121724600Y-71975600D02*
X121724600Y-70975600D01*
G75*
G02*
X121775600Y-70924600I51000J0D01*
G01*
X122775600Y-70924600D01*
G75*
G02*
X122826600Y-70975600I0J-51000D01*
G01*
X122826600Y-71975600D01*
G75*
G02*
X122775600Y-72026600I-51000J0D01*
G01*
X121775600Y-72026600D01*
G75*
G02*
X121724600Y-71975600I0J51000D01*
G01*
G37*
G36*
G01*
X102112300Y-85972000D02*
X102713300Y-85972000D01*
G75*
G02*
X102938800Y-86197500I0J-225500D01*
G01*
X102938800Y-86648500D01*
G75*
G02*
X102713300Y-86874000I-225500J0D01*
G01*
X102112300Y-86874000D01*
G75*
G02*
X101886800Y-86648500I0J225500D01*
G01*
X101886800Y-86197500D01*
G75*
G02*
X102112300Y-85972000I225500J0D01*
G01*
G37*
G36*
G01*
X102112300Y-84322000D02*
X102713300Y-84322000D01*
G75*
G02*
X102938800Y-84547500I0J-225500D01*
G01*
X102938800Y-84998500D01*
G75*
G02*
X102713300Y-85224000I-225500J0D01*
G01*
X102112300Y-85224000D01*
G75*
G02*
X101886800Y-84998500I0J225500D01*
G01*
X101886800Y-84547500D01*
G75*
G02*
X102112300Y-84322000I225500J0D01*
G01*
G37*
G36*
G01*
X100588300Y-84322000D02*
X101189300Y-84322000D01*
G75*
G02*
X101414800Y-84547500I0J-225500D01*
G01*
X101414800Y-84998500D01*
G75*
G02*
X101189300Y-85224000I-225500J0D01*
G01*
X100588300Y-85224000D01*
G75*
G02*
X100362800Y-84998500I0J225500D01*
G01*
X100362800Y-84547500D01*
G75*
G02*
X100588300Y-84322000I225500J0D01*
G01*
G37*
G36*
G01*
X100588300Y-85972000D02*
X101189300Y-85972000D01*
G75*
G02*
X101414800Y-86197500I0J-225500D01*
G01*
X101414800Y-86648500D01*
G75*
G02*
X101189300Y-86874000I-225500J0D01*
G01*
X100588300Y-86874000D01*
G75*
G02*
X100362800Y-86648500I0J225500D01*
G01*
X100362800Y-86197500D01*
G75*
G02*
X100588300Y-85972000I225500J0D01*
G01*
G37*
G36*
G01*
X113818250Y-70045800D02*
X114781750Y-70045800D01*
G75*
G02*
X115051000Y-70315050I0J-269250D01*
G01*
X115051000Y-70853550D01*
G75*
G02*
X114781750Y-71122800I-269250J0D01*
G01*
X113818250Y-71122800D01*
G75*
G02*
X113549000Y-70853550I0J269250D01*
G01*
X113549000Y-70315050D01*
G75*
G02*
X113818250Y-70045800I269250J0D01*
G01*
G37*
G36*
G01*
X113818250Y-68170800D02*
X114781750Y-68170800D01*
G75*
G02*
X115051000Y-68440050I0J-269250D01*
G01*
X115051000Y-68978550D01*
G75*
G02*
X114781750Y-69247800I-269250J0D01*
G01*
X113818250Y-69247800D01*
G75*
G02*
X113549000Y-68978550I0J269250D01*
G01*
X113549000Y-68440050D01*
G75*
G02*
X113818250Y-68170800I269250J0D01*
G01*
G37*
G36*
G01*
X105741050Y-69995000D02*
X106704550Y-69995000D01*
G75*
G02*
X106973800Y-70264250I0J-269250D01*
G01*
X106973800Y-70802750D01*
G75*
G02*
X106704550Y-71072000I-269250J0D01*
G01*
X105741050Y-71072000D01*
G75*
G02*
X105471800Y-70802750I0J269250D01*
G01*
X105471800Y-70264250D01*
G75*
G02*
X105741050Y-69995000I269250J0D01*
G01*
G37*
G36*
G01*
X105741050Y-68120000D02*
X106704550Y-68120000D01*
G75*
G02*
X106973800Y-68389250I0J-269250D01*
G01*
X106973800Y-68927750D01*
G75*
G02*
X106704550Y-69197000I-269250J0D01*
G01*
X105741050Y-69197000D01*
G75*
G02*
X105471800Y-68927750I0J269250D01*
G01*
X105471800Y-68389250D01*
G75*
G02*
X105741050Y-68120000I269250J0D01*
G01*
G37*
G36*
G01*
X110514550Y-69197000D02*
X109551050Y-69197000D01*
G75*
G02*
X109281800Y-68927750I0J269250D01*
G01*
X109281800Y-68389250D01*
G75*
G02*
X109551050Y-68120000I269250J0D01*
G01*
X110514550Y-68120000D01*
G75*
G02*
X110783800Y-68389250I0J-269250D01*
G01*
X110783800Y-68927750D01*
G75*
G02*
X110514550Y-69197000I-269250J0D01*
G01*
G37*
G36*
G01*
X110514550Y-71072000D02*
X109551050Y-71072000D01*
G75*
G02*
X109281800Y-70802750I0J269250D01*
G01*
X109281800Y-70264250D01*
G75*
G02*
X109551050Y-69995000I269250J0D01*
G01*
X110514550Y-69995000D01*
G75*
G02*
X110783800Y-70264250I0J-269250D01*
G01*
X110783800Y-70802750D01*
G75*
G02*
X110514550Y-71072000I-269250J0D01*
G01*
G37*
G36*
G01*
X86811500Y-113047000D02*
X86811500Y-113648000D01*
G75*
G02*
X86586000Y-113873500I-225500J0D01*
G01*
X86135000Y-113873500D01*
G75*
G02*
X85909500Y-113648000I0J225500D01*
G01*
X85909500Y-113047000D01*
G75*
G02*
X86135000Y-112821500I225500J0D01*
G01*
X86586000Y-112821500D01*
G75*
G02*
X86811500Y-113047000I0J-225500D01*
G01*
G37*
G36*
G01*
X88461500Y-113047000D02*
X88461500Y-113648000D01*
G75*
G02*
X88236000Y-113873500I-225500J0D01*
G01*
X87785000Y-113873500D01*
G75*
G02*
X87559500Y-113648000I0J225500D01*
G01*
X87559500Y-113047000D01*
G75*
G02*
X87785000Y-112821500I225500J0D01*
G01*
X88236000Y-112821500D01*
G75*
G02*
X88461500Y-113047000I0J-225500D01*
G01*
G37*
G36*
G01*
X96600500Y-112134000D02*
X97201500Y-112134000D01*
G75*
G02*
X97427000Y-112359500I0J-225500D01*
G01*
X97427000Y-112810500D01*
G75*
G02*
X97201500Y-113036000I-225500J0D01*
G01*
X96600500Y-113036000D01*
G75*
G02*
X96375000Y-112810500I0J225500D01*
G01*
X96375000Y-112359500D01*
G75*
G02*
X96600500Y-112134000I225500J0D01*
G01*
G37*
G36*
G01*
X96600500Y-110484000D02*
X97201500Y-110484000D01*
G75*
G02*
X97427000Y-110709500I0J-225500D01*
G01*
X97427000Y-111160500D01*
G75*
G02*
X97201500Y-111386000I-225500J0D01*
G01*
X96600500Y-111386000D01*
G75*
G02*
X96375000Y-111160500I0J225500D01*
G01*
X96375000Y-110709500D01*
G75*
G02*
X96600500Y-110484000I225500J0D01*
G01*
G37*
G36*
G01*
X102103700Y-111386000D02*
X101502700Y-111386000D01*
G75*
G02*
X101277200Y-111160500I0J225500D01*
G01*
X101277200Y-110709500D01*
G75*
G02*
X101502700Y-110484000I225500J0D01*
G01*
X102103700Y-110484000D01*
G75*
G02*
X102329200Y-110709500I0J-225500D01*
G01*
X102329200Y-111160500D01*
G75*
G02*
X102103700Y-111386000I-225500J0D01*
G01*
G37*
G36*
G01*
X102103700Y-113036000D02*
X101502700Y-113036000D01*
G75*
G02*
X101277200Y-112810500I0J225500D01*
G01*
X101277200Y-112359500D01*
G75*
G02*
X101502700Y-112134000I225500J0D01*
G01*
X102103700Y-112134000D01*
G75*
G02*
X102329200Y-112359500I0J-225500D01*
G01*
X102329200Y-112810500D01*
G75*
G02*
X102103700Y-113036000I-225500J0D01*
G01*
G37*
G36*
G01*
X111005000Y-113047000D02*
X111005000Y-113648000D01*
G75*
G02*
X110779500Y-113873500I-225500J0D01*
G01*
X110328500Y-113873500D01*
G75*
G02*
X110103000Y-113648000I0J225500D01*
G01*
X110103000Y-113047000D01*
G75*
G02*
X110328500Y-112821500I225500J0D01*
G01*
X110779500Y-112821500D01*
G75*
G02*
X111005000Y-113047000I0J-225500D01*
G01*
G37*
G36*
G01*
X112655000Y-113047000D02*
X112655000Y-113648000D01*
G75*
G02*
X112429500Y-113873500I-225500J0D01*
G01*
X111978500Y-113873500D01*
G75*
G02*
X111753000Y-113648000I0J225500D01*
G01*
X111753000Y-113047000D01*
G75*
G02*
X111978500Y-112821500I225500J0D01*
G01*
X112429500Y-112821500D01*
G75*
G02*
X112655000Y-113047000I0J-225500D01*
G01*
G37*
G36*
G01*
X100478100Y-111386000D02*
X99877100Y-111386000D01*
G75*
G02*
X99651600Y-111160500I0J225500D01*
G01*
X99651600Y-110709500D01*
G75*
G02*
X99877100Y-110484000I225500J0D01*
G01*
X100478100Y-110484000D01*
G75*
G02*
X100703600Y-110709500I0J-225500D01*
G01*
X100703600Y-111160500D01*
G75*
G02*
X100478100Y-111386000I-225500J0D01*
G01*
G37*
G36*
G01*
X100478100Y-113036000D02*
X99877100Y-113036000D01*
G75*
G02*
X99651600Y-112810500I0J225500D01*
G01*
X99651600Y-112359500D01*
G75*
G02*
X99877100Y-112134000I225500J0D01*
G01*
X100478100Y-112134000D01*
G75*
G02*
X100703600Y-112359500I0J-225500D01*
G01*
X100703600Y-112810500D01*
G75*
G02*
X100478100Y-113036000I-225500J0D01*
G01*
G37*
G36*
G01*
X111005000Y-115460000D02*
X111005000Y-116061000D01*
G75*
G02*
X110779500Y-116286500I-225500J0D01*
G01*
X110328500Y-116286500D01*
G75*
G02*
X110103000Y-116061000I0J225500D01*
G01*
X110103000Y-115460000D01*
G75*
G02*
X110328500Y-115234500I225500J0D01*
G01*
X110779500Y-115234500D01*
G75*
G02*
X111005000Y-115460000I0J-225500D01*
G01*
G37*
G36*
G01*
X112655000Y-115460000D02*
X112655000Y-116061000D01*
G75*
G02*
X112429500Y-116286500I-225500J0D01*
G01*
X111978500Y-116286500D01*
G75*
G02*
X111753000Y-116061000I0J225500D01*
G01*
X111753000Y-115460000D01*
G75*
G02*
X111978500Y-115234500I225500J0D01*
G01*
X112429500Y-115234500D01*
G75*
G02*
X112655000Y-115460000I0J-225500D01*
G01*
G37*
G36*
G01*
X97553000Y-85972000D02*
X98154000Y-85972000D01*
G75*
G02*
X98379500Y-86197500I0J-225500D01*
G01*
X98379500Y-86648500D01*
G75*
G02*
X98154000Y-86874000I-225500J0D01*
G01*
X97553000Y-86874000D01*
G75*
G02*
X97327500Y-86648500I0J225500D01*
G01*
X97327500Y-86197500D01*
G75*
G02*
X97553000Y-85972000I225500J0D01*
G01*
G37*
G36*
G01*
X97553000Y-84322000D02*
X98154000Y-84322000D01*
G75*
G02*
X98379500Y-84547500I0J-225500D01*
G01*
X98379500Y-84998500D01*
G75*
G02*
X98154000Y-85224000I-225500J0D01*
G01*
X97553000Y-85224000D01*
G75*
G02*
X97327500Y-84998500I0J225500D01*
G01*
X97327500Y-84547500D01*
G75*
G02*
X97553000Y-84322000I225500J0D01*
G01*
G37*
G36*
G01*
X96726000Y-86183050D02*
X96726000Y-87146550D01*
G75*
G02*
X96456750Y-87415800I-269250J0D01*
G01*
X95918250Y-87415800D01*
G75*
G02*
X95649000Y-87146550I0J269250D01*
G01*
X95649000Y-86183050D01*
G75*
G02*
X95918250Y-85913800I269250J0D01*
G01*
X96456750Y-85913800D01*
G75*
G02*
X96726000Y-86183050I0J-269250D01*
G01*
G37*
G36*
G01*
X94851000Y-86183050D02*
X94851000Y-87146550D01*
G75*
G02*
X94581750Y-87415800I-269250J0D01*
G01*
X94043250Y-87415800D01*
G75*
G02*
X93774000Y-87146550I0J269250D01*
G01*
X93774000Y-86183050D01*
G75*
G02*
X94043250Y-85913800I269250J0D01*
G01*
X94581750Y-85913800D01*
G75*
G02*
X94851000Y-86183050I0J-269250D01*
G01*
G37*
G36*
G01*
X73278150Y-81943200D02*
X72314650Y-81943200D01*
G75*
G02*
X72045400Y-81673950I0J269250D01*
G01*
X72045400Y-81135450D01*
G75*
G02*
X72314650Y-80866200I269250J0D01*
G01*
X73278150Y-80866200D01*
G75*
G02*
X73547400Y-81135450I0J-269250D01*
G01*
X73547400Y-81673950D01*
G75*
G02*
X73278150Y-81943200I-269250J0D01*
G01*
G37*
G36*
G01*
X73278150Y-80068200D02*
X72314650Y-80068200D01*
G75*
G02*
X72045400Y-79798950I0J269250D01*
G01*
X72045400Y-79260450D01*
G75*
G02*
X72314650Y-78991200I269250J0D01*
G01*
X73278150Y-78991200D01*
G75*
G02*
X73547400Y-79260450I0J-269250D01*
G01*
X73547400Y-79798950D01*
G75*
G02*
X73278150Y-80068200I-269250J0D01*
G01*
G37*
G36*
G01*
X68028600Y-127026250D02*
X68028600Y-127989750D01*
G75*
G02*
X67759350Y-128259000I-269250J0D01*
G01*
X67220850Y-128259000D01*
G75*
G02*
X66951600Y-127989750I0J269250D01*
G01*
X66951600Y-127026250D01*
G75*
G02*
X67220850Y-126757000I269250J0D01*
G01*
X67759350Y-126757000D01*
G75*
G02*
X68028600Y-127026250I0J-269250D01*
G01*
G37*
G36*
G01*
X69903600Y-127026250D02*
X69903600Y-127989750D01*
G75*
G02*
X69634350Y-128259000I-269250J0D01*
G01*
X69095850Y-128259000D01*
G75*
G02*
X68826600Y-127989750I0J269250D01*
G01*
X68826600Y-127026250D01*
G75*
G02*
X69095850Y-126757000I269250J0D01*
G01*
X69634350Y-126757000D01*
G75*
G02*
X69903600Y-127026250I0J-269250D01*
G01*
G37*
G36*
G01*
X73278150Y-85562700D02*
X72314650Y-85562700D01*
G75*
G02*
X72045400Y-85293450I0J269250D01*
G01*
X72045400Y-84754950D01*
G75*
G02*
X72314650Y-84485700I269250J0D01*
G01*
X73278150Y-84485700D01*
G75*
G02*
X73547400Y-84754950I0J-269250D01*
G01*
X73547400Y-85293450D01*
G75*
G02*
X73278150Y-85562700I-269250J0D01*
G01*
G37*
G36*
G01*
X73278150Y-83687700D02*
X72314650Y-83687700D01*
G75*
G02*
X72045400Y-83418450I0J269250D01*
G01*
X72045400Y-82879950D01*
G75*
G02*
X72314650Y-82610700I269250J0D01*
G01*
X73278150Y-82610700D01*
G75*
G02*
X73547400Y-82879950I0J-269250D01*
G01*
X73547400Y-83418450D01*
G75*
G02*
X73278150Y-83687700I-269250J0D01*
G01*
G37*
G36*
G01*
X82194900Y-74604700D02*
X82194900Y-76804700D01*
G75*
G02*
X82143900Y-76855700I-51000J0D01*
G01*
X80643900Y-76855700D01*
G75*
G02*
X80592900Y-76804700I0J51000D01*
G01*
X80592900Y-74604700D01*
G75*
G02*
X80643900Y-74553700I51000J0D01*
G01*
X82143900Y-74553700D01*
G75*
G02*
X82194900Y-74604700I0J-51000D01*
G01*
G37*
G36*
G01*
X75794900Y-74604700D02*
X75794900Y-76804700D01*
G75*
G02*
X75743900Y-76855700I-51000J0D01*
G01*
X74243900Y-76855700D01*
G75*
G02*
X74192900Y-76804700I0J51000D01*
G01*
X74192900Y-74604700D01*
G75*
G02*
X74243900Y-74553700I51000J0D01*
G01*
X75743900Y-74553700D01*
G75*
G02*
X75794900Y-74604700I0J-51000D01*
G01*
G37*
D11*
X104670500Y-129095500D03*
X101170500Y-129095500D03*
X97670500Y-129095500D03*
G36*
G01*
X92919500Y-130295500D02*
X92919500Y-127895500D01*
G75*
G02*
X92970500Y-127844500I51000J0D01*
G01*
X95370500Y-127844500D01*
G75*
G02*
X95421500Y-127895500I0J-51000D01*
G01*
X95421500Y-130295500D01*
G75*
G02*
X95370500Y-130346500I-51000J0D01*
G01*
X92970500Y-130346500D01*
G75*
G02*
X92919500Y-130295500I0J51000D01*
G01*
G37*
G36*
G01*
X64908950Y-111775800D02*
X68085450Y-111775800D01*
G75*
G02*
X68348200Y-112038550I0J-262750D01*
G01*
X68348200Y-113615050D01*
G75*
G02*
X68085450Y-113877800I-262750J0D01*
G01*
X64908950Y-113877800D01*
G75*
G02*
X64646200Y-113615050I0J262750D01*
G01*
X64646200Y-112038550D01*
G75*
G02*
X64908950Y-111775800I262750J0D01*
G01*
G37*
D17*
X66497200Y-117826800D03*
D11*
X63997200Y-107826800D03*
X63997200Y-122826800D03*
D18*
X134620000Y-65227200D03*
X63957200Y-65176400D03*
X134620000Y-130810000D03*
X63906400Y-131013200D03*
G36*
G01*
X72567800Y-68811448D02*
X72567800Y-69770952D01*
G75*
G02*
X72296552Y-70042200I-271248J0D01*
G01*
X71537048Y-70042200D01*
G75*
G02*
X71265800Y-69770952I0J271248D01*
G01*
X71265800Y-68811448D01*
G75*
G02*
X71537048Y-68540200I271248J0D01*
G01*
X72296552Y-68540200D01*
G75*
G02*
X72567800Y-68811448I0J-271248D01*
G01*
G37*
G36*
G01*
X70567800Y-68811448D02*
X70567800Y-69770952D01*
G75*
G02*
X70296552Y-70042200I-271248J0D01*
G01*
X69537048Y-70042200D01*
G75*
G02*
X69265800Y-69770952I0J271248D01*
G01*
X69265800Y-68811448D01*
G75*
G02*
X69537048Y-68540200I271248J0D01*
G01*
X70296552Y-68540200D01*
G75*
G02*
X70567800Y-68811448I0J-271248D01*
G01*
G37*
G36*
G01*
X83597000Y-82388800D02*
X83597000Y-81288800D01*
G75*
G02*
X83648000Y-81237800I51000J0D01*
G01*
X84748000Y-81237800D01*
G75*
G02*
X84799000Y-81288800I0J-51000D01*
G01*
X84799000Y-82388800D01*
G75*
G02*
X84748000Y-82439800I-51000J0D01*
G01*
X83648000Y-82439800D01*
G75*
G02*
X83597000Y-82388800I0J51000D01*
G01*
G37*
G36*
G01*
X86397000Y-82388800D02*
X86397000Y-81288800D01*
G75*
G02*
X86448000Y-81237800I51000J0D01*
G01*
X87548000Y-81237800D01*
G75*
G02*
X87599000Y-81288800I0J-51000D01*
G01*
X87599000Y-82388800D01*
G75*
G02*
X87548000Y-82439800I-51000J0D01*
G01*
X86448000Y-82439800D01*
G75*
G02*
X86397000Y-82388800I0J51000D01*
G01*
G37*
G36*
G01*
X81708400Y-81075700D02*
X81708400Y-81525700D01*
G75*
G02*
X81657400Y-81576700I-51000J0D01*
G01*
X80607400Y-81576700D01*
G75*
G02*
X80556400Y-81525700I0J51000D01*
G01*
X80556400Y-81075700D01*
G75*
G02*
X80607400Y-81024700I51000J0D01*
G01*
X81657400Y-81024700D01*
G75*
G02*
X81708400Y-81075700I0J-51000D01*
G01*
G37*
G36*
G01*
X81708400Y-81725700D02*
X81708400Y-82175700D01*
G75*
G02*
X81657400Y-82226700I-51000J0D01*
G01*
X80607400Y-82226700D01*
G75*
G02*
X80556400Y-82175700I0J51000D01*
G01*
X80556400Y-81725700D01*
G75*
G02*
X80607400Y-81674700I51000J0D01*
G01*
X81657400Y-81674700D01*
G75*
G02*
X81708400Y-81725700I0J-51000D01*
G01*
G37*
G36*
G01*
X81708400Y-82375700D02*
X81708400Y-82825700D01*
G75*
G02*
X81657400Y-82876700I-51000J0D01*
G01*
X80607400Y-82876700D01*
G75*
G02*
X80556400Y-82825700I0J51000D01*
G01*
X80556400Y-82375700D01*
G75*
G02*
X80607400Y-82324700I51000J0D01*
G01*
X81657400Y-82324700D01*
G75*
G02*
X81708400Y-82375700I0J-51000D01*
G01*
G37*
G36*
G01*
X81708400Y-83025700D02*
X81708400Y-83475700D01*
G75*
G02*
X81657400Y-83526700I-51000J0D01*
G01*
X80607400Y-83526700D01*
G75*
G02*
X80556400Y-83475700I0J51000D01*
G01*
X80556400Y-83025700D01*
G75*
G02*
X80607400Y-82974700I51000J0D01*
G01*
X81657400Y-82974700D01*
G75*
G02*
X81708400Y-83025700I0J-51000D01*
G01*
G37*
G36*
G01*
X81708400Y-83675700D02*
X81708400Y-84125700D01*
G75*
G02*
X81657400Y-84176700I-51000J0D01*
G01*
X80607400Y-84176700D01*
G75*
G02*
X80556400Y-84125700I0J51000D01*
G01*
X80556400Y-83675700D01*
G75*
G02*
X80607400Y-83624700I51000J0D01*
G01*
X81657400Y-83624700D01*
G75*
G02*
X81708400Y-83675700I0J-51000D01*
G01*
G37*
G36*
G01*
X81708400Y-84325700D02*
X81708400Y-84775700D01*
G75*
G02*
X81657400Y-84826700I-51000J0D01*
G01*
X80607400Y-84826700D01*
G75*
G02*
X80556400Y-84775700I0J51000D01*
G01*
X80556400Y-84325700D01*
G75*
G02*
X80607400Y-84274700I51000J0D01*
G01*
X81657400Y-84274700D01*
G75*
G02*
X81708400Y-84325700I0J-51000D01*
G01*
G37*
G36*
G01*
X81708400Y-84975700D02*
X81708400Y-85425700D01*
G75*
G02*
X81657400Y-85476700I-51000J0D01*
G01*
X80607400Y-85476700D01*
G75*
G02*
X80556400Y-85425700I0J51000D01*
G01*
X80556400Y-84975700D01*
G75*
G02*
X80607400Y-84924700I51000J0D01*
G01*
X81657400Y-84924700D01*
G75*
G02*
X81708400Y-84975700I0J-51000D01*
G01*
G37*
G36*
G01*
X81708400Y-85625700D02*
X81708400Y-86075700D01*
G75*
G02*
X81657400Y-86126700I-51000J0D01*
G01*
X80607400Y-86126700D01*
G75*
G02*
X80556400Y-86075700I0J51000D01*
G01*
X80556400Y-85625700D01*
G75*
G02*
X80607400Y-85574700I51000J0D01*
G01*
X81657400Y-85574700D01*
G75*
G02*
X81708400Y-85625700I0J-51000D01*
G01*
G37*
G36*
G01*
X76158400Y-85625700D02*
X76158400Y-86075700D01*
G75*
G02*
X76107400Y-86126700I-51000J0D01*
G01*
X75057400Y-86126700D01*
G75*
G02*
X75006400Y-86075700I0J51000D01*
G01*
X75006400Y-85625700D01*
G75*
G02*
X75057400Y-85574700I51000J0D01*
G01*
X76107400Y-85574700D01*
G75*
G02*
X76158400Y-85625700I0J-51000D01*
G01*
G37*
G36*
G01*
X76158400Y-84975700D02*
X76158400Y-85425700D01*
G75*
G02*
X76107400Y-85476700I-51000J0D01*
G01*
X75057400Y-85476700D01*
G75*
G02*
X75006400Y-85425700I0J51000D01*
G01*
X75006400Y-84975700D01*
G75*
G02*
X75057400Y-84924700I51000J0D01*
G01*
X76107400Y-84924700D01*
G75*
G02*
X76158400Y-84975700I0J-51000D01*
G01*
G37*
G36*
G01*
X76158400Y-84325700D02*
X76158400Y-84775700D01*
G75*
G02*
X76107400Y-84826700I-51000J0D01*
G01*
X75057400Y-84826700D01*
G75*
G02*
X75006400Y-84775700I0J51000D01*
G01*
X75006400Y-84325700D01*
G75*
G02*
X75057400Y-84274700I51000J0D01*
G01*
X76107400Y-84274700D01*
G75*
G02*
X76158400Y-84325700I0J-51000D01*
G01*
G37*
G36*
G01*
X76158400Y-83675700D02*
X76158400Y-84125700D01*
G75*
G02*
X76107400Y-84176700I-51000J0D01*
G01*
X75057400Y-84176700D01*
G75*
G02*
X75006400Y-84125700I0J51000D01*
G01*
X75006400Y-83675700D01*
G75*
G02*
X75057400Y-83624700I51000J0D01*
G01*
X76107400Y-83624700D01*
G75*
G02*
X76158400Y-83675700I0J-51000D01*
G01*
G37*
G36*
G01*
X76158400Y-83025700D02*
X76158400Y-83475700D01*
G75*
G02*
X76107400Y-83526700I-51000J0D01*
G01*
X75057400Y-83526700D01*
G75*
G02*
X75006400Y-83475700I0J51000D01*
G01*
X75006400Y-83025700D01*
G75*
G02*
X75057400Y-82974700I51000J0D01*
G01*
X76107400Y-82974700D01*
G75*
G02*
X76158400Y-83025700I0J-51000D01*
G01*
G37*
G36*
G01*
X76158400Y-82375700D02*
X76158400Y-82825700D01*
G75*
G02*
X76107400Y-82876700I-51000J0D01*
G01*
X75057400Y-82876700D01*
G75*
G02*
X75006400Y-82825700I0J51000D01*
G01*
X75006400Y-82375700D01*
G75*
G02*
X75057400Y-82324700I51000J0D01*
G01*
X76107400Y-82324700D01*
G75*
G02*
X76158400Y-82375700I0J-51000D01*
G01*
G37*
G36*
G01*
X76158400Y-81725700D02*
X76158400Y-82175700D01*
G75*
G02*
X76107400Y-82226700I-51000J0D01*
G01*
X75057400Y-82226700D01*
G75*
G02*
X75006400Y-82175700I0J51000D01*
G01*
X75006400Y-81725700D01*
G75*
G02*
X75057400Y-81674700I51000J0D01*
G01*
X76107400Y-81674700D01*
G75*
G02*
X76158400Y-81725700I0J-51000D01*
G01*
G37*
G36*
G01*
X76158400Y-81075700D02*
X76158400Y-81525700D01*
G75*
G02*
X76107400Y-81576700I-51000J0D01*
G01*
X75057400Y-81576700D01*
G75*
G02*
X75006400Y-81525700I0J51000D01*
G01*
X75006400Y-81075700D01*
G75*
G02*
X75057400Y-81024700I51000J0D01*
G01*
X76107400Y-81024700D01*
G75*
G02*
X76158400Y-81075700I0J-51000D01*
G01*
G37*
G36*
G01*
X78408400Y-84470700D02*
X78408400Y-85365700D01*
G75*
G02*
X78357400Y-85416700I-51000J0D01*
G01*
X76887400Y-85416700D01*
G75*
G02*
X76836400Y-85365700I0J51000D01*
G01*
X76836400Y-84470700D01*
G75*
G02*
X76887400Y-84419700I51000J0D01*
G01*
X78357400Y-84419700D01*
G75*
G02*
X78408400Y-84470700I0J-51000D01*
G01*
G37*
G36*
G01*
X78408400Y-83575700D02*
X78408400Y-84470700D01*
G75*
G02*
X78357400Y-84521700I-51000J0D01*
G01*
X76887400Y-84521700D01*
G75*
G02*
X76836400Y-84470700I0J51000D01*
G01*
X76836400Y-83575700D01*
G75*
G02*
X76887400Y-83524700I51000J0D01*
G01*
X78357400Y-83524700D01*
G75*
G02*
X78408400Y-83575700I0J-51000D01*
G01*
G37*
G36*
G01*
X78408400Y-82680700D02*
X78408400Y-83575700D01*
G75*
G02*
X78357400Y-83626700I-51000J0D01*
G01*
X76887400Y-83626700D01*
G75*
G02*
X76836400Y-83575700I0J51000D01*
G01*
X76836400Y-82680700D01*
G75*
G02*
X76887400Y-82629700I51000J0D01*
G01*
X78357400Y-82629700D01*
G75*
G02*
X78408400Y-82680700I0J-51000D01*
G01*
G37*
G36*
G01*
X78408400Y-81785700D02*
X78408400Y-82680700D01*
G75*
G02*
X78357400Y-82731700I-51000J0D01*
G01*
X76887400Y-82731700D01*
G75*
G02*
X76836400Y-82680700I0J51000D01*
G01*
X76836400Y-81785700D01*
G75*
G02*
X76887400Y-81734700I51000J0D01*
G01*
X78357400Y-81734700D01*
G75*
G02*
X78408400Y-81785700I0J-51000D01*
G01*
G37*
G36*
G01*
X79878400Y-84470700D02*
X79878400Y-85365700D01*
G75*
G02*
X79827400Y-85416700I-51000J0D01*
G01*
X78357400Y-85416700D01*
G75*
G02*
X78306400Y-85365700I0J51000D01*
G01*
X78306400Y-84470700D01*
G75*
G02*
X78357400Y-84419700I51000J0D01*
G01*
X79827400Y-84419700D01*
G75*
G02*
X79878400Y-84470700I0J-51000D01*
G01*
G37*
G36*
G01*
X79878400Y-83575700D02*
X79878400Y-84470700D01*
G75*
G02*
X79827400Y-84521700I-51000J0D01*
G01*
X78357400Y-84521700D01*
G75*
G02*
X78306400Y-84470700I0J51000D01*
G01*
X78306400Y-83575700D01*
G75*
G02*
X78357400Y-83524700I51000J0D01*
G01*
X79827400Y-83524700D01*
G75*
G02*
X79878400Y-83575700I0J-51000D01*
G01*
G37*
G36*
G01*
X79878400Y-82680700D02*
X79878400Y-83575700D01*
G75*
G02*
X79827400Y-83626700I-51000J0D01*
G01*
X78357400Y-83626700D01*
G75*
G02*
X78306400Y-83575700I0J51000D01*
G01*
X78306400Y-82680700D01*
G75*
G02*
X78357400Y-82629700I51000J0D01*
G01*
X79827400Y-82629700D01*
G75*
G02*
X79878400Y-82680700I0J-51000D01*
G01*
G37*
G36*
G01*
X79878400Y-81785700D02*
X79878400Y-82680700D01*
G75*
G02*
X79827400Y-82731700I-51000J0D01*
G01*
X78357400Y-82731700D01*
G75*
G02*
X78306400Y-82680700I0J51000D01*
G01*
X78306400Y-81785700D01*
G75*
G02*
X78357400Y-81734700I51000J0D01*
G01*
X79827400Y-81734700D01*
G75*
G02*
X79878400Y-81785700I0J-51000D01*
G01*
G37*
G36*
G01*
X71920000Y-126903200D02*
X71920000Y-128214400D01*
G75*
G02*
X71649600Y-128484800I-270400J0D01*
G01*
X70838400Y-128484800D01*
G75*
G02*
X70568000Y-128214400I0J270400D01*
G01*
X70568000Y-126903200D01*
G75*
G02*
X70838400Y-126632800I270400J0D01*
G01*
X71649600Y-126632800D01*
G75*
G02*
X71920000Y-126903200I0J-270400D01*
G01*
G37*
G36*
G01*
X74720000Y-126903200D02*
X74720000Y-128214400D01*
G75*
G02*
X74449600Y-128484800I-270400J0D01*
G01*
X73638400Y-128484800D01*
G75*
G02*
X73368000Y-128214400I0J270400D01*
G01*
X73368000Y-126903200D01*
G75*
G02*
X73638400Y-126632800I270400J0D01*
G01*
X74449600Y-126632800D01*
G75*
G02*
X74720000Y-126903200I0J-270400D01*
G01*
G37*
G36*
G01*
X72053900Y-89187300D02*
X72053900Y-87876100D01*
G75*
G02*
X72324300Y-87605700I270400J0D01*
G01*
X73135500Y-87605700D01*
G75*
G02*
X73405900Y-87876100I0J-270400D01*
G01*
X73405900Y-89187300D01*
G75*
G02*
X73135500Y-89457700I-270400J0D01*
G01*
X72324300Y-89457700D01*
G75*
G02*
X72053900Y-89187300I0J270400D01*
G01*
G37*
G36*
G01*
X74853900Y-89187300D02*
X74853900Y-87876100D01*
G75*
G02*
X75124300Y-87605700I270400J0D01*
G01*
X75935500Y-87605700D01*
G75*
G02*
X76205900Y-87876100I0J-270400D01*
G01*
X76205900Y-89187300D01*
G75*
G02*
X75935500Y-89457700I-270400J0D01*
G01*
X75124300Y-89457700D01*
G75*
G02*
X74853900Y-89187300I0J270400D01*
G01*
G37*
G36*
G01*
X81932400Y-87995200D02*
X81932400Y-89195200D01*
G75*
G02*
X81881400Y-89246200I-51000J0D01*
G01*
X80981400Y-89246200D01*
G75*
G02*
X80930400Y-89195200I0J51000D01*
G01*
X80930400Y-87995200D01*
G75*
G02*
X80981400Y-87944200I51000J0D01*
G01*
X81881400Y-87944200D01*
G75*
G02*
X81932400Y-87995200I0J-51000D01*
G01*
G37*
G36*
G01*
X78632400Y-87995200D02*
X78632400Y-89195200D01*
G75*
G02*
X78581400Y-89246200I-51000J0D01*
G01*
X77681400Y-89246200D01*
G75*
G02*
X77630400Y-89195200I0J51000D01*
G01*
X77630400Y-87995200D01*
G75*
G02*
X77681400Y-87944200I51000J0D01*
G01*
X78581400Y-87944200D01*
G75*
G02*
X78632400Y-87995200I0J-51000D01*
G01*
G37*
G36*
G01*
X126550200Y-69469850D02*
X126550200Y-70433350D01*
G75*
G02*
X126280950Y-70702600I-269250J0D01*
G01*
X125742450Y-70702600D01*
G75*
G02*
X125473200Y-70433350I0J269250D01*
G01*
X125473200Y-69469850D01*
G75*
G02*
X125742450Y-69200600I269250J0D01*
G01*
X126280950Y-69200600D01*
G75*
G02*
X126550200Y-69469850I0J-269250D01*
G01*
G37*
G36*
G01*
X128425200Y-69469850D02*
X128425200Y-70433350D01*
G75*
G02*
X128155950Y-70702600I-269250J0D01*
G01*
X127617450Y-70702600D01*
G75*
G02*
X127348200Y-70433350I0J269250D01*
G01*
X127348200Y-69469850D01*
G75*
G02*
X127617450Y-69200600I269250J0D01*
G01*
X128155950Y-69200600D01*
G75*
G02*
X128425200Y-69469850I0J-269250D01*
G01*
G37*
G36*
G01*
X126448600Y-104775850D02*
X126448600Y-105739350D01*
G75*
G02*
X126179350Y-106008600I-269250J0D01*
G01*
X125640850Y-106008600D01*
G75*
G02*
X125371600Y-105739350I0J269250D01*
G01*
X125371600Y-104775850D01*
G75*
G02*
X125640850Y-104506600I269250J0D01*
G01*
X126179350Y-104506600D01*
G75*
G02*
X126448600Y-104775850I0J-269250D01*
G01*
G37*
G36*
G01*
X128323600Y-104775850D02*
X128323600Y-105739350D01*
G75*
G02*
X128054350Y-106008600I-269250J0D01*
G01*
X127515850Y-106008600D01*
G75*
G02*
X127246600Y-105739350I0J269250D01*
G01*
X127246600Y-104775850D01*
G75*
G02*
X127515850Y-104506600I269250J0D01*
G01*
X128054350Y-104506600D01*
G75*
G02*
X128323600Y-104775850I0J-269250D01*
G01*
G37*
G36*
G01*
X112243450Y-85539800D02*
X113206950Y-85539800D01*
G75*
G02*
X113476200Y-85809050I0J-269250D01*
G01*
X113476200Y-86347550D01*
G75*
G02*
X113206950Y-86616800I-269250J0D01*
G01*
X112243450Y-86616800D01*
G75*
G02*
X111974200Y-86347550I0J269250D01*
G01*
X111974200Y-85809050D01*
G75*
G02*
X112243450Y-85539800I269250J0D01*
G01*
G37*
G36*
G01*
X112243450Y-83664800D02*
X113206950Y-83664800D01*
G75*
G02*
X113476200Y-83934050I0J-269250D01*
G01*
X113476200Y-84472550D01*
G75*
G02*
X113206950Y-84741800I-269250J0D01*
G01*
X112243450Y-84741800D01*
G75*
G02*
X111974200Y-84472550I0J269250D01*
G01*
X111974200Y-83934050D01*
G75*
G02*
X112243450Y-83664800I269250J0D01*
G01*
G37*
G36*
G01*
X98407000Y-65050250D02*
X98407000Y-66013750D01*
G75*
G02*
X98137750Y-66283000I-269250J0D01*
G01*
X97599250Y-66283000D01*
G75*
G02*
X97330000Y-66013750I0J269250D01*
G01*
X97330000Y-65050250D01*
G75*
G02*
X97599250Y-64781000I269250J0D01*
G01*
X98137750Y-64781000D01*
G75*
G02*
X98407000Y-65050250I0J-269250D01*
G01*
G37*
G36*
G01*
X100282000Y-65050250D02*
X100282000Y-66013750D01*
G75*
G02*
X100012750Y-66283000I-269250J0D01*
G01*
X99474250Y-66283000D01*
G75*
G02*
X99205000Y-66013750I0J269250D01*
G01*
X99205000Y-65050250D01*
G75*
G02*
X99474250Y-64781000I269250J0D01*
G01*
X100012750Y-64781000D01*
G75*
G02*
X100282000Y-65050250I0J-269250D01*
G01*
G37*
G36*
G01*
X89337200Y-132210900D02*
X89337200Y-132761900D01*
G75*
G02*
X89086700Y-133012400I-250500J0D01*
G01*
X88585700Y-133012400D01*
G75*
G02*
X88335200Y-132761900I0J250500D01*
G01*
X88335200Y-132210900D01*
G75*
G02*
X88585700Y-131960400I250500J0D01*
G01*
X89086700Y-131960400D01*
G75*
G02*
X89337200Y-132210900I0J-250500D01*
G01*
G37*
G36*
G01*
X90887200Y-132210900D02*
X90887200Y-132761900D01*
G75*
G02*
X90636700Y-133012400I-250500J0D01*
G01*
X90135700Y-133012400D01*
G75*
G02*
X89885200Y-132761900I0J250500D01*
G01*
X89885200Y-132210900D01*
G75*
G02*
X90135700Y-131960400I250500J0D01*
G01*
X90636700Y-131960400D01*
G75*
G02*
X90887200Y-132210900I0J-250500D01*
G01*
G37*
G36*
G01*
X96563500Y-132185500D02*
X96563500Y-132736500D01*
G75*
G02*
X96313000Y-132987000I-250500J0D01*
G01*
X95812000Y-132987000D01*
G75*
G02*
X95561500Y-132736500I0J250500D01*
G01*
X95561500Y-132185500D01*
G75*
G02*
X95812000Y-131935000I250500J0D01*
G01*
X96313000Y-131935000D01*
G75*
G02*
X96563500Y-132185500I0J-250500D01*
G01*
G37*
G36*
G01*
X98113500Y-132185500D02*
X98113500Y-132736500D01*
G75*
G02*
X97863000Y-132987000I-250500J0D01*
G01*
X97362000Y-132987000D01*
G75*
G02*
X97111500Y-132736500I0J250500D01*
G01*
X97111500Y-132185500D01*
G75*
G02*
X97362000Y-131935000I250500J0D01*
G01*
X97863000Y-131935000D01*
G75*
G02*
X98113500Y-132185500I0J-250500D01*
G01*
G37*
G36*
G01*
X102509000Y-132736500D02*
X102509000Y-132185500D01*
G75*
G02*
X102759500Y-131935000I250500J0D01*
G01*
X103260500Y-131935000D01*
G75*
G02*
X103511000Y-132185500I0J-250500D01*
G01*
X103511000Y-132736500D01*
G75*
G02*
X103260500Y-132987000I-250500J0D01*
G01*
X102759500Y-132987000D01*
G75*
G02*
X102509000Y-132736500I0J250500D01*
G01*
G37*
G36*
G01*
X100959000Y-132736500D02*
X100959000Y-132185500D01*
G75*
G02*
X101209500Y-131935000I250500J0D01*
G01*
X101710500Y-131935000D01*
G75*
G02*
X101961000Y-132185500I0J-250500D01*
G01*
X101961000Y-132736500D01*
G75*
G02*
X101710500Y-132987000I-250500J0D01*
G01*
X101209500Y-132987000D01*
G75*
G02*
X100959000Y-132736500I0J250500D01*
G01*
G37*
G36*
G01*
X107614400Y-132711100D02*
X107614400Y-132160100D01*
G75*
G02*
X107864900Y-131909600I250500J0D01*
G01*
X108365900Y-131909600D01*
G75*
G02*
X108616400Y-132160100I0J-250500D01*
G01*
X108616400Y-132711100D01*
G75*
G02*
X108365900Y-132961600I-250500J0D01*
G01*
X107864900Y-132961600D01*
G75*
G02*
X107614400Y-132711100I0J250500D01*
G01*
G37*
G36*
G01*
X106064400Y-132711100D02*
X106064400Y-132160100D01*
G75*
G02*
X106314900Y-131909600I250500J0D01*
G01*
X106815900Y-131909600D01*
G75*
G02*
X107066400Y-132160100I0J-250500D01*
G01*
X107066400Y-132711100D01*
G75*
G02*
X106815900Y-132961600I-250500J0D01*
G01*
X106314900Y-132961600D01*
G75*
G02*
X106064400Y-132711100I0J250500D01*
G01*
G37*
G36*
G01*
X104524900Y-91002800D02*
X105075900Y-91002800D01*
G75*
G02*
X105326400Y-91253300I0J-250500D01*
G01*
X105326400Y-91754300D01*
G75*
G02*
X105075900Y-92004800I-250500J0D01*
G01*
X104524900Y-92004800D01*
G75*
G02*
X104274400Y-91754300I0J250500D01*
G01*
X104274400Y-91253300D01*
G75*
G02*
X104524900Y-91002800I250500J0D01*
G01*
G37*
G36*
G01*
X104524900Y-89452800D02*
X105075900Y-89452800D01*
G75*
G02*
X105326400Y-89703300I0J-250500D01*
G01*
X105326400Y-90204300D01*
G75*
G02*
X105075900Y-90454800I-250500J0D01*
G01*
X104524900Y-90454800D01*
G75*
G02*
X104274400Y-90204300I0J250500D01*
G01*
X104274400Y-89703300D01*
G75*
G02*
X104524900Y-89452800I250500J0D01*
G01*
G37*
G36*
G01*
X99653000Y-85324000D02*
X99102000Y-85324000D01*
G75*
G02*
X98851500Y-85073500I0J250500D01*
G01*
X98851500Y-84572500D01*
G75*
G02*
X99102000Y-84322000I250500J0D01*
G01*
X99653000Y-84322000D01*
G75*
G02*
X99903500Y-84572500I0J-250500D01*
G01*
X99903500Y-85073500D01*
G75*
G02*
X99653000Y-85324000I-250500J0D01*
G01*
G37*
G36*
G01*
X99653000Y-86874000D02*
X99102000Y-86874000D01*
G75*
G02*
X98851500Y-86623500I0J250500D01*
G01*
X98851500Y-86122500D01*
G75*
G02*
X99102000Y-85872000I250500J0D01*
G01*
X99653000Y-85872000D01*
G75*
G02*
X99903500Y-86122500I0J-250500D01*
G01*
X99903500Y-86623500D01*
G75*
G02*
X99653000Y-86874000I-250500J0D01*
G01*
G37*
G36*
G01*
X95026800Y-84560500D02*
X95026800Y-85111500D01*
G75*
G02*
X94776300Y-85362000I-250500J0D01*
G01*
X94275300Y-85362000D01*
G75*
G02*
X94024800Y-85111500I0J250500D01*
G01*
X94024800Y-84560500D01*
G75*
G02*
X94275300Y-84310000I250500J0D01*
G01*
X94776300Y-84310000D01*
G75*
G02*
X95026800Y-84560500I0J-250500D01*
G01*
G37*
G36*
G01*
X96576800Y-84560500D02*
X96576800Y-85111500D01*
G75*
G02*
X96326300Y-85362000I-250500J0D01*
G01*
X95825300Y-85362000D01*
G75*
G02*
X95574800Y-85111500I0J250500D01*
G01*
X95574800Y-84560500D01*
G75*
G02*
X95825300Y-84310000I250500J0D01*
G01*
X96326300Y-84310000D01*
G75*
G02*
X96576800Y-84560500I0J-250500D01*
G01*
G37*
G36*
G01*
X98029400Y-82360958D02*
X98029400Y-80097442D01*
G75*
G02*
X98298642Y-79828200I269242J0D01*
G01*
X99187158Y-79828200D01*
G75*
G02*
X99456400Y-80097442I0J-269242D01*
G01*
X99456400Y-82360958D01*
G75*
G02*
X99187158Y-82630200I-269242J0D01*
G01*
X98298642Y-82630200D01*
G75*
G02*
X98029400Y-82360958I0J269242D01*
G01*
G37*
G36*
G01*
X94904400Y-82360958D02*
X94904400Y-80097442D01*
G75*
G02*
X95173642Y-79828200I269242J0D01*
G01*
X96062158Y-79828200D01*
G75*
G02*
X96331400Y-80097442I0J-269242D01*
G01*
X96331400Y-82360958D01*
G75*
G02*
X96062158Y-82630200I-269242J0D01*
G01*
X95173642Y-82630200D01*
G75*
G02*
X94904400Y-82360958I0J269242D01*
G01*
G37*
G36*
G01*
X98029400Y-79122458D02*
X98029400Y-76858942D01*
G75*
G02*
X98298642Y-76589700I269242J0D01*
G01*
X99187158Y-76589700D01*
G75*
G02*
X99456400Y-76858942I0J-269242D01*
G01*
X99456400Y-79122458D01*
G75*
G02*
X99187158Y-79391700I-269242J0D01*
G01*
X98298642Y-79391700D01*
G75*
G02*
X98029400Y-79122458I0J269242D01*
G01*
G37*
G36*
G01*
X94904400Y-79122458D02*
X94904400Y-76858942D01*
G75*
G02*
X95173642Y-76589700I269242J0D01*
G01*
X96062158Y-76589700D01*
G75*
G02*
X96331400Y-76858942I0J-269242D01*
G01*
X96331400Y-79122458D01*
G75*
G02*
X96062158Y-79391700I-269242J0D01*
G01*
X95173642Y-79391700D01*
G75*
G02*
X94904400Y-79122458I0J269242D01*
G01*
G37*
G36*
G01*
X91142600Y-65202650D02*
X91142600Y-66166150D01*
G75*
G02*
X90873350Y-66435400I-269250J0D01*
G01*
X90334850Y-66435400D01*
G75*
G02*
X90065600Y-66166150I0J269250D01*
G01*
X90065600Y-65202650D01*
G75*
G02*
X90334850Y-64933400I269250J0D01*
G01*
X90873350Y-64933400D01*
G75*
G02*
X91142600Y-65202650I0J-269250D01*
G01*
G37*
G36*
G01*
X93017600Y-65202650D02*
X93017600Y-66166150D01*
G75*
G02*
X92748350Y-66435400I-269250J0D01*
G01*
X92209850Y-66435400D01*
G75*
G02*
X91940600Y-66166150I0J269250D01*
G01*
X91940600Y-65202650D01*
G75*
G02*
X92209850Y-64933400I269250J0D01*
G01*
X92748350Y-64933400D01*
G75*
G02*
X93017600Y-65202650I0J-269250D01*
G01*
G37*
G36*
G01*
X87552950Y-70310000D02*
X86589450Y-70310000D01*
G75*
G02*
X86320200Y-70040750I0J269250D01*
G01*
X86320200Y-69502250D01*
G75*
G02*
X86589450Y-69233000I269250J0D01*
G01*
X87552950Y-69233000D01*
G75*
G02*
X87822200Y-69502250I0J-269250D01*
G01*
X87822200Y-70040750D01*
G75*
G02*
X87552950Y-70310000I-269250J0D01*
G01*
G37*
G36*
G01*
X87552950Y-68435000D02*
X86589450Y-68435000D01*
G75*
G02*
X86320200Y-68165750I0J269250D01*
G01*
X86320200Y-67627250D01*
G75*
G02*
X86589450Y-67358000I269250J0D01*
G01*
X87552950Y-67358000D01*
G75*
G02*
X87822200Y-67627250I0J-269250D01*
G01*
X87822200Y-68165750D01*
G75*
G02*
X87552950Y-68435000I-269250J0D01*
G01*
G37*
G36*
G01*
X85365500Y-70160800D02*
X84814500Y-70160800D01*
G75*
G02*
X84564000Y-69910300I0J250500D01*
G01*
X84564000Y-69409300D01*
G75*
G02*
X84814500Y-69158800I250500J0D01*
G01*
X85365500Y-69158800D01*
G75*
G02*
X85616000Y-69409300I0J-250500D01*
G01*
X85616000Y-69910300D01*
G75*
G02*
X85365500Y-70160800I-250500J0D01*
G01*
G37*
G36*
G01*
X85365500Y-68610800D02*
X84814500Y-68610800D01*
G75*
G02*
X84564000Y-68360300I0J250500D01*
G01*
X84564000Y-67859300D01*
G75*
G02*
X84814500Y-67608800I250500J0D01*
G01*
X85365500Y-67608800D01*
G75*
G02*
X85616000Y-67859300I0J-250500D01*
G01*
X85616000Y-68360300D01*
G75*
G02*
X85365500Y-68610800I-250500J0D01*
G01*
G37*
G36*
G01*
X72345200Y-67034500D02*
X72345200Y-67585500D01*
G75*
G02*
X72094700Y-67836000I-250500J0D01*
G01*
X71593700Y-67836000D01*
G75*
G02*
X71343200Y-67585500I0J250500D01*
G01*
X71343200Y-67034500D01*
G75*
G02*
X71593700Y-66784000I250500J0D01*
G01*
X72094700Y-66784000D01*
G75*
G02*
X72345200Y-67034500I0J-250500D01*
G01*
G37*
G36*
G01*
X70795200Y-67034500D02*
X70795200Y-67585500D01*
G75*
G02*
X70544700Y-67836000I-250500J0D01*
G01*
X70043700Y-67836000D01*
G75*
G02*
X69793200Y-67585500I0J250500D01*
G01*
X69793200Y-67034500D01*
G75*
G02*
X70043700Y-66784000I250500J0D01*
G01*
X70544700Y-66784000D01*
G75*
G02*
X70795200Y-67034500I0J-250500D01*
G01*
G37*
G36*
G01*
X70449600Y-72883842D02*
X70449600Y-75147358D01*
G75*
G02*
X70180358Y-75416600I-269242J0D01*
G01*
X69291842Y-75416600D01*
G75*
G02*
X69022600Y-75147358I0J269242D01*
G01*
X69022600Y-72883842D01*
G75*
G02*
X69291842Y-72614600I269242J0D01*
G01*
X70180358Y-72614600D01*
G75*
G02*
X70449600Y-72883842I0J-269242D01*
G01*
G37*
G36*
G01*
X67324600Y-72883842D02*
X67324600Y-75147358D01*
G75*
G02*
X67055358Y-75416600I-269242J0D01*
G01*
X66166842Y-75416600D01*
G75*
G02*
X65897600Y-75147358I0J269242D01*
G01*
X65897600Y-72883842D01*
G75*
G02*
X66166842Y-72614600I269242J0D01*
G01*
X67055358Y-72614600D01*
G75*
G02*
X67324600Y-72883842I0J-269242D01*
G01*
G37*
D19*
X62919600Y-79400400D03*
G36*
G01*
X68970600Y-78400400D02*
X68970600Y-80400400D01*
G75*
G02*
X68919600Y-80451400I-51000J0D01*
G01*
X66919600Y-80451400D01*
G75*
G02*
X66868600Y-80400400I0J51000D01*
G01*
X66868600Y-78400400D01*
G75*
G02*
X66919600Y-78349400I51000J0D01*
G01*
X68919600Y-78349400D01*
G75*
G02*
X68970600Y-78400400I0J-51000D01*
G01*
G37*
G36*
G01*
X91142600Y-71654250D02*
X91142600Y-72617750D01*
G75*
G02*
X90873350Y-72887000I-269250J0D01*
G01*
X90334850Y-72887000D01*
G75*
G02*
X90065600Y-72617750I0J269250D01*
G01*
X90065600Y-71654250D01*
G75*
G02*
X90334850Y-71385000I269250J0D01*
G01*
X90873350Y-71385000D01*
G75*
G02*
X91142600Y-71654250I0J-269250D01*
G01*
G37*
G36*
G01*
X93017600Y-71654250D02*
X93017600Y-72617750D01*
G75*
G02*
X92748350Y-72887000I-269250J0D01*
G01*
X92209850Y-72887000D01*
G75*
G02*
X91940600Y-72617750I0J269250D01*
G01*
X91940600Y-71654250D01*
G75*
G02*
X92209850Y-71385000I269250J0D01*
G01*
X92748350Y-71385000D01*
G75*
G02*
X93017600Y-71654250I0J-269250D01*
G01*
G37*
G36*
G01*
X85216150Y-86451700D02*
X84252650Y-86451700D01*
G75*
G02*
X83983400Y-86182450I0J269250D01*
G01*
X83983400Y-85643950D01*
G75*
G02*
X84252650Y-85374700I269250J0D01*
G01*
X85216150Y-85374700D01*
G75*
G02*
X85485400Y-85643950I0J-269250D01*
G01*
X85485400Y-86182450D01*
G75*
G02*
X85216150Y-86451700I-269250J0D01*
G01*
G37*
G36*
G01*
X85216150Y-84576700D02*
X84252650Y-84576700D01*
G75*
G02*
X83983400Y-84307450I0J269250D01*
G01*
X83983400Y-83768950D01*
G75*
G02*
X84252650Y-83499700I269250J0D01*
G01*
X85216150Y-83499700D01*
G75*
G02*
X85485400Y-83768950I0J-269250D01*
G01*
X85485400Y-84307450D01*
G75*
G02*
X85216150Y-84576700I-269250J0D01*
G01*
G37*
D10*
G36*
X90541490Y-126112048D02*
G01*
X90546509Y-126163013D01*
X90561320Y-126211836D01*
X90585369Y-126256830D01*
X90617734Y-126296266D01*
X90657170Y-126328631D01*
X90702164Y-126352680D01*
X90750987Y-126367491D01*
X90801952Y-126372510D01*
X90803578Y-126373675D01*
X90803382Y-126375665D01*
X90801756Y-126376500D01*
X90712945Y-126376500D01*
X90712749Y-126376490D01*
X90674085Y-126372682D01*
X90673700Y-126372606D01*
X90642431Y-126363121D01*
X90642069Y-126362971D01*
X90613250Y-126347567D01*
X90612924Y-126347349D01*
X90587662Y-126326615D01*
X90587385Y-126326338D01*
X90566651Y-126301076D01*
X90566433Y-126300750D01*
X90551029Y-126271931D01*
X90550879Y-126271569D01*
X90541394Y-126240300D01*
X90541318Y-126239915D01*
X90537510Y-126201251D01*
X90537500Y-126201055D01*
X90537500Y-126112244D01*
X90538500Y-126110512D01*
X90540500Y-126110512D01*
X90541490Y-126112048D01*
G37*
G36*
X92722665Y-126110618D02*
G01*
X92723500Y-126112244D01*
X92723500Y-126201055D01*
X92723490Y-126201251D01*
X92719682Y-126239915D01*
X92719606Y-126240300D01*
X92710121Y-126271569D01*
X92709971Y-126271931D01*
X92694567Y-126300750D01*
X92694349Y-126301076D01*
X92673615Y-126326338D01*
X92673338Y-126326615D01*
X92648076Y-126347349D01*
X92647750Y-126347567D01*
X92618931Y-126362971D01*
X92618569Y-126363121D01*
X92587300Y-126372606D01*
X92586915Y-126372682D01*
X92548251Y-126376490D01*
X92548055Y-126376500D01*
X92459244Y-126376500D01*
X92457512Y-126375500D01*
X92457512Y-126373500D01*
X92459048Y-126372510D01*
X92510013Y-126367491D01*
X92558836Y-126352680D01*
X92603830Y-126328631D01*
X92643266Y-126296266D01*
X92675631Y-126256830D01*
X92699680Y-126211836D01*
X92714491Y-126163013D01*
X92719510Y-126112048D01*
X92720675Y-126110422D01*
X92722665Y-126110618D01*
G37*
G36*
X90803488Y-122671500D02*
G01*
X90803488Y-122673500D01*
X90801952Y-122674490D01*
X90750987Y-122679509D01*
X90702164Y-122694320D01*
X90657170Y-122718369D01*
X90617734Y-122750734D01*
X90585369Y-122790170D01*
X90561320Y-122835164D01*
X90546509Y-122883987D01*
X90541490Y-122934952D01*
X90540325Y-122936578D01*
X90538335Y-122936382D01*
X90537500Y-122934756D01*
X90537500Y-122845945D01*
X90537510Y-122845749D01*
X90541318Y-122807085D01*
X90541394Y-122806700D01*
X90550879Y-122775431D01*
X90551029Y-122775069D01*
X90566433Y-122746250D01*
X90566651Y-122745924D01*
X90587385Y-122720662D01*
X90587662Y-122720385D01*
X90612924Y-122699651D01*
X90613250Y-122699433D01*
X90642069Y-122684029D01*
X90642431Y-122683879D01*
X90673700Y-122674394D01*
X90674085Y-122674318D01*
X90712749Y-122670510D01*
X90712945Y-122670500D01*
X90801756Y-122670500D01*
X90803488Y-122671500D01*
G37*
G36*
X92548251Y-122670510D02*
G01*
X92586915Y-122674318D01*
X92587300Y-122674394D01*
X92618569Y-122683879D01*
X92618931Y-122684029D01*
X92647750Y-122699433D01*
X92648076Y-122699651D01*
X92673338Y-122720385D01*
X92673615Y-122720662D01*
X92694349Y-122745924D01*
X92694567Y-122746250D01*
X92709971Y-122775069D01*
X92710121Y-122775431D01*
X92719606Y-122806700D01*
X92719682Y-122807085D01*
X92723490Y-122845749D01*
X92723500Y-122845945D01*
X92723500Y-122934756D01*
X92722500Y-122936488D01*
X92720500Y-122936488D01*
X92719510Y-122934952D01*
X92714491Y-122883987D01*
X92699680Y-122835164D01*
X92675631Y-122790170D01*
X92643266Y-122750734D01*
X92603830Y-122718369D01*
X92558836Y-122694320D01*
X92510013Y-122679509D01*
X92459048Y-122674490D01*
X92457422Y-122673325D01*
X92457618Y-122671335D01*
X92459244Y-122670500D01*
X92548055Y-122670500D01*
X92548251Y-122670510D01*
G37*
G36*
X64648190Y-113614854D02*
G01*
X64653219Y-113665915D01*
X64668058Y-113714831D01*
X64692152Y-113759910D01*
X64724579Y-113799421D01*
X64764090Y-113831848D01*
X64809169Y-113855942D01*
X64858085Y-113870781D01*
X64909146Y-113875810D01*
X64910772Y-113876975D01*
X64910576Y-113878965D01*
X64908950Y-113879800D01*
X64821340Y-113879800D01*
X64821144Y-113879790D01*
X64782152Y-113875950D01*
X64781767Y-113875874D01*
X64750176Y-113866291D01*
X64749814Y-113866141D01*
X64720700Y-113850579D01*
X64720374Y-113850361D01*
X64694857Y-113829420D01*
X64694580Y-113829143D01*
X64673639Y-113803626D01*
X64673421Y-113803300D01*
X64657859Y-113774186D01*
X64657709Y-113773824D01*
X64648126Y-113742233D01*
X64648050Y-113741848D01*
X64644210Y-113702856D01*
X64644200Y-113702660D01*
X64644200Y-113615050D01*
X64645200Y-113613318D01*
X64647200Y-113613318D01*
X64648190Y-113614854D01*
G37*
G36*
X68349365Y-113613424D02*
G01*
X68350200Y-113615050D01*
X68350200Y-113702660D01*
X68350190Y-113702856D01*
X68346350Y-113741848D01*
X68346274Y-113742233D01*
X68336691Y-113773824D01*
X68336541Y-113774186D01*
X68320979Y-113803300D01*
X68320761Y-113803626D01*
X68299820Y-113829143D01*
X68299543Y-113829420D01*
X68274026Y-113850361D01*
X68273700Y-113850579D01*
X68244586Y-113866141D01*
X68244224Y-113866291D01*
X68212633Y-113875874D01*
X68212248Y-113875950D01*
X68173256Y-113879790D01*
X68173060Y-113879800D01*
X68085450Y-113879800D01*
X68083718Y-113878800D01*
X68083718Y-113876800D01*
X68085254Y-113875810D01*
X68136315Y-113870781D01*
X68185231Y-113855942D01*
X68230310Y-113831848D01*
X68269821Y-113799421D01*
X68302248Y-113759910D01*
X68326342Y-113714831D01*
X68341181Y-113665915D01*
X68346210Y-113614854D01*
X68347375Y-113613228D01*
X68349365Y-113613424D01*
G37*
G36*
X64910682Y-111774800D02*
G01*
X64910682Y-111776800D01*
X64909146Y-111777790D01*
X64858085Y-111782819D01*
X64809169Y-111797658D01*
X64764090Y-111821752D01*
X64724579Y-111854179D01*
X64692152Y-111893690D01*
X64668058Y-111938769D01*
X64653219Y-111987685D01*
X64648190Y-112038746D01*
X64647025Y-112040372D01*
X64645035Y-112040176D01*
X64644200Y-112038550D01*
X64644200Y-111950940D01*
X64644210Y-111950744D01*
X64648050Y-111911752D01*
X64648126Y-111911367D01*
X64657709Y-111879776D01*
X64657859Y-111879414D01*
X64673421Y-111850300D01*
X64673639Y-111849974D01*
X64694580Y-111824457D01*
X64694857Y-111824180D01*
X64720374Y-111803239D01*
X64720700Y-111803021D01*
X64749814Y-111787459D01*
X64750176Y-111787309D01*
X64781767Y-111777726D01*
X64782152Y-111777650D01*
X64821144Y-111773810D01*
X64821340Y-111773800D01*
X64908950Y-111773800D01*
X64910682Y-111774800D01*
G37*
G36*
X68173256Y-111773810D02*
G01*
X68212248Y-111777650D01*
X68212633Y-111777726D01*
X68244224Y-111787309D01*
X68244586Y-111787459D01*
X68273700Y-111803021D01*
X68274026Y-111803239D01*
X68299543Y-111824180D01*
X68299820Y-111824457D01*
X68320761Y-111849974D01*
X68320979Y-111850300D01*
X68336541Y-111879414D01*
X68336691Y-111879776D01*
X68346274Y-111911367D01*
X68346350Y-111911752D01*
X68350190Y-111950744D01*
X68350200Y-111950940D01*
X68350200Y-112038550D01*
X68349200Y-112040282D01*
X68347200Y-112040282D01*
X68346210Y-112038746D01*
X68341181Y-111987685D01*
X68326342Y-111938769D01*
X68302248Y-111893690D01*
X68269821Y-111854179D01*
X68230310Y-111821752D01*
X68185231Y-111797658D01*
X68136315Y-111782819D01*
X68085254Y-111777790D01*
X68083628Y-111776625D01*
X68083824Y-111774635D01*
X68085450Y-111773800D01*
X68173060Y-111773800D01*
X68173256Y-111773810D01*
G37*
G36*
X118162932Y-91648000D02*
G01*
X118163200Y-91649000D01*
X118163200Y-91859000D01*
X118162200Y-91860732D01*
X118161200Y-91861000D01*
X116421200Y-91861000D01*
X116419468Y-91860000D01*
X116419200Y-91859000D01*
X116419200Y-91649000D01*
X116420200Y-91647268D01*
X116421200Y-91647000D01*
X118161200Y-91647000D01*
X118162932Y-91648000D01*
G37*
G36*
X123762932Y-91648000D02*
G01*
X123763200Y-91649000D01*
X123763200Y-91859000D01*
X123762200Y-91860732D01*
X123761200Y-91861000D01*
X122021200Y-91861000D01*
X122019468Y-91860000D01*
X122019200Y-91859000D01*
X122019200Y-91649000D01*
X122020200Y-91647268D01*
X122021200Y-91647000D01*
X123761200Y-91647000D01*
X123762932Y-91648000D01*
G37*
G36*
X118162932Y-90998000D02*
G01*
X118163200Y-90999000D01*
X118163200Y-91209000D01*
X118162200Y-91210732D01*
X118161200Y-91211000D01*
X116421200Y-91211000D01*
X116419468Y-91210000D01*
X116419200Y-91209000D01*
X116419200Y-90999000D01*
X116420200Y-90997268D01*
X116421200Y-90997000D01*
X118161200Y-90997000D01*
X118162932Y-90998000D01*
G37*
G36*
X123762932Y-90998000D02*
G01*
X123763200Y-90999000D01*
X123763200Y-91209000D01*
X123762200Y-91210732D01*
X123761200Y-91211000D01*
X122021200Y-91211000D01*
X122019468Y-91210000D01*
X122019200Y-91209000D01*
X122019200Y-90999000D01*
X122020200Y-90997268D01*
X122021200Y-90997000D01*
X123761200Y-90997000D01*
X123762932Y-90998000D01*
G37*
G36*
X118162932Y-90348000D02*
G01*
X118163200Y-90349000D01*
X118163200Y-90559000D01*
X118162200Y-90560732D01*
X118161200Y-90561000D01*
X116421200Y-90561000D01*
X116419468Y-90560000D01*
X116419200Y-90559000D01*
X116419200Y-90349000D01*
X116420200Y-90347268D01*
X116421200Y-90347000D01*
X118161200Y-90347000D01*
X118162932Y-90348000D01*
G37*
G36*
X123762932Y-90348000D02*
G01*
X123763200Y-90349000D01*
X123763200Y-90559000D01*
X123762200Y-90560732D01*
X123761200Y-90561000D01*
X122021200Y-90561000D01*
X122019468Y-90560000D01*
X122019200Y-90559000D01*
X122019200Y-90349000D01*
X122020200Y-90347268D01*
X122021200Y-90347000D01*
X123761200Y-90347000D01*
X123762932Y-90348000D01*
G37*
G36*
X118162932Y-89698000D02*
G01*
X118163200Y-89699000D01*
X118163200Y-89909000D01*
X118162200Y-89910732D01*
X118161200Y-89911000D01*
X116421200Y-89911000D01*
X116419468Y-89910000D01*
X116419200Y-89909000D01*
X116419200Y-89699000D01*
X116420200Y-89697268D01*
X116421200Y-89697000D01*
X118161200Y-89697000D01*
X118162932Y-89698000D01*
G37*
G36*
X123762932Y-89698000D02*
G01*
X123763200Y-89699000D01*
X123763200Y-89909000D01*
X123762200Y-89910732D01*
X123761200Y-89911000D01*
X122021200Y-89911000D01*
X122019468Y-89910000D01*
X122019200Y-89909000D01*
X122019200Y-89699000D01*
X122020200Y-89697268D01*
X122021200Y-89697000D01*
X123761200Y-89697000D01*
X123762932Y-89698000D01*
G37*
G36*
X123762932Y-89048000D02*
G01*
X123763200Y-89049000D01*
X123763200Y-89259000D01*
X123762200Y-89260732D01*
X123761200Y-89261000D01*
X122021200Y-89261000D01*
X122019468Y-89260000D01*
X122019200Y-89259000D01*
X122019200Y-89049000D01*
X122020200Y-89047268D01*
X122021200Y-89047000D01*
X123761200Y-89047000D01*
X123762932Y-89048000D01*
G37*
G36*
X118162932Y-89048000D02*
G01*
X118163200Y-89049000D01*
X118163200Y-89259000D01*
X118162200Y-89260732D01*
X118161200Y-89261000D01*
X116421200Y-89261000D01*
X116419468Y-89260000D01*
X116419200Y-89259000D01*
X116419200Y-89049000D01*
X116420200Y-89047268D01*
X116421200Y-89047000D01*
X118161200Y-89047000D01*
X118162932Y-89048000D01*
G37*
G36*
X118162932Y-88398000D02*
G01*
X118163200Y-88399000D01*
X118163200Y-88609000D01*
X118162200Y-88610732D01*
X118161200Y-88611000D01*
X116421200Y-88611000D01*
X116419468Y-88610000D01*
X116419200Y-88609000D01*
X116419200Y-88399000D01*
X116420200Y-88397268D01*
X116421200Y-88397000D01*
X118161200Y-88397000D01*
X118162932Y-88398000D01*
G37*
G36*
X123762932Y-88398000D02*
G01*
X123763200Y-88399000D01*
X123763200Y-88609000D01*
X123762200Y-88610732D01*
X123761200Y-88611000D01*
X122021200Y-88611000D01*
X122019468Y-88610000D01*
X122019200Y-88609000D01*
X122019200Y-88399000D01*
X122020200Y-88397268D01*
X122021200Y-88397000D01*
X123761200Y-88397000D01*
X123762932Y-88398000D01*
G37*
G36*
X118162932Y-87748000D02*
G01*
X118163200Y-87749000D01*
X118163200Y-87959000D01*
X118162200Y-87960732D01*
X118161200Y-87961000D01*
X116421200Y-87961000D01*
X116419468Y-87960000D01*
X116419200Y-87959000D01*
X116419200Y-87749000D01*
X116420200Y-87747268D01*
X116421200Y-87747000D01*
X118161200Y-87747000D01*
X118162932Y-87748000D01*
G37*
G36*
X123762932Y-87748000D02*
G01*
X123763200Y-87749000D01*
X123763200Y-87959000D01*
X123762200Y-87960732D01*
X123761200Y-87961000D01*
X122021200Y-87961000D01*
X122019468Y-87960000D01*
X122019200Y-87959000D01*
X122019200Y-87749000D01*
X122020200Y-87747268D01*
X122021200Y-87747000D01*
X123761200Y-87747000D01*
X123762932Y-87748000D01*
G37*
G36*
X118162932Y-87098000D02*
G01*
X118163200Y-87099000D01*
X118163200Y-87309000D01*
X118162200Y-87310732D01*
X118161200Y-87311000D01*
X116421200Y-87311000D01*
X116419468Y-87310000D01*
X116419200Y-87309000D01*
X116419200Y-87099000D01*
X116420200Y-87097268D01*
X116421200Y-87097000D01*
X118161200Y-87097000D01*
X118162932Y-87098000D01*
G37*
G36*
X123762932Y-87098000D02*
G01*
X123763200Y-87099000D01*
X123763200Y-87309000D01*
X123762200Y-87310732D01*
X123761200Y-87311000D01*
X122021200Y-87311000D01*
X122019468Y-87310000D01*
X122019200Y-87309000D01*
X122019200Y-87099000D01*
X122020200Y-87097268D01*
X122021200Y-87097000D01*
X123761200Y-87097000D01*
X123762932Y-87098000D01*
G37*
G36*
X123762932Y-86448000D02*
G01*
X123763200Y-86449000D01*
X123763200Y-86659000D01*
X123762200Y-86660732D01*
X123761200Y-86661000D01*
X122021200Y-86661000D01*
X122019468Y-86660000D01*
X122019200Y-86659000D01*
X122019200Y-86449000D01*
X122020200Y-86447268D01*
X122021200Y-86447000D01*
X123761200Y-86447000D01*
X123762932Y-86448000D01*
G37*
G36*
X118162932Y-86448000D02*
G01*
X118163200Y-86449000D01*
X118163200Y-86659000D01*
X118162200Y-86660732D01*
X118161200Y-86661000D01*
X116421200Y-86661000D01*
X116419468Y-86660000D01*
X116419200Y-86659000D01*
X116419200Y-86449000D01*
X116420200Y-86447268D01*
X116421200Y-86447000D01*
X118161200Y-86447000D01*
X118162932Y-86448000D01*
G37*
G36*
X81710132Y-85475700D02*
G01*
X81710400Y-85476700D01*
X81710400Y-85574700D01*
X81709400Y-85576432D01*
X81708400Y-85576700D01*
X80556400Y-85576700D01*
X80554668Y-85575700D01*
X80554400Y-85574700D01*
X80554400Y-85476700D01*
X80555400Y-85474968D01*
X80556400Y-85474700D01*
X81708400Y-85474700D01*
X81710132Y-85475700D01*
G37*
G36*
X76160132Y-85475700D02*
G01*
X76160400Y-85476700D01*
X76160400Y-85574700D01*
X76159400Y-85576432D01*
X76158400Y-85576700D01*
X75006400Y-85576700D01*
X75004668Y-85575700D01*
X75004400Y-85574700D01*
X75004400Y-85476700D01*
X75005400Y-85474968D01*
X75006400Y-85474700D01*
X76158400Y-85474700D01*
X76160132Y-85475700D01*
G37*
G36*
X81710132Y-84825700D02*
G01*
X81710400Y-84826700D01*
X81710400Y-84924700D01*
X81709400Y-84926432D01*
X81708400Y-84926700D01*
X80556400Y-84926700D01*
X80554668Y-84925700D01*
X80554400Y-84924700D01*
X80554400Y-84826700D01*
X80555400Y-84824968D01*
X80556400Y-84824700D01*
X81708400Y-84824700D01*
X81710132Y-84825700D01*
G37*
G36*
X76160132Y-84825700D02*
G01*
X76160400Y-84826700D01*
X76160400Y-84924700D01*
X76159400Y-84926432D01*
X76158400Y-84926700D01*
X75006400Y-84926700D01*
X75004668Y-84925700D01*
X75004400Y-84924700D01*
X75004400Y-84826700D01*
X75005400Y-84824968D01*
X75006400Y-84824700D01*
X76158400Y-84824700D01*
X76160132Y-84825700D01*
G37*
G36*
X76160132Y-84175700D02*
G01*
X76160400Y-84176700D01*
X76160400Y-84274700D01*
X76159400Y-84276432D01*
X76158400Y-84276700D01*
X75006400Y-84276700D01*
X75004668Y-84275700D01*
X75004400Y-84274700D01*
X75004400Y-84176700D01*
X75005400Y-84174968D01*
X75006400Y-84174700D01*
X76158400Y-84174700D01*
X76160132Y-84175700D01*
G37*
G36*
X81710132Y-84175700D02*
G01*
X81710400Y-84176700D01*
X81710400Y-84274700D01*
X81709400Y-84276432D01*
X81708400Y-84276700D01*
X80556400Y-84276700D01*
X80554668Y-84275700D01*
X80554400Y-84274700D01*
X80554400Y-84176700D01*
X80555400Y-84174968D01*
X80556400Y-84174700D01*
X81708400Y-84174700D01*
X81710132Y-84175700D01*
G37*
G36*
X76160132Y-83525700D02*
G01*
X76160400Y-83526700D01*
X76160400Y-83624700D01*
X76159400Y-83626432D01*
X76158400Y-83626700D01*
X75006400Y-83626700D01*
X75004668Y-83625700D01*
X75004400Y-83624700D01*
X75004400Y-83526700D01*
X75005400Y-83524968D01*
X75006400Y-83524700D01*
X76158400Y-83524700D01*
X76160132Y-83525700D01*
G37*
G36*
X81710132Y-83525700D02*
G01*
X81710400Y-83526700D01*
X81710400Y-83624700D01*
X81709400Y-83626432D01*
X81708400Y-83626700D01*
X80556400Y-83626700D01*
X80554668Y-83625700D01*
X80554400Y-83624700D01*
X80554400Y-83526700D01*
X80555400Y-83524968D01*
X80556400Y-83524700D01*
X81708400Y-83524700D01*
X81710132Y-83525700D01*
G37*
G36*
X81710132Y-82875700D02*
G01*
X81710400Y-82876700D01*
X81710400Y-82974700D01*
X81709400Y-82976432D01*
X81708400Y-82976700D01*
X80556400Y-82976700D01*
X80554668Y-82975700D01*
X80554400Y-82974700D01*
X80554400Y-82876700D01*
X80555400Y-82874968D01*
X80556400Y-82874700D01*
X81708400Y-82874700D01*
X81710132Y-82875700D01*
G37*
G36*
X76160132Y-82875700D02*
G01*
X76160400Y-82876700D01*
X76160400Y-82974700D01*
X76159400Y-82976432D01*
X76158400Y-82976700D01*
X75006400Y-82976700D01*
X75004668Y-82975700D01*
X75004400Y-82974700D01*
X75004400Y-82876700D01*
X75005400Y-82874968D01*
X75006400Y-82874700D01*
X76158400Y-82874700D01*
X76160132Y-82875700D01*
G37*
G36*
X81710132Y-82225700D02*
G01*
X81710400Y-82226700D01*
X81710400Y-82324700D01*
X81709400Y-82326432D01*
X81708400Y-82326700D01*
X80556400Y-82326700D01*
X80554668Y-82325700D01*
X80554400Y-82324700D01*
X80554400Y-82226700D01*
X80555400Y-82224968D01*
X80556400Y-82224700D01*
X81708400Y-82224700D01*
X81710132Y-82225700D01*
G37*
G36*
X76160132Y-82225700D02*
G01*
X76160400Y-82226700D01*
X76160400Y-82324700D01*
X76159400Y-82326432D01*
X76158400Y-82326700D01*
X75006400Y-82326700D01*
X75004668Y-82325700D01*
X75004400Y-82324700D01*
X75004400Y-82226700D01*
X75005400Y-82224968D01*
X75006400Y-82224700D01*
X76158400Y-82224700D01*
X76160132Y-82225700D01*
G37*
G36*
X81710132Y-81575700D02*
G01*
X81710400Y-81576700D01*
X81710400Y-81674700D01*
X81709400Y-81676432D01*
X81708400Y-81676700D01*
X80556400Y-81676700D01*
X80554668Y-81675700D01*
X80554400Y-81674700D01*
X80554400Y-81576700D01*
X80555400Y-81574968D01*
X80556400Y-81574700D01*
X81708400Y-81574700D01*
X81710132Y-81575700D01*
G37*
G36*
X76160132Y-81575700D02*
G01*
X76160400Y-81576700D01*
X76160400Y-81674700D01*
X76159400Y-81676432D01*
X76158400Y-81676700D01*
X75006400Y-81676700D01*
X75004668Y-81675700D01*
X75004400Y-81674700D01*
X75004400Y-81576700D01*
X75005400Y-81574968D01*
X75006400Y-81574700D01*
X76158400Y-81574700D01*
X76160132Y-81575700D01*
G37*
G36*
X90313132Y-69361400D02*
G01*
X90313400Y-69362400D01*
X90313400Y-69560400D01*
X90312400Y-69562132D01*
X90311400Y-69562400D01*
X88649400Y-69562400D01*
X88647668Y-69561400D01*
X88647400Y-69560400D01*
X88647400Y-69362400D01*
X88648400Y-69360668D01*
X88649400Y-69360400D01*
X90311400Y-69360400D01*
X90313132Y-69361400D01*
G37*
G36*
X90313132Y-68411400D02*
G01*
X90313400Y-68412400D01*
X90313400Y-68610400D01*
X90312400Y-68612132D01*
X90311400Y-68612400D01*
X88649400Y-68612400D01*
X88647668Y-68611400D01*
X88647400Y-68610400D01*
X88647400Y-68412400D01*
X88648400Y-68410668D01*
X88649400Y-68410400D01*
X90311400Y-68410400D01*
X90313132Y-68411400D01*
G37*
M02*
