%TF.GenerationSoftware,KiCad,Pcbnew,(5.1.8)-1*%
%TF.CreationDate,2021-01-04T21:32:55+01:00*%
%TF.ProjectId,StepstickAdaptor,53746570-7374-4696-936b-41646170746f,rev?*%
%TF.SameCoordinates,Original*%
%TF.FileFunction,Copper,L1,Top*%
%TF.FilePolarity,Positive*%
%FSLAX46Y46*%
G04 Gerber Fmt 4.6, Leading zero omitted, Abs format (unit mm)*
G04 Created by KiCad (PCBNEW (5.1.8)-1) date 2021-01-04 21:32:55*
%MOMM*%
%LPD*%
G01*
G04 APERTURE LIST*
%TA.AperFunction,ComponentPad*%
%ADD10C,1.700000*%
%TD*%
%TA.AperFunction,ComponentPad*%
%ADD11R,1.700000X1.700000*%
%TD*%
%TA.AperFunction,ComponentPad*%
%ADD12O,1.700000X1.700000*%
%TD*%
%TA.AperFunction,ViaPad*%
%ADD13C,0.600000*%
%TD*%
%TA.AperFunction,Conductor*%
%ADD14C,0.250000*%
%TD*%
%TA.AperFunction,Conductor*%
%ADD15C,0.254000*%
%TD*%
%TA.AperFunction,Conductor*%
%ADD16C,0.100000*%
%TD*%
G04 APERTURE END LIST*
D10*
%TO.P,J1,15*%
%TO.N,/sck*%
X129985000Y-83601000D03*
%TO.P,J1,13*%
%TO.N,/sdo*%
X132525000Y-83601000D03*
%TO.P,J1,11*%
%TO.N,/sdi*%
X135065000Y-83601000D03*
%TO.P,J1,9*%
%TO.N,/csn*%
X137605000Y-83601000D03*
%TO.P,J1,16*%
%TO.N,GND*%
X128715000Y-86141000D03*
%TO.P,J1,14*%
X131255000Y-86141000D03*
%TO.P,J1,12*%
X133795000Y-86141000D03*
%TO.P,J1,10*%
X136335000Y-86141000D03*
%TO.P,J1,2*%
%TO.N,/ENCN*%
X129985000Y-90201000D03*
%TO.P,J1,4*%
%TO.N,GND*%
X132525000Y-90201000D03*
%TO.P,J1,6*%
X135065000Y-90201000D03*
%TO.P,J1,8*%
%TO.N,VCC*%
X137605000Y-90201000D03*
%TO.P,J1,1*%
%TO.N,/Diag1*%
X128715000Y-92741000D03*
%TO.P,J1,3*%
%TO.N,/en*%
X131255000Y-92741000D03*
%TO.P,J1,5*%
%TO.N,/step*%
X133795000Y-92741000D03*
%TO.P,J1,7*%
%TO.N,/dir*%
X136335000Y-92741000D03*
%TD*%
D11*
%TO.P,J6,1*%
%TO.N,GND*%
X138938000Y-93472000D03*
D12*
%TO.P,J6,2*%
%TO.N,VCC*%
X138938000Y-96012000D03*
%TD*%
D11*
%TO.P,J5,1*%
%TO.N,Net-(J5-Pad1)*%
X138988800Y-78193900D03*
D12*
%TO.P,J5,2*%
%TO.N,GND*%
X138988800Y-80733900D03*
%TD*%
%TO.P,J4,2*%
%TO.N,/ENCN*%
X129540000Y-78181200D03*
D11*
%TO.P,J4,1*%
%TO.N,/Diag1*%
X132080000Y-78181200D03*
%TD*%
D12*
%TO.P,J2,8*%
%TO.N,/dir*%
X126288800Y-95973900D03*
%TO.P,J2,7*%
%TO.N,/step*%
X126288800Y-93433900D03*
%TO.P,J2,6*%
%TO.N,/sdo*%
X126288800Y-90893900D03*
%TO.P,J2,5*%
%TO.N,/clk*%
X126288800Y-88353900D03*
%TO.P,J2,4*%
%TO.N,/csn*%
X126288800Y-85813900D03*
%TO.P,J2,3*%
%TO.N,/sck*%
X126288800Y-83273900D03*
%TO.P,J2,2*%
%TO.N,/sdi*%
X126288800Y-80733900D03*
D11*
%TO.P,J2,1*%
%TO.N,/en*%
X126288800Y-78193900D03*
%TD*%
D13*
%TO.N,GND*%
X132524500Y-81851500D03*
X129984500Y-81851500D03*
X130873500Y-94361000D03*
X127762000Y-84899500D03*
X136779000Y-81851500D03*
X129032000Y-95631000D03*
X130873500Y-95631000D03*
X132588000Y-95694500D03*
X135001000Y-95694500D03*
X129032000Y-94424500D03*
X132588000Y-94297500D03*
X127952500Y-81851500D03*
%TO.N,/Diag1*%
X135128000Y-88518996D03*
%TD*%
D14*
%TO.N,/sck*%
X126615900Y-83601000D02*
X126288800Y-83273900D01*
X129985000Y-83601000D02*
X126615900Y-83601000D01*
%TO.N,/sdi*%
X135065000Y-81407500D02*
X135065000Y-83601000D01*
X134391400Y-80733900D02*
X135065000Y-81407500D01*
X126288800Y-80733900D02*
X134391400Y-80733900D01*
%TO.N,/csn*%
X126288800Y-86283800D02*
X126288800Y-85813900D01*
X127698500Y-87693500D02*
X126288800Y-86283800D01*
X137477500Y-87693500D02*
X127698500Y-87693500D01*
X138112500Y-87058500D02*
X137477500Y-87693500D01*
X138112500Y-85471000D02*
X138112500Y-87058500D01*
X137605000Y-84963500D02*
X138112500Y-85471000D01*
X137605000Y-83601000D02*
X137605000Y-84963500D01*
%TO.N,/Diag1*%
X134828001Y-88218997D02*
X135128000Y-88518996D01*
X128951003Y-88218997D02*
X134828001Y-88218997D01*
X128206500Y-88963500D02*
X128951003Y-88218997D01*
X128206500Y-92232500D02*
X128206500Y-88963500D01*
X128715000Y-92741000D02*
X128206500Y-92232500D01*
%TD*%
D15*
%TO.N,GND*%
X128583820Y-77396483D02*
X128449102Y-77598103D01*
X128356307Y-77822131D01*
X128309000Y-78059957D01*
X128309000Y-78302443D01*
X128356307Y-78540269D01*
X128449102Y-78764297D01*
X128583820Y-78965917D01*
X128755283Y-79137380D01*
X128956903Y-79272098D01*
X129180931Y-79364893D01*
X129418757Y-79412200D01*
X129661243Y-79412200D01*
X129899069Y-79364893D01*
X130123097Y-79272098D01*
X130324717Y-79137380D01*
X130496180Y-78965917D01*
X130630898Y-78764297D01*
X130723693Y-78540269D01*
X130771000Y-78302443D01*
X130771000Y-78059957D01*
X130723693Y-77822131D01*
X130630898Y-77598103D01*
X130496180Y-77396483D01*
X130404197Y-77304500D01*
X130849787Y-77304500D01*
X130847157Y-77331200D01*
X130847157Y-79031200D01*
X130854513Y-79105889D01*
X130876299Y-79177708D01*
X130911678Y-79243896D01*
X130959289Y-79301911D01*
X131017304Y-79349522D01*
X131083492Y-79384901D01*
X131155311Y-79406687D01*
X131230000Y-79414043D01*
X132930000Y-79414043D01*
X133004689Y-79406687D01*
X133076508Y-79384901D01*
X133142696Y-79349522D01*
X133200711Y-79301911D01*
X133248322Y-79243896D01*
X133283701Y-79177708D01*
X133305487Y-79105889D01*
X133312843Y-79031200D01*
X133312843Y-77331200D01*
X133310213Y-77304500D01*
X137759837Y-77304500D01*
X137755957Y-77343900D01*
X137755957Y-79043900D01*
X137763313Y-79118589D01*
X137785099Y-79190408D01*
X137820478Y-79256596D01*
X137868089Y-79314611D01*
X137926104Y-79362222D01*
X137992292Y-79397601D01*
X138064111Y-79419387D01*
X138138800Y-79426743D01*
X139838800Y-79426743D01*
X139878200Y-79422863D01*
X139878201Y-95211304D01*
X139722717Y-95055820D01*
X139521097Y-94921102D01*
X139297069Y-94828307D01*
X139059243Y-94781000D01*
X138816757Y-94781000D01*
X138578931Y-94828307D01*
X138354903Y-94921102D01*
X138153283Y-95055820D01*
X137981820Y-95227283D01*
X137847102Y-95428903D01*
X137754307Y-95652931D01*
X137707000Y-95890757D01*
X137707000Y-96133243D01*
X137754307Y-96371069D01*
X137847102Y-96595097D01*
X137981820Y-96796717D01*
X138010303Y-96825200D01*
X127178397Y-96825200D01*
X127244980Y-96758617D01*
X127379698Y-96556997D01*
X127472493Y-96332969D01*
X127519800Y-96095143D01*
X127519800Y-95852657D01*
X127472493Y-95614831D01*
X127379698Y-95390803D01*
X127244980Y-95189183D01*
X127073517Y-95017720D01*
X126871897Y-94883002D01*
X126647869Y-94790207D01*
X126410043Y-94742900D01*
X126167557Y-94742900D01*
X125929731Y-94790207D01*
X125705703Y-94883002D01*
X125504083Y-95017720D01*
X125386700Y-95135103D01*
X125386700Y-94272697D01*
X125504083Y-94390080D01*
X125705703Y-94524798D01*
X125929731Y-94617593D01*
X126167557Y-94664900D01*
X126410043Y-94664900D01*
X126647869Y-94617593D01*
X126871897Y-94524798D01*
X127073517Y-94390080D01*
X127244980Y-94218617D01*
X127379698Y-94016997D01*
X127472493Y-93792969D01*
X127519800Y-93555143D01*
X127519800Y-93312657D01*
X127472493Y-93074831D01*
X127379698Y-92850803D01*
X127244980Y-92649183D01*
X127073517Y-92477720D01*
X126871897Y-92343002D01*
X126647869Y-92250207D01*
X126410043Y-92202900D01*
X126167557Y-92202900D01*
X125929731Y-92250207D01*
X125705703Y-92343002D01*
X125504083Y-92477720D01*
X125386700Y-92595103D01*
X125386700Y-91732697D01*
X125504083Y-91850080D01*
X125705703Y-91984798D01*
X125929731Y-92077593D01*
X126167557Y-92124900D01*
X126410043Y-92124900D01*
X126647869Y-92077593D01*
X126871897Y-91984798D01*
X127073517Y-91850080D01*
X127244980Y-91678617D01*
X127379698Y-91476997D01*
X127472493Y-91252969D01*
X127519800Y-91015143D01*
X127519800Y-90772657D01*
X127472493Y-90534831D01*
X127379698Y-90310803D01*
X127244980Y-90109183D01*
X127073517Y-89937720D01*
X126871897Y-89803002D01*
X126647869Y-89710207D01*
X126410043Y-89662900D01*
X126167557Y-89662900D01*
X125929731Y-89710207D01*
X125705703Y-89803002D01*
X125504083Y-89937720D01*
X125386700Y-90055103D01*
X125386700Y-89192697D01*
X125504083Y-89310080D01*
X125705703Y-89444798D01*
X125929731Y-89537593D01*
X126167557Y-89584900D01*
X126410043Y-89584900D01*
X126647869Y-89537593D01*
X126871897Y-89444798D01*
X127073517Y-89310080D01*
X127244980Y-89138617D01*
X127379698Y-88936997D01*
X127472493Y-88712969D01*
X127519800Y-88475143D01*
X127519800Y-88232657D01*
X127506126Y-88163913D01*
X127599307Y-88192178D01*
X127698500Y-88201948D01*
X127723354Y-88199500D01*
X128254908Y-88199500D01*
X127866280Y-88588129D01*
X127846974Y-88603973D01*
X127783742Y-88681021D01*
X127779615Y-88688742D01*
X127736755Y-88768926D01*
X127707822Y-88864308D01*
X127698053Y-88963500D01*
X127700501Y-88988356D01*
X127700500Y-92043565D01*
X127624102Y-92157903D01*
X127531307Y-92381931D01*
X127484000Y-92619757D01*
X127484000Y-92862243D01*
X127531307Y-93100069D01*
X127624102Y-93324097D01*
X127758820Y-93525717D01*
X127930283Y-93697180D01*
X128131903Y-93831898D01*
X128355931Y-93924693D01*
X128593757Y-93972000D01*
X128836243Y-93972000D01*
X129074069Y-93924693D01*
X129298097Y-93831898D01*
X129499717Y-93697180D01*
X129671180Y-93525717D01*
X129805898Y-93324097D01*
X129898693Y-93100069D01*
X129946000Y-92862243D01*
X129946000Y-92619757D01*
X130024000Y-92619757D01*
X130024000Y-92862243D01*
X130071307Y-93100069D01*
X130164102Y-93324097D01*
X130298820Y-93525717D01*
X130470283Y-93697180D01*
X130671903Y-93831898D01*
X130895931Y-93924693D01*
X131133757Y-93972000D01*
X131376243Y-93972000D01*
X131614069Y-93924693D01*
X131838097Y-93831898D01*
X132039717Y-93697180D01*
X132211180Y-93525717D01*
X132345898Y-93324097D01*
X132438693Y-93100069D01*
X132486000Y-92862243D01*
X132486000Y-92619757D01*
X132564000Y-92619757D01*
X132564000Y-92862243D01*
X132611307Y-93100069D01*
X132704102Y-93324097D01*
X132838820Y-93525717D01*
X133010283Y-93697180D01*
X133211903Y-93831898D01*
X133435931Y-93924693D01*
X133673757Y-93972000D01*
X133916243Y-93972000D01*
X134154069Y-93924693D01*
X134378097Y-93831898D01*
X134579717Y-93697180D01*
X134751180Y-93525717D01*
X134885898Y-93324097D01*
X134978693Y-93100069D01*
X135026000Y-92862243D01*
X135026000Y-92619757D01*
X135104000Y-92619757D01*
X135104000Y-92862243D01*
X135151307Y-93100069D01*
X135244102Y-93324097D01*
X135378820Y-93525717D01*
X135550283Y-93697180D01*
X135751903Y-93831898D01*
X135975931Y-93924693D01*
X136213757Y-93972000D01*
X136456243Y-93972000D01*
X136694069Y-93924693D01*
X136918097Y-93831898D01*
X137119717Y-93697180D01*
X137291180Y-93525717D01*
X137425898Y-93324097D01*
X137518693Y-93100069D01*
X137566000Y-92862243D01*
X137566000Y-92619757D01*
X137518693Y-92381931D01*
X137425898Y-92157903D01*
X137291180Y-91956283D01*
X137119717Y-91784820D01*
X136918097Y-91650102D01*
X136694069Y-91557307D01*
X136456243Y-91510000D01*
X136213757Y-91510000D01*
X135975931Y-91557307D01*
X135751903Y-91650102D01*
X135550283Y-91784820D01*
X135378820Y-91956283D01*
X135244102Y-92157903D01*
X135151307Y-92381931D01*
X135104000Y-92619757D01*
X135026000Y-92619757D01*
X134978693Y-92381931D01*
X134885898Y-92157903D01*
X134751180Y-91956283D01*
X134579717Y-91784820D01*
X134378097Y-91650102D01*
X134154069Y-91557307D01*
X133916243Y-91510000D01*
X133673757Y-91510000D01*
X133435931Y-91557307D01*
X133211903Y-91650102D01*
X133010283Y-91784820D01*
X132838820Y-91956283D01*
X132704102Y-92157903D01*
X132611307Y-92381931D01*
X132564000Y-92619757D01*
X132486000Y-92619757D01*
X132438693Y-92381931D01*
X132345898Y-92157903D01*
X132211180Y-91956283D01*
X132039717Y-91784820D01*
X131838097Y-91650102D01*
X131614069Y-91557307D01*
X131376243Y-91510000D01*
X131133757Y-91510000D01*
X130895931Y-91557307D01*
X130671903Y-91650102D01*
X130470283Y-91784820D01*
X130298820Y-91956283D01*
X130164102Y-92157903D01*
X130071307Y-92381931D01*
X130024000Y-92619757D01*
X129946000Y-92619757D01*
X129898693Y-92381931D01*
X129805898Y-92157903D01*
X129671180Y-91956283D01*
X129499717Y-91784820D01*
X129298097Y-91650102D01*
X129074069Y-91557307D01*
X128836243Y-91510000D01*
X128712500Y-91510000D01*
X128712500Y-90079757D01*
X128754000Y-90079757D01*
X128754000Y-90322243D01*
X128801307Y-90560069D01*
X128894102Y-90784097D01*
X129028820Y-90985717D01*
X129200283Y-91157180D01*
X129401903Y-91291898D01*
X129625931Y-91384693D01*
X129863757Y-91432000D01*
X130106243Y-91432000D01*
X130344069Y-91384693D01*
X130568097Y-91291898D01*
X130769717Y-91157180D01*
X130941180Y-90985717D01*
X131075898Y-90784097D01*
X131168693Y-90560069D01*
X131216000Y-90322243D01*
X131216000Y-90079757D01*
X136374000Y-90079757D01*
X136374000Y-90322243D01*
X136421307Y-90560069D01*
X136514102Y-90784097D01*
X136648820Y-90985717D01*
X136820283Y-91157180D01*
X137021903Y-91291898D01*
X137245931Y-91384693D01*
X137483757Y-91432000D01*
X137726243Y-91432000D01*
X137964069Y-91384693D01*
X138188097Y-91291898D01*
X138389717Y-91157180D01*
X138561180Y-90985717D01*
X138695898Y-90784097D01*
X138788693Y-90560069D01*
X138836000Y-90322243D01*
X138836000Y-90079757D01*
X138788693Y-89841931D01*
X138695898Y-89617903D01*
X138561180Y-89416283D01*
X138389717Y-89244820D01*
X138188097Y-89110102D01*
X137964069Y-89017307D01*
X137726243Y-88970000D01*
X137483757Y-88970000D01*
X137245931Y-89017307D01*
X137021903Y-89110102D01*
X136820283Y-89244820D01*
X136648820Y-89416283D01*
X136514102Y-89617903D01*
X136421307Y-89841931D01*
X136374000Y-90079757D01*
X131216000Y-90079757D01*
X131168693Y-89841931D01*
X131075898Y-89617903D01*
X130941180Y-89416283D01*
X130769717Y-89244820D01*
X130568097Y-89110102D01*
X130344069Y-89017307D01*
X130106243Y-88970000D01*
X129863757Y-88970000D01*
X129625931Y-89017307D01*
X129401903Y-89110102D01*
X129200283Y-89244820D01*
X129028820Y-89416283D01*
X128894102Y-89617903D01*
X128801307Y-89841931D01*
X128754000Y-90079757D01*
X128712500Y-90079757D01*
X128712500Y-89173091D01*
X129160595Y-88724997D01*
X134476220Y-88724997D01*
X134524506Y-88841570D01*
X134599033Y-88953108D01*
X134693888Y-89047963D01*
X134805426Y-89122490D01*
X134929360Y-89173825D01*
X135060927Y-89199996D01*
X135195073Y-89199996D01*
X135326640Y-89173825D01*
X135450574Y-89122490D01*
X135562112Y-89047963D01*
X135656967Y-88953108D01*
X135731494Y-88841570D01*
X135782829Y-88717636D01*
X135809000Y-88586069D01*
X135809000Y-88451923D01*
X135782829Y-88320356D01*
X135732769Y-88199500D01*
X137452654Y-88199500D01*
X137477500Y-88201947D01*
X137502346Y-88199500D01*
X137502354Y-88199500D01*
X137576693Y-88192178D01*
X137672075Y-88163245D01*
X137759979Y-88116259D01*
X137837027Y-88053027D01*
X137852876Y-88033715D01*
X138452720Y-87433872D01*
X138472027Y-87418027D01*
X138535259Y-87340979D01*
X138582245Y-87253075D01*
X138611178Y-87157693D01*
X138618500Y-87083354D01*
X138620948Y-87058500D01*
X138618500Y-87033646D01*
X138618500Y-85495845D01*
X138620947Y-85470999D01*
X138618500Y-85446153D01*
X138618500Y-85446146D01*
X138611178Y-85371807D01*
X138582245Y-85276425D01*
X138535259Y-85188521D01*
X138472027Y-85111473D01*
X138452720Y-85095628D01*
X138111000Y-84753909D01*
X138111000Y-84723832D01*
X138188097Y-84691898D01*
X138389717Y-84557180D01*
X138561180Y-84385717D01*
X138695898Y-84184097D01*
X138788693Y-83960069D01*
X138836000Y-83722243D01*
X138836000Y-83479757D01*
X138788693Y-83241931D01*
X138695898Y-83017903D01*
X138561180Y-82816283D01*
X138389717Y-82644820D01*
X138188097Y-82510102D01*
X137964069Y-82417307D01*
X137726243Y-82370000D01*
X137483757Y-82370000D01*
X137245931Y-82417307D01*
X137021903Y-82510102D01*
X136820283Y-82644820D01*
X136648820Y-82816283D01*
X136514102Y-83017903D01*
X136421307Y-83241931D01*
X136374000Y-83479757D01*
X136374000Y-83722243D01*
X136421307Y-83960069D01*
X136514102Y-84184097D01*
X136648820Y-84385717D01*
X136820283Y-84557180D01*
X137021903Y-84691898D01*
X137099001Y-84723833D01*
X137099001Y-84938644D01*
X137096553Y-84963500D01*
X137106322Y-85062692D01*
X137135255Y-85158074D01*
X137135256Y-85158075D01*
X137182242Y-85245979D01*
X137245474Y-85323027D01*
X137264780Y-85338871D01*
X137606500Y-85680592D01*
X137606501Y-86848907D01*
X137267909Y-87187500D01*
X127908092Y-87187500D01*
X127274712Y-86554120D01*
X127379698Y-86396997D01*
X127472493Y-86172969D01*
X127519800Y-85935143D01*
X127519800Y-85692657D01*
X127472493Y-85454831D01*
X127379698Y-85230803D01*
X127244980Y-85029183D01*
X127073517Y-84857720D01*
X126871897Y-84723002D01*
X126647869Y-84630207D01*
X126410043Y-84582900D01*
X126167557Y-84582900D01*
X125929731Y-84630207D01*
X125705703Y-84723002D01*
X125504083Y-84857720D01*
X125386700Y-84975103D01*
X125386700Y-84112697D01*
X125504083Y-84230080D01*
X125705703Y-84364798D01*
X125929731Y-84457593D01*
X126167557Y-84504900D01*
X126410043Y-84504900D01*
X126647869Y-84457593D01*
X126871897Y-84364798D01*
X127073517Y-84230080D01*
X127196597Y-84107000D01*
X128862168Y-84107000D01*
X128894102Y-84184097D01*
X129028820Y-84385717D01*
X129200283Y-84557180D01*
X129401903Y-84691898D01*
X129625931Y-84784693D01*
X129863757Y-84832000D01*
X130106243Y-84832000D01*
X130344069Y-84784693D01*
X130568097Y-84691898D01*
X130769717Y-84557180D01*
X130941180Y-84385717D01*
X131075898Y-84184097D01*
X131168693Y-83960069D01*
X131216000Y-83722243D01*
X131216000Y-83479757D01*
X131294000Y-83479757D01*
X131294000Y-83722243D01*
X131341307Y-83960069D01*
X131434102Y-84184097D01*
X131568820Y-84385717D01*
X131740283Y-84557180D01*
X131941903Y-84691898D01*
X132165931Y-84784693D01*
X132403757Y-84832000D01*
X132646243Y-84832000D01*
X132884069Y-84784693D01*
X133108097Y-84691898D01*
X133309717Y-84557180D01*
X133481180Y-84385717D01*
X133615898Y-84184097D01*
X133708693Y-83960069D01*
X133756000Y-83722243D01*
X133756000Y-83479757D01*
X133708693Y-83241931D01*
X133615898Y-83017903D01*
X133481180Y-82816283D01*
X133309717Y-82644820D01*
X133108097Y-82510102D01*
X132884069Y-82417307D01*
X132646243Y-82370000D01*
X132403757Y-82370000D01*
X132165931Y-82417307D01*
X131941903Y-82510102D01*
X131740283Y-82644820D01*
X131568820Y-82816283D01*
X131434102Y-83017903D01*
X131341307Y-83241931D01*
X131294000Y-83479757D01*
X131216000Y-83479757D01*
X131168693Y-83241931D01*
X131075898Y-83017903D01*
X130941180Y-82816283D01*
X130769717Y-82644820D01*
X130568097Y-82510102D01*
X130344069Y-82417307D01*
X130106243Y-82370000D01*
X129863757Y-82370000D01*
X129625931Y-82417307D01*
X129401903Y-82510102D01*
X129200283Y-82644820D01*
X129028820Y-82816283D01*
X128894102Y-83017903D01*
X128862168Y-83095000D01*
X127508331Y-83095000D01*
X127472493Y-82914831D01*
X127379698Y-82690803D01*
X127244980Y-82489183D01*
X127073517Y-82317720D01*
X126871897Y-82183002D01*
X126647869Y-82090207D01*
X126410043Y-82042900D01*
X126167557Y-82042900D01*
X125929731Y-82090207D01*
X125705703Y-82183002D01*
X125504083Y-82317720D01*
X125386700Y-82435103D01*
X125386700Y-81572697D01*
X125504083Y-81690080D01*
X125705703Y-81824798D01*
X125929731Y-81917593D01*
X126167557Y-81964900D01*
X126410043Y-81964900D01*
X126647869Y-81917593D01*
X126871897Y-81824798D01*
X127073517Y-81690080D01*
X127244980Y-81518617D01*
X127379698Y-81316997D01*
X127411632Y-81239900D01*
X134181809Y-81239900D01*
X134559000Y-81617092D01*
X134559000Y-82478167D01*
X134481903Y-82510102D01*
X134280283Y-82644820D01*
X134108820Y-82816283D01*
X133974102Y-83017903D01*
X133881307Y-83241931D01*
X133834000Y-83479757D01*
X133834000Y-83722243D01*
X133881307Y-83960069D01*
X133974102Y-84184097D01*
X134108820Y-84385717D01*
X134280283Y-84557180D01*
X134481903Y-84691898D01*
X134705931Y-84784693D01*
X134943757Y-84832000D01*
X135186243Y-84832000D01*
X135424069Y-84784693D01*
X135648097Y-84691898D01*
X135849717Y-84557180D01*
X136021180Y-84385717D01*
X136155898Y-84184097D01*
X136248693Y-83960069D01*
X136296000Y-83722243D01*
X136296000Y-83479757D01*
X136248693Y-83241931D01*
X136155898Y-83017903D01*
X136021180Y-82816283D01*
X135849717Y-82644820D01*
X135648097Y-82510102D01*
X135571000Y-82478168D01*
X135571000Y-81432345D01*
X135573447Y-81407499D01*
X135571000Y-81382653D01*
X135571000Y-81382646D01*
X135563678Y-81308307D01*
X135534745Y-81212925D01*
X135487759Y-81125021D01*
X135424527Y-81047973D01*
X135405220Y-81032128D01*
X134766776Y-80393685D01*
X134750927Y-80374373D01*
X134673879Y-80311141D01*
X134585975Y-80264155D01*
X134490593Y-80235222D01*
X134416254Y-80227900D01*
X134416246Y-80227900D01*
X134391400Y-80225453D01*
X134366554Y-80227900D01*
X127411632Y-80227900D01*
X127379698Y-80150803D01*
X127244980Y-79949183D01*
X127073517Y-79777720D01*
X126871897Y-79643002D01*
X126647869Y-79550207D01*
X126410043Y-79502900D01*
X126167557Y-79502900D01*
X125929731Y-79550207D01*
X125705703Y-79643002D01*
X125504083Y-79777720D01*
X125386700Y-79895103D01*
X125386700Y-79421612D01*
X125438800Y-79426743D01*
X127138800Y-79426743D01*
X127213489Y-79419387D01*
X127285308Y-79397601D01*
X127351496Y-79362222D01*
X127409511Y-79314611D01*
X127457122Y-79256596D01*
X127492501Y-79190408D01*
X127514287Y-79118589D01*
X127521643Y-79043900D01*
X127521643Y-77343900D01*
X127517763Y-77304500D01*
X128675803Y-77304500D01*
X128583820Y-77396483D01*
%TA.AperFunction,Conductor*%
D16*
G36*
X128583820Y-77396483D02*
G01*
X128449102Y-77598103D01*
X128356307Y-77822131D01*
X128309000Y-78059957D01*
X128309000Y-78302443D01*
X128356307Y-78540269D01*
X128449102Y-78764297D01*
X128583820Y-78965917D01*
X128755283Y-79137380D01*
X128956903Y-79272098D01*
X129180931Y-79364893D01*
X129418757Y-79412200D01*
X129661243Y-79412200D01*
X129899069Y-79364893D01*
X130123097Y-79272098D01*
X130324717Y-79137380D01*
X130496180Y-78965917D01*
X130630898Y-78764297D01*
X130723693Y-78540269D01*
X130771000Y-78302443D01*
X130771000Y-78059957D01*
X130723693Y-77822131D01*
X130630898Y-77598103D01*
X130496180Y-77396483D01*
X130404197Y-77304500D01*
X130849787Y-77304500D01*
X130847157Y-77331200D01*
X130847157Y-79031200D01*
X130854513Y-79105889D01*
X130876299Y-79177708D01*
X130911678Y-79243896D01*
X130959289Y-79301911D01*
X131017304Y-79349522D01*
X131083492Y-79384901D01*
X131155311Y-79406687D01*
X131230000Y-79414043D01*
X132930000Y-79414043D01*
X133004689Y-79406687D01*
X133076508Y-79384901D01*
X133142696Y-79349522D01*
X133200711Y-79301911D01*
X133248322Y-79243896D01*
X133283701Y-79177708D01*
X133305487Y-79105889D01*
X133312843Y-79031200D01*
X133312843Y-77331200D01*
X133310213Y-77304500D01*
X137759837Y-77304500D01*
X137755957Y-77343900D01*
X137755957Y-79043900D01*
X137763313Y-79118589D01*
X137785099Y-79190408D01*
X137820478Y-79256596D01*
X137868089Y-79314611D01*
X137926104Y-79362222D01*
X137992292Y-79397601D01*
X138064111Y-79419387D01*
X138138800Y-79426743D01*
X139838800Y-79426743D01*
X139878200Y-79422863D01*
X139878201Y-95211304D01*
X139722717Y-95055820D01*
X139521097Y-94921102D01*
X139297069Y-94828307D01*
X139059243Y-94781000D01*
X138816757Y-94781000D01*
X138578931Y-94828307D01*
X138354903Y-94921102D01*
X138153283Y-95055820D01*
X137981820Y-95227283D01*
X137847102Y-95428903D01*
X137754307Y-95652931D01*
X137707000Y-95890757D01*
X137707000Y-96133243D01*
X137754307Y-96371069D01*
X137847102Y-96595097D01*
X137981820Y-96796717D01*
X138010303Y-96825200D01*
X127178397Y-96825200D01*
X127244980Y-96758617D01*
X127379698Y-96556997D01*
X127472493Y-96332969D01*
X127519800Y-96095143D01*
X127519800Y-95852657D01*
X127472493Y-95614831D01*
X127379698Y-95390803D01*
X127244980Y-95189183D01*
X127073517Y-95017720D01*
X126871897Y-94883002D01*
X126647869Y-94790207D01*
X126410043Y-94742900D01*
X126167557Y-94742900D01*
X125929731Y-94790207D01*
X125705703Y-94883002D01*
X125504083Y-95017720D01*
X125386700Y-95135103D01*
X125386700Y-94272697D01*
X125504083Y-94390080D01*
X125705703Y-94524798D01*
X125929731Y-94617593D01*
X126167557Y-94664900D01*
X126410043Y-94664900D01*
X126647869Y-94617593D01*
X126871897Y-94524798D01*
X127073517Y-94390080D01*
X127244980Y-94218617D01*
X127379698Y-94016997D01*
X127472493Y-93792969D01*
X127519800Y-93555143D01*
X127519800Y-93312657D01*
X127472493Y-93074831D01*
X127379698Y-92850803D01*
X127244980Y-92649183D01*
X127073517Y-92477720D01*
X126871897Y-92343002D01*
X126647869Y-92250207D01*
X126410043Y-92202900D01*
X126167557Y-92202900D01*
X125929731Y-92250207D01*
X125705703Y-92343002D01*
X125504083Y-92477720D01*
X125386700Y-92595103D01*
X125386700Y-91732697D01*
X125504083Y-91850080D01*
X125705703Y-91984798D01*
X125929731Y-92077593D01*
X126167557Y-92124900D01*
X126410043Y-92124900D01*
X126647869Y-92077593D01*
X126871897Y-91984798D01*
X127073517Y-91850080D01*
X127244980Y-91678617D01*
X127379698Y-91476997D01*
X127472493Y-91252969D01*
X127519800Y-91015143D01*
X127519800Y-90772657D01*
X127472493Y-90534831D01*
X127379698Y-90310803D01*
X127244980Y-90109183D01*
X127073517Y-89937720D01*
X126871897Y-89803002D01*
X126647869Y-89710207D01*
X126410043Y-89662900D01*
X126167557Y-89662900D01*
X125929731Y-89710207D01*
X125705703Y-89803002D01*
X125504083Y-89937720D01*
X125386700Y-90055103D01*
X125386700Y-89192697D01*
X125504083Y-89310080D01*
X125705703Y-89444798D01*
X125929731Y-89537593D01*
X126167557Y-89584900D01*
X126410043Y-89584900D01*
X126647869Y-89537593D01*
X126871897Y-89444798D01*
X127073517Y-89310080D01*
X127244980Y-89138617D01*
X127379698Y-88936997D01*
X127472493Y-88712969D01*
X127519800Y-88475143D01*
X127519800Y-88232657D01*
X127506126Y-88163913D01*
X127599307Y-88192178D01*
X127698500Y-88201948D01*
X127723354Y-88199500D01*
X128254908Y-88199500D01*
X127866280Y-88588129D01*
X127846974Y-88603973D01*
X127783742Y-88681021D01*
X127779615Y-88688742D01*
X127736755Y-88768926D01*
X127707822Y-88864308D01*
X127698053Y-88963500D01*
X127700501Y-88988356D01*
X127700500Y-92043565D01*
X127624102Y-92157903D01*
X127531307Y-92381931D01*
X127484000Y-92619757D01*
X127484000Y-92862243D01*
X127531307Y-93100069D01*
X127624102Y-93324097D01*
X127758820Y-93525717D01*
X127930283Y-93697180D01*
X128131903Y-93831898D01*
X128355931Y-93924693D01*
X128593757Y-93972000D01*
X128836243Y-93972000D01*
X129074069Y-93924693D01*
X129298097Y-93831898D01*
X129499717Y-93697180D01*
X129671180Y-93525717D01*
X129805898Y-93324097D01*
X129898693Y-93100069D01*
X129946000Y-92862243D01*
X129946000Y-92619757D01*
X130024000Y-92619757D01*
X130024000Y-92862243D01*
X130071307Y-93100069D01*
X130164102Y-93324097D01*
X130298820Y-93525717D01*
X130470283Y-93697180D01*
X130671903Y-93831898D01*
X130895931Y-93924693D01*
X131133757Y-93972000D01*
X131376243Y-93972000D01*
X131614069Y-93924693D01*
X131838097Y-93831898D01*
X132039717Y-93697180D01*
X132211180Y-93525717D01*
X132345898Y-93324097D01*
X132438693Y-93100069D01*
X132486000Y-92862243D01*
X132486000Y-92619757D01*
X132564000Y-92619757D01*
X132564000Y-92862243D01*
X132611307Y-93100069D01*
X132704102Y-93324097D01*
X132838820Y-93525717D01*
X133010283Y-93697180D01*
X133211903Y-93831898D01*
X133435931Y-93924693D01*
X133673757Y-93972000D01*
X133916243Y-93972000D01*
X134154069Y-93924693D01*
X134378097Y-93831898D01*
X134579717Y-93697180D01*
X134751180Y-93525717D01*
X134885898Y-93324097D01*
X134978693Y-93100069D01*
X135026000Y-92862243D01*
X135026000Y-92619757D01*
X135104000Y-92619757D01*
X135104000Y-92862243D01*
X135151307Y-93100069D01*
X135244102Y-93324097D01*
X135378820Y-93525717D01*
X135550283Y-93697180D01*
X135751903Y-93831898D01*
X135975931Y-93924693D01*
X136213757Y-93972000D01*
X136456243Y-93972000D01*
X136694069Y-93924693D01*
X136918097Y-93831898D01*
X137119717Y-93697180D01*
X137291180Y-93525717D01*
X137425898Y-93324097D01*
X137518693Y-93100069D01*
X137566000Y-92862243D01*
X137566000Y-92619757D01*
X137518693Y-92381931D01*
X137425898Y-92157903D01*
X137291180Y-91956283D01*
X137119717Y-91784820D01*
X136918097Y-91650102D01*
X136694069Y-91557307D01*
X136456243Y-91510000D01*
X136213757Y-91510000D01*
X135975931Y-91557307D01*
X135751903Y-91650102D01*
X135550283Y-91784820D01*
X135378820Y-91956283D01*
X135244102Y-92157903D01*
X135151307Y-92381931D01*
X135104000Y-92619757D01*
X135026000Y-92619757D01*
X134978693Y-92381931D01*
X134885898Y-92157903D01*
X134751180Y-91956283D01*
X134579717Y-91784820D01*
X134378097Y-91650102D01*
X134154069Y-91557307D01*
X133916243Y-91510000D01*
X133673757Y-91510000D01*
X133435931Y-91557307D01*
X133211903Y-91650102D01*
X133010283Y-91784820D01*
X132838820Y-91956283D01*
X132704102Y-92157903D01*
X132611307Y-92381931D01*
X132564000Y-92619757D01*
X132486000Y-92619757D01*
X132438693Y-92381931D01*
X132345898Y-92157903D01*
X132211180Y-91956283D01*
X132039717Y-91784820D01*
X131838097Y-91650102D01*
X131614069Y-91557307D01*
X131376243Y-91510000D01*
X131133757Y-91510000D01*
X130895931Y-91557307D01*
X130671903Y-91650102D01*
X130470283Y-91784820D01*
X130298820Y-91956283D01*
X130164102Y-92157903D01*
X130071307Y-92381931D01*
X130024000Y-92619757D01*
X129946000Y-92619757D01*
X129898693Y-92381931D01*
X129805898Y-92157903D01*
X129671180Y-91956283D01*
X129499717Y-91784820D01*
X129298097Y-91650102D01*
X129074069Y-91557307D01*
X128836243Y-91510000D01*
X128712500Y-91510000D01*
X128712500Y-90079757D01*
X128754000Y-90079757D01*
X128754000Y-90322243D01*
X128801307Y-90560069D01*
X128894102Y-90784097D01*
X129028820Y-90985717D01*
X129200283Y-91157180D01*
X129401903Y-91291898D01*
X129625931Y-91384693D01*
X129863757Y-91432000D01*
X130106243Y-91432000D01*
X130344069Y-91384693D01*
X130568097Y-91291898D01*
X130769717Y-91157180D01*
X130941180Y-90985717D01*
X131075898Y-90784097D01*
X131168693Y-90560069D01*
X131216000Y-90322243D01*
X131216000Y-90079757D01*
X136374000Y-90079757D01*
X136374000Y-90322243D01*
X136421307Y-90560069D01*
X136514102Y-90784097D01*
X136648820Y-90985717D01*
X136820283Y-91157180D01*
X137021903Y-91291898D01*
X137245931Y-91384693D01*
X137483757Y-91432000D01*
X137726243Y-91432000D01*
X137964069Y-91384693D01*
X138188097Y-91291898D01*
X138389717Y-91157180D01*
X138561180Y-90985717D01*
X138695898Y-90784097D01*
X138788693Y-90560069D01*
X138836000Y-90322243D01*
X138836000Y-90079757D01*
X138788693Y-89841931D01*
X138695898Y-89617903D01*
X138561180Y-89416283D01*
X138389717Y-89244820D01*
X138188097Y-89110102D01*
X137964069Y-89017307D01*
X137726243Y-88970000D01*
X137483757Y-88970000D01*
X137245931Y-89017307D01*
X137021903Y-89110102D01*
X136820283Y-89244820D01*
X136648820Y-89416283D01*
X136514102Y-89617903D01*
X136421307Y-89841931D01*
X136374000Y-90079757D01*
X131216000Y-90079757D01*
X131168693Y-89841931D01*
X131075898Y-89617903D01*
X130941180Y-89416283D01*
X130769717Y-89244820D01*
X130568097Y-89110102D01*
X130344069Y-89017307D01*
X130106243Y-88970000D01*
X129863757Y-88970000D01*
X129625931Y-89017307D01*
X129401903Y-89110102D01*
X129200283Y-89244820D01*
X129028820Y-89416283D01*
X128894102Y-89617903D01*
X128801307Y-89841931D01*
X128754000Y-90079757D01*
X128712500Y-90079757D01*
X128712500Y-89173091D01*
X129160595Y-88724997D01*
X134476220Y-88724997D01*
X134524506Y-88841570D01*
X134599033Y-88953108D01*
X134693888Y-89047963D01*
X134805426Y-89122490D01*
X134929360Y-89173825D01*
X135060927Y-89199996D01*
X135195073Y-89199996D01*
X135326640Y-89173825D01*
X135450574Y-89122490D01*
X135562112Y-89047963D01*
X135656967Y-88953108D01*
X135731494Y-88841570D01*
X135782829Y-88717636D01*
X135809000Y-88586069D01*
X135809000Y-88451923D01*
X135782829Y-88320356D01*
X135732769Y-88199500D01*
X137452654Y-88199500D01*
X137477500Y-88201947D01*
X137502346Y-88199500D01*
X137502354Y-88199500D01*
X137576693Y-88192178D01*
X137672075Y-88163245D01*
X137759979Y-88116259D01*
X137837027Y-88053027D01*
X137852876Y-88033715D01*
X138452720Y-87433872D01*
X138472027Y-87418027D01*
X138535259Y-87340979D01*
X138582245Y-87253075D01*
X138611178Y-87157693D01*
X138618500Y-87083354D01*
X138620948Y-87058500D01*
X138618500Y-87033646D01*
X138618500Y-85495845D01*
X138620947Y-85470999D01*
X138618500Y-85446153D01*
X138618500Y-85446146D01*
X138611178Y-85371807D01*
X138582245Y-85276425D01*
X138535259Y-85188521D01*
X138472027Y-85111473D01*
X138452720Y-85095628D01*
X138111000Y-84753909D01*
X138111000Y-84723832D01*
X138188097Y-84691898D01*
X138389717Y-84557180D01*
X138561180Y-84385717D01*
X138695898Y-84184097D01*
X138788693Y-83960069D01*
X138836000Y-83722243D01*
X138836000Y-83479757D01*
X138788693Y-83241931D01*
X138695898Y-83017903D01*
X138561180Y-82816283D01*
X138389717Y-82644820D01*
X138188097Y-82510102D01*
X137964069Y-82417307D01*
X137726243Y-82370000D01*
X137483757Y-82370000D01*
X137245931Y-82417307D01*
X137021903Y-82510102D01*
X136820283Y-82644820D01*
X136648820Y-82816283D01*
X136514102Y-83017903D01*
X136421307Y-83241931D01*
X136374000Y-83479757D01*
X136374000Y-83722243D01*
X136421307Y-83960069D01*
X136514102Y-84184097D01*
X136648820Y-84385717D01*
X136820283Y-84557180D01*
X137021903Y-84691898D01*
X137099001Y-84723833D01*
X137099001Y-84938644D01*
X137096553Y-84963500D01*
X137106322Y-85062692D01*
X137135255Y-85158074D01*
X137135256Y-85158075D01*
X137182242Y-85245979D01*
X137245474Y-85323027D01*
X137264780Y-85338871D01*
X137606500Y-85680592D01*
X137606501Y-86848907D01*
X137267909Y-87187500D01*
X127908092Y-87187500D01*
X127274712Y-86554120D01*
X127379698Y-86396997D01*
X127472493Y-86172969D01*
X127519800Y-85935143D01*
X127519800Y-85692657D01*
X127472493Y-85454831D01*
X127379698Y-85230803D01*
X127244980Y-85029183D01*
X127073517Y-84857720D01*
X126871897Y-84723002D01*
X126647869Y-84630207D01*
X126410043Y-84582900D01*
X126167557Y-84582900D01*
X125929731Y-84630207D01*
X125705703Y-84723002D01*
X125504083Y-84857720D01*
X125386700Y-84975103D01*
X125386700Y-84112697D01*
X125504083Y-84230080D01*
X125705703Y-84364798D01*
X125929731Y-84457593D01*
X126167557Y-84504900D01*
X126410043Y-84504900D01*
X126647869Y-84457593D01*
X126871897Y-84364798D01*
X127073517Y-84230080D01*
X127196597Y-84107000D01*
X128862168Y-84107000D01*
X128894102Y-84184097D01*
X129028820Y-84385717D01*
X129200283Y-84557180D01*
X129401903Y-84691898D01*
X129625931Y-84784693D01*
X129863757Y-84832000D01*
X130106243Y-84832000D01*
X130344069Y-84784693D01*
X130568097Y-84691898D01*
X130769717Y-84557180D01*
X130941180Y-84385717D01*
X131075898Y-84184097D01*
X131168693Y-83960069D01*
X131216000Y-83722243D01*
X131216000Y-83479757D01*
X131294000Y-83479757D01*
X131294000Y-83722243D01*
X131341307Y-83960069D01*
X131434102Y-84184097D01*
X131568820Y-84385717D01*
X131740283Y-84557180D01*
X131941903Y-84691898D01*
X132165931Y-84784693D01*
X132403757Y-84832000D01*
X132646243Y-84832000D01*
X132884069Y-84784693D01*
X133108097Y-84691898D01*
X133309717Y-84557180D01*
X133481180Y-84385717D01*
X133615898Y-84184097D01*
X133708693Y-83960069D01*
X133756000Y-83722243D01*
X133756000Y-83479757D01*
X133708693Y-83241931D01*
X133615898Y-83017903D01*
X133481180Y-82816283D01*
X133309717Y-82644820D01*
X133108097Y-82510102D01*
X132884069Y-82417307D01*
X132646243Y-82370000D01*
X132403757Y-82370000D01*
X132165931Y-82417307D01*
X131941903Y-82510102D01*
X131740283Y-82644820D01*
X131568820Y-82816283D01*
X131434102Y-83017903D01*
X131341307Y-83241931D01*
X131294000Y-83479757D01*
X131216000Y-83479757D01*
X131168693Y-83241931D01*
X131075898Y-83017903D01*
X130941180Y-82816283D01*
X130769717Y-82644820D01*
X130568097Y-82510102D01*
X130344069Y-82417307D01*
X130106243Y-82370000D01*
X129863757Y-82370000D01*
X129625931Y-82417307D01*
X129401903Y-82510102D01*
X129200283Y-82644820D01*
X129028820Y-82816283D01*
X128894102Y-83017903D01*
X128862168Y-83095000D01*
X127508331Y-83095000D01*
X127472493Y-82914831D01*
X127379698Y-82690803D01*
X127244980Y-82489183D01*
X127073517Y-82317720D01*
X126871897Y-82183002D01*
X126647869Y-82090207D01*
X126410043Y-82042900D01*
X126167557Y-82042900D01*
X125929731Y-82090207D01*
X125705703Y-82183002D01*
X125504083Y-82317720D01*
X125386700Y-82435103D01*
X125386700Y-81572697D01*
X125504083Y-81690080D01*
X125705703Y-81824798D01*
X125929731Y-81917593D01*
X126167557Y-81964900D01*
X126410043Y-81964900D01*
X126647869Y-81917593D01*
X126871897Y-81824798D01*
X127073517Y-81690080D01*
X127244980Y-81518617D01*
X127379698Y-81316997D01*
X127411632Y-81239900D01*
X134181809Y-81239900D01*
X134559000Y-81617092D01*
X134559000Y-82478167D01*
X134481903Y-82510102D01*
X134280283Y-82644820D01*
X134108820Y-82816283D01*
X133974102Y-83017903D01*
X133881307Y-83241931D01*
X133834000Y-83479757D01*
X133834000Y-83722243D01*
X133881307Y-83960069D01*
X133974102Y-84184097D01*
X134108820Y-84385717D01*
X134280283Y-84557180D01*
X134481903Y-84691898D01*
X134705931Y-84784693D01*
X134943757Y-84832000D01*
X135186243Y-84832000D01*
X135424069Y-84784693D01*
X135648097Y-84691898D01*
X135849717Y-84557180D01*
X136021180Y-84385717D01*
X136155898Y-84184097D01*
X136248693Y-83960069D01*
X136296000Y-83722243D01*
X136296000Y-83479757D01*
X136248693Y-83241931D01*
X136155898Y-83017903D01*
X136021180Y-82816283D01*
X135849717Y-82644820D01*
X135648097Y-82510102D01*
X135571000Y-82478168D01*
X135571000Y-81432345D01*
X135573447Y-81407499D01*
X135571000Y-81382653D01*
X135571000Y-81382646D01*
X135563678Y-81308307D01*
X135534745Y-81212925D01*
X135487759Y-81125021D01*
X135424527Y-81047973D01*
X135405220Y-81032128D01*
X134766776Y-80393685D01*
X134750927Y-80374373D01*
X134673879Y-80311141D01*
X134585975Y-80264155D01*
X134490593Y-80235222D01*
X134416254Y-80227900D01*
X134416246Y-80227900D01*
X134391400Y-80225453D01*
X134366554Y-80227900D01*
X127411632Y-80227900D01*
X127379698Y-80150803D01*
X127244980Y-79949183D01*
X127073517Y-79777720D01*
X126871897Y-79643002D01*
X126647869Y-79550207D01*
X126410043Y-79502900D01*
X126167557Y-79502900D01*
X125929731Y-79550207D01*
X125705703Y-79643002D01*
X125504083Y-79777720D01*
X125386700Y-79895103D01*
X125386700Y-79421612D01*
X125438800Y-79426743D01*
X127138800Y-79426743D01*
X127213489Y-79419387D01*
X127285308Y-79397601D01*
X127351496Y-79362222D01*
X127409511Y-79314611D01*
X127457122Y-79256596D01*
X127492501Y-79190408D01*
X127514287Y-79118589D01*
X127521643Y-79043900D01*
X127521643Y-77343900D01*
X127517763Y-77304500D01*
X128675803Y-77304500D01*
X128583820Y-77396483D01*
G37*
%TD.AperFunction*%
%TD*%
M02*
