M48
; DRILL file {KiCad (5.1.8)-1} date 01/04/21 21:32:57
; FORMAT={-:-/ absolute / inch / decimal}
; #@! TF.CreationDate,2021-01-04T21:32:57+01:00
; #@! TF.GenerationSoftware,Kicad,Pcbnew,(5.1.8)-1
; #@! TF.FileFunction,Plated,1,4,PTH
FMAT,2
INCH
T1C0.0118
T2C0.0354
T3C0.0394
%
G90
G05
T1
X5.03Y-3.3425
X5.0375Y-3.2225
X5.08Y-3.7175
X5.08Y-3.765
X5.1175Y-3.2225
X5.1525Y-3.715
X5.1525Y-3.765
X5.2175Y-3.2225
X5.22Y-3.7125
X5.22Y-3.7675
X5.315Y-3.7675
X5.32Y-3.485
X5.385Y-3.2225
T2
X5.0675Y-3.3914
X5.0675Y-3.6512
X5.1175Y-3.2914
X5.1175Y-3.5512
X5.1675Y-3.3914
X5.1675Y-3.6512
X5.2175Y-3.2914
X5.2175Y-3.5512
X5.2675Y-3.3914
X5.2675Y-3.6512
X5.3175Y-3.2914
X5.3175Y-3.5512
X5.3675Y-3.3914
X5.3675Y-3.6512
X5.4175Y-3.2914
X5.4175Y-3.5512
T3
X4.972Y-3.0785
X4.972Y-3.1785
X4.972Y-3.2785
X4.972Y-3.3785
X4.972Y-3.4785
X4.972Y-3.5785
X4.972Y-3.6785
X4.972Y-3.7785
X5.47Y-3.68
X5.47Y-3.78
X5.1Y-3.078
X5.2Y-3.078
X5.472Y-3.0785
X5.472Y-3.1785
T0
M30
