G04 #@! TF.GenerationSoftware,KiCad,Pcbnew,(5.1.6)-1*
G04 #@! TF.CreationDate,2020-05-29T22:16:18+02:00*
G04 #@! TF.ProjectId,TMC51604Axis,544d4335-3136-4303-9441-7869732e6b69,rev?*
G04 #@! TF.SameCoordinates,Original*
G04 #@! TF.FileFunction,Legend,Top*
G04 #@! TF.FilePolarity,Positive*
%FSLAX46Y46*%
G04 Gerber Fmt 4.6, Leading zero omitted, Abs format (unit mm)*
G04 Created by KiCad (PCBNEW (5.1.6)-1) date 2020-05-29 22:16:18*
%MOMM*%
%LPD*%
G01*
G04 APERTURE LIST*
%ADD10C,0.300000*%
%ADD11C,0.120000*%
%ADD12C,0.200000*%
G04 APERTURE END LIST*
D10*
X70402285Y-126765857D02*
X70902285Y-126765857D01*
X71116571Y-127551571D02*
X70402285Y-127551571D01*
X70402285Y-126051571D01*
X71116571Y-126051571D01*
X71759428Y-127551571D02*
X71759428Y-126051571D01*
X72616571Y-127551571D01*
X72616571Y-126051571D01*
X74188000Y-127408714D02*
X74116571Y-127480142D01*
X73902285Y-127551571D01*
X73759428Y-127551571D01*
X73545142Y-127480142D01*
X73402285Y-127337285D01*
X73330857Y-127194428D01*
X73259428Y-126908714D01*
X73259428Y-126694428D01*
X73330857Y-126408714D01*
X73402285Y-126265857D01*
X73545142Y-126123000D01*
X73759428Y-126051571D01*
X73902285Y-126051571D01*
X74116571Y-126123000D01*
X74188000Y-126194428D01*
X74473714Y-127694428D02*
X75616571Y-127694428D01*
X75759428Y-126051571D02*
X76259428Y-127551571D01*
X76759428Y-126051571D01*
X77545142Y-126051571D02*
X77830857Y-126051571D01*
X77973714Y-126123000D01*
X78116571Y-126265857D01*
X78188000Y-126551571D01*
X78188000Y-127051571D01*
X78116571Y-127337285D01*
X77973714Y-127480142D01*
X77830857Y-127551571D01*
X77545142Y-127551571D01*
X77402285Y-127480142D01*
X77259428Y-127337285D01*
X77188000Y-127051571D01*
X77188000Y-126551571D01*
X77259428Y-126265857D01*
X77402285Y-126123000D01*
X77545142Y-126051571D01*
X79545142Y-127551571D02*
X78830857Y-127551571D01*
X78830857Y-126051571D01*
X79830857Y-126051571D02*
X80688000Y-126051571D01*
X80259428Y-127551571D02*
X80259428Y-126051571D01*
X107065571Y-133322142D02*
X107279857Y-133393571D01*
X107637000Y-133393571D01*
X107779857Y-133322142D01*
X107851285Y-133250714D01*
X107922714Y-133107857D01*
X107922714Y-132965000D01*
X107851285Y-132822142D01*
X107779857Y-132750714D01*
X107637000Y-132679285D01*
X107351285Y-132607857D01*
X107208428Y-132536428D01*
X107137000Y-132465000D01*
X107065571Y-132322142D01*
X107065571Y-132179285D01*
X107137000Y-132036428D01*
X107208428Y-131965000D01*
X107351285Y-131893571D01*
X107708428Y-131893571D01*
X107922714Y-131965000D01*
X108565571Y-133393571D02*
X108565571Y-131893571D01*
X108922714Y-131893571D01*
X109137000Y-131965000D01*
X109279857Y-132107857D01*
X109351285Y-132250714D01*
X109422714Y-132536428D01*
X109422714Y-132750714D01*
X109351285Y-133036428D01*
X109279857Y-133179285D01*
X109137000Y-133322142D01*
X108922714Y-133393571D01*
X108565571Y-133393571D01*
X109708428Y-133536428D02*
X110851285Y-133536428D01*
X111208428Y-133393571D02*
X111208428Y-131893571D01*
X111708428Y-132965000D01*
X112208428Y-131893571D01*
X112208428Y-133393571D01*
X113208428Y-131893571D02*
X113494142Y-131893571D01*
X113637000Y-131965000D01*
X113779857Y-132107857D01*
X113851285Y-132393571D01*
X113851285Y-132893571D01*
X113779857Y-133179285D01*
X113637000Y-133322142D01*
X113494142Y-133393571D01*
X113208428Y-133393571D01*
X113065571Y-133322142D01*
X112922714Y-133179285D01*
X112851285Y-132893571D01*
X112851285Y-132393571D01*
X112922714Y-132107857D01*
X113065571Y-131965000D01*
X113208428Y-131893571D01*
X114494142Y-133393571D02*
X114494142Y-131893571D01*
X114851285Y-131893571D01*
X115065571Y-131965000D01*
X115208428Y-132107857D01*
X115279857Y-132250714D01*
X115351285Y-132536428D01*
X115351285Y-132750714D01*
X115279857Y-133036428D01*
X115208428Y-133179285D01*
X115065571Y-133322142D01*
X114851285Y-133393571D01*
X114494142Y-133393571D01*
X115994142Y-132607857D02*
X116494142Y-132607857D01*
X116708428Y-133393571D02*
X115994142Y-133393571D01*
X115994142Y-131893571D01*
X116708428Y-131893571D01*
X118519428Y-133322142D02*
X118733714Y-133393571D01*
X119090857Y-133393571D01*
X119233714Y-133322142D01*
X119305142Y-133250714D01*
X119376571Y-133107857D01*
X119376571Y-132965000D01*
X119305142Y-132822142D01*
X119233714Y-132750714D01*
X119090857Y-132679285D01*
X118805142Y-132607857D01*
X118662285Y-132536428D01*
X118590857Y-132465000D01*
X118519428Y-132322142D01*
X118519428Y-132179285D01*
X118590857Y-132036428D01*
X118662285Y-131965000D01*
X118805142Y-131893571D01*
X119162285Y-131893571D01*
X119376571Y-131965000D01*
X120019428Y-133393571D02*
X120019428Y-131893571D01*
X120590857Y-131893571D01*
X120733714Y-131965000D01*
X120805142Y-132036428D01*
X120876571Y-132179285D01*
X120876571Y-132393571D01*
X120805142Y-132536428D01*
X120733714Y-132607857D01*
X120590857Y-132679285D01*
X120019428Y-132679285D01*
X121519428Y-133393571D02*
X121519428Y-131893571D01*
X121876571Y-133536428D02*
X123019428Y-133536428D01*
X123376571Y-133393571D02*
X123376571Y-131893571D01*
X123876571Y-132965000D01*
X124376571Y-131893571D01*
X124376571Y-133393571D01*
X125376571Y-131893571D02*
X125662285Y-131893571D01*
X125805142Y-131965000D01*
X125948000Y-132107857D01*
X126019428Y-132393571D01*
X126019428Y-132893571D01*
X125948000Y-133179285D01*
X125805142Y-133322142D01*
X125662285Y-133393571D01*
X125376571Y-133393571D01*
X125233714Y-133322142D01*
X125090857Y-133179285D01*
X125019428Y-132893571D01*
X125019428Y-132393571D01*
X125090857Y-132107857D01*
X125233714Y-131965000D01*
X125376571Y-131893571D01*
X126662285Y-133393571D02*
X126662285Y-131893571D01*
X127019428Y-131893571D01*
X127233714Y-131965000D01*
X127376571Y-132107857D01*
X127448000Y-132250714D01*
X127519428Y-132536428D01*
X127519428Y-132750714D01*
X127448000Y-133036428D01*
X127376571Y-133179285D01*
X127233714Y-133322142D01*
X127019428Y-133393571D01*
X126662285Y-133393571D01*
X128162285Y-132607857D02*
X128662285Y-132607857D01*
X128876571Y-133393571D02*
X128162285Y-133393571D01*
X128162285Y-131893571D01*
X128876571Y-131893571D01*
D11*
X78359000Y-105283000D02*
X92964000Y-105283000D01*
X78359000Y-121031000D02*
X78359000Y-105283000D01*
X92964000Y-121031000D02*
X78359000Y-121031000D01*
X92964000Y-105283000D02*
X92964000Y-121031000D01*
D10*
X72437714Y-132020571D02*
X71723428Y-132020571D01*
X71652000Y-132734857D01*
X71723428Y-132663428D01*
X71866285Y-132592000D01*
X72223428Y-132592000D01*
X72366285Y-132663428D01*
X72437714Y-132734857D01*
X72509142Y-132877714D01*
X72509142Y-133234857D01*
X72437714Y-133377714D01*
X72366285Y-133449142D01*
X72223428Y-133520571D01*
X71866285Y-133520571D01*
X71723428Y-133449142D01*
X71652000Y-133377714D01*
X73152000Y-133377714D02*
X73223428Y-133449142D01*
X73152000Y-133520571D01*
X73080571Y-133449142D01*
X73152000Y-133377714D01*
X73152000Y-133520571D01*
X74152000Y-132020571D02*
X74294857Y-132020571D01*
X74437714Y-132092000D01*
X74509142Y-132163428D01*
X74580571Y-132306285D01*
X74652000Y-132592000D01*
X74652000Y-132949142D01*
X74580571Y-133234857D01*
X74509142Y-133377714D01*
X74437714Y-133449142D01*
X74294857Y-133520571D01*
X74152000Y-133520571D01*
X74009142Y-133449142D01*
X73937714Y-133377714D01*
X73866285Y-133234857D01*
X73794857Y-132949142D01*
X73794857Y-132592000D01*
X73866285Y-132306285D01*
X73937714Y-132163428D01*
X74009142Y-132092000D01*
X74152000Y-132020571D01*
X77422571Y-132020571D02*
X78351142Y-132020571D01*
X77851142Y-132592000D01*
X78065428Y-132592000D01*
X78208285Y-132663428D01*
X78279714Y-132734857D01*
X78351142Y-132877714D01*
X78351142Y-133234857D01*
X78279714Y-133377714D01*
X78208285Y-133449142D01*
X78065428Y-133520571D01*
X77636857Y-133520571D01*
X77494000Y-133449142D01*
X77422571Y-133377714D01*
X78994000Y-133377714D02*
X79065428Y-133449142D01*
X78994000Y-133520571D01*
X78922571Y-133449142D01*
X78994000Y-133377714D01*
X78994000Y-133520571D01*
X79565428Y-132020571D02*
X80494000Y-132020571D01*
X79994000Y-132592000D01*
X80208285Y-132592000D01*
X80351142Y-132663428D01*
X80422571Y-132734857D01*
X80494000Y-132877714D01*
X80494000Y-133234857D01*
X80422571Y-133377714D01*
X80351142Y-133449142D01*
X80208285Y-133520571D01*
X79779714Y-133520571D01*
X79636857Y-133449142D01*
X79565428Y-133377714D01*
D12*
X79905285Y-105871000D02*
X79848142Y-106042428D01*
X79848142Y-106328142D01*
X79905285Y-106442428D01*
X79962428Y-106499571D01*
X80076714Y-106556714D01*
X80191000Y-106556714D01*
X80305285Y-106499571D01*
X80362428Y-106442428D01*
X80419571Y-106328142D01*
X80476714Y-106099571D01*
X80533857Y-105985285D01*
X80591000Y-105928142D01*
X80705285Y-105871000D01*
X80819571Y-105871000D01*
X80933857Y-105928142D01*
X80991000Y-105985285D01*
X81048142Y-106099571D01*
X81048142Y-106385285D01*
X80991000Y-106556714D01*
X81048142Y-106899571D02*
X81048142Y-107585285D01*
X79848142Y-107242428D02*
X81048142Y-107242428D01*
X80476714Y-107985285D02*
X80476714Y-108385285D01*
X79848142Y-108556714D02*
X79848142Y-107985285D01*
X81048142Y-107985285D01*
X81048142Y-108556714D01*
X79848142Y-109071000D02*
X81048142Y-109071000D01*
X81048142Y-109528142D01*
X80991000Y-109642428D01*
X80933857Y-109699571D01*
X80819571Y-109756714D01*
X80648142Y-109756714D01*
X80533857Y-109699571D01*
X80476714Y-109642428D01*
X80419571Y-109528142D01*
X80419571Y-109071000D01*
X79733857Y-109985285D02*
X79733857Y-110899571D01*
X79848142Y-111871000D02*
X80419571Y-111471000D01*
X79848142Y-111185285D02*
X81048142Y-111185285D01*
X81048142Y-111642428D01*
X80991000Y-111756714D01*
X80933857Y-111813857D01*
X80819571Y-111871000D01*
X80648142Y-111871000D01*
X80533857Y-111813857D01*
X80476714Y-111756714D01*
X80419571Y-111642428D01*
X80419571Y-111185285D01*
X80476714Y-112385285D02*
X80476714Y-112785285D01*
X79848142Y-112956714D02*
X79848142Y-112385285D01*
X81048142Y-112385285D01*
X81048142Y-112956714D01*
X80476714Y-113871000D02*
X80476714Y-113471000D01*
X79848142Y-113471000D02*
X81048142Y-113471000D01*
X81048142Y-114042428D01*
X79733857Y-114213857D02*
X79733857Y-115128142D01*
X79848142Y-115985285D02*
X79848142Y-115413857D01*
X81048142Y-115413857D01*
X82134142Y-107261571D02*
X83334142Y-107261571D01*
X83334142Y-107547285D01*
X83277000Y-107718714D01*
X83162714Y-107833000D01*
X83048428Y-107890142D01*
X82819857Y-107947285D01*
X82648428Y-107947285D01*
X82419857Y-107890142D01*
X82305571Y-107833000D01*
X82191285Y-107718714D01*
X82134142Y-107547285D01*
X82134142Y-107261571D01*
X82134142Y-108461571D02*
X83334142Y-108461571D01*
X82134142Y-109718714D02*
X82705571Y-109318714D01*
X82134142Y-109033000D02*
X83334142Y-109033000D01*
X83334142Y-109490142D01*
X83277000Y-109604428D01*
X83219857Y-109661571D01*
X83105571Y-109718714D01*
X82934142Y-109718714D01*
X82819857Y-109661571D01*
X82762714Y-109604428D01*
X82705571Y-109490142D01*
X82705571Y-109033000D01*
X82019857Y-109947285D02*
X82019857Y-110861571D01*
X82134142Y-111833000D02*
X82705571Y-111433000D01*
X82134142Y-111147285D02*
X83334142Y-111147285D01*
X83334142Y-111604428D01*
X83277000Y-111718714D01*
X83219857Y-111775857D01*
X83105571Y-111833000D01*
X82934142Y-111833000D01*
X82819857Y-111775857D01*
X82762714Y-111718714D01*
X82705571Y-111604428D01*
X82705571Y-111147285D01*
X82762714Y-112347285D02*
X82762714Y-112747285D01*
X82134142Y-112918714D02*
X82134142Y-112347285D01*
X83334142Y-112347285D01*
X83334142Y-112918714D01*
X82762714Y-113833000D02*
X82762714Y-113433000D01*
X82134142Y-113433000D02*
X83334142Y-113433000D01*
X83334142Y-114004428D01*
X82019857Y-114175857D02*
X82019857Y-115090142D01*
X82134142Y-116061571D02*
X82705571Y-115661571D01*
X82134142Y-115375857D02*
X83334142Y-115375857D01*
X83334142Y-115833000D01*
X83277000Y-115947285D01*
X83219857Y-116004428D01*
X83105571Y-116061571D01*
X82934142Y-116061571D01*
X82819857Y-116004428D01*
X82762714Y-115947285D01*
X82705571Y-115833000D01*
X82705571Y-115375857D01*
X84674142Y-107915571D02*
X85874142Y-107915571D01*
X85874142Y-108201285D01*
X85817000Y-108372714D01*
X85702714Y-108487000D01*
X85588428Y-108544142D01*
X85359857Y-108601285D01*
X85188428Y-108601285D01*
X84959857Y-108544142D01*
X84845571Y-108487000D01*
X84731285Y-108372714D01*
X84674142Y-108201285D01*
X84674142Y-107915571D01*
X84674142Y-109115571D02*
X85874142Y-109115571D01*
X85017000Y-109629857D02*
X85017000Y-110201285D01*
X84674142Y-109515571D02*
X85874142Y-109915571D01*
X84674142Y-110315571D01*
X85817000Y-111344142D02*
X85874142Y-111229857D01*
X85874142Y-111058428D01*
X85817000Y-110887000D01*
X85702714Y-110772714D01*
X85588428Y-110715571D01*
X85359857Y-110658428D01*
X85188428Y-110658428D01*
X84959857Y-110715571D01*
X84845571Y-110772714D01*
X84731285Y-110887000D01*
X84674142Y-111058428D01*
X84674142Y-111172714D01*
X84731285Y-111344142D01*
X84788428Y-111401285D01*
X85188428Y-111401285D01*
X85188428Y-111172714D01*
X84559857Y-111629857D02*
X84559857Y-112544142D01*
X84731285Y-112772714D02*
X84674142Y-112944142D01*
X84674142Y-113229857D01*
X84731285Y-113344142D01*
X84788428Y-113401285D01*
X84902714Y-113458428D01*
X85017000Y-113458428D01*
X85131285Y-113401285D01*
X85188428Y-113344142D01*
X85245571Y-113229857D01*
X85302714Y-113001285D01*
X85359857Y-112887000D01*
X85417000Y-112829857D01*
X85531285Y-112772714D01*
X85645571Y-112772714D01*
X85759857Y-112829857D01*
X85817000Y-112887000D01*
X85874142Y-113001285D01*
X85874142Y-113287000D01*
X85817000Y-113458428D01*
X85874142Y-113858428D02*
X84674142Y-114144142D01*
X85531285Y-114372714D01*
X84674142Y-114601285D01*
X85874142Y-114887000D01*
X85474142Y-115344142D02*
X84274142Y-115344142D01*
X85417000Y-115344142D02*
X85474142Y-115458428D01*
X85474142Y-115687000D01*
X85417000Y-115801285D01*
X85359857Y-115858428D01*
X85245571Y-115915571D01*
X84902714Y-115915571D01*
X84788428Y-115858428D01*
X84731285Y-115801285D01*
X84674142Y-115687000D01*
X84674142Y-115458428D01*
X84731285Y-115344142D01*
X86960142Y-107915571D02*
X88160142Y-107915571D01*
X88160142Y-108201285D01*
X88103000Y-108372714D01*
X87988714Y-108487000D01*
X87874428Y-108544142D01*
X87645857Y-108601285D01*
X87474428Y-108601285D01*
X87245857Y-108544142D01*
X87131571Y-108487000D01*
X87017285Y-108372714D01*
X86960142Y-108201285D01*
X86960142Y-107915571D01*
X86960142Y-109115571D02*
X88160142Y-109115571D01*
X87303000Y-109629857D02*
X87303000Y-110201285D01*
X86960142Y-109515571D02*
X88160142Y-109915571D01*
X86960142Y-110315571D01*
X88103000Y-111344142D02*
X88160142Y-111229857D01*
X88160142Y-111058428D01*
X88103000Y-110887000D01*
X87988714Y-110772714D01*
X87874428Y-110715571D01*
X87645857Y-110658428D01*
X87474428Y-110658428D01*
X87245857Y-110715571D01*
X87131571Y-110772714D01*
X87017285Y-110887000D01*
X86960142Y-111058428D01*
X86960142Y-111172714D01*
X87017285Y-111344142D01*
X87074428Y-111401285D01*
X87474428Y-111401285D01*
X87474428Y-111172714D01*
X86845857Y-111629857D02*
X86845857Y-112544142D01*
X87017285Y-112772714D02*
X86960142Y-112944142D01*
X86960142Y-113229857D01*
X87017285Y-113344142D01*
X87074428Y-113401285D01*
X87188714Y-113458428D01*
X87303000Y-113458428D01*
X87417285Y-113401285D01*
X87474428Y-113344142D01*
X87531571Y-113229857D01*
X87588714Y-113001285D01*
X87645857Y-112887000D01*
X87703000Y-112829857D01*
X87817285Y-112772714D01*
X87931571Y-112772714D01*
X88045857Y-112829857D01*
X88103000Y-112887000D01*
X88160142Y-113001285D01*
X88160142Y-113287000D01*
X88103000Y-113458428D01*
X88160142Y-113858428D02*
X86960142Y-114144142D01*
X87817285Y-114372714D01*
X86960142Y-114601285D01*
X88160142Y-114887000D01*
X87760142Y-115344142D02*
X86960142Y-115344142D01*
X87645857Y-115344142D02*
X87703000Y-115401285D01*
X87760142Y-115515571D01*
X87760142Y-115687000D01*
X87703000Y-115801285D01*
X87588714Y-115858428D01*
X86960142Y-115858428D01*
X90001714Y-113281000D02*
X90001714Y-113681000D01*
X89373142Y-113852428D02*
X89373142Y-113281000D01*
X90573142Y-113281000D01*
X90573142Y-113852428D01*
X89373142Y-114366714D02*
X90573142Y-114366714D01*
X89373142Y-115052428D01*
X90573142Y-115052428D01*
X89716000Y-115566714D02*
X89716000Y-116138142D01*
X89373142Y-115452428D02*
X90573142Y-115852428D01*
X89373142Y-116252428D01*
X87709428Y-92897428D02*
X87652285Y-92840285D01*
X87595142Y-92668857D01*
X87595142Y-92554571D01*
X87652285Y-92383142D01*
X87766571Y-92268857D01*
X87880857Y-92211714D01*
X88109428Y-92154571D01*
X88280857Y-92154571D01*
X88509428Y-92211714D01*
X88623714Y-92268857D01*
X88738000Y-92383142D01*
X88795142Y-92554571D01*
X88795142Y-92668857D01*
X88738000Y-92840285D01*
X88680857Y-92897428D01*
X87652285Y-93354571D02*
X87595142Y-93526000D01*
X87595142Y-93811714D01*
X87652285Y-93926000D01*
X87709428Y-93983142D01*
X87823714Y-94040285D01*
X87938000Y-94040285D01*
X88052285Y-93983142D01*
X88109428Y-93926000D01*
X88166571Y-93811714D01*
X88223714Y-93583142D01*
X88280857Y-93468857D01*
X88338000Y-93411714D01*
X88452285Y-93354571D01*
X88566571Y-93354571D01*
X88680857Y-93411714D01*
X88738000Y-93468857D01*
X88795142Y-93583142D01*
X88795142Y-93868857D01*
X88738000Y-94040285D01*
X87595142Y-94554571D02*
X88795142Y-94554571D01*
X87595142Y-95240285D01*
X88795142Y-95240285D01*
X80159285Y-92183142D02*
X80102142Y-92354571D01*
X80102142Y-92640285D01*
X80159285Y-92754571D01*
X80216428Y-92811714D01*
X80330714Y-92868857D01*
X80445000Y-92868857D01*
X80559285Y-92811714D01*
X80616428Y-92754571D01*
X80673571Y-92640285D01*
X80730714Y-92411714D01*
X80787857Y-92297428D01*
X80845000Y-92240285D01*
X80959285Y-92183142D01*
X81073571Y-92183142D01*
X81187857Y-92240285D01*
X81245000Y-92297428D01*
X81302142Y-92411714D01*
X81302142Y-92697428D01*
X81245000Y-92868857D01*
X80216428Y-94068857D02*
X80159285Y-94011714D01*
X80102142Y-93840285D01*
X80102142Y-93726000D01*
X80159285Y-93554571D01*
X80273571Y-93440285D01*
X80387857Y-93383142D01*
X80616428Y-93326000D01*
X80787857Y-93326000D01*
X81016428Y-93383142D01*
X81130714Y-93440285D01*
X81245000Y-93554571D01*
X81302142Y-93726000D01*
X81302142Y-93840285D01*
X81245000Y-94011714D01*
X81187857Y-94068857D01*
X80102142Y-94583142D02*
X81302142Y-94583142D01*
X80102142Y-95268857D02*
X80787857Y-94754571D01*
X81302142Y-95268857D02*
X80616428Y-94583142D01*
X85154619Y-92497428D02*
X85097476Y-92668857D01*
X85097476Y-92954571D01*
X85154619Y-93068857D01*
X85211762Y-93126000D01*
X85326048Y-93183142D01*
X85440334Y-93183142D01*
X85554619Y-93126000D01*
X85611762Y-93068857D01*
X85668905Y-92954571D01*
X85726048Y-92726000D01*
X85783191Y-92611714D01*
X85840334Y-92554571D01*
X85954619Y-92497428D01*
X86068905Y-92497428D01*
X86183191Y-92554571D01*
X86240334Y-92611714D01*
X86297476Y-92726000D01*
X86297476Y-93011714D01*
X86240334Y-93183142D01*
X85097476Y-93697428D02*
X86297476Y-93697428D01*
X86297476Y-93983142D01*
X86240334Y-94154571D01*
X86126048Y-94268857D01*
X86011762Y-94326000D01*
X85783191Y-94383142D01*
X85611762Y-94383142D01*
X85383191Y-94326000D01*
X85268905Y-94268857D01*
X85154619Y-94154571D01*
X85097476Y-93983142D01*
X85097476Y-93697428D01*
X85097476Y-94897428D02*
X86297476Y-94897428D01*
X82656953Y-92154571D02*
X82599810Y-92326000D01*
X82599810Y-92611714D01*
X82656953Y-92726000D01*
X82714096Y-92783142D01*
X82828382Y-92840285D01*
X82942668Y-92840285D01*
X83056953Y-92783142D01*
X83114096Y-92726000D01*
X83171239Y-92611714D01*
X83228382Y-92383142D01*
X83285525Y-92268857D01*
X83342668Y-92211714D01*
X83456953Y-92154571D01*
X83571239Y-92154571D01*
X83685525Y-92211714D01*
X83742668Y-92268857D01*
X83799810Y-92383142D01*
X83799810Y-92668857D01*
X83742668Y-92840285D01*
X82599810Y-93354571D02*
X83799810Y-93354571D01*
X83799810Y-93640285D01*
X83742668Y-93811714D01*
X83628382Y-93926000D01*
X83514096Y-93983142D01*
X83285525Y-94040285D01*
X83114096Y-94040285D01*
X82885525Y-93983142D01*
X82771239Y-93926000D01*
X82656953Y-93811714D01*
X82599810Y-93640285D01*
X82599810Y-93354571D01*
X83799810Y-94783142D02*
X83799810Y-95011714D01*
X83742668Y-95126000D01*
X83628382Y-95240285D01*
X83399810Y-95297428D01*
X82999810Y-95297428D01*
X82771239Y-95240285D01*
X82656953Y-95126000D01*
X82599810Y-95011714D01*
X82599810Y-94783142D01*
X82656953Y-94668857D01*
X82771239Y-94554571D01*
X82999810Y-94497428D01*
X83399810Y-94497428D01*
X83628382Y-94554571D01*
X83742668Y-94668857D01*
X83799810Y-94783142D01*
X87709428Y-92897428D02*
X87652285Y-92840285D01*
X87595142Y-92668857D01*
X87595142Y-92554571D01*
X87652285Y-92383142D01*
X87766571Y-92268857D01*
X87880857Y-92211714D01*
X88109428Y-92154571D01*
X88280857Y-92154571D01*
X88509428Y-92211714D01*
X88623714Y-92268857D01*
X88738000Y-92383142D01*
X88795142Y-92554571D01*
X88795142Y-92668857D01*
X88738000Y-92840285D01*
X88680857Y-92897428D01*
X87652285Y-93354571D02*
X87595142Y-93526000D01*
X87595142Y-93811714D01*
X87652285Y-93926000D01*
X87709428Y-93983142D01*
X87823714Y-94040285D01*
X87938000Y-94040285D01*
X88052285Y-93983142D01*
X88109428Y-93926000D01*
X88166571Y-93811714D01*
X88223714Y-93583142D01*
X88280857Y-93468857D01*
X88338000Y-93411714D01*
X88452285Y-93354571D01*
X88566571Y-93354571D01*
X88680857Y-93411714D01*
X88738000Y-93468857D01*
X88795142Y-93583142D01*
X88795142Y-93868857D01*
X88738000Y-94040285D01*
X87595142Y-94554571D02*
X88795142Y-94554571D01*
X87595142Y-95240285D01*
X88795142Y-95240285D01*
X90446285Y-96815428D02*
X90389142Y-96986857D01*
X90389142Y-97272571D01*
X90446285Y-97386857D01*
X90503428Y-97444000D01*
X90617714Y-97501142D01*
X90732000Y-97501142D01*
X90846285Y-97444000D01*
X90903428Y-97386857D01*
X90960571Y-97272571D01*
X91017714Y-97044000D01*
X91074857Y-96929714D01*
X91132000Y-96872571D01*
X91246285Y-96815428D01*
X91360571Y-96815428D01*
X91474857Y-96872571D01*
X91532000Y-96929714D01*
X91589142Y-97044000D01*
X91589142Y-97329714D01*
X91532000Y-97501142D01*
X90389142Y-98015428D02*
X91589142Y-98015428D01*
X91589142Y-98472571D01*
X91532000Y-98586857D01*
X91474857Y-98644000D01*
X91360571Y-98701142D01*
X91189142Y-98701142D01*
X91074857Y-98644000D01*
X91017714Y-98586857D01*
X90960571Y-98472571D01*
X90960571Y-98015428D01*
X90389142Y-99215428D02*
X91589142Y-99215428D01*
D11*
X79375000Y-91567000D02*
X89535000Y-91567000D01*
X79248000Y-100330000D02*
X79375000Y-91567000D01*
X89535000Y-100330000D02*
X79248000Y-100330000D01*
X89535000Y-91567000D02*
X89535000Y-100330000D01*
X107427000Y-97101000D02*
X107427000Y-95811000D01*
X107877000Y-97101000D02*
X107427000Y-97101000D01*
X107877000Y-97551000D02*
X107877000Y-97101000D01*
X107877000Y-104321000D02*
X107427000Y-104321000D01*
X107877000Y-103871000D02*
X107877000Y-104321000D01*
X100657000Y-97101000D02*
X101107000Y-97101000D01*
X100657000Y-97551000D02*
X100657000Y-97101000D01*
X100657000Y-104321000D02*
X101107000Y-104321000D01*
X100657000Y-103871000D02*
X100657000Y-104321000D01*
X108637605Y-96139000D02*
G75*
G03*
X108637605Y-96139000I-179605J0D01*
G01*
X94198221Y-92073000D02*
X94523779Y-92073000D01*
X94198221Y-93093000D02*
X94523779Y-93093000D01*
X94102422Y-95452000D02*
X94619578Y-95452000D01*
X94102422Y-94032000D02*
X94619578Y-94032000D01*
X94107000Y-94742000D02*
X94615000Y-94742000D01*
X94234000Y-94742000D02*
X94234000Y-94488000D01*
X94234000Y-94488000D02*
X94488000Y-94488000D01*
X94488000Y-94488000D02*
X94488000Y-94996000D01*
X94488000Y-94996000D02*
X94234000Y-94996000D01*
X94234000Y-94996000D02*
X94234000Y-94742000D01*
X94361000Y-94996000D02*
X94361000Y-94488000D01*
X97912422Y-89483000D02*
X98429578Y-89483000D01*
X97912422Y-88063000D02*
X98429578Y-88063000D01*
X97917000Y-88773000D02*
X98425000Y-88773000D01*
X98044000Y-88773000D02*
X98044000Y-88519000D01*
X98044000Y-88519000D02*
X98298000Y-88519000D01*
X98298000Y-88519000D02*
X98298000Y-89027000D01*
X98298000Y-89027000D02*
X98044000Y-89027000D01*
X98044000Y-89027000D02*
X98044000Y-88773000D01*
X98171000Y-89027000D02*
X98171000Y-88519000D01*
X96948000Y-93853000D02*
X96948000Y-94993000D01*
X99870000Y-89972000D02*
X97185000Y-89972000D01*
X99870000Y-91892000D02*
X99870000Y-89972000D01*
X97185000Y-91892000D02*
X99870000Y-91892000D01*
X98439000Y-90932000D02*
X98312000Y-90932000D01*
X98312000Y-90932000D02*
X98058000Y-91186000D01*
X98058000Y-91186000D02*
X98058000Y-90678000D01*
X98058000Y-90678000D02*
X98312000Y-90932000D01*
X98058000Y-90932000D02*
X97931000Y-90932000D01*
X98312000Y-90932000D02*
X98312000Y-91186000D01*
X98312000Y-90932000D02*
X98312000Y-90678000D01*
X92173326Y-128494901D02*
G75*
G02*
X93068000Y-128735000I28674J-1680099D01*
G01*
X93627358Y-129285106D02*
G75*
G02*
X93642000Y-131041000I-1425358J-889894D01*
G01*
X93091894Y-131600358D02*
G75*
G02*
X91336000Y-131615000I-889894J1425358D01*
G01*
X90776495Y-131065193D02*
G75*
G02*
X90777000Y-129284000I1425505J890193D01*
G01*
X91311736Y-128750279D02*
G75*
G02*
X92202000Y-128495000I890264J-1424721D01*
G01*
X90382000Y-130175000D02*
G75*
G03*
X90382000Y-130175000I-1680000J0D01*
G01*
X86882000Y-130175000D02*
G75*
G03*
X86882000Y-130175000I-1680000J0D01*
G01*
X94012000Y-126075000D02*
X83392000Y-126075000D01*
X94012000Y-127175000D02*
X83392000Y-127175000D01*
X94012000Y-133335000D02*
X83392000Y-133335000D01*
X94012000Y-125615000D02*
X83392000Y-125615000D01*
X94012000Y-133335000D02*
X94012000Y-125615000D01*
X83392000Y-133335000D02*
X83392000Y-125615000D01*
X87427000Y-131244000D02*
X87556000Y-131116000D01*
X89677000Y-128994000D02*
X89771000Y-128901000D01*
X87632000Y-131450000D02*
X87726000Y-131356000D01*
X89847000Y-129234000D02*
X89976000Y-129106000D01*
X83927000Y-131244000D02*
X84056000Y-131116000D01*
X86177000Y-128994000D02*
X86271000Y-128901000D01*
X84132000Y-131450000D02*
X84226000Y-131356000D01*
X86347000Y-129234000D02*
X86476000Y-129106000D01*
X94252000Y-126015000D02*
X94252000Y-125375000D01*
X94252000Y-125375000D02*
X93852000Y-125375000D01*
X88340000Y-122940578D02*
X88340000Y-122423422D01*
X86920000Y-122940578D02*
X86920000Y-122423422D01*
X87630000Y-122936000D02*
X87630000Y-122428000D01*
X87630000Y-122809000D02*
X87376000Y-122809000D01*
X87376000Y-122809000D02*
X87376000Y-122555000D01*
X87376000Y-122555000D02*
X87884000Y-122555000D01*
X87884000Y-122555000D02*
X87884000Y-122809000D01*
X87884000Y-122809000D02*
X87630000Y-122809000D01*
X87884000Y-122682000D02*
X87376000Y-122682000D01*
X85927000Y-122940578D02*
X85927000Y-122423422D01*
X84507000Y-122940578D02*
X84507000Y-122423422D01*
X85217000Y-122936000D02*
X85217000Y-122428000D01*
X85217000Y-122809000D02*
X84963000Y-122809000D01*
X84963000Y-122809000D02*
X84963000Y-122555000D01*
X84963000Y-122555000D02*
X85471000Y-122555000D01*
X85471000Y-122555000D02*
X85471000Y-122809000D01*
X85471000Y-122809000D02*
X85217000Y-122809000D01*
X85471000Y-122682000D02*
X84963000Y-122682000D01*
X81101000Y-122940578D02*
X81101000Y-122423422D01*
X79681000Y-122940578D02*
X79681000Y-122423422D01*
X80391000Y-122936000D02*
X80391000Y-122428000D01*
X80391000Y-122809000D02*
X80137000Y-122809000D01*
X80137000Y-122809000D02*
X80137000Y-122555000D01*
X80137000Y-122555000D02*
X80645000Y-122555000D01*
X80645000Y-122555000D02*
X80645000Y-122809000D01*
X80645000Y-122809000D02*
X80391000Y-122809000D01*
X80645000Y-122682000D02*
X80137000Y-122682000D01*
X83387000Y-122940578D02*
X83387000Y-122423422D01*
X81967000Y-122940578D02*
X81967000Y-122423422D01*
X82677000Y-122936000D02*
X82677000Y-122428000D01*
X82677000Y-122809000D02*
X82423000Y-122809000D01*
X82423000Y-122809000D02*
X82423000Y-122555000D01*
X82423000Y-122555000D02*
X82931000Y-122555000D01*
X82931000Y-122555000D02*
X82931000Y-122809000D01*
X82931000Y-122809000D02*
X82677000Y-122809000D01*
X82931000Y-122682000D02*
X82423000Y-122682000D01*
X90753000Y-122940578D02*
X90753000Y-122423422D01*
X89333000Y-122940578D02*
X89333000Y-122423422D01*
X90043000Y-122936000D02*
X90043000Y-122428000D01*
X90043000Y-122809000D02*
X89789000Y-122809000D01*
X89789000Y-122809000D02*
X89789000Y-122555000D01*
X89789000Y-122555000D02*
X90297000Y-122555000D01*
X90297000Y-122555000D02*
X90297000Y-122809000D01*
X90297000Y-122809000D02*
X90043000Y-122809000D01*
X90297000Y-122682000D02*
X89789000Y-122682000D01*
X84022000Y-103128578D02*
X84022000Y-102611422D01*
X82602000Y-103128578D02*
X82602000Y-102611422D01*
X83312000Y-103124000D02*
X83312000Y-102616000D01*
X83312000Y-102997000D02*
X83058000Y-102997000D01*
X83058000Y-102997000D02*
X83058000Y-102743000D01*
X83058000Y-102743000D02*
X83566000Y-102743000D01*
X83566000Y-102743000D02*
X83566000Y-102997000D01*
X83566000Y-102997000D02*
X83312000Y-102997000D01*
X83566000Y-102870000D02*
X83058000Y-102870000D01*
X88848000Y-103128578D02*
X88848000Y-102611422D01*
X87428000Y-103128578D02*
X87428000Y-102611422D01*
X88138000Y-103124000D02*
X88138000Y-102616000D01*
X88138000Y-102997000D02*
X87884000Y-102997000D01*
X87884000Y-102997000D02*
X87884000Y-102743000D01*
X87884000Y-102743000D02*
X88392000Y-102743000D01*
X88392000Y-102743000D02*
X88392000Y-102997000D01*
X88392000Y-102997000D02*
X88138000Y-102997000D01*
X88392000Y-102870000D02*
X87884000Y-102870000D01*
X86435000Y-103128578D02*
X86435000Y-102611422D01*
X85015000Y-103128578D02*
X85015000Y-102611422D01*
X85725000Y-103124000D02*
X85725000Y-102616000D01*
X85725000Y-102997000D02*
X85471000Y-102997000D01*
X85471000Y-102997000D02*
X85471000Y-102743000D01*
X85471000Y-102743000D02*
X85979000Y-102743000D01*
X85979000Y-102743000D02*
X85979000Y-102997000D01*
X85979000Y-102997000D02*
X85725000Y-102997000D01*
X85979000Y-102870000D02*
X85471000Y-102870000D01*
X81482000Y-103128578D02*
X81482000Y-102611422D01*
X80062000Y-103128578D02*
X80062000Y-102611422D01*
X80772000Y-103124000D02*
X80772000Y-102616000D01*
X80772000Y-102997000D02*
X80518000Y-102997000D01*
X80518000Y-102997000D02*
X80518000Y-102743000D01*
X80518000Y-102743000D02*
X81026000Y-102743000D01*
X81026000Y-102743000D02*
X81026000Y-102997000D01*
X81026000Y-102997000D02*
X80772000Y-102997000D01*
X81026000Y-102870000D02*
X80518000Y-102870000D01*
X101906000Y-113025422D02*
X101906000Y-113542578D01*
X103326000Y-113025422D02*
X103326000Y-113542578D01*
X102616000Y-113030000D02*
X102616000Y-113538000D01*
X102616000Y-113157000D02*
X102870000Y-113157000D01*
X102870000Y-113157000D02*
X102870000Y-113411000D01*
X102870000Y-113411000D02*
X102362000Y-113411000D01*
X102362000Y-113411000D02*
X102362000Y-113157000D01*
X102362000Y-113157000D02*
X102616000Y-113157000D01*
X102362000Y-113284000D02*
X102870000Y-113284000D01*
X89911422Y-66115000D02*
X90428578Y-66115000D01*
X89911422Y-64695000D02*
X90428578Y-64695000D01*
X89916000Y-65405000D02*
X90424000Y-65405000D01*
X90043000Y-65405000D02*
X90043000Y-65151000D01*
X90043000Y-65151000D02*
X90297000Y-65151000D01*
X90297000Y-65151000D02*
X90297000Y-65659000D01*
X90297000Y-65659000D02*
X90043000Y-65659000D01*
X90043000Y-65659000D02*
X90043000Y-65405000D01*
X90170000Y-65659000D02*
X90170000Y-65151000D01*
X91435422Y-89737000D02*
X91952578Y-89737000D01*
X91435422Y-88317000D02*
X91952578Y-88317000D01*
X91440000Y-89027000D02*
X91948000Y-89027000D01*
X91567000Y-89027000D02*
X91567000Y-88773000D01*
X91567000Y-88773000D02*
X91821000Y-88773000D01*
X91821000Y-88773000D02*
X91821000Y-89281000D01*
X91821000Y-89281000D02*
X91567000Y-89281000D01*
X91567000Y-89281000D02*
X91567000Y-89027000D01*
X91694000Y-89281000D02*
X91694000Y-88773000D01*
X99757000Y-122490000D02*
X101157000Y-122490000D01*
X101157000Y-122490000D02*
X101157000Y-123890000D01*
X101157000Y-123890000D02*
X99757000Y-123890000D01*
X99757000Y-123890000D02*
X99757000Y-122490000D01*
X107390000Y-108970578D02*
X107390000Y-108453422D01*
X105970000Y-108970578D02*
X105970000Y-108453422D01*
X106299000Y-108839000D02*
X106934000Y-108839000D01*
X106299000Y-108585000D02*
X106934000Y-108585000D01*
X106680000Y-108839000D02*
X106680000Y-108966000D01*
X106680000Y-108585000D02*
X106680000Y-108458000D01*
X106934000Y-108585000D02*
X107061000Y-108585000D01*
X106934000Y-108839000D02*
X107061000Y-108839000D01*
X92333578Y-82729000D02*
X91816422Y-82729000D01*
X92333578Y-84149000D02*
X91816422Y-84149000D01*
X92202000Y-83820000D02*
X92202000Y-83185000D01*
X91948000Y-83820000D02*
X91948000Y-83185000D01*
X92202000Y-83439000D02*
X92329000Y-83439000D01*
X91948000Y-83439000D02*
X91821000Y-83439000D01*
X91948000Y-83185000D02*
X91948000Y-83058000D01*
X92202000Y-83185000D02*
X92202000Y-83058000D01*
X90047578Y-71807000D02*
X89530422Y-71807000D01*
X90047578Y-73227000D02*
X89530422Y-73227000D01*
X89916000Y-72898000D02*
X89916000Y-72263000D01*
X89662000Y-72898000D02*
X89662000Y-72263000D01*
X89916000Y-72517000D02*
X90043000Y-72517000D01*
X89662000Y-72517000D02*
X89535000Y-72517000D01*
X89662000Y-72263000D02*
X89662000Y-72136000D01*
X89916000Y-72263000D02*
X89916000Y-72136000D01*
X105031000Y-108422221D02*
X105031000Y-108747779D01*
X104011000Y-108422221D02*
X104011000Y-108747779D01*
X105285000Y-112994221D02*
X105285000Y-113319779D01*
X104265000Y-112994221D02*
X104265000Y-113319779D01*
X113827779Y-99824000D02*
X113502221Y-99824000D01*
X113827779Y-98804000D02*
X113502221Y-98804000D01*
X105408000Y-92618779D02*
X105408000Y-92293221D01*
X106428000Y-92618779D02*
X106428000Y-92293221D01*
X113827779Y-92966000D02*
X113502221Y-92966000D01*
X113827779Y-91946000D02*
X113502221Y-91946000D01*
X103884000Y-92618779D02*
X103884000Y-92293221D01*
X104904000Y-92618779D02*
X104904000Y-92293221D01*
X102999000Y-108803221D02*
X102999000Y-109128779D01*
X101979000Y-108803221D02*
X101979000Y-109128779D01*
X96357221Y-100963000D02*
X96682779Y-100963000D01*
X96357221Y-101983000D02*
X96682779Y-101983000D01*
X116969000Y-88356221D02*
X116969000Y-88681779D01*
X115949000Y-88356221D02*
X115949000Y-88681779D01*
X129923000Y-88991221D02*
X129923000Y-89316779D01*
X128903000Y-88991221D02*
X128903000Y-89316779D01*
X113700779Y-110111000D02*
X113375221Y-110111000D01*
X113700779Y-109091000D02*
X113375221Y-109091000D01*
X113700779Y-103380000D02*
X113375221Y-103380000D01*
X113700779Y-102360000D02*
X113375221Y-102360000D01*
X115822000Y-113700779D02*
X115822000Y-113375221D01*
X116842000Y-113700779D02*
X116842000Y-113375221D01*
X129538000Y-112811779D02*
X129538000Y-112486221D01*
X130558000Y-112811779D02*
X130558000Y-112486221D01*
X127783000Y-112173936D02*
X127783000Y-113378064D01*
X125963000Y-112173936D02*
X125963000Y-113378064D01*
X125963000Y-89756064D02*
X125963000Y-88551936D01*
X127783000Y-89756064D02*
X127783000Y-88551936D01*
X91887000Y-69916000D02*
X93787000Y-69916000D01*
X93787000Y-69916000D02*
X93787000Y-71816000D01*
X93787000Y-71816000D02*
X91887000Y-71816000D01*
X91887000Y-71816000D02*
X91887000Y-69916000D01*
X85791000Y-69916000D02*
X87691000Y-69916000D01*
X87691000Y-69916000D02*
X87691000Y-71816000D01*
X87691000Y-71816000D02*
X85791000Y-71816000D01*
X85791000Y-71816000D02*
X85791000Y-69916000D01*
X95502000Y-113319779D02*
X95502000Y-112994221D01*
X96522000Y-113319779D02*
X96522000Y-112994221D01*
X99349779Y-111127000D02*
X99024221Y-111127000D01*
X99349779Y-110107000D02*
X99024221Y-110107000D01*
X119669779Y-115064000D02*
X119344221Y-115064000D01*
X119669779Y-114044000D02*
X119344221Y-114044000D01*
X119669779Y-113032000D02*
X119344221Y-113032000D01*
X119669779Y-112012000D02*
X119344221Y-112012000D01*
X119669779Y-111127000D02*
X119344221Y-111127000D01*
X119669779Y-110107000D02*
X119344221Y-110107000D01*
X119344221Y-101344000D02*
X119669779Y-101344000D01*
X119344221Y-102364000D02*
X119669779Y-102364000D01*
X119669779Y-108841000D02*
X119344221Y-108841000D01*
X119669779Y-107821000D02*
X119344221Y-107821000D01*
X119344221Y-103503000D02*
X119669779Y-103503000D01*
X119344221Y-104523000D02*
X119669779Y-104523000D01*
X113349721Y-107313000D02*
X113675279Y-107313000D01*
X113349721Y-108333000D02*
X113675279Y-108333000D01*
X113375221Y-104011000D02*
X113700779Y-104011000D01*
X113375221Y-105031000D02*
X113700779Y-105031000D01*
X119669779Y-88140000D02*
X119344221Y-88140000D01*
X119669779Y-87120000D02*
X119344221Y-87120000D01*
X119669779Y-90045000D02*
X119344221Y-90045000D01*
X119669779Y-89025000D02*
X119344221Y-89025000D01*
X119669779Y-100586000D02*
X119344221Y-100586000D01*
X119669779Y-99566000D02*
X119344221Y-99566000D01*
X119344221Y-90803000D02*
X119669779Y-90803000D01*
X119344221Y-91823000D02*
X119669779Y-91823000D01*
X113502221Y-97153000D02*
X113827779Y-97153000D01*
X113502221Y-98173000D02*
X113827779Y-98173000D01*
X119669779Y-98427000D02*
X119344221Y-98427000D01*
X119669779Y-97407000D02*
X119344221Y-97407000D01*
X119344221Y-92962000D02*
X119669779Y-92962000D01*
X119344221Y-93982000D02*
X119669779Y-93982000D01*
X113476721Y-93597000D02*
X113802279Y-93597000D01*
X113476721Y-94617000D02*
X113802279Y-94617000D01*
X102233000Y-92745779D02*
X102233000Y-92420221D01*
X103253000Y-92745779D02*
X103253000Y-92420221D01*
X87482936Y-74617000D02*
X91587064Y-74617000D01*
X87482936Y-78037000D02*
X91587064Y-78037000D01*
X99693000Y-114864000D02*
X99693000Y-113934000D01*
X99693000Y-111704000D02*
X99693000Y-112634000D01*
X99693000Y-111704000D02*
X97533000Y-111704000D01*
X99693000Y-114864000D02*
X98233000Y-114864000D01*
X122598000Y-103886000D02*
X122598000Y-108839000D01*
X122598000Y-108839000D02*
X127805000Y-108839000D01*
X127805000Y-108839000D02*
X127805000Y-103378000D01*
X127805000Y-103378000D02*
X123106000Y-103378000D01*
X122725000Y-103378000D02*
G75*
G03*
X122725000Y-103378000I-127000J0D01*
G01*
X123106000Y-103378000D02*
X122598000Y-103886000D01*
X122598000Y-93345000D02*
X122598000Y-98298000D01*
X122598000Y-98298000D02*
X127805000Y-98298000D01*
X127805000Y-98298000D02*
X127805000Y-92837000D01*
X127805000Y-92837000D02*
X123106000Y-92837000D01*
X122725000Y-92837000D02*
G75*
G03*
X122725000Y-92837000I-127000J0D01*
G01*
X123106000Y-92837000D02*
X122598000Y-93345000D01*
X83564000Y-87017000D02*
X85064000Y-87017000D01*
X85064000Y-87017000D02*
X85064000Y-86747000D01*
X85064000Y-86747000D02*
X87894000Y-86747000D01*
X83564000Y-80117000D02*
X85064000Y-80117000D01*
X85064000Y-80117000D02*
X85064000Y-80387000D01*
X85064000Y-80387000D02*
X86164000Y-80387000D01*
X74719000Y-131421000D02*
X74419000Y-131121000D01*
X74119000Y-131421000D02*
X74719000Y-131421000D01*
X74419000Y-131121000D02*
X74119000Y-131421000D01*
X73069000Y-130871000D02*
X73069000Y-128921000D01*
X78569000Y-130871000D02*
X73069000Y-130871000D01*
X78569000Y-128921000D02*
X78569000Y-130871000D01*
X73069000Y-128921000D02*
X78569000Y-128921000D01*
X112479000Y-128294000D02*
X112779000Y-128594000D01*
X113079000Y-128294000D02*
X112479000Y-128294000D01*
X112779000Y-128594000D02*
X113079000Y-128294000D01*
X114129000Y-128844000D02*
X114129000Y-130794000D01*
X108629000Y-128844000D02*
X114129000Y-128844000D01*
X108629000Y-130794000D02*
X108629000Y-128844000D01*
X114129000Y-130794000D02*
X108629000Y-130794000D01*
X124163000Y-128421000D02*
X124463000Y-128721000D01*
X124763000Y-128421000D02*
X124163000Y-128421000D01*
X124463000Y-128721000D02*
X124763000Y-128421000D01*
X125813000Y-128971000D02*
X125813000Y-130921000D01*
X120313000Y-128971000D02*
X125813000Y-128971000D01*
X120313000Y-130921000D02*
X120313000Y-128971000D01*
X125813000Y-130921000D02*
X120313000Y-130921000D01*
X103857326Y-128494901D02*
G75*
G02*
X104752000Y-128735000I28674J-1680099D01*
G01*
X105311358Y-129285106D02*
G75*
G02*
X105326000Y-131041000I-1425358J-889894D01*
G01*
X104775894Y-131600358D02*
G75*
G02*
X103020000Y-131615000I-889894J1425358D01*
G01*
X102460495Y-131065193D02*
G75*
G02*
X102461000Y-129284000I1425505J890193D01*
G01*
X102995736Y-128750279D02*
G75*
G02*
X103886000Y-128495000I890264J-1424721D01*
G01*
X102066000Y-130175000D02*
G75*
G03*
X102066000Y-130175000I-1680000J0D01*
G01*
X98566000Y-130175000D02*
G75*
G03*
X98566000Y-130175000I-1680000J0D01*
G01*
X105696000Y-126075000D02*
X95076000Y-126075000D01*
X105696000Y-127175000D02*
X95076000Y-127175000D01*
X105696000Y-133335000D02*
X95076000Y-133335000D01*
X105696000Y-125615000D02*
X95076000Y-125615000D01*
X105696000Y-133335000D02*
X105696000Y-125615000D01*
X95076000Y-133335000D02*
X95076000Y-125615000D01*
X99111000Y-131244000D02*
X99240000Y-131116000D01*
X101361000Y-128994000D02*
X101455000Y-128901000D01*
X99316000Y-131450000D02*
X99410000Y-131356000D01*
X101531000Y-129234000D02*
X101660000Y-129106000D01*
X95611000Y-131244000D02*
X95740000Y-131116000D01*
X97861000Y-128994000D02*
X97955000Y-128901000D01*
X95816000Y-131450000D02*
X95910000Y-131356000D01*
X98031000Y-129234000D02*
X98160000Y-129106000D01*
X105936000Y-126015000D02*
X105936000Y-125375000D01*
X105936000Y-125375000D02*
X105536000Y-125375000D01*
X75692000Y-103632000D02*
X75184000Y-103632000D01*
X75692000Y-87122000D02*
X75692000Y-103632000D01*
X60706000Y-87122000D02*
X75692000Y-87122000D01*
X60706000Y-103632000D02*
X60706000Y-87122000D01*
X75184000Y-103632000D02*
X60706000Y-103632000D01*
X75692000Y-123825000D02*
X75184000Y-123825000D01*
X75692000Y-107315000D02*
X75692000Y-123825000D01*
X60706000Y-107315000D02*
X75692000Y-107315000D01*
X60706000Y-123825000D02*
X60706000Y-107315000D01*
X75184000Y-123825000D02*
X60706000Y-123825000D01*
X132177901Y-95913674D02*
G75*
G02*
X132418000Y-95019000I1680099J28674D01*
G01*
X132968106Y-94459642D02*
G75*
G02*
X134724000Y-94445000I889894J-1425358D01*
G01*
X135283358Y-94995106D02*
G75*
G02*
X135298000Y-96751000I-1425358J-889894D01*
G01*
X134748193Y-97310505D02*
G75*
G02*
X132967000Y-97310000I-890193J1425505D01*
G01*
X132433279Y-96775264D02*
G75*
G02*
X132178000Y-95885000I1424721J890264D01*
G01*
X135538000Y-99385000D02*
G75*
G03*
X135538000Y-99385000I-1680000J0D01*
G01*
X135538000Y-102885000D02*
G75*
G03*
X135538000Y-102885000I-1680000J0D01*
G01*
X135538000Y-106385000D02*
G75*
G03*
X135538000Y-106385000I-1680000J0D01*
G01*
X129758000Y-94075000D02*
X129758000Y-108195000D01*
X130858000Y-94075000D02*
X130858000Y-108195000D01*
X137018000Y-94075000D02*
X137018000Y-108195000D01*
X129298000Y-94075000D02*
X129298000Y-108195000D01*
X137018000Y-94075000D02*
X129298000Y-94075000D01*
X137018000Y-108195000D02*
X129298000Y-108195000D01*
X134927000Y-100660000D02*
X134799000Y-100531000D01*
X132677000Y-98410000D02*
X132584000Y-98316000D01*
X135133000Y-100455000D02*
X135039000Y-100361000D01*
X132917000Y-98240000D02*
X132789000Y-98111000D01*
X134927000Y-104160000D02*
X134799000Y-104031000D01*
X132677000Y-101910000D02*
X132584000Y-101816000D01*
X135133000Y-103955000D02*
X135039000Y-103861000D01*
X132917000Y-101740000D02*
X132789000Y-101611000D01*
X134927000Y-107660000D02*
X134799000Y-107531000D01*
X132677000Y-105410000D02*
X132584000Y-105316000D01*
X135133000Y-107455000D02*
X135039000Y-107361000D01*
X132917000Y-105240000D02*
X132789000Y-105111000D01*
X129698000Y-93835000D02*
X129058000Y-93835000D01*
X129058000Y-93835000D02*
X129058000Y-94235000D01*
X73190000Y-63256000D02*
X60970000Y-63256000D01*
X60970000Y-63256000D02*
X60970000Y-83476000D01*
X60970000Y-83476000D02*
X73190000Y-83476000D01*
X73190000Y-83476000D02*
X73190000Y-63256000D01*
X62470000Y-63256000D02*
X64270000Y-63256000D01*
X64270000Y-63256000D02*
X64270000Y-83476000D01*
X64270000Y-83476000D02*
X62470000Y-83476000D01*
X62470000Y-83476000D02*
X62470000Y-63256000D01*
X60970000Y-64866000D02*
X60970000Y-66866000D01*
X60970000Y-66866000D02*
X62470000Y-66616000D01*
X62470000Y-66616000D02*
X62470000Y-65116000D01*
X62470000Y-65116000D02*
X60970000Y-64866000D01*
X60970000Y-79866000D02*
X60970000Y-81866000D01*
X60970000Y-81866000D02*
X62470000Y-81616000D01*
X62470000Y-81616000D02*
X62470000Y-80116000D01*
X62470000Y-80116000D02*
X60970000Y-79866000D01*
X60970000Y-69866000D02*
X60970000Y-71866000D01*
X60970000Y-71866000D02*
X62470000Y-71616000D01*
X62470000Y-71616000D02*
X62470000Y-70116000D01*
X62470000Y-70116000D02*
X60970000Y-69866000D01*
X60970000Y-74866000D02*
X60970000Y-76866000D01*
X60970000Y-76866000D02*
X62470000Y-76616000D01*
X62470000Y-76616000D02*
X62470000Y-75116000D01*
X62470000Y-75116000D02*
X60970000Y-74866000D01*
X73990000Y-71166000D02*
X73390000Y-70866000D01*
X73390000Y-70866000D02*
X73990000Y-70566000D01*
X73990000Y-70566000D02*
X73990000Y-71166000D01*
X82697064Y-77910000D02*
X78592936Y-77910000D01*
X82697064Y-74490000D02*
X78592936Y-74490000D01*
X86670000Y-116631000D02*
X86670000Y-119491000D01*
X88590000Y-116631000D02*
X86670000Y-116631000D01*
X88590000Y-119491000D02*
X88590000Y-116631000D01*
X87630000Y-118237000D02*
X87630000Y-118364000D01*
X87630000Y-118364000D02*
X87884000Y-118618000D01*
X87884000Y-118618000D02*
X87503000Y-118618000D01*
X87503000Y-118618000D02*
X87376000Y-118618000D01*
X87376000Y-118618000D02*
X87630000Y-118364000D01*
X87884000Y-118364000D02*
X87376000Y-118364000D01*
X87630000Y-118618000D02*
X87630000Y-118745000D01*
X84257000Y-116631000D02*
X84257000Y-119491000D01*
X86177000Y-116631000D02*
X84257000Y-116631000D01*
X86177000Y-119491000D02*
X86177000Y-116631000D01*
X85217000Y-118237000D02*
X85217000Y-118364000D01*
X85217000Y-118364000D02*
X85471000Y-118618000D01*
X85471000Y-118618000D02*
X85090000Y-118618000D01*
X85090000Y-118618000D02*
X84963000Y-118618000D01*
X84963000Y-118618000D02*
X85217000Y-118364000D01*
X85471000Y-118364000D02*
X84963000Y-118364000D01*
X85217000Y-118618000D02*
X85217000Y-118745000D01*
X79431000Y-116631000D02*
X79431000Y-119491000D01*
X81351000Y-116631000D02*
X79431000Y-116631000D01*
X81351000Y-119491000D02*
X81351000Y-116631000D01*
X80391000Y-118237000D02*
X80391000Y-118364000D01*
X80391000Y-118364000D02*
X80645000Y-118618000D01*
X80645000Y-118618000D02*
X80264000Y-118618000D01*
X80264000Y-118618000D02*
X80137000Y-118618000D01*
X80137000Y-118618000D02*
X80391000Y-118364000D01*
X80645000Y-118364000D02*
X80137000Y-118364000D01*
X80391000Y-118618000D02*
X80391000Y-118745000D01*
X81844000Y-116631000D02*
X81844000Y-119491000D01*
X83764000Y-116631000D02*
X81844000Y-116631000D01*
X83764000Y-119491000D02*
X83764000Y-116631000D01*
X82804000Y-118237000D02*
X82804000Y-118364000D01*
X82804000Y-118364000D02*
X83058000Y-118618000D01*
X83058000Y-118618000D02*
X82677000Y-118618000D01*
X82677000Y-118618000D02*
X82550000Y-118618000D01*
X82550000Y-118618000D02*
X82804000Y-118364000D01*
X83058000Y-118364000D02*
X82550000Y-118364000D01*
X82804000Y-118618000D02*
X82804000Y-118745000D01*
X89083000Y-116631000D02*
X89083000Y-119491000D01*
X91003000Y-116631000D02*
X89083000Y-116631000D01*
X91003000Y-119491000D02*
X91003000Y-116631000D01*
X90043000Y-118237000D02*
X90043000Y-118364000D01*
X90043000Y-118364000D02*
X90297000Y-118618000D01*
X90297000Y-118618000D02*
X89916000Y-118618000D01*
X89916000Y-118618000D02*
X89789000Y-118618000D01*
X89789000Y-118618000D02*
X90043000Y-118364000D01*
X90297000Y-118364000D02*
X89789000Y-118364000D01*
X90043000Y-118618000D02*
X90043000Y-118745000D01*
X82267334Y-96057000D02*
X82267334Y-98917000D01*
X84187334Y-96057000D02*
X82267334Y-96057000D01*
X84187334Y-98917000D02*
X84187334Y-96057000D01*
X83227334Y-97663000D02*
X83227334Y-97790000D01*
X83227334Y-97790000D02*
X83481334Y-98044000D01*
X83481334Y-98044000D02*
X83100334Y-98044000D01*
X83100334Y-98044000D02*
X82973334Y-98044000D01*
X82973334Y-98044000D02*
X83227334Y-97790000D01*
X83481334Y-97790000D02*
X82973334Y-97790000D01*
X83227334Y-98044000D02*
X83227334Y-98171000D01*
X87178000Y-96057000D02*
X87178000Y-98917000D01*
X89098000Y-96057000D02*
X87178000Y-96057000D01*
X89098000Y-98917000D02*
X89098000Y-96057000D01*
X88138000Y-97663000D02*
X88138000Y-97790000D01*
X88138000Y-97790000D02*
X88392000Y-98044000D01*
X88392000Y-98044000D02*
X88011000Y-98044000D01*
X88011000Y-98044000D02*
X87884000Y-98044000D01*
X87884000Y-98044000D02*
X88138000Y-97790000D01*
X88392000Y-97790000D02*
X87884000Y-97790000D01*
X88138000Y-98044000D02*
X88138000Y-98171000D01*
X84722667Y-96057000D02*
X84722667Y-98917000D01*
X86642667Y-96057000D02*
X84722667Y-96057000D01*
X86642667Y-98917000D02*
X86642667Y-96057000D01*
X85682667Y-97663000D02*
X85682667Y-97790000D01*
X85682667Y-97790000D02*
X85936667Y-98044000D01*
X85936667Y-98044000D02*
X85555667Y-98044000D01*
X85555667Y-98044000D02*
X85428667Y-98044000D01*
X85428667Y-98044000D02*
X85682667Y-97790000D01*
X85936667Y-97790000D02*
X85428667Y-97790000D01*
X85682667Y-98044000D02*
X85682667Y-98171000D01*
X79812000Y-96057000D02*
X79812000Y-98917000D01*
X81732000Y-96057000D02*
X79812000Y-96057000D01*
X81732000Y-98917000D02*
X81732000Y-96057000D01*
X80772000Y-97663000D02*
X80772000Y-97790000D01*
X80772000Y-97790000D02*
X81026000Y-98044000D01*
X81026000Y-98044000D02*
X80645000Y-98044000D01*
X80645000Y-98044000D02*
X80518000Y-98044000D01*
X80518000Y-98044000D02*
X80772000Y-97790000D01*
X81026000Y-97790000D02*
X80518000Y-97790000D01*
X80772000Y-98044000D02*
X80772000Y-98171000D01*
X106116000Y-113917000D02*
X107046000Y-113917000D01*
X109276000Y-113917000D02*
X108346000Y-113917000D01*
X109276000Y-113917000D02*
X109276000Y-111757000D01*
X106116000Y-113917000D02*
X106116000Y-112457000D01*
X109926000Y-113917000D02*
X110856000Y-113917000D01*
X113086000Y-113917000D02*
X112156000Y-113917000D01*
X113086000Y-113917000D02*
X113086000Y-111757000D01*
X109926000Y-113917000D02*
X109926000Y-112457000D01*
X113086000Y-87505000D02*
X112156000Y-87505000D01*
X109926000Y-87505000D02*
X110856000Y-87505000D01*
X109926000Y-87505000D02*
X109926000Y-89665000D01*
X113086000Y-87505000D02*
X113086000Y-88965000D01*
X109276000Y-87505000D02*
X108346000Y-87505000D01*
X106116000Y-87505000D02*
X107046000Y-87505000D01*
X106116000Y-87505000D02*
X106116000Y-89665000D01*
X109276000Y-87505000D02*
X109276000Y-88965000D01*
X91297000Y-66858000D02*
X88612000Y-66858000D01*
X88612000Y-66858000D02*
X88612000Y-68778000D01*
X88612000Y-68778000D02*
X91297000Y-68778000D01*
X90475000Y-87241000D02*
X94360000Y-87241000D01*
X94360000Y-87241000D02*
X94360000Y-84971000D01*
X94360000Y-84971000D02*
X90475000Y-84971000D01*
X127788000Y-127026000D02*
X127788000Y-123176000D01*
X127788000Y-116306000D02*
X127788000Y-120156000D01*
X118132437Y-116306000D02*
X127788000Y-116306000D01*
X118132437Y-127026000D02*
X127788000Y-127026000D01*
X117068000Y-125961563D02*
X117068000Y-123176000D01*
X117068000Y-117370437D02*
X117068000Y-120156000D01*
X117068000Y-117370437D02*
X118132437Y-116306000D01*
X117068000Y-125961563D02*
X118132437Y-127026000D01*
X115578000Y-118906000D02*
X116828000Y-118906000D01*
X116203000Y-118281000D02*
X116203000Y-119531000D01*
X119093064Y-107082000D02*
X117888936Y-107082000D01*
X119093064Y-105262000D02*
X117888936Y-105262000D01*
X127788000Y-86005000D02*
X127788000Y-82155000D01*
X127788000Y-75285000D02*
X127788000Y-79135000D01*
X118132437Y-75285000D02*
X127788000Y-75285000D01*
X118132437Y-86005000D02*
X127788000Y-86005000D01*
X117068000Y-84940563D02*
X117068000Y-82155000D01*
X117068000Y-76349437D02*
X117068000Y-79135000D01*
X117068000Y-76349437D02*
X118132437Y-75285000D01*
X117068000Y-84940563D02*
X118132437Y-86005000D01*
X115578000Y-77885000D02*
X116828000Y-77885000D01*
X116203000Y-77260000D02*
X116203000Y-78510000D01*
X119093064Y-96668000D02*
X117888936Y-96668000D01*
X119093064Y-94848000D02*
X117888936Y-94848000D01*
X102833000Y-117761936D02*
X102833000Y-118966064D01*
X100113000Y-117761936D02*
X100113000Y-118966064D01*
X106516000Y-117761936D02*
X106516000Y-118966064D01*
X103796000Y-117761936D02*
X103796000Y-118966064D01*
X124841000Y-68707000D02*
G75*
G03*
X124841000Y-68707000I-5120000J0D01*
G01*
X119721000Y-63627000D02*
X119721000Y-73787000D01*
X119761000Y-63627000D02*
X119761000Y-73787000D01*
X119801000Y-63627000D02*
X119801000Y-73787000D01*
X119841000Y-63628000D02*
X119841000Y-73786000D01*
X119881000Y-63629000D02*
X119881000Y-73785000D01*
X119921000Y-63630000D02*
X119921000Y-73784000D01*
X119961000Y-63632000D02*
X119961000Y-73782000D01*
X120001000Y-63634000D02*
X120001000Y-73780000D01*
X120041000Y-63637000D02*
X120041000Y-73777000D01*
X120081000Y-63639000D02*
X120081000Y-73775000D01*
X120121000Y-63642000D02*
X120121000Y-73772000D01*
X120161000Y-63645000D02*
X120161000Y-73769000D01*
X120201000Y-63649000D02*
X120201000Y-73765000D01*
X120241000Y-63653000D02*
X120241000Y-73761000D01*
X120281000Y-63657000D02*
X120281000Y-73757000D01*
X120321000Y-63662000D02*
X120321000Y-73752000D01*
X120361000Y-63667000D02*
X120361000Y-73747000D01*
X120401000Y-63672000D02*
X120401000Y-73742000D01*
X120442000Y-63677000D02*
X120442000Y-73737000D01*
X120482000Y-63683000D02*
X120482000Y-73731000D01*
X120522000Y-63689000D02*
X120522000Y-73725000D01*
X120562000Y-63696000D02*
X120562000Y-73718000D01*
X120602000Y-63703000D02*
X120602000Y-73711000D01*
X120642000Y-63710000D02*
X120642000Y-73704000D01*
X120682000Y-63717000D02*
X120682000Y-73697000D01*
X120722000Y-63725000D02*
X120722000Y-73689000D01*
X120762000Y-63733000D02*
X120762000Y-73681000D01*
X120802000Y-63742000D02*
X120802000Y-73672000D01*
X120842000Y-63751000D02*
X120842000Y-73663000D01*
X120882000Y-63760000D02*
X120882000Y-73654000D01*
X120922000Y-63769000D02*
X120922000Y-73645000D01*
X120962000Y-63779000D02*
X120962000Y-73635000D01*
X121002000Y-63789000D02*
X121002000Y-67466000D01*
X121002000Y-69948000D02*
X121002000Y-73625000D01*
X121042000Y-63800000D02*
X121042000Y-67466000D01*
X121042000Y-69948000D02*
X121042000Y-73614000D01*
X121082000Y-63810000D02*
X121082000Y-67466000D01*
X121082000Y-69948000D02*
X121082000Y-73604000D01*
X121122000Y-63822000D02*
X121122000Y-67466000D01*
X121122000Y-69948000D02*
X121122000Y-73592000D01*
X121162000Y-63833000D02*
X121162000Y-67466000D01*
X121162000Y-69948000D02*
X121162000Y-73581000D01*
X121202000Y-63845000D02*
X121202000Y-67466000D01*
X121202000Y-69948000D02*
X121202000Y-73569000D01*
X121242000Y-63857000D02*
X121242000Y-67466000D01*
X121242000Y-69948000D02*
X121242000Y-73557000D01*
X121282000Y-63870000D02*
X121282000Y-67466000D01*
X121282000Y-69948000D02*
X121282000Y-73544000D01*
X121322000Y-63883000D02*
X121322000Y-67466000D01*
X121322000Y-69948000D02*
X121322000Y-73531000D01*
X121362000Y-63896000D02*
X121362000Y-67466000D01*
X121362000Y-69948000D02*
X121362000Y-73518000D01*
X121402000Y-63910000D02*
X121402000Y-67466000D01*
X121402000Y-69948000D02*
X121402000Y-73504000D01*
X121442000Y-63924000D02*
X121442000Y-67466000D01*
X121442000Y-69948000D02*
X121442000Y-73490000D01*
X121482000Y-63939000D02*
X121482000Y-67466000D01*
X121482000Y-69948000D02*
X121482000Y-73475000D01*
X121522000Y-63953000D02*
X121522000Y-67466000D01*
X121522000Y-69948000D02*
X121522000Y-73461000D01*
X121562000Y-63969000D02*
X121562000Y-67466000D01*
X121562000Y-69948000D02*
X121562000Y-73445000D01*
X121602000Y-63984000D02*
X121602000Y-67466000D01*
X121602000Y-69948000D02*
X121602000Y-73430000D01*
X121642000Y-64000000D02*
X121642000Y-67466000D01*
X121642000Y-69948000D02*
X121642000Y-73414000D01*
X121682000Y-64017000D02*
X121682000Y-67466000D01*
X121682000Y-69948000D02*
X121682000Y-73397000D01*
X121722000Y-64033000D02*
X121722000Y-67466000D01*
X121722000Y-69948000D02*
X121722000Y-73381000D01*
X121762000Y-64050000D02*
X121762000Y-67466000D01*
X121762000Y-69948000D02*
X121762000Y-73364000D01*
X121802000Y-64068000D02*
X121802000Y-67466000D01*
X121802000Y-69948000D02*
X121802000Y-73346000D01*
X121842000Y-64086000D02*
X121842000Y-67466000D01*
X121842000Y-69948000D02*
X121842000Y-73328000D01*
X121882000Y-64104000D02*
X121882000Y-67466000D01*
X121882000Y-69948000D02*
X121882000Y-73310000D01*
X121922000Y-64123000D02*
X121922000Y-67466000D01*
X121922000Y-69948000D02*
X121922000Y-73291000D01*
X121962000Y-64143000D02*
X121962000Y-67466000D01*
X121962000Y-69948000D02*
X121962000Y-73271000D01*
X122002000Y-64162000D02*
X122002000Y-67466000D01*
X122002000Y-69948000D02*
X122002000Y-73252000D01*
X122042000Y-64182000D02*
X122042000Y-67466000D01*
X122042000Y-69948000D02*
X122042000Y-73232000D01*
X122082000Y-64203000D02*
X122082000Y-67466000D01*
X122082000Y-69948000D02*
X122082000Y-73211000D01*
X122122000Y-64224000D02*
X122122000Y-67466000D01*
X122122000Y-69948000D02*
X122122000Y-73190000D01*
X122162000Y-64245000D02*
X122162000Y-67466000D01*
X122162000Y-69948000D02*
X122162000Y-73169000D01*
X122202000Y-64267000D02*
X122202000Y-67466000D01*
X122202000Y-69948000D02*
X122202000Y-73147000D01*
X122242000Y-64290000D02*
X122242000Y-67466000D01*
X122242000Y-69948000D02*
X122242000Y-73124000D01*
X122282000Y-64312000D02*
X122282000Y-67466000D01*
X122282000Y-69948000D02*
X122282000Y-73102000D01*
X122322000Y-64336000D02*
X122322000Y-67466000D01*
X122322000Y-69948000D02*
X122322000Y-73078000D01*
X122362000Y-64360000D02*
X122362000Y-67466000D01*
X122362000Y-69948000D02*
X122362000Y-73054000D01*
X122402000Y-64384000D02*
X122402000Y-67466000D01*
X122402000Y-69948000D02*
X122402000Y-73030000D01*
X122442000Y-64409000D02*
X122442000Y-67466000D01*
X122442000Y-69948000D02*
X122442000Y-73005000D01*
X122482000Y-64434000D02*
X122482000Y-67466000D01*
X122482000Y-69948000D02*
X122482000Y-72980000D01*
X122522000Y-64460000D02*
X122522000Y-67466000D01*
X122522000Y-69948000D02*
X122522000Y-72954000D01*
X122562000Y-64486000D02*
X122562000Y-67466000D01*
X122562000Y-69948000D02*
X122562000Y-72928000D01*
X122602000Y-64513000D02*
X122602000Y-67466000D01*
X122602000Y-69948000D02*
X122602000Y-72901000D01*
X122642000Y-64541000D02*
X122642000Y-67466000D01*
X122642000Y-69948000D02*
X122642000Y-72873000D01*
X122682000Y-64569000D02*
X122682000Y-67466000D01*
X122682000Y-69948000D02*
X122682000Y-72845000D01*
X122722000Y-64597000D02*
X122722000Y-67466000D01*
X122722000Y-69948000D02*
X122722000Y-72817000D01*
X122762000Y-64627000D02*
X122762000Y-67466000D01*
X122762000Y-69948000D02*
X122762000Y-72787000D01*
X122802000Y-64657000D02*
X122802000Y-67466000D01*
X122802000Y-69948000D02*
X122802000Y-72757000D01*
X122842000Y-64687000D02*
X122842000Y-67466000D01*
X122842000Y-69948000D02*
X122842000Y-72727000D01*
X122882000Y-64718000D02*
X122882000Y-67466000D01*
X122882000Y-69948000D02*
X122882000Y-72696000D01*
X122922000Y-64750000D02*
X122922000Y-67466000D01*
X122922000Y-69948000D02*
X122922000Y-72664000D01*
X122962000Y-64782000D02*
X122962000Y-67466000D01*
X122962000Y-69948000D02*
X122962000Y-72632000D01*
X123002000Y-64815000D02*
X123002000Y-67466000D01*
X123002000Y-69948000D02*
X123002000Y-72599000D01*
X123042000Y-64849000D02*
X123042000Y-67466000D01*
X123042000Y-69948000D02*
X123042000Y-72565000D01*
X123082000Y-64883000D02*
X123082000Y-67466000D01*
X123082000Y-69948000D02*
X123082000Y-72531000D01*
X123122000Y-64918000D02*
X123122000Y-67466000D01*
X123122000Y-69948000D02*
X123122000Y-72496000D01*
X123162000Y-64954000D02*
X123162000Y-67466000D01*
X123162000Y-69948000D02*
X123162000Y-72460000D01*
X123202000Y-64991000D02*
X123202000Y-67466000D01*
X123202000Y-69948000D02*
X123202000Y-72423000D01*
X123242000Y-65028000D02*
X123242000Y-67466000D01*
X123242000Y-69948000D02*
X123242000Y-72386000D01*
X123282000Y-65067000D02*
X123282000Y-67466000D01*
X123282000Y-69948000D02*
X123282000Y-72347000D01*
X123322000Y-65106000D02*
X123322000Y-67466000D01*
X123322000Y-69948000D02*
X123322000Y-72308000D01*
X123362000Y-65146000D02*
X123362000Y-67466000D01*
X123362000Y-69948000D02*
X123362000Y-72268000D01*
X123402000Y-65187000D02*
X123402000Y-67466000D01*
X123402000Y-69948000D02*
X123402000Y-72227000D01*
X123442000Y-65229000D02*
X123442000Y-67466000D01*
X123442000Y-69948000D02*
X123442000Y-72185000D01*
X123482000Y-65271000D02*
X123482000Y-72143000D01*
X123522000Y-65315000D02*
X123522000Y-72099000D01*
X123562000Y-65360000D02*
X123562000Y-72054000D01*
X123602000Y-65406000D02*
X123602000Y-72008000D01*
X123642000Y-65453000D02*
X123642000Y-71961000D01*
X123682000Y-65501000D02*
X123682000Y-71913000D01*
X123722000Y-65551000D02*
X123722000Y-71863000D01*
X123762000Y-65601000D02*
X123762000Y-71813000D01*
X123802000Y-65653000D02*
X123802000Y-71761000D01*
X123842000Y-65707000D02*
X123842000Y-71707000D01*
X123882000Y-65762000D02*
X123882000Y-71652000D01*
X123922000Y-65818000D02*
X123922000Y-71596000D01*
X123962000Y-65877000D02*
X123962000Y-71537000D01*
X124002000Y-65937000D02*
X124002000Y-71477000D01*
X124042000Y-65998000D02*
X124042000Y-71416000D01*
X124082000Y-66062000D02*
X124082000Y-71352000D01*
X124122000Y-66128000D02*
X124122000Y-71286000D01*
X124162000Y-66197000D02*
X124162000Y-71217000D01*
X124202000Y-66268000D02*
X124202000Y-71146000D01*
X124242000Y-66342000D02*
X124242000Y-71072000D01*
X124282000Y-66418000D02*
X124282000Y-70996000D01*
X124322000Y-66498000D02*
X124322000Y-70916000D01*
X124362000Y-66582000D02*
X124362000Y-70832000D01*
X124402000Y-66670000D02*
X124402000Y-70744000D01*
X124442000Y-66763000D02*
X124442000Y-70651000D01*
X124482000Y-66861000D02*
X124482000Y-70553000D01*
X124522000Y-66965000D02*
X124522000Y-70449000D01*
X124562000Y-67077000D02*
X124562000Y-70337000D01*
X124602000Y-67197000D02*
X124602000Y-70217000D01*
X124642000Y-67329000D02*
X124642000Y-70085000D01*
X124682000Y-67477000D02*
X124682000Y-69937000D01*
X124722000Y-67645000D02*
X124722000Y-69769000D01*
X124762000Y-67845000D02*
X124762000Y-69569000D01*
X124802000Y-68108000D02*
X124802000Y-69306000D01*
X114241354Y-65832000D02*
X115241354Y-65832000D01*
X114741354Y-65332000D02*
X114741354Y-66332000D01*
X113353000Y-68892000D02*
X110603000Y-68892000D01*
X104833000Y-68892000D02*
X107583000Y-68892000D01*
X104833000Y-76347563D02*
X104833000Y-68892000D01*
X113353000Y-76347563D02*
X113353000Y-68892000D01*
X112288563Y-77412000D02*
X110603000Y-77412000D01*
X105897437Y-77412000D02*
X107583000Y-77412000D01*
X105897437Y-77412000D02*
X104833000Y-76347563D01*
X112288563Y-77412000D02*
X113353000Y-76347563D01*
X106583000Y-78652000D02*
X106583000Y-77652000D01*
X106083000Y-78152000D02*
X107083000Y-78152000D01*
X104082000Y-68892000D02*
X101332000Y-68892000D01*
X95562000Y-68892000D02*
X98312000Y-68892000D01*
X95562000Y-76347563D02*
X95562000Y-68892000D01*
X104082000Y-76347563D02*
X104082000Y-68892000D01*
X103017563Y-77412000D02*
X101332000Y-77412000D01*
X96626437Y-77412000D02*
X98312000Y-77412000D01*
X96626437Y-77412000D02*
X95562000Y-76347563D01*
X103017563Y-77412000D02*
X104082000Y-76347563D01*
X97312000Y-78652000D02*
X97312000Y-77652000D01*
X96812000Y-78152000D02*
X97812000Y-78152000D01*
M02*
