M48
; DRILL file {KiCad (5.1.6)-1} date 05/30/20 22:10:36
; FORMAT={-:-/ absolute / metric / decimal}
; #@! TF.CreationDate,2020-05-30T22:10:36+02:00
; #@! TF.GenerationSoftware,Kicad,Pcbnew,(5.1.6)-1
; #@! TF.FileFunction,Plated,1,4,PTH
FMAT,2
METRIC
T1C0.300
T2C0.400
T3C0.500
T4C0.700
T5C0.900
T6C1.000
T7C1.200
T8C1.400
T9C1.600
%
G90
G05
T1
X67.056Y-69.215
X67.056Y-70.896
X67.056Y-72.577
X68.453Y-69.215
X68.453Y-70.896
X68.453Y-72.577
X69.753Y-69.215
X69.753Y-72.577
X70.993Y-129.921
X71.053Y-69.215
X71.053Y-72.577
X72.353Y-69.215
X72.353Y-72.577
X73.653Y-69.215
X73.653Y-70.896
X73.653Y-72.577
X73.787Y-126.492
X74.295Y-80.772
X74.295Y-82.042
X74.295Y-83.312
X74.295Y-84.836
X74.93Y-69.215
X74.93Y-70.896
X74.93Y-72.577
X74.93Y-74.422
X74.93Y-76.2
X74.93Y-77.978
X75.057Y-125.349
X75.438Y-110.109
X75.565Y-91.059
X75.819Y-132.334
X75.946Y-74.422
X75.946Y-76.2
X75.946Y-77.978
X76.454Y-104.267
X76.708Y-118.364
X76.84Y-107.823
X77.089Y-125.349
X77.189Y-96.388
X77.216Y-98.552
X77.851Y-92.837
X78.105Y-96.393
X78.232Y-105.283
X78.232Y-104.267
X78.74Y-98.542
X78.867Y-113.03
X78.928Y-108.016
X78.994Y-125.349
X79.375Y-91.059
X79.502Y-128.016
X80.01Y-87.122
X80.772Y-95.504
X80.772Y-105.41
X80.899Y-125.349
X81.153Y-71.247
X82.042Y-105.41
X83.058Y-92.964
X83.058Y-109.093
X83.185Y-95.504
X83.312Y-105.41
X83.429Y-115.443
X83.439Y-111.633
X83.82Y-107.823
X84.328Y-90.805
X85.725Y-105.41
X86.36Y-125.857
X86.995Y-89.916
X87.122Y-65.786
X87.503Y-95.631
X87.63Y-115.443
X87.757Y-112.903
X87.839Y-105.333
X88.138Y-93.599
X88.392Y-88.265
X88.773Y-92.456
X89.154Y-83.566
X89.472Y-97.605
X89.535Y-106.68
X89.535Y-107.823
X89.535Y-110.109
X89.723Y-103.693
X89.789Y-96.647
X89.916Y-74.803
X90.297Y-111.633
X90.424Y-99.314
X90.424Y-100.584
X90.805Y-125.476
X90.805Y-127.127
X91.694Y-91.313
X92.329Y-105.41
X93.599Y-72.517
X94.361Y-102.87
X94.488Y-101.473
X94.488Y-104.14
X94.488Y-110.363
X94.488Y-111.379
X94.615Y-124.206
X94.615Y-125.857
X94.742Y-75.311
X94.869Y-98.806
X94.929Y-83.566
X94.929Y-84.866
X94.996Y-88.773
X95.123Y-90.932
X95.25Y-117.094
X95.341Y-102.816
X95.504Y-104.775
X95.631Y-96.138
X95.758Y-83.566
X95.758Y-84.836
X96.139Y-68.072
X96.139Y-103.251
X96.393Y-109.601
X96.444Y-105.537
X96.53Y-116.498
X96.774Y-111.379
X96.779Y-108.074
X97.028Y-71.12
X97.155Y-117.983
X98.298Y-117.983
X99.06Y-80.645
X99.06Y-81.915
X99.06Y-85.217
X99.187Y-106.553
X99.187Y-117.094
X99.695Y-105.029
X100.933Y-119.877
X101.051Y-109.301
X101.092Y-80.899
X103.251Y-99.695
X103.251Y-100.695
X103.251Y-101.695
X103.251Y-121.92
X103.251Y-123.825
X103.505Y-94.488
X103.505Y-110.871
X104.251Y-99.695
X104.251Y-100.695
X104.251Y-101.695
X104.394Y-94.488
X104.521Y-80.899
X105.251Y-99.695
X105.251Y-100.695
X105.251Y-101.695
X106.807Y-123.825
X106.807Y-121.666
X107.188Y-129.921
X107.315Y-92.71
X107.696Y-85.979
X108.331Y-81.026
X108.331Y-109.093
X108.331Y-110.236
X110.617Y-117.856
X111.379Y-127.0
X111.506Y-85.969
X112.268Y-80.899
X114.554Y-112.776
X114.554Y-114.3
X115.316Y-129.921
X117.094Y-129.921
X118.618Y-129.921
X123.063Y-127.889
X126.238Y-92.202
X126.238Y-99.568
X126.238Y-100.457
X126.238Y-101.727
X126.238Y-102.616
X126.365Y-109.601
X127.127Y-92.202
X127.127Y-99.568
X127.127Y-100.457
X127.127Y-101.727
X127.127Y-102.616
X127.127Y-129.921
X127.254Y-109.601
X128.016Y-92.202
X128.016Y-99.568
X128.016Y-100.457
X128.016Y-101.727
X128.016Y-102.616
X128.143Y-109.601
X128.778Y-129.921
X128.905Y-92.202
X129.032Y-109.601
X129.794Y-92.202
X129.921Y-109.601
X130.683Y-92.202
X130.81Y-109.601
X136.271Y-109.855
X136.906Y-92.583
X137.033Y-101.092
X137.795Y-101.092
T2
X102.362Y-90.297
X104.775Y-89.916
X107.95Y-91.313
X109.601Y-110.236
X110.109Y-96.139
X110.139Y-95.026
X110.363Y-106.807
X110.49Y-105.791
X110.744Y-116.332
X110.871Y-103.505
X110.998Y-101.727
X110.998Y-108.331
X111.201Y-93.382
X111.379Y-96.012
X111.379Y-99.187
X114.3Y-95.758
X114.427Y-106.172
X115.189Y-90.678
X115.316Y-95.758
X115.316Y-106.172
X115.722Y-93.183
X115.824Y-103.62
X115.824Y-116.459
X115.824Y-117.759
X115.824Y-119.059
X115.951Y-74.168
X115.951Y-75.468
X115.951Y-76.768
X115.969Y-98.208
X116.078Y-83.185
X116.078Y-84.485
X116.078Y-85.785
X116.078Y-99.695
X116.078Y-101.854
X116.205Y-95.758
X116.205Y-106.172
X116.205Y-108.331
X116.586Y-110.617
X117.091Y-95.758
X117.091Y-106.172
X117.124Y-116.459
X117.124Y-117.759
X117.124Y-119.059
X117.251Y-74.168
X117.251Y-75.468
X117.251Y-76.768
X117.378Y-83.185
X117.378Y-84.485
X117.378Y-85.785
X118.424Y-116.459
X118.424Y-117.759
X118.424Y-119.059
X118.551Y-74.168
X118.551Y-75.468
X118.551Y-76.768
X118.678Y-83.185
X118.678Y-84.485
X118.678Y-85.785
X119.634Y-95.631
X119.634Y-106.172
X119.724Y-116.459
X119.724Y-117.759
X119.724Y-119.059
X119.851Y-74.168
X119.851Y-75.468
X119.851Y-76.768
X119.978Y-83.185
X119.978Y-84.485
X119.978Y-85.785
X120.65Y-95.631
X120.65Y-106.172
X121.024Y-116.459
X121.024Y-117.759
X121.024Y-119.059
X121.151Y-74.168
X121.151Y-75.468
X121.151Y-76.768
X121.278Y-83.185
X121.278Y-84.485
X121.278Y-85.785
X121.793Y-95.631
X121.793Y-106.172
X122.936Y-95.631
X122.936Y-106.172
X124.055Y-95.654
X124.055Y-106.195
X124.079Y-83.82
X124.079Y-85.12
X124.333Y-117.251
X124.333Y-118.551
X125.379Y-83.82
X125.379Y-85.12
X125.633Y-117.251
X125.633Y-118.551
X126.679Y-83.82
X126.679Y-85.12
X126.933Y-117.251
X126.933Y-118.551
X127.979Y-83.82
X127.979Y-85.12
X128.233Y-117.251
X128.233Y-118.551
X128.524Y-106.922
X128.778Y-97.536
X129.032Y-104.902
X129.279Y-83.82
X129.279Y-85.12
X129.401Y-94.881
X129.413Y-106.934
X129.476Y-98.234
X129.533Y-117.251
X129.533Y-118.551
X129.667Y-104.267
X130.112Y-98.87
X130.29Y-94.881
X130.302Y-106.934
X130.302Y-103.505
X130.993Y-99.385
X131.064Y-102.885
X131.179Y-94.881
X131.318Y-106.934
X132.009Y-99.385
X132.068Y-94.881
X132.207Y-102.885
X132.334Y-106.922
T3
X100.457Y-123.19
T4
X112.268Y-82.677
T5
X66.802Y-92.075
X66.802Y-94.115
X66.802Y-96.155
X66.802Y-98.195
X69.342Y-93.095
X69.342Y-95.135
X69.342Y-97.175
X69.342Y-99.215
X66.802Y-112.268
X66.802Y-114.308
X66.802Y-116.348
X66.802Y-118.388
X69.342Y-113.288
X69.342Y-115.328
X69.342Y-117.368
X69.342Y-119.408
T6
X117.221Y-67.818
X122.221Y-67.818
T7
X85.202Y-130.175
X88.702Y-130.175
X92.202Y-130.175
X96.886Y-130.175
X100.386Y-130.175
X103.886Y-130.175
X134.366Y-95.885
X134.366Y-99.385
X134.366Y-102.885
X134.366Y-106.385
T8
X71.08Y-70.866
X71.08Y-75.866
T9
X66.802Y-87.249
X66.802Y-103.505
X66.802Y-107.442
X66.802Y-123.698
T0
M30
