M48
; DRILL file {KiCad (5.1.6)-1} date 05/29/20 22:16:21
; FORMAT={-:-/ absolute / metric / decimal}
; #@! TF.CreationDate,2020-05-29T22:16:21+02:00
; #@! TF.GenerationSoftware,Kicad,Pcbnew,(5.1.6)-1
; #@! TF.FileFunction,Plated,1,4,PTH
FMAT,2
METRIC
T1C0.300
T2C0.400
T3C0.500
T4C0.900
T5C1.000
T6C1.200
T7C1.400
T8C1.600
%
G90
G05
T1
X71.501Y-129.794
X75.819Y-132.334
X76.073Y-91.694
X76.454Y-104.267
X76.52Y-125.349
X76.962Y-118.745
X77.028Y-108.011
X77.343Y-72.136
X77.851Y-97.663
X78.105Y-94.361
X78.232Y-105.283
X78.232Y-104.267
X78.486Y-125.349
X78.586Y-92.388
X78.74Y-98.425
X78.928Y-108.016
X79.502Y-128.016
X80.584Y-125.349
X80.772Y-94.488
X81.788Y-110.49
X81.791Y-105.534
X82.042Y-97.917
X82.423Y-115.443
X82.423Y-125.476
X82.512Y-95.245
X83.058Y-92.964
X83.312Y-95.25
X83.439Y-111.633
X83.82Y-91.44
X83.82Y-107.823
X83.82Y-90.551
X83.823Y-89.524
X85.979Y-88.265
X86.106Y-125.476
X86.868Y-67.818
X87.376Y-111.887
X87.63Y-114.808
X87.757Y-112.776
X87.884Y-109.22
X88.265Y-95.504
X88.392Y-88.265
X88.392Y-94.107
X88.392Y-114.046
X88.773Y-115.697
X88.814Y-92.003
X89.281Y-108.966
X89.408Y-100.584
X89.662Y-74.747
X89.662Y-103.632
X89.662Y-107.823
X89.916Y-92.964
X89.916Y-96.901
X90.043Y-111.633
X90.043Y-114.3
X90.175Y-97.927
X90.424Y-99.314
X90.424Y-100.584
X90.678Y-126.619
X90.681Y-125.733
X93.191Y-72.843
X93.345Y-117.602
X93.98Y-110.374
X94.117Y-101.6
X94.33Y-96.723
X94.361Y-104.775
X94.742Y-75.311
X94.742Y-97.409
X94.742Y-99.568
X94.869Y-124.46
X94.879Y-109.492
X94.929Y-83.566
X94.929Y-84.866
X94.971Y-98.522
X94.996Y-88.773
X95.123Y-90.932
X95.25Y-117.094
X95.341Y-102.816
X95.504Y-104.267
X95.504Y-119.253
X95.631Y-96.138
X95.631Y-99.949
X95.758Y-83.566
X95.758Y-84.836
X95.758Y-122.936
X96.139Y-68.072
X96.139Y-103.251
X96.379Y-97.146
X96.529Y-108.306
X96.608Y-110.395
X96.657Y-98.122
X96.774Y-111.379
X96.881Y-96.459
X96.89Y-109.635
X96.901Y-71.374
X97.028Y-104.902
X98.097Y-117.401
X98.796Y-104.331
X98.796Y-105.898
X99.06Y-79.629
X99.06Y-81.915
X99.441Y-118.491
X100.191Y-104.995
X101.69Y-107.461
X102.743Y-110.871
X103.251Y-99.695
X103.251Y-100.695
X103.251Y-101.695
X103.505Y-94.488
X104.251Y-99.695
X104.251Y-100.695
X104.251Y-101.695
X104.394Y-94.488
X105.251Y-99.695
X105.251Y-100.695
X105.251Y-101.695
X107.188Y-129.794
X107.315Y-92.71
X107.696Y-85.979
X110.617Y-117.475
X111.252Y-127.0
X111.506Y-85.969
X114.554Y-112.776
X114.554Y-114.3
X115.316Y-129.794
X118.618Y-129.921
X121.285Y-106.172
X122.047Y-106.172
X122.936Y-127.889
X125.984Y-91.948
X126.365Y-109.347
X126.365Y-109.982
X126.492Y-98.933
X126.492Y-99.695
X126.492Y-100.457
X126.492Y-101.727
X126.492Y-102.489
X126.492Y-103.124
X126.746Y-91.948
X127.0Y-109.347
X127.0Y-109.982
X127.127Y-129.921
X127.254Y-98.933
X127.254Y-99.695
X127.254Y-100.457
X127.254Y-101.727
X127.254Y-102.489
X127.254Y-103.124
X127.508Y-91.948
X127.635Y-109.347
X127.635Y-109.982
X128.016Y-98.933
X128.016Y-99.695
X128.016Y-100.457
X128.016Y-101.727
X128.016Y-102.489
X128.27Y-91.948
X128.27Y-92.71
X128.27Y-93.472
X128.27Y-109.347
X128.27Y-109.982
X130.81Y-89.027
X135.89Y-101.092
X136.271Y-109.855
X136.398Y-92.583
X136.525Y-101.092
X137.287Y-101.092
T2
X102.362Y-90.297
X105.664Y-90.551
X107.95Y-91.313
X108.712Y-110.109
X110.109Y-96.139
X110.139Y-95.026
X110.363Y-106.807
X110.363Y-108.331
X110.49Y-105.791
X110.744Y-116.332
X110.871Y-103.505
X110.998Y-101.727
X111.201Y-93.382
X111.379Y-96.012
X111.379Y-99.187
X114.3Y-95.758
X114.427Y-106.172
X115.189Y-90.678
X115.316Y-95.758
X115.316Y-106.172
X115.722Y-93.183
X115.824Y-103.62
X115.824Y-116.459
X115.824Y-117.759
X115.824Y-119.059
X115.951Y-74.168
X115.951Y-75.468
X115.951Y-76.768
X115.969Y-98.208
X116.078Y-83.185
X116.078Y-84.485
X116.078Y-85.785
X116.078Y-99.695
X116.078Y-101.854
X116.205Y-95.758
X116.205Y-106.172
X116.459Y-108.331
X116.586Y-110.617
X117.091Y-95.758
X117.091Y-106.172
X117.124Y-116.459
X117.124Y-117.759
X117.124Y-119.059
X117.251Y-74.168
X117.251Y-75.468
X117.251Y-76.768
X117.378Y-83.185
X117.378Y-84.485
X117.378Y-85.785
X118.424Y-116.459
X118.424Y-117.759
X118.424Y-119.059
X118.551Y-74.168
X118.551Y-75.468
X118.551Y-76.768
X118.678Y-83.185
X118.678Y-84.485
X118.678Y-85.785
X119.38Y-106.172
X119.634Y-95.631
X119.724Y-116.459
X119.724Y-117.759
X119.724Y-119.059
X119.851Y-74.168
X119.851Y-75.468
X119.851Y-76.768
X119.978Y-83.185
X119.978Y-84.485
X119.978Y-85.785
X120.269Y-106.172
X120.523Y-95.631
X121.024Y-116.459
X121.024Y-117.759
X121.024Y-119.059
X121.151Y-74.168
X121.151Y-75.468
X121.151Y-76.768
X121.278Y-83.185
X121.278Y-84.485
X121.278Y-85.785
X121.412Y-95.631
X122.301Y-95.631
X122.936Y-106.172
X123.19Y-95.631
X123.801Y-106.195
X124.055Y-95.654
X124.079Y-83.566
X124.079Y-84.866
X124.079Y-86.166
X124.333Y-116.332
X124.333Y-117.632
X124.333Y-118.932
X125.379Y-83.566
X125.379Y-84.866
X125.379Y-86.166
X125.633Y-116.332
X125.633Y-117.632
X125.633Y-118.932
X126.679Y-83.566
X126.679Y-84.866
X126.679Y-86.166
X126.933Y-116.332
X126.933Y-117.632
X126.933Y-118.932
X127.979Y-83.566
X127.979Y-84.866
X127.979Y-86.166
X128.233Y-116.332
X128.233Y-117.632
X128.233Y-118.932
X128.397Y-106.922
X128.778Y-97.536
X129.159Y-104.775
X129.279Y-83.566
X129.279Y-84.866
X129.279Y-86.166
X129.286Y-106.922
X129.401Y-94.881
X129.476Y-98.234
X129.533Y-116.332
X129.533Y-117.632
X129.533Y-118.932
X129.794Y-104.14
X130.112Y-98.87
X130.175Y-106.934
X130.29Y-94.881
X130.302Y-103.505
X130.922Y-102.885
X130.993Y-99.385
X131.064Y-106.922
X131.179Y-94.881
X131.938Y-102.885
X131.953Y-106.922
X132.009Y-99.385
X132.068Y-94.881
T3
X100.457Y-123.19
T4
X66.802Y-92.075
X66.802Y-94.115
X66.802Y-96.155
X66.802Y-98.195
X69.342Y-93.095
X69.342Y-95.135
X69.342Y-97.175
X69.342Y-99.215
X66.802Y-112.268
X66.802Y-114.308
X66.802Y-116.348
X66.802Y-118.388
X69.342Y-113.288
X69.342Y-115.328
X69.342Y-117.368
X69.342Y-119.408
T5
X117.221Y-68.707
X122.221Y-68.707
T6
X85.202Y-130.175
X88.702Y-130.175
X92.202Y-130.175
X96.886Y-130.175
X100.386Y-130.175
X103.886Y-130.175
X133.858Y-95.885
X133.858Y-99.385
X133.858Y-102.885
X133.858Y-106.385
T7
X71.08Y-70.866
X71.08Y-75.866
T8
X66.802Y-87.249
X66.802Y-103.505
X66.802Y-107.442
X66.802Y-123.698
T0
M30
