G04 #@! TF.GenerationSoftware,KiCad,Pcbnew,(5.1.6)-1*
G04 #@! TF.CreationDate,2020-05-30T22:10:31+02:00*
G04 #@! TF.ProjectId,TMC51604Axis,544d4335-3136-4303-9441-7869732e6b69,rev?*
G04 #@! TF.SameCoordinates,Original*
G04 #@! TF.FileFunction,Legend,Bot*
G04 #@! TF.FilePolarity,Positive*
%FSLAX46Y46*%
G04 Gerber Fmt 4.6, Leading zero omitted, Abs format (unit mm)*
G04 Created by KiCad (PCBNEW (5.1.6)-1) date 2020-05-30 22:10:31*
%MOMM*%
%LPD*%
G01*
G04 APERTURE LIST*
%ADD10C,0.150000*%
%ADD11C,0.300000*%
%ADD12C,0.120000*%
%ADD13C,0.400000*%
%ADD14C,0.200000*%
%ADD15C,0.375000*%
%ADD16C,0.250000*%
G04 APERTURE END LIST*
D10*
X134864857Y-124975285D02*
X134736285Y-125018142D01*
X134522000Y-125018142D01*
X134436285Y-124975285D01*
X134393428Y-124932428D01*
X134350571Y-124846714D01*
X134350571Y-124761000D01*
X134393428Y-124675285D01*
X134436285Y-124632428D01*
X134522000Y-124589571D01*
X134693428Y-124546714D01*
X134779142Y-124503857D01*
X134822000Y-124461000D01*
X134864857Y-124375285D01*
X134864857Y-124289571D01*
X134822000Y-124203857D01*
X134779142Y-124161000D01*
X134693428Y-124118142D01*
X134479142Y-124118142D01*
X134350571Y-124161000D01*
X133622000Y-124975285D02*
X133707714Y-125018142D01*
X133879142Y-125018142D01*
X133964857Y-124975285D01*
X134007714Y-124889571D01*
X134007714Y-124546714D01*
X133964857Y-124461000D01*
X133879142Y-124418142D01*
X133707714Y-124418142D01*
X133622000Y-124461000D01*
X133579142Y-124546714D01*
X133579142Y-124632428D01*
X134007714Y-124718142D01*
X132850571Y-124975285D02*
X132936285Y-125018142D01*
X133107714Y-125018142D01*
X133193428Y-124975285D01*
X133236285Y-124889571D01*
X133236285Y-124546714D01*
X133193428Y-124461000D01*
X133107714Y-124418142D01*
X132936285Y-124418142D01*
X132850571Y-124461000D01*
X132807714Y-124546714D01*
X132807714Y-124632428D01*
X133236285Y-124718142D01*
X131864857Y-124118142D02*
X131350571Y-124118142D01*
X131607714Y-125018142D02*
X131607714Y-124118142D01*
X131050571Y-125018142D02*
X131050571Y-124118142D01*
X130750571Y-124761000D01*
X130450571Y-124118142D01*
X130450571Y-125018142D01*
X129507714Y-124932428D02*
X129550571Y-124975285D01*
X129679142Y-125018142D01*
X129764857Y-125018142D01*
X129893428Y-124975285D01*
X129979142Y-124889571D01*
X130022000Y-124803857D01*
X130064857Y-124632428D01*
X130064857Y-124503857D01*
X130022000Y-124332428D01*
X129979142Y-124246714D01*
X129893428Y-124161000D01*
X129764857Y-124118142D01*
X129679142Y-124118142D01*
X129550571Y-124161000D01*
X129507714Y-124203857D01*
X128693428Y-124118142D02*
X129122000Y-124118142D01*
X129164857Y-124546714D01*
X129122000Y-124503857D01*
X129036285Y-124461000D01*
X128822000Y-124461000D01*
X128736285Y-124503857D01*
X128693428Y-124546714D01*
X128650571Y-124632428D01*
X128650571Y-124846714D01*
X128693428Y-124932428D01*
X128736285Y-124975285D01*
X128822000Y-125018142D01*
X129036285Y-125018142D01*
X129122000Y-124975285D01*
X129164857Y-124932428D01*
X127793428Y-125018142D02*
X128307714Y-125018142D01*
X128050571Y-125018142D02*
X128050571Y-124118142D01*
X128136285Y-124246714D01*
X128222000Y-124332428D01*
X128307714Y-124375285D01*
X127022000Y-124118142D02*
X127193428Y-124118142D01*
X127279142Y-124161000D01*
X127322000Y-124203857D01*
X127407714Y-124332428D01*
X127450571Y-124503857D01*
X127450571Y-124846714D01*
X127407714Y-124932428D01*
X127364857Y-124975285D01*
X127279142Y-125018142D01*
X127107714Y-125018142D01*
X127022000Y-124975285D01*
X126979142Y-124932428D01*
X126936285Y-124846714D01*
X126936285Y-124632428D01*
X126979142Y-124546714D01*
X127022000Y-124503857D01*
X127107714Y-124461000D01*
X127279142Y-124461000D01*
X127364857Y-124503857D01*
X127407714Y-124546714D01*
X127450571Y-124632428D01*
X126379142Y-124118142D02*
X126293428Y-124118142D01*
X126207714Y-124161000D01*
X126164857Y-124203857D01*
X126122000Y-124289571D01*
X126079142Y-124461000D01*
X126079142Y-124675285D01*
X126122000Y-124846714D01*
X126164857Y-124932428D01*
X126207714Y-124975285D01*
X126293428Y-125018142D01*
X126379142Y-125018142D01*
X126464857Y-124975285D01*
X126507714Y-124932428D01*
X126550571Y-124846714D01*
X126593428Y-124675285D01*
X126593428Y-124461000D01*
X126550571Y-124289571D01*
X126507714Y-124203857D01*
X126464857Y-124161000D01*
X126379142Y-124118142D01*
X124622000Y-125018142D02*
X124622000Y-124118142D01*
X124622000Y-124975285D02*
X124707714Y-125018142D01*
X124879142Y-125018142D01*
X124964857Y-124975285D01*
X125007714Y-124932428D01*
X125050571Y-124846714D01*
X125050571Y-124589571D01*
X125007714Y-124503857D01*
X124964857Y-124461000D01*
X124879142Y-124418142D01*
X124707714Y-124418142D01*
X124622000Y-124461000D01*
X123807714Y-125018142D02*
X123807714Y-124546714D01*
X123850571Y-124461000D01*
X123936285Y-124418142D01*
X124107714Y-124418142D01*
X124193428Y-124461000D01*
X123807714Y-124975285D02*
X123893428Y-125018142D01*
X124107714Y-125018142D01*
X124193428Y-124975285D01*
X124236285Y-124889571D01*
X124236285Y-124803857D01*
X124193428Y-124718142D01*
X124107714Y-124675285D01*
X123893428Y-124675285D01*
X123807714Y-124632428D01*
X123507714Y-124418142D02*
X123164857Y-124418142D01*
X123379142Y-124118142D02*
X123379142Y-124889571D01*
X123336285Y-124975285D01*
X123250571Y-125018142D01*
X123164857Y-125018142D01*
X122479142Y-125018142D02*
X122479142Y-124546714D01*
X122522000Y-124461000D01*
X122607714Y-124418142D01*
X122779142Y-124418142D01*
X122864857Y-124461000D01*
X122479142Y-124975285D02*
X122564857Y-125018142D01*
X122779142Y-125018142D01*
X122864857Y-124975285D01*
X122907714Y-124889571D01*
X122907714Y-124803857D01*
X122864857Y-124718142D01*
X122779142Y-124675285D01*
X122564857Y-124675285D01*
X122479142Y-124632428D01*
X122093428Y-124975285D02*
X122007714Y-125018142D01*
X121836285Y-125018142D01*
X121750571Y-124975285D01*
X121707714Y-124889571D01*
X121707714Y-124846714D01*
X121750571Y-124761000D01*
X121836285Y-124718142D01*
X121964857Y-124718142D01*
X122050571Y-124675285D01*
X122093428Y-124589571D01*
X122093428Y-124546714D01*
X122050571Y-124461000D01*
X121964857Y-124418142D01*
X121836285Y-124418142D01*
X121750571Y-124461000D01*
X121322000Y-125018142D02*
X121322000Y-124118142D01*
X120936285Y-125018142D02*
X120936285Y-124546714D01*
X120979142Y-124461000D01*
X121064857Y-124418142D01*
X121193428Y-124418142D01*
X121279142Y-124461000D01*
X121322000Y-124503857D01*
X120164857Y-124975285D02*
X120250571Y-125018142D01*
X120422000Y-125018142D01*
X120507714Y-124975285D01*
X120550571Y-124889571D01*
X120550571Y-124546714D01*
X120507714Y-124461000D01*
X120422000Y-124418142D01*
X120250571Y-124418142D01*
X120164857Y-124461000D01*
X120122000Y-124546714D01*
X120122000Y-124632428D01*
X120550571Y-124718142D01*
X119393428Y-124975285D02*
X119479142Y-125018142D01*
X119650571Y-125018142D01*
X119736285Y-124975285D01*
X119779142Y-124889571D01*
X119779142Y-124546714D01*
X119736285Y-124461000D01*
X119650571Y-124418142D01*
X119479142Y-124418142D01*
X119393428Y-124461000D01*
X119350571Y-124546714D01*
X119350571Y-124632428D01*
X119779142Y-124718142D01*
X119093428Y-124418142D02*
X118750571Y-124418142D01*
X118964857Y-124118142D02*
X118964857Y-124889571D01*
X118922000Y-124975285D01*
X118836285Y-125018142D01*
X118750571Y-125018142D01*
X117893428Y-124418142D02*
X117550571Y-124418142D01*
X117764857Y-125018142D02*
X117764857Y-124246714D01*
X117722000Y-124161000D01*
X117636285Y-124118142D01*
X117550571Y-124118142D01*
X117122000Y-125018142D02*
X117207714Y-124975285D01*
X117250571Y-124932428D01*
X117293428Y-124846714D01*
X117293428Y-124589571D01*
X117250571Y-124503857D01*
X117207714Y-124461000D01*
X117122000Y-124418142D01*
X116993428Y-124418142D01*
X116907714Y-124461000D01*
X116864857Y-124503857D01*
X116822000Y-124589571D01*
X116822000Y-124846714D01*
X116864857Y-124932428D01*
X116907714Y-124975285D01*
X116993428Y-125018142D01*
X117122000Y-125018142D01*
X116436285Y-125018142D02*
X116436285Y-124418142D01*
X116436285Y-124589571D02*
X116393428Y-124503857D01*
X116350571Y-124461000D01*
X116264857Y-124418142D01*
X116179142Y-124418142D01*
X134929142Y-126475285D02*
X134800571Y-126518142D01*
X134586285Y-126518142D01*
X134500571Y-126475285D01*
X134457714Y-126432428D01*
X134414857Y-126346714D01*
X134414857Y-126261000D01*
X134457714Y-126175285D01*
X134500571Y-126132428D01*
X134586285Y-126089571D01*
X134757714Y-126046714D01*
X134843428Y-126003857D01*
X134886285Y-125961000D01*
X134929142Y-125875285D01*
X134929142Y-125789571D01*
X134886285Y-125703857D01*
X134843428Y-125661000D01*
X134757714Y-125618142D01*
X134543428Y-125618142D01*
X134414857Y-125661000D01*
X134029142Y-126518142D02*
X134029142Y-125618142D01*
X133814857Y-125618142D01*
X133686285Y-125661000D01*
X133600571Y-125746714D01*
X133557714Y-125832428D01*
X133514857Y-126003857D01*
X133514857Y-126132428D01*
X133557714Y-126303857D01*
X133600571Y-126389571D01*
X133686285Y-126475285D01*
X133814857Y-126518142D01*
X134029142Y-126518142D01*
X133343428Y-126603857D02*
X132657714Y-126603857D01*
X132443428Y-126518142D02*
X132443428Y-125618142D01*
X132143428Y-126261000D01*
X131843428Y-125618142D01*
X131843428Y-126518142D01*
X131243428Y-125618142D02*
X131072000Y-125618142D01*
X130986285Y-125661000D01*
X130900571Y-125746714D01*
X130857714Y-125918142D01*
X130857714Y-126218142D01*
X130900571Y-126389571D01*
X130986285Y-126475285D01*
X131072000Y-126518142D01*
X131243428Y-126518142D01*
X131329142Y-126475285D01*
X131414857Y-126389571D01*
X131457714Y-126218142D01*
X131457714Y-125918142D01*
X131414857Y-125746714D01*
X131329142Y-125661000D01*
X131243428Y-125618142D01*
X130472000Y-126518142D02*
X130472000Y-125618142D01*
X130257714Y-125618142D01*
X130129142Y-125661000D01*
X130043428Y-125746714D01*
X130000571Y-125832428D01*
X129957714Y-126003857D01*
X129957714Y-126132428D01*
X130000571Y-126303857D01*
X130043428Y-126389571D01*
X130129142Y-126475285D01*
X130257714Y-126518142D01*
X130472000Y-126518142D01*
X129572000Y-126046714D02*
X129272000Y-126046714D01*
X129143428Y-126518142D02*
X129572000Y-126518142D01*
X129572000Y-125618142D01*
X129143428Y-125618142D01*
X127686285Y-126518142D02*
X127686285Y-126046714D01*
X127729142Y-125961000D01*
X127814857Y-125918142D01*
X127986285Y-125918142D01*
X128072000Y-125961000D01*
X127686285Y-126475285D02*
X127772000Y-126518142D01*
X127986285Y-126518142D01*
X128072000Y-126475285D01*
X128114857Y-126389571D01*
X128114857Y-126303857D01*
X128072000Y-126218142D01*
X127986285Y-126175285D01*
X127772000Y-126175285D01*
X127686285Y-126132428D01*
X127257714Y-125918142D02*
X127257714Y-126518142D01*
X127257714Y-126003857D02*
X127214857Y-125961000D01*
X127129142Y-125918142D01*
X127000571Y-125918142D01*
X126914857Y-125961000D01*
X126872000Y-126046714D01*
X126872000Y-126518142D01*
X126057714Y-126518142D02*
X126057714Y-125618142D01*
X126057714Y-126475285D02*
X126143428Y-126518142D01*
X126314857Y-126518142D01*
X126400571Y-126475285D01*
X126443428Y-126432428D01*
X126486285Y-126346714D01*
X126486285Y-126089571D01*
X126443428Y-126003857D01*
X126400571Y-125961000D01*
X126314857Y-125918142D01*
X126143428Y-125918142D01*
X126057714Y-125961000D01*
X124986285Y-126475285D02*
X124857714Y-126518142D01*
X124643428Y-126518142D01*
X124557714Y-126475285D01*
X124514857Y-126432428D01*
X124472000Y-126346714D01*
X124472000Y-126261000D01*
X124514857Y-126175285D01*
X124557714Y-126132428D01*
X124643428Y-126089571D01*
X124814857Y-126046714D01*
X124900571Y-126003857D01*
X124943428Y-125961000D01*
X124986285Y-125875285D01*
X124986285Y-125789571D01*
X124943428Y-125703857D01*
X124900571Y-125661000D01*
X124814857Y-125618142D01*
X124600571Y-125618142D01*
X124472000Y-125661000D01*
X124086285Y-126518142D02*
X124086285Y-125618142D01*
X123743428Y-125618142D01*
X123657714Y-125661000D01*
X123614857Y-125703857D01*
X123572000Y-125789571D01*
X123572000Y-125918142D01*
X123614857Y-126003857D01*
X123657714Y-126046714D01*
X123743428Y-126089571D01*
X124086285Y-126089571D01*
X123186285Y-126518142D02*
X123186285Y-125618142D01*
X122972000Y-126603857D02*
X122286285Y-126603857D01*
X122072000Y-126518142D02*
X122072000Y-125618142D01*
X121772000Y-126261000D01*
X121472000Y-125618142D01*
X121472000Y-126518142D01*
X120872000Y-125618142D02*
X120700571Y-125618142D01*
X120614857Y-125661000D01*
X120529142Y-125746714D01*
X120486285Y-125918142D01*
X120486285Y-126218142D01*
X120529142Y-126389571D01*
X120614857Y-126475285D01*
X120700571Y-126518142D01*
X120872000Y-126518142D01*
X120957714Y-126475285D01*
X121043428Y-126389571D01*
X121086285Y-126218142D01*
X121086285Y-125918142D01*
X121043428Y-125746714D01*
X120957714Y-125661000D01*
X120872000Y-125618142D01*
X120100571Y-126518142D02*
X120100571Y-125618142D01*
X119886285Y-125618142D01*
X119757714Y-125661000D01*
X119672000Y-125746714D01*
X119629142Y-125832428D01*
X119586285Y-126003857D01*
X119586285Y-126132428D01*
X119629142Y-126303857D01*
X119672000Y-126389571D01*
X119757714Y-126475285D01*
X119886285Y-126518142D01*
X120100571Y-126518142D01*
X119200571Y-126046714D02*
X118900571Y-126046714D01*
X118772000Y-126518142D02*
X119200571Y-126518142D01*
X119200571Y-125618142D01*
X118772000Y-125618142D01*
X117186285Y-126432428D02*
X117229142Y-126475285D01*
X117357714Y-126518142D01*
X117443428Y-126518142D01*
X117572000Y-126475285D01*
X117657714Y-126389571D01*
X117700571Y-126303857D01*
X117743428Y-126132428D01*
X117743428Y-126003857D01*
X117700571Y-125832428D01*
X117657714Y-125746714D01*
X117572000Y-125661000D01*
X117443428Y-125618142D01*
X117357714Y-125618142D01*
X117229142Y-125661000D01*
X117186285Y-125703857D01*
X116500571Y-126046714D02*
X116800571Y-126046714D01*
X116800571Y-126518142D02*
X116800571Y-125618142D01*
X116372000Y-125618142D01*
X115557714Y-125661000D02*
X115643428Y-125618142D01*
X115772000Y-125618142D01*
X115900571Y-125661000D01*
X115986285Y-125746714D01*
X116029142Y-125832428D01*
X116072000Y-126003857D01*
X116072000Y-126132428D01*
X116029142Y-126303857D01*
X115986285Y-126389571D01*
X115900571Y-126475285D01*
X115772000Y-126518142D01*
X115686285Y-126518142D01*
X115557714Y-126475285D01*
X115514857Y-126432428D01*
X115514857Y-126132428D01*
X115686285Y-126132428D01*
X127814857Y-127418142D02*
X127814857Y-128318142D01*
X127814857Y-127461000D02*
X127729142Y-127418142D01*
X127557714Y-127418142D01*
X127472000Y-127461000D01*
X127429142Y-127503857D01*
X127386285Y-127589571D01*
X127386285Y-127846714D01*
X127429142Y-127932428D01*
X127472000Y-127975285D01*
X127557714Y-128018142D01*
X127729142Y-128018142D01*
X127814857Y-127975285D01*
X126614857Y-128018142D02*
X126614857Y-127546714D01*
X126657714Y-127461000D01*
X126743428Y-127418142D01*
X126914857Y-127418142D01*
X127000571Y-127461000D01*
X126614857Y-127975285D02*
X126700571Y-128018142D01*
X126914857Y-128018142D01*
X127000571Y-127975285D01*
X127043428Y-127889571D01*
X127043428Y-127803857D01*
X127000571Y-127718142D01*
X126914857Y-127675285D01*
X126700571Y-127675285D01*
X126614857Y-127632428D01*
X125800571Y-127418142D02*
X125800571Y-128146714D01*
X125843428Y-128232428D01*
X125886285Y-128275285D01*
X125972000Y-128318142D01*
X126100571Y-128318142D01*
X126186285Y-128275285D01*
X125800571Y-127975285D02*
X125886285Y-128018142D01*
X126057714Y-128018142D01*
X126143428Y-127975285D01*
X126186285Y-127932428D01*
X126229142Y-127846714D01*
X126229142Y-127589571D01*
X126186285Y-127503857D01*
X126143428Y-127461000D01*
X126057714Y-127418142D01*
X125886285Y-127418142D01*
X125800571Y-127461000D01*
X125029142Y-127975285D02*
X125114857Y-128018142D01*
X125286285Y-128018142D01*
X125372000Y-127975285D01*
X125414857Y-127889571D01*
X125414857Y-127546714D01*
X125372000Y-127461000D01*
X125286285Y-127418142D01*
X125114857Y-127418142D01*
X125029142Y-127461000D01*
X124986285Y-127546714D01*
X124986285Y-127632428D01*
X125414857Y-127718142D01*
X123443428Y-128018142D02*
X123957714Y-128018142D01*
X123700571Y-128018142D02*
X123700571Y-127118142D01*
X123786285Y-127246714D01*
X123872000Y-127332428D01*
X123957714Y-127375285D01*
X123143428Y-127118142D02*
X122586285Y-127118142D01*
X122886285Y-127461000D01*
X122757714Y-127461000D01*
X122672000Y-127503857D01*
X122629142Y-127546714D01*
X122586285Y-127632428D01*
X122586285Y-127846714D01*
X122629142Y-127932428D01*
X122672000Y-127975285D01*
X122757714Y-128018142D01*
X123014857Y-128018142D01*
X123100571Y-127975285D01*
X123143428Y-127932428D01*
D11*
X63992142Y-66293904D02*
X63992142Y-64770095D01*
X64007857Y-80010095D02*
X64007857Y-81533904D01*
X64769761Y-80772000D02*
X63245952Y-80772000D01*
D12*
X75819000Y-134239000D02*
X75819000Y-127889000D01*
X113030000Y-134239000D02*
X75819000Y-134239000D01*
X113030000Y-127889000D02*
X113030000Y-134239000D01*
X75819000Y-127889000D02*
X113030000Y-127889000D01*
D13*
X110616809Y-129048000D02*
X110807285Y-128952761D01*
X111093000Y-128952761D01*
X111378714Y-129048000D01*
X111569190Y-129238476D01*
X111664428Y-129428952D01*
X111759666Y-129809904D01*
X111759666Y-130095619D01*
X111664428Y-130476571D01*
X111569190Y-130667047D01*
X111378714Y-130857523D01*
X111093000Y-130952761D01*
X110902523Y-130952761D01*
X110616809Y-130857523D01*
X110521571Y-130762285D01*
X110521571Y-130095619D01*
X110902523Y-130095619D01*
X109664428Y-130952761D02*
X109664428Y-128952761D01*
X108521571Y-130952761D01*
X108521571Y-128952761D01*
X107569190Y-130952761D02*
X107569190Y-128952761D01*
X107093000Y-128952761D01*
X106807285Y-129048000D01*
X106616809Y-129238476D01*
X106521571Y-129428952D01*
X106426333Y-129809904D01*
X106426333Y-130095619D01*
X106521571Y-130476571D01*
X106616809Y-130667047D01*
X106807285Y-130857523D01*
X107093000Y-130952761D01*
X107569190Y-130952761D01*
D14*
X102893571Y-133373761D02*
X102750714Y-133421380D01*
X102512619Y-133421380D01*
X102417380Y-133373761D01*
X102369761Y-133326142D01*
X102322142Y-133230904D01*
X102322142Y-133135666D01*
X102369761Y-133040428D01*
X102417380Y-132992809D01*
X102512619Y-132945190D01*
X102703095Y-132897571D01*
X102798333Y-132849952D01*
X102845952Y-132802333D01*
X102893571Y-132707095D01*
X102893571Y-132611857D01*
X102845952Y-132516619D01*
X102798333Y-132469000D01*
X102703095Y-132421380D01*
X102465000Y-132421380D01*
X102322142Y-132469000D01*
X101893571Y-132754714D02*
X101893571Y-133754714D01*
X101893571Y-132802333D02*
X101798333Y-132754714D01*
X101607857Y-132754714D01*
X101512619Y-132802333D01*
X101465000Y-132849952D01*
X101417380Y-132945190D01*
X101417380Y-133230904D01*
X101465000Y-133326142D01*
X101512619Y-133373761D01*
X101607857Y-133421380D01*
X101798333Y-133421380D01*
X101893571Y-133373761D01*
X100560238Y-133421380D02*
X100560238Y-132897571D01*
X100607857Y-132802333D01*
X100703095Y-132754714D01*
X100893571Y-132754714D01*
X100988809Y-132802333D01*
X100560238Y-133373761D02*
X100655476Y-133421380D01*
X100893571Y-133421380D01*
X100988809Y-133373761D01*
X101036428Y-133278523D01*
X101036428Y-133183285D01*
X100988809Y-133088047D01*
X100893571Y-133040428D01*
X100655476Y-133040428D01*
X100560238Y-132992809D01*
X100084047Y-133421380D02*
X100084047Y-132754714D01*
X100084047Y-132945190D02*
X100036428Y-132849952D01*
X99988809Y-132802333D01*
X99893571Y-132754714D01*
X99798333Y-132754714D01*
X99084047Y-133373761D02*
X99179285Y-133421380D01*
X99369761Y-133421380D01*
X99465000Y-133373761D01*
X99512619Y-133278523D01*
X99512619Y-132897571D01*
X99465000Y-132802333D01*
X99369761Y-132754714D01*
X99179285Y-132754714D01*
X99084047Y-132802333D01*
X99036428Y-132897571D01*
X99036428Y-132992809D01*
X99512619Y-133088047D01*
D15*
X97329571Y-133774571D02*
X97329571Y-132274571D01*
X96472428Y-133774571D01*
X96472428Y-132274571D01*
X91967857Y-132988857D02*
X91753571Y-133060285D01*
X91682142Y-133131714D01*
X91610714Y-133274571D01*
X91610714Y-133488857D01*
X91682142Y-133631714D01*
X91753571Y-133703142D01*
X91896428Y-133774571D01*
X92467857Y-133774571D01*
X92467857Y-132274571D01*
X91967857Y-132274571D01*
X91825000Y-132346000D01*
X91753571Y-132417428D01*
X91682142Y-132560285D01*
X91682142Y-132703142D01*
X91753571Y-132846000D01*
X91825000Y-132917428D01*
X91967857Y-132988857D01*
X92467857Y-132988857D01*
X88876142Y-133346000D02*
X88161857Y-133346000D01*
X89019000Y-133774571D02*
X88519000Y-132274571D01*
X88019000Y-133774571D01*
D13*
X82803666Y-129333761D02*
X82137000Y-131333761D01*
X81470333Y-129333761D01*
X79660809Y-131143285D02*
X79756047Y-131238523D01*
X80041761Y-131333761D01*
X80232238Y-131333761D01*
X80517952Y-131238523D01*
X80708428Y-131048047D01*
X80803666Y-130857571D01*
X80898904Y-130476619D01*
X80898904Y-130190904D01*
X80803666Y-129809952D01*
X80708428Y-129619476D01*
X80517952Y-129429000D01*
X80232238Y-129333761D01*
X80041761Y-129333761D01*
X79756047Y-129429000D01*
X79660809Y-129524238D01*
X77660809Y-131143285D02*
X77756047Y-131238523D01*
X78041761Y-131333761D01*
X78232238Y-131333761D01*
X78517952Y-131238523D01*
X78708428Y-131048047D01*
X78803666Y-130857571D01*
X78898904Y-130476619D01*
X78898904Y-130190904D01*
X78803666Y-129809952D01*
X78708428Y-129619476D01*
X78517952Y-129429000D01*
X78232238Y-129333761D01*
X78041761Y-129333761D01*
X77756047Y-129429000D01*
X77660809Y-129524238D01*
D16*
X112942285Y-126801571D02*
X112608952Y-126801571D01*
X112466095Y-127325380D02*
X112942285Y-127325380D01*
X112942285Y-126325380D01*
X112466095Y-126325380D01*
X112037523Y-127325380D02*
X112037523Y-126325380D01*
X111466095Y-127325380D01*
X111466095Y-126325380D01*
X110418476Y-127230142D02*
X110466095Y-127277761D01*
X110608952Y-127325380D01*
X110704190Y-127325380D01*
X110847047Y-127277761D01*
X110942285Y-127182523D01*
X110989904Y-127087285D01*
X111037523Y-126896809D01*
X111037523Y-126753952D01*
X110989904Y-126563476D01*
X110942285Y-126468238D01*
X110847047Y-126373000D01*
X110704190Y-126325380D01*
X110608952Y-126325380D01*
X110466095Y-126373000D01*
X110418476Y-126420619D01*
X109799428Y-126325380D02*
X109608952Y-126325380D01*
X109513714Y-126373000D01*
X109418476Y-126468238D01*
X109370857Y-126658714D01*
X109370857Y-126992047D01*
X109418476Y-127182523D01*
X109513714Y-127277761D01*
X109608952Y-127325380D01*
X109799428Y-127325380D01*
X109894666Y-127277761D01*
X109989904Y-127182523D01*
X110037523Y-126992047D01*
X110037523Y-126658714D01*
X109989904Y-126468238D01*
X109894666Y-126373000D01*
X109799428Y-126325380D01*
X108942285Y-127325380D02*
X108942285Y-126325380D01*
X108704190Y-126325380D01*
X108561333Y-126373000D01*
X108466095Y-126468238D01*
X108418476Y-126563476D01*
X108370857Y-126753952D01*
X108370857Y-126896809D01*
X108418476Y-127087285D01*
X108466095Y-127182523D01*
X108561333Y-127277761D01*
X108704190Y-127325380D01*
X108942285Y-127325380D01*
X107942285Y-126801571D02*
X107608952Y-126801571D01*
X107466095Y-127325380D02*
X107942285Y-127325380D01*
X107942285Y-126325380D01*
X107466095Y-126325380D01*
X106466095Y-127325380D02*
X106799428Y-126849190D01*
X107037523Y-127325380D02*
X107037523Y-126325380D01*
X106656571Y-126325380D01*
X106561333Y-126373000D01*
X106513714Y-126420619D01*
X106466095Y-126515857D01*
X106466095Y-126658714D01*
X106513714Y-126753952D01*
X106561333Y-126801571D01*
X106656571Y-126849190D01*
X107037523Y-126849190D01*
D14*
X63095238Y-119839809D02*
X63047619Y-119696952D01*
X63047619Y-119458857D01*
X63095238Y-119363619D01*
X63142857Y-119316000D01*
X63238095Y-119268380D01*
X63333333Y-119268380D01*
X63428571Y-119316000D01*
X63476190Y-119363619D01*
X63523809Y-119458857D01*
X63571428Y-119649333D01*
X63619047Y-119744571D01*
X63666666Y-119792190D01*
X63761904Y-119839809D01*
X63857142Y-119839809D01*
X63952380Y-119792190D01*
X64000000Y-119744571D01*
X64047619Y-119649333D01*
X64047619Y-119411238D01*
X64000000Y-119268380D01*
X64047619Y-118982666D02*
X64047619Y-118411238D01*
X63047619Y-118696952D02*
X64047619Y-118696952D01*
X63571428Y-118077904D02*
X63571428Y-117744571D01*
X63047619Y-117601714D02*
X63047619Y-118077904D01*
X64047619Y-118077904D01*
X64047619Y-117601714D01*
X63047619Y-117173142D02*
X64047619Y-117173142D01*
X64047619Y-116792190D01*
X64000000Y-116696952D01*
X63952380Y-116649333D01*
X63857142Y-116601714D01*
X63714285Y-116601714D01*
X63619047Y-116649333D01*
X63571428Y-116696952D01*
X63523809Y-116792190D01*
X63523809Y-117173142D01*
X64095238Y-115458857D02*
X62809523Y-116316000D01*
X63047619Y-115125523D02*
X64047619Y-115125523D01*
X64047619Y-114887428D01*
X64000000Y-114744571D01*
X63904761Y-114649333D01*
X63809523Y-114601714D01*
X63619047Y-114554095D01*
X63476190Y-114554095D01*
X63285714Y-114601714D01*
X63190476Y-114649333D01*
X63095238Y-114744571D01*
X63047619Y-114887428D01*
X63047619Y-115125523D01*
X63047619Y-114125523D02*
X64047619Y-114125523D01*
X63047619Y-113077904D02*
X63523809Y-113411238D01*
X63047619Y-113649333D02*
X64047619Y-113649333D01*
X64047619Y-113268380D01*
X64000000Y-113173142D01*
X63952380Y-113125523D01*
X63857142Y-113077904D01*
X63714285Y-113077904D01*
X63619047Y-113125523D01*
X63571428Y-113173142D01*
X63523809Y-113268380D01*
X63523809Y-113649333D01*
X63047619Y-111887428D02*
X64047619Y-111887428D01*
X63047619Y-111411238D02*
X64047619Y-111411238D01*
X63047619Y-110839809D01*
X64047619Y-110839809D01*
X63095238Y-97289666D02*
X63047619Y-97146809D01*
X63047619Y-96908714D01*
X63095238Y-96813476D01*
X63142857Y-96765857D01*
X63238095Y-96718238D01*
X63333333Y-96718238D01*
X63428571Y-96765857D01*
X63476190Y-96813476D01*
X63523809Y-96908714D01*
X63571428Y-97099190D01*
X63619047Y-97194428D01*
X63666666Y-97242047D01*
X63761904Y-97289666D01*
X63857142Y-97289666D01*
X63952380Y-97242047D01*
X64000000Y-97194428D01*
X64047619Y-97099190D01*
X64047619Y-96861095D01*
X64000000Y-96718238D01*
X63047619Y-96289666D02*
X64047619Y-96289666D01*
X64047619Y-95908714D01*
X64000000Y-95813476D01*
X63952380Y-95765857D01*
X63857142Y-95718238D01*
X63714285Y-95718238D01*
X63619047Y-95765857D01*
X63571428Y-95813476D01*
X63523809Y-95908714D01*
X63523809Y-96289666D01*
X63047619Y-95289666D02*
X64047619Y-95289666D01*
X63047619Y-94051571D02*
X64047619Y-94051571D01*
X63047619Y-93575380D02*
X64047619Y-93575380D01*
X63047619Y-93003952D01*
X64047619Y-93003952D01*
X64063571Y-76802761D02*
X64063571Y-76040857D01*
X63682619Y-76421809D02*
X64444523Y-76421809D01*
X64349285Y-75136095D02*
X63682619Y-75136095D01*
X64730238Y-75374190D02*
X64015952Y-75612285D01*
X64015952Y-74993238D01*
X64254047Y-74469428D02*
X64301666Y-74564666D01*
X64349285Y-74612285D01*
X64444523Y-74659904D01*
X64492142Y-74659904D01*
X64587380Y-74612285D01*
X64635000Y-74564666D01*
X64682619Y-74469428D01*
X64682619Y-74278952D01*
X64635000Y-74183714D01*
X64587380Y-74136095D01*
X64492142Y-74088476D01*
X64444523Y-74088476D01*
X64349285Y-74136095D01*
X64301666Y-74183714D01*
X64254047Y-74278952D01*
X64254047Y-74469428D01*
X64206428Y-74564666D01*
X64158809Y-74612285D01*
X64063571Y-74659904D01*
X63873095Y-74659904D01*
X63777857Y-74612285D01*
X63730238Y-74564666D01*
X63682619Y-74469428D01*
X63682619Y-74278952D01*
X63730238Y-74183714D01*
X63777857Y-74136095D01*
X63873095Y-74088476D01*
X64063571Y-74088476D01*
X64158809Y-74136095D01*
X64206428Y-74183714D01*
X64254047Y-74278952D01*
X64682619Y-73802761D02*
X63682619Y-73469428D01*
X64682619Y-73136095D01*
X63682619Y-72802761D02*
X64682619Y-72802761D01*
X64682619Y-72564666D01*
X64635000Y-72421809D01*
X64539761Y-72326571D01*
X64444523Y-72278952D01*
X64254047Y-72231333D01*
X64111190Y-72231333D01*
X63920714Y-72278952D01*
X63825476Y-72326571D01*
X63730238Y-72421809D01*
X63682619Y-72564666D01*
X63682619Y-72802761D01*
X63777857Y-71231333D02*
X63730238Y-71278952D01*
X63682619Y-71421809D01*
X63682619Y-71517047D01*
X63730238Y-71659904D01*
X63825476Y-71755142D01*
X63920714Y-71802761D01*
X64111190Y-71850380D01*
X64254047Y-71850380D01*
X64444523Y-71802761D01*
X64539761Y-71755142D01*
X64635000Y-71659904D01*
X64682619Y-71517047D01*
X64682619Y-71421809D01*
X64635000Y-71278952D01*
X64587380Y-71231333D01*
X63682619Y-70040857D02*
X64682619Y-70040857D01*
X63682619Y-69564666D02*
X64682619Y-69564666D01*
X63682619Y-68993238D01*
X64682619Y-68993238D01*
D13*
X130952761Y-106029190D02*
X128952761Y-106029190D01*
X128952761Y-106505380D01*
X129048000Y-106791095D01*
X129238476Y-106981571D01*
X129428952Y-107076809D01*
X129809904Y-107172047D01*
X130095619Y-107172047D01*
X130476571Y-107076809D01*
X130667047Y-106981571D01*
X130857523Y-106791095D01*
X130952761Y-106505380D01*
X130952761Y-106029190D01*
X130762285Y-103526094D02*
X130857523Y-103430856D01*
X130952761Y-103145142D01*
X130952761Y-102954666D01*
X130857523Y-102668951D01*
X130667047Y-102478475D01*
X130476571Y-102383237D01*
X130095619Y-102287999D01*
X129809904Y-102287999D01*
X129428952Y-102383237D01*
X129238476Y-102478475D01*
X129048000Y-102668951D01*
X128952761Y-102954666D01*
X128952761Y-103145142D01*
X129048000Y-103430856D01*
X129143238Y-103526094D01*
X129905142Y-99403952D02*
X130000380Y-99689666D01*
X130095619Y-99784904D01*
X130286095Y-99880142D01*
X130571809Y-99880142D01*
X130762285Y-99784904D01*
X130857523Y-99689666D01*
X130952761Y-99499190D01*
X130952761Y-98737285D01*
X128952761Y-98737285D01*
X128952761Y-99403952D01*
X129048000Y-99594428D01*
X129143238Y-99689666D01*
X129333714Y-99784904D01*
X129524190Y-99784904D01*
X129714666Y-99689666D01*
X129809904Y-99594428D01*
X129905142Y-99403952D01*
X129905142Y-98737285D01*
X130381333Y-95281809D02*
X130381333Y-96234190D01*
X130952761Y-95091333D02*
X128952761Y-95758000D01*
X130952761Y-96424666D01*
D16*
X127353142Y-94405571D02*
X127424571Y-94619857D01*
X127424571Y-94977000D01*
X127353142Y-95119857D01*
X127281714Y-95191285D01*
X127138857Y-95262714D01*
X126996000Y-95262714D01*
X126853142Y-95191285D01*
X126781714Y-95119857D01*
X126710285Y-94977000D01*
X126638857Y-94691285D01*
X126567428Y-94548428D01*
X126496000Y-94477000D01*
X126353142Y-94405571D01*
X126210285Y-94405571D01*
X126067428Y-94477000D01*
X125996000Y-94548428D01*
X125924571Y-94691285D01*
X125924571Y-95048428D01*
X125996000Y-95262714D01*
X125924571Y-95691285D02*
X125924571Y-96548428D01*
X127424571Y-96119857D02*
X125924571Y-96119857D01*
X126638857Y-97048428D02*
X126638857Y-97548428D01*
X127424571Y-97762714D02*
X127424571Y-97048428D01*
X125924571Y-97048428D01*
X125924571Y-97762714D01*
X127424571Y-98405571D02*
X125924571Y-98405571D01*
X125924571Y-98977000D01*
X125996000Y-99119857D01*
X126067428Y-99191285D01*
X126210285Y-99262714D01*
X126424571Y-99262714D01*
X126567428Y-99191285D01*
X126638857Y-99119857D01*
X126710285Y-98977000D01*
X126710285Y-98405571D01*
X127424571Y-99905571D02*
X125924571Y-99905571D01*
X125924571Y-100477000D01*
X125996000Y-100619857D01*
X126067428Y-100691285D01*
X126210285Y-100762714D01*
X126424571Y-100762714D01*
X126567428Y-100691285D01*
X126638857Y-100619857D01*
X126710285Y-100477000D01*
X126710285Y-99905571D01*
X126638857Y-101405571D02*
X126638857Y-101905571D01*
X127424571Y-102119857D02*
X127424571Y-101405571D01*
X125924571Y-101405571D01*
X125924571Y-102119857D01*
X127424571Y-103619857D02*
X126710285Y-103119857D01*
X127424571Y-102762714D02*
X125924571Y-102762714D01*
X125924571Y-103334142D01*
X125996000Y-103477000D01*
X126067428Y-103548428D01*
X126210285Y-103619857D01*
X126424571Y-103619857D01*
X126567428Y-103548428D01*
X126638857Y-103477000D01*
X126710285Y-103334142D01*
X126710285Y-102762714D01*
X125924571Y-105691285D02*
X125924571Y-105977000D01*
X125996000Y-106119857D01*
X126138857Y-106262714D01*
X126424571Y-106334142D01*
X126924571Y-106334142D01*
X127210285Y-106262714D01*
X127353142Y-106119857D01*
X127424571Y-105977000D01*
X127424571Y-105691285D01*
X127353142Y-105548428D01*
X127210285Y-105405571D01*
X126924571Y-105334142D01*
X126424571Y-105334142D01*
X126138857Y-105405571D01*
X125996000Y-105548428D01*
X125924571Y-105691285D01*
X125924571Y-106977000D02*
X127138857Y-106977000D01*
X127281714Y-107048428D01*
X127353142Y-107119857D01*
X127424571Y-107262714D01*
X127424571Y-107548428D01*
X127353142Y-107691285D01*
X127281714Y-107762714D01*
X127138857Y-107834142D01*
X125924571Y-107834142D01*
X125924571Y-108334142D02*
X125924571Y-109191285D01*
X127424571Y-108762714D02*
X125924571Y-108762714D01*
D14*
X126031047Y-63587380D02*
X126031047Y-64301666D01*
X126078666Y-64444523D01*
X126173904Y-64539761D01*
X126316761Y-64587380D01*
X126412000Y-64587380D01*
X125078666Y-64587380D02*
X125554857Y-64587380D01*
X125554857Y-63587380D01*
X124173904Y-64492142D02*
X124221523Y-64539761D01*
X124364380Y-64587380D01*
X124459619Y-64587380D01*
X124602476Y-64539761D01*
X124697714Y-64444523D01*
X124745333Y-64349285D01*
X124792952Y-64158809D01*
X124792952Y-64015952D01*
X124745333Y-63825476D01*
X124697714Y-63730238D01*
X124602476Y-63635000D01*
X124459619Y-63587380D01*
X124364380Y-63587380D01*
X124221523Y-63635000D01*
X124173904Y-63682619D01*
X123459619Y-63587380D02*
X123459619Y-64301666D01*
X123507238Y-64444523D01*
X123602476Y-64539761D01*
X123745333Y-64587380D01*
X123840571Y-64587380D01*
X122507238Y-64587380D02*
X122983428Y-64587380D01*
X122983428Y-63587380D01*
X121602476Y-64492142D02*
X121650095Y-64539761D01*
X121792952Y-64587380D01*
X121888190Y-64587380D01*
X122031047Y-64539761D01*
X122126285Y-64444523D01*
X122173904Y-64349285D01*
X122221523Y-64158809D01*
X122221523Y-64015952D01*
X122173904Y-63825476D01*
X122126285Y-63730238D01*
X122031047Y-63635000D01*
X121888190Y-63587380D01*
X121792952Y-63587380D01*
X121650095Y-63635000D01*
X121602476Y-63682619D01*
X120888190Y-63587380D02*
X120888190Y-64301666D01*
X120935809Y-64444523D01*
X121031047Y-64539761D01*
X121173904Y-64587380D01*
X121269142Y-64587380D01*
X119935809Y-64587380D02*
X120412000Y-64587380D01*
X120412000Y-63587380D01*
X119031047Y-64492142D02*
X119078666Y-64539761D01*
X119221523Y-64587380D01*
X119316761Y-64587380D01*
X119459619Y-64539761D01*
X119554857Y-64444523D01*
X119602476Y-64349285D01*
X119650095Y-64158809D01*
X119650095Y-64015952D01*
X119602476Y-63825476D01*
X119554857Y-63730238D01*
X119459619Y-63635000D01*
X119316761Y-63587380D01*
X119221523Y-63587380D01*
X119078666Y-63635000D01*
X119031047Y-63682619D01*
X118316761Y-63587380D02*
X118316761Y-64301666D01*
X118364380Y-64444523D01*
X118459619Y-64539761D01*
X118602476Y-64587380D01*
X118697714Y-64587380D01*
X117364380Y-64587380D02*
X117840571Y-64587380D01*
X117840571Y-63587380D01*
X116459619Y-64492142D02*
X116507238Y-64539761D01*
X116650095Y-64587380D01*
X116745333Y-64587380D01*
X116888190Y-64539761D01*
X116983428Y-64444523D01*
X117031047Y-64349285D01*
X117078666Y-64158809D01*
X117078666Y-64015952D01*
X117031047Y-63825476D01*
X116983428Y-63730238D01*
X116888190Y-63635000D01*
X116745333Y-63587380D01*
X116650095Y-63587380D01*
X116507238Y-63635000D01*
X116459619Y-63682619D01*
D12*
X70480422Y-84126000D02*
X70997578Y-84126000D01*
X70480422Y-85546000D02*
X70997578Y-85546000D01*
X70612000Y-85217000D02*
X70612000Y-84582000D01*
X70866000Y-85217000D02*
X70866000Y-84582000D01*
X70612000Y-84836000D02*
X70485000Y-84836000D01*
X70866000Y-84836000D02*
X70993000Y-84836000D01*
X70866000Y-84582000D02*
X70866000Y-84455000D01*
X70612000Y-84582000D02*
X70612000Y-84455000D01*
X70480422Y-125782000D02*
X70997578Y-125782000D01*
X70480422Y-127202000D02*
X70997578Y-127202000D01*
X70612000Y-126873000D02*
X70612000Y-126238000D01*
X70866000Y-126873000D02*
X70866000Y-126238000D01*
X70612000Y-126492000D02*
X70485000Y-126492000D01*
X70866000Y-126492000D02*
X70993000Y-126492000D01*
X70866000Y-126238000D02*
X70866000Y-126111000D01*
X70612000Y-126238000D02*
X70612000Y-126111000D01*
X73156578Y-112978000D02*
X72639422Y-112978000D01*
X73156578Y-111558000D02*
X72639422Y-111558000D01*
X73152000Y-112268000D02*
X72644000Y-112268000D01*
X73025000Y-112268000D02*
X73025000Y-112014000D01*
X73025000Y-112014000D02*
X72771000Y-112014000D01*
X72771000Y-112014000D02*
X72771000Y-112522000D01*
X72771000Y-112522000D02*
X73025000Y-112522000D01*
X73025000Y-112522000D02*
X73025000Y-112268000D01*
X72898000Y-112522000D02*
X72898000Y-112014000D01*
X118358936Y-72099000D02*
X121163064Y-72099000D01*
X118358936Y-69379000D02*
X121163064Y-69379000D01*
X83688422Y-125147000D02*
X84205578Y-125147000D01*
X83688422Y-126567000D02*
X84205578Y-126567000D01*
X83820000Y-126238000D02*
X83820000Y-125603000D01*
X84074000Y-126238000D02*
X84074000Y-125603000D01*
X83820000Y-125857000D02*
X83693000Y-125857000D01*
X84074000Y-125857000D02*
X84201000Y-125857000D01*
X84074000Y-125603000D02*
X84074000Y-125476000D01*
X83820000Y-125603000D02*
X83820000Y-125476000D01*
X102616000Y-106550000D02*
X105376000Y-106550000D01*
X105376000Y-106550000D02*
X105376000Y-107390000D01*
X102616000Y-106550000D02*
X99856000Y-106550000D01*
X99856000Y-106550000D02*
X99856000Y-107390000D01*
X102616000Y-116970000D02*
X105376000Y-116970000D01*
X105376000Y-116970000D02*
X105376000Y-116130000D01*
X102616000Y-116970000D02*
X99856000Y-116970000D01*
X99856000Y-116970000D02*
X99856000Y-116130000D01*
X99856000Y-116130000D02*
X98166000Y-116130000D01*
X94036000Y-122553000D02*
X93106000Y-122553000D01*
X90876000Y-122553000D02*
X91806000Y-122553000D01*
X90876000Y-122553000D02*
X90876000Y-120393000D01*
X94036000Y-122553000D02*
X94036000Y-121093000D01*
X73156578Y-118058000D02*
X72639422Y-118058000D01*
X73156578Y-116638000D02*
X72639422Y-116638000D01*
X73152000Y-117348000D02*
X72644000Y-117348000D01*
X73025000Y-117348000D02*
X73025000Y-117094000D01*
X73025000Y-117094000D02*
X72771000Y-117094000D01*
X72771000Y-117094000D02*
X72771000Y-117602000D01*
X72771000Y-117602000D02*
X73025000Y-117602000D01*
X73025000Y-117602000D02*
X73025000Y-117348000D01*
X72898000Y-117602000D02*
X72898000Y-117094000D01*
X97611000Y-126360422D02*
X97611000Y-126877578D01*
X96191000Y-126360422D02*
X96191000Y-126877578D01*
X96901000Y-126365000D02*
X96901000Y-126873000D01*
X96901000Y-126492000D02*
X96647000Y-126492000D01*
X96647000Y-126492000D02*
X96647000Y-126746000D01*
X96647000Y-126746000D02*
X97155000Y-126746000D01*
X97155000Y-126746000D02*
X97155000Y-126492000D01*
X97155000Y-126492000D02*
X96901000Y-126492000D01*
X97155000Y-126619000D02*
X96647000Y-126619000D01*
X93166000Y-126360422D02*
X93166000Y-126877578D01*
X91746000Y-126360422D02*
X91746000Y-126877578D01*
X92456000Y-126365000D02*
X92456000Y-126873000D01*
X92456000Y-126492000D02*
X92202000Y-126492000D01*
X92202000Y-126492000D02*
X92202000Y-126746000D01*
X92202000Y-126746000D02*
X92710000Y-126746000D01*
X92710000Y-126746000D02*
X92710000Y-126492000D01*
X92710000Y-126492000D02*
X92456000Y-126492000D01*
X92710000Y-126619000D02*
X92202000Y-126619000D01*
X73156578Y-120471000D02*
X72639422Y-120471000D01*
X73156578Y-119051000D02*
X72639422Y-119051000D01*
X73152000Y-119761000D02*
X72644000Y-119761000D01*
X73025000Y-119761000D02*
X73025000Y-119507000D01*
X73025000Y-119507000D02*
X72771000Y-119507000D01*
X72771000Y-119507000D02*
X72771000Y-120015000D01*
X72771000Y-120015000D02*
X73025000Y-120015000D01*
X73025000Y-120015000D02*
X73025000Y-119761000D01*
X72898000Y-120015000D02*
X72898000Y-119507000D01*
X89356000Y-126360422D02*
X89356000Y-126877578D01*
X87936000Y-126360422D02*
X87936000Y-126877578D01*
X88646000Y-126365000D02*
X88646000Y-126873000D01*
X88646000Y-126492000D02*
X88392000Y-126492000D01*
X88392000Y-126492000D02*
X88392000Y-126746000D01*
X88392000Y-126746000D02*
X88900000Y-126746000D01*
X88900000Y-126746000D02*
X88900000Y-126492000D01*
X88900000Y-126492000D02*
X88646000Y-126492000D01*
X88900000Y-126619000D02*
X88392000Y-126619000D01*
X73664578Y-100278000D02*
X73147422Y-100278000D01*
X73664578Y-98858000D02*
X73147422Y-98858000D01*
X73660000Y-99568000D02*
X73152000Y-99568000D01*
X73533000Y-99568000D02*
X73533000Y-99314000D01*
X73533000Y-99314000D02*
X73279000Y-99314000D01*
X73279000Y-99314000D02*
X73279000Y-99822000D01*
X73279000Y-99822000D02*
X73533000Y-99822000D01*
X73533000Y-99822000D02*
X73533000Y-99568000D01*
X73406000Y-99822000D02*
X73406000Y-99314000D01*
X73664578Y-95790666D02*
X73147422Y-95790666D01*
X73664578Y-94370666D02*
X73147422Y-94370666D01*
X73660000Y-95080666D02*
X73152000Y-95080666D01*
X73533000Y-95080666D02*
X73533000Y-94826666D01*
X73533000Y-94826666D02*
X73279000Y-94826666D01*
X73279000Y-94826666D02*
X73279000Y-95334666D01*
X73279000Y-95334666D02*
X73533000Y-95334666D01*
X73533000Y-95334666D02*
X73533000Y-95080666D01*
X73406000Y-95334666D02*
X73406000Y-94826666D01*
X73664578Y-93547000D02*
X73147422Y-93547000D01*
X73664578Y-92127000D02*
X73147422Y-92127000D01*
X73660000Y-92837000D02*
X73152000Y-92837000D01*
X73533000Y-92837000D02*
X73533000Y-92583000D01*
X73533000Y-92583000D02*
X73279000Y-92583000D01*
X73279000Y-92583000D02*
X73279000Y-93091000D01*
X73279000Y-93091000D02*
X73533000Y-93091000D01*
X73533000Y-93091000D02*
X73533000Y-92837000D01*
X73406000Y-93091000D02*
X73406000Y-92583000D01*
X73664578Y-98034332D02*
X73147422Y-98034332D01*
X73664578Y-96614332D02*
X73147422Y-96614332D01*
X73660000Y-97324332D02*
X73152000Y-97324332D01*
X73533000Y-97324332D02*
X73533000Y-97070332D01*
X73533000Y-97070332D02*
X73279000Y-97070332D01*
X73279000Y-97070332D02*
X73279000Y-97578332D01*
X73279000Y-97578332D02*
X73533000Y-97578332D01*
X73533000Y-97578332D02*
X73533000Y-97324332D01*
X73406000Y-97578332D02*
X73406000Y-97070332D01*
X73156578Y-115518000D02*
X72639422Y-115518000D01*
X73156578Y-114098000D02*
X72639422Y-114098000D01*
X73152000Y-114808000D02*
X72644000Y-114808000D01*
X73025000Y-114808000D02*
X73025000Y-114554000D01*
X73025000Y-114554000D02*
X72771000Y-114554000D01*
X72771000Y-114554000D02*
X72771000Y-115062000D01*
X72771000Y-115062000D02*
X73025000Y-115062000D01*
X73025000Y-115062000D02*
X73025000Y-114808000D01*
X72898000Y-115062000D02*
X72898000Y-114554000D01*
X86031000Y-69219578D02*
X86031000Y-68702422D01*
X87451000Y-69219578D02*
X87451000Y-68702422D01*
X86741000Y-69215000D02*
X86741000Y-68707000D01*
X86741000Y-69088000D02*
X86995000Y-69088000D01*
X86995000Y-69088000D02*
X86995000Y-68834000D01*
X86995000Y-68834000D02*
X86487000Y-68834000D01*
X86487000Y-68834000D02*
X86487000Y-69088000D01*
X86487000Y-69088000D02*
X86741000Y-69088000D01*
X86487000Y-68961000D02*
X86995000Y-68961000D01*
X86031000Y-72775578D02*
X86031000Y-72258422D01*
X87451000Y-72775578D02*
X87451000Y-72258422D01*
X86741000Y-72771000D02*
X86741000Y-72263000D01*
X86741000Y-72644000D02*
X86995000Y-72644000D01*
X86995000Y-72644000D02*
X86995000Y-72390000D01*
X86995000Y-72390000D02*
X86487000Y-72390000D01*
X86487000Y-72390000D02*
X86487000Y-72644000D01*
X86487000Y-72644000D02*
X86741000Y-72644000D01*
X86487000Y-72517000D02*
X86995000Y-72517000D01*
X83951578Y-73227000D02*
X83434422Y-73227000D01*
X83951578Y-71807000D02*
X83434422Y-71807000D01*
X83947000Y-72517000D02*
X83439000Y-72517000D01*
X83820000Y-72517000D02*
X83820000Y-72263000D01*
X83820000Y-72263000D02*
X83566000Y-72263000D01*
X83566000Y-72263000D02*
X83566000Y-72771000D01*
X83566000Y-72771000D02*
X83820000Y-72771000D01*
X83820000Y-72771000D02*
X83820000Y-72517000D01*
X83693000Y-72771000D02*
X83693000Y-72263000D01*
X78430000Y-121922000D02*
X79360000Y-121922000D01*
X81590000Y-121922000D02*
X80660000Y-121922000D01*
X81590000Y-121922000D02*
X81590000Y-124082000D01*
X78430000Y-121922000D02*
X78430000Y-123382000D01*
X98735000Y-122553000D02*
X97805000Y-122553000D01*
X95575000Y-122553000D02*
X96505000Y-122553000D01*
X95575000Y-122553000D02*
X95575000Y-120393000D01*
X98735000Y-122553000D02*
X98735000Y-121093000D01*
X74493000Y-121922000D02*
X75423000Y-121922000D01*
X77653000Y-121922000D02*
X76723000Y-121922000D01*
X77653000Y-121922000D02*
X77653000Y-124082000D01*
X74493000Y-121922000D02*
X74493000Y-123382000D01*
X90226000Y-122680000D02*
X89296000Y-122680000D01*
X87066000Y-122680000D02*
X87996000Y-122680000D01*
X87066000Y-122680000D02*
X87066000Y-120520000D01*
X90226000Y-122680000D02*
X90226000Y-121220000D01*
X75763000Y-100967000D02*
X76693000Y-100967000D01*
X78923000Y-100967000D02*
X77993000Y-100967000D01*
X78923000Y-100967000D02*
X78923000Y-103127000D01*
X75763000Y-100967000D02*
X75763000Y-102427000D01*
X82987000Y-90803000D02*
X82057000Y-90803000D01*
X79827000Y-90803000D02*
X80757000Y-90803000D01*
X79827000Y-90803000D02*
X79827000Y-88643000D01*
X82987000Y-90803000D02*
X82987000Y-89343000D01*
X79177000Y-90803000D02*
X78247000Y-90803000D01*
X76017000Y-90803000D02*
X76947000Y-90803000D01*
X76017000Y-90803000D02*
X76017000Y-88643000D01*
X79177000Y-90803000D02*
X79177000Y-89343000D01*
X79827000Y-100967000D02*
X80757000Y-100967000D01*
X82987000Y-100967000D02*
X82057000Y-100967000D01*
X82987000Y-100967000D02*
X82987000Y-103127000D01*
X79827000Y-100967000D02*
X79827000Y-102427000D01*
X79558000Y-111123000D02*
X78628000Y-111123000D01*
X76398000Y-111123000D02*
X77328000Y-111123000D01*
X76398000Y-111123000D02*
X76398000Y-108963000D01*
X79558000Y-111123000D02*
X79558000Y-109663000D01*
X94540000Y-114812578D02*
X94540000Y-114295422D01*
X95960000Y-114812578D02*
X95960000Y-114295422D01*
X95631000Y-114681000D02*
X94996000Y-114681000D01*
X95631000Y-114427000D02*
X94996000Y-114427000D01*
X95250000Y-114681000D02*
X95250000Y-114808000D01*
X95250000Y-114427000D02*
X95250000Y-114300000D01*
X94996000Y-114427000D02*
X94869000Y-114427000D01*
X94996000Y-114681000D02*
X94869000Y-114681000D01*
X92079578Y-104342000D02*
X91562422Y-104342000D01*
X92079578Y-102922000D02*
X91562422Y-102922000D01*
X91948000Y-103251000D02*
X91948000Y-103886000D01*
X91694000Y-103251000D02*
X91694000Y-103886000D01*
X91948000Y-103632000D02*
X92075000Y-103632000D01*
X91694000Y-103632000D02*
X91567000Y-103632000D01*
X91694000Y-103886000D02*
X91694000Y-104013000D01*
X91948000Y-103886000D02*
X91948000Y-104013000D01*
X108383000Y-114685578D02*
X108383000Y-114168422D01*
X109803000Y-114685578D02*
X109803000Y-114168422D01*
X109474000Y-114554000D02*
X108839000Y-114554000D01*
X109474000Y-114300000D02*
X108839000Y-114300000D01*
X109093000Y-114554000D02*
X109093000Y-114681000D01*
X109093000Y-114300000D02*
X109093000Y-114173000D01*
X108839000Y-114300000D02*
X108712000Y-114300000D01*
X108839000Y-114554000D02*
X108712000Y-114554000D01*
X83434422Y-74093000D02*
X83951578Y-74093000D01*
X83434422Y-75513000D02*
X83951578Y-75513000D01*
X83566000Y-75184000D02*
X83566000Y-74549000D01*
X83820000Y-75184000D02*
X83820000Y-74549000D01*
X83566000Y-74803000D02*
X83439000Y-74803000D01*
X83820000Y-74803000D02*
X83947000Y-74803000D01*
X83820000Y-74549000D02*
X83820000Y-74422000D01*
X83566000Y-74549000D02*
X83566000Y-74422000D01*
X83951578Y-71322000D02*
X83434422Y-71322000D01*
X83951578Y-69902000D02*
X83434422Y-69902000D01*
X83820000Y-70231000D02*
X83820000Y-70866000D01*
X83566000Y-70231000D02*
X83566000Y-70866000D01*
X83820000Y-70612000D02*
X83947000Y-70612000D01*
X83566000Y-70612000D02*
X83439000Y-70612000D01*
X83566000Y-70866000D02*
X83566000Y-70993000D01*
X83820000Y-70866000D02*
X83820000Y-70993000D01*
X96134422Y-78919000D02*
X96651578Y-78919000D01*
X96134422Y-80339000D02*
X96651578Y-80339000D01*
X96266000Y-80010000D02*
X96266000Y-79375000D01*
X96520000Y-80010000D02*
X96520000Y-79375000D01*
X96266000Y-79629000D02*
X96139000Y-79629000D01*
X96520000Y-79629000D02*
X96647000Y-79629000D01*
X96520000Y-79375000D02*
X96520000Y-79248000D01*
X96266000Y-79375000D02*
X96266000Y-79248000D01*
X91134000Y-85339422D02*
X91134000Y-85856578D01*
X89714000Y-85339422D02*
X89714000Y-85856578D01*
X90043000Y-85471000D02*
X90678000Y-85471000D01*
X90043000Y-85725000D02*
X90678000Y-85725000D01*
X90424000Y-85471000D02*
X90424000Y-85344000D01*
X90424000Y-85725000D02*
X90424000Y-85852000D01*
X90678000Y-85725000D02*
X90805000Y-85725000D01*
X90678000Y-85471000D02*
X90805000Y-85471000D01*
X96134422Y-81205000D02*
X96651578Y-81205000D01*
X96134422Y-82625000D02*
X96651578Y-82625000D01*
X96266000Y-82296000D02*
X96266000Y-81661000D01*
X96520000Y-82296000D02*
X96520000Y-81661000D01*
X96266000Y-81915000D02*
X96139000Y-81915000D01*
X96520000Y-81915000D02*
X96647000Y-81915000D01*
X96520000Y-81661000D02*
X96520000Y-81534000D01*
X96266000Y-81661000D02*
X96266000Y-81534000D01*
X98477000Y-72394578D02*
X98477000Y-71877422D01*
X99897000Y-72394578D02*
X99897000Y-71877422D01*
X99568000Y-72263000D02*
X98933000Y-72263000D01*
X99568000Y-72009000D02*
X98933000Y-72009000D01*
X99187000Y-72263000D02*
X99187000Y-72390000D01*
X99187000Y-72009000D02*
X99187000Y-71882000D01*
X98933000Y-72009000D02*
X98806000Y-72009000D01*
X98933000Y-72263000D02*
X98806000Y-72263000D01*
X85760779Y-76706000D02*
X85435221Y-76706000D01*
X85760779Y-77726000D02*
X85435221Y-77726000D01*
X87882000Y-85562221D02*
X87882000Y-85887779D01*
X88902000Y-85562221D02*
X88902000Y-85887779D01*
X137416000Y-95285779D02*
X137416000Y-94960221D01*
X136396000Y-95285779D02*
X136396000Y-94960221D01*
X136523000Y-98770221D02*
X136523000Y-99095779D01*
X137543000Y-98770221D02*
X137543000Y-99095779D01*
X137416000Y-103413779D02*
X137416000Y-103088221D01*
X136396000Y-103413779D02*
X136396000Y-103088221D01*
X136269000Y-107279221D02*
X136269000Y-107604779D01*
X137289000Y-107279221D02*
X137289000Y-107604779D01*
X88900000Y-106423000D02*
X91660000Y-106423000D01*
X91660000Y-106423000D02*
X91660000Y-107263000D01*
X88900000Y-106423000D02*
X86140000Y-106423000D01*
X86140000Y-106423000D02*
X86140000Y-107263000D01*
X88900000Y-116843000D02*
X91660000Y-116843000D01*
X91660000Y-116843000D02*
X91660000Y-116003000D01*
X88900000Y-116843000D02*
X86140000Y-116843000D01*
X86140000Y-116843000D02*
X86140000Y-116003000D01*
X86140000Y-116003000D02*
X84450000Y-116003000D01*
X88900000Y-91564000D02*
X91660000Y-91564000D01*
X91660000Y-91564000D02*
X91660000Y-92404000D01*
X88900000Y-91564000D02*
X86140000Y-91564000D01*
X86140000Y-91564000D02*
X86140000Y-92404000D01*
X88900000Y-101984000D02*
X91660000Y-101984000D01*
X91660000Y-101984000D02*
X91660000Y-101144000D01*
X88900000Y-101984000D02*
X86140000Y-101984000D01*
X86140000Y-101984000D02*
X86140000Y-101144000D01*
X86140000Y-101144000D02*
X84450000Y-101144000D01*
X80894000Y-85198000D02*
X80894000Y-83938000D01*
X80894000Y-78378000D02*
X80894000Y-79638000D01*
X84654000Y-85198000D02*
X80894000Y-85198000D01*
X86904000Y-78378000D02*
X80894000Y-78378000D01*
X90667000Y-79543000D02*
X92467000Y-79543000D01*
X92467000Y-82763000D02*
X90017000Y-82763000D01*
X108729000Y-68704000D02*
X108729000Y-66404000D01*
X108729000Y-66404000D02*
X101329000Y-66404000D01*
X101329000Y-66404000D02*
X101329000Y-68704000D01*
X101329000Y-71504000D02*
X101329000Y-73804000D01*
X101329000Y-73804000D02*
X108729000Y-73804000D01*
X108729000Y-73804000D02*
X108729000Y-71504000D01*
X70790000Y-65866000D02*
G75*
G03*
X70790000Y-65866000I-2210000J0D01*
G01*
X70790000Y-80866000D02*
G75*
G03*
X70790000Y-80866000I-2210000J0D01*
G01*
X91432748Y-77545000D02*
X91955252Y-77545000D01*
X91432748Y-76125000D02*
X91955252Y-76125000D01*
X94783000Y-65548000D02*
X94783000Y-67548000D01*
X94783000Y-67548000D02*
X90933000Y-67548000D01*
X94783000Y-65548000D02*
X90933000Y-65548000D01*
D10*
X94706000Y-74226000D02*
X90206000Y-74226000D01*
X95831000Y-68676000D02*
X90206000Y-68676000D01*
D12*
X104953000Y-75065000D02*
X108838000Y-75065000D01*
X108838000Y-75065000D02*
X108838000Y-77335000D01*
X108838000Y-77335000D02*
X104953000Y-77335000D01*
X98842000Y-77200000D02*
X98842000Y-75200000D01*
X98842000Y-75200000D02*
X102742000Y-75200000D01*
X98842000Y-77200000D02*
X102742000Y-77200000D01*
M02*
