G04 #@! TF.GenerationSoftware,KiCad,Pcbnew,(5.1.6)-1*
G04 #@! TF.CreationDate,2020-05-29T22:16:18+02:00*
G04 #@! TF.ProjectId,TMC51604Axis,544d4335-3136-4303-9441-7869732e6b69,rev?*
G04 #@! TF.SameCoordinates,Original*
G04 #@! TF.FileFunction,Legend,Bot*
G04 #@! TF.FilePolarity,Positive*
%FSLAX46Y46*%
G04 Gerber Fmt 4.6, Leading zero omitted, Abs format (unit mm)*
G04 Created by KiCad (PCBNEW (5.1.6)-1) date 2020-05-29 22:16:18*
%MOMM*%
%LPD*%
G01*
G04 APERTURE LIST*
%ADD10C,0.400000*%
%ADD11C,0.200000*%
%ADD12C,0.120000*%
%ADD13C,0.150000*%
G04 APERTURE END LIST*
D10*
X110616809Y-129048000D02*
X110807285Y-128952761D01*
X111093000Y-128952761D01*
X111378714Y-129048000D01*
X111569190Y-129238476D01*
X111664428Y-129428952D01*
X111759666Y-129809904D01*
X111759666Y-130095619D01*
X111664428Y-130476571D01*
X111569190Y-130667047D01*
X111378714Y-130857523D01*
X111093000Y-130952761D01*
X110902523Y-130952761D01*
X110616809Y-130857523D01*
X110521571Y-130762285D01*
X110521571Y-130095619D01*
X110902523Y-130095619D01*
X109664428Y-130952761D02*
X109664428Y-128952761D01*
X108521571Y-130952761D01*
X108521571Y-128952761D01*
X107569190Y-130952761D02*
X107569190Y-128952761D01*
X107093000Y-128952761D01*
X106807285Y-129048000D01*
X106616809Y-129238476D01*
X106521571Y-129428952D01*
X106426333Y-129809904D01*
X106426333Y-130095619D01*
X106521571Y-130476571D01*
X106616809Y-130667047D01*
X106807285Y-130857523D01*
X107093000Y-130952761D01*
X107569190Y-130952761D01*
D11*
X102893571Y-133373761D02*
X102750714Y-133421380D01*
X102512619Y-133421380D01*
X102417380Y-133373761D01*
X102369761Y-133326142D01*
X102322142Y-133230904D01*
X102322142Y-133135666D01*
X102369761Y-133040428D01*
X102417380Y-132992809D01*
X102512619Y-132945190D01*
X102703095Y-132897571D01*
X102798333Y-132849952D01*
X102845952Y-132802333D01*
X102893571Y-132707095D01*
X102893571Y-132611857D01*
X102845952Y-132516619D01*
X102798333Y-132469000D01*
X102703095Y-132421380D01*
X102465000Y-132421380D01*
X102322142Y-132469000D01*
X101893571Y-132754714D02*
X101893571Y-133754714D01*
X101893571Y-132802333D02*
X101798333Y-132754714D01*
X101607857Y-132754714D01*
X101512619Y-132802333D01*
X101465000Y-132849952D01*
X101417380Y-132945190D01*
X101417380Y-133230904D01*
X101465000Y-133326142D01*
X101512619Y-133373761D01*
X101607857Y-133421380D01*
X101798333Y-133421380D01*
X101893571Y-133373761D01*
X100560238Y-133421380D02*
X100560238Y-132897571D01*
X100607857Y-132802333D01*
X100703095Y-132754714D01*
X100893571Y-132754714D01*
X100988809Y-132802333D01*
X100560238Y-133373761D02*
X100655476Y-133421380D01*
X100893571Y-133421380D01*
X100988809Y-133373761D01*
X101036428Y-133278523D01*
X101036428Y-133183285D01*
X100988809Y-133088047D01*
X100893571Y-133040428D01*
X100655476Y-133040428D01*
X100560238Y-132992809D01*
X100084047Y-133421380D02*
X100084047Y-132754714D01*
X100084047Y-132945190D02*
X100036428Y-132849952D01*
X99988809Y-132802333D01*
X99893571Y-132754714D01*
X99798333Y-132754714D01*
X99084047Y-133373761D02*
X99179285Y-133421380D01*
X99369761Y-133421380D01*
X99465000Y-133373761D01*
X99512619Y-133278523D01*
X99512619Y-132897571D01*
X99465000Y-132802333D01*
X99369761Y-132754714D01*
X99179285Y-132754714D01*
X99084047Y-132802333D01*
X99036428Y-132897571D01*
X99036428Y-132992809D01*
X99512619Y-133088047D01*
D10*
X97472428Y-134127761D02*
X97472428Y-132127761D01*
X96329571Y-134127761D01*
X96329571Y-132127761D01*
X91932142Y-133207142D02*
X91646428Y-133302380D01*
X91551190Y-133397619D01*
X91455952Y-133588095D01*
X91455952Y-133873809D01*
X91551190Y-134064285D01*
X91646428Y-134159523D01*
X91836904Y-134254761D01*
X92598809Y-134254761D01*
X92598809Y-132254761D01*
X91932142Y-132254761D01*
X91741666Y-132350000D01*
X91646428Y-132445238D01*
X91551190Y-132635714D01*
X91551190Y-132826190D01*
X91646428Y-133016666D01*
X91741666Y-133111904D01*
X91932142Y-133207142D01*
X92598809Y-133207142D01*
X88995190Y-133683333D02*
X88042809Y-133683333D01*
X89185666Y-134254761D02*
X88519000Y-132254761D01*
X87852333Y-134254761D01*
X82803666Y-129333761D02*
X82137000Y-131333761D01*
X81470333Y-129333761D01*
X79660809Y-131143285D02*
X79756047Y-131238523D01*
X80041761Y-131333761D01*
X80232238Y-131333761D01*
X80517952Y-131238523D01*
X80708428Y-131048047D01*
X80803666Y-130857571D01*
X80898904Y-130476619D01*
X80898904Y-130190904D01*
X80803666Y-129809952D01*
X80708428Y-129619476D01*
X80517952Y-129429000D01*
X80232238Y-129333761D01*
X80041761Y-129333761D01*
X79756047Y-129429000D01*
X79660809Y-129524238D01*
X77660809Y-131143285D02*
X77756047Y-131238523D01*
X78041761Y-131333761D01*
X78232238Y-131333761D01*
X78517952Y-131238523D01*
X78708428Y-131048047D01*
X78803666Y-130857571D01*
X78898904Y-130476619D01*
X78898904Y-130190904D01*
X78803666Y-129809952D01*
X78708428Y-129619476D01*
X78517952Y-129429000D01*
X78232238Y-129333761D01*
X78041761Y-129333761D01*
X77756047Y-129429000D01*
X77660809Y-129524238D01*
D11*
X90257714Y-127071428D02*
X90591047Y-127071428D01*
X90733904Y-126547619D02*
X90257714Y-126547619D01*
X90257714Y-127547619D01*
X90733904Y-127547619D01*
X91162476Y-126547619D02*
X91162476Y-127547619D01*
X91733904Y-126547619D01*
X91733904Y-127547619D01*
X92781523Y-126642857D02*
X92733904Y-126595238D01*
X92591047Y-126547619D01*
X92495809Y-126547619D01*
X92352952Y-126595238D01*
X92257714Y-126690476D01*
X92210095Y-126785714D01*
X92162476Y-126976190D01*
X92162476Y-127119047D01*
X92210095Y-127309523D01*
X92257714Y-127404761D01*
X92352952Y-127500000D01*
X92495809Y-127547619D01*
X92591047Y-127547619D01*
X92733904Y-127500000D01*
X92781523Y-127452380D01*
X93400571Y-127547619D02*
X93591047Y-127547619D01*
X93686285Y-127500000D01*
X93781523Y-127404761D01*
X93829142Y-127214285D01*
X93829142Y-126880952D01*
X93781523Y-126690476D01*
X93686285Y-126595238D01*
X93591047Y-126547619D01*
X93400571Y-126547619D01*
X93305333Y-126595238D01*
X93210095Y-126690476D01*
X93162476Y-126880952D01*
X93162476Y-127214285D01*
X93210095Y-127404761D01*
X93305333Y-127500000D01*
X93400571Y-127547619D01*
X94257714Y-126547619D02*
X94257714Y-127547619D01*
X94495809Y-127547619D01*
X94638666Y-127500000D01*
X94733904Y-127404761D01*
X94781523Y-127309523D01*
X94829142Y-127119047D01*
X94829142Y-126976190D01*
X94781523Y-126785714D01*
X94733904Y-126690476D01*
X94638666Y-126595238D01*
X94495809Y-126547619D01*
X94257714Y-126547619D01*
X95257714Y-127071428D02*
X95591047Y-127071428D01*
X95733904Y-126547619D02*
X95257714Y-126547619D01*
X95257714Y-127547619D01*
X95733904Y-127547619D01*
X96733904Y-126547619D02*
X96400571Y-127023809D01*
X96162476Y-126547619D02*
X96162476Y-127547619D01*
X96543428Y-127547619D01*
X96638666Y-127500000D01*
X96686285Y-127452380D01*
X96733904Y-127357142D01*
X96733904Y-127214285D01*
X96686285Y-127119047D01*
X96638666Y-127071428D01*
X96543428Y-127023809D01*
X96162476Y-127023809D01*
X64539761Y-111173190D02*
X64587380Y-111316047D01*
X64587380Y-111554142D01*
X64539761Y-111649380D01*
X64492142Y-111697000D01*
X64396904Y-111744619D01*
X64301666Y-111744619D01*
X64206428Y-111697000D01*
X64158809Y-111649380D01*
X64111190Y-111554142D01*
X64063571Y-111363666D01*
X64015952Y-111268428D01*
X63968333Y-111220809D01*
X63873095Y-111173190D01*
X63777857Y-111173190D01*
X63682619Y-111220809D01*
X63635000Y-111268428D01*
X63587380Y-111363666D01*
X63587380Y-111601761D01*
X63635000Y-111744619D01*
X63587380Y-112030333D02*
X63587380Y-112601761D01*
X64587380Y-112316047D02*
X63587380Y-112316047D01*
X64063571Y-112935095D02*
X64063571Y-113268428D01*
X64587380Y-113411285D02*
X64587380Y-112935095D01*
X63587380Y-112935095D01*
X63587380Y-113411285D01*
X64587380Y-113839857D02*
X63587380Y-113839857D01*
X63587380Y-114220809D01*
X63635000Y-114316047D01*
X63682619Y-114363666D01*
X63777857Y-114411285D01*
X63920714Y-114411285D01*
X64015952Y-114363666D01*
X64063571Y-114316047D01*
X64111190Y-114220809D01*
X64111190Y-113839857D01*
X63539761Y-115554142D02*
X64825476Y-114697000D01*
X64587380Y-115887476D02*
X63587380Y-115887476D01*
X63587380Y-116125571D01*
X63635000Y-116268428D01*
X63730238Y-116363666D01*
X63825476Y-116411285D01*
X64015952Y-116458904D01*
X64158809Y-116458904D01*
X64349285Y-116411285D01*
X64444523Y-116363666D01*
X64539761Y-116268428D01*
X64587380Y-116125571D01*
X64587380Y-115887476D01*
X64587380Y-116887476D02*
X63587380Y-116887476D01*
X64587380Y-117935095D02*
X64111190Y-117601761D01*
X64587380Y-117363666D02*
X63587380Y-117363666D01*
X63587380Y-117744619D01*
X63635000Y-117839857D01*
X63682619Y-117887476D01*
X63777857Y-117935095D01*
X63920714Y-117935095D01*
X64015952Y-117887476D01*
X64063571Y-117839857D01*
X64111190Y-117744619D01*
X64111190Y-117363666D01*
X64587380Y-119125571D02*
X63587380Y-119125571D01*
X64587380Y-119601761D02*
X63587380Y-119601761D01*
X64587380Y-120173190D01*
X63587380Y-120173190D01*
X64539761Y-93464333D02*
X64587380Y-93607190D01*
X64587380Y-93845285D01*
X64539761Y-93940523D01*
X64492142Y-93988142D01*
X64396904Y-94035761D01*
X64301666Y-94035761D01*
X64206428Y-93988142D01*
X64158809Y-93940523D01*
X64111190Y-93845285D01*
X64063571Y-93654809D01*
X64015952Y-93559571D01*
X63968333Y-93511952D01*
X63873095Y-93464333D01*
X63777857Y-93464333D01*
X63682619Y-93511952D01*
X63635000Y-93559571D01*
X63587380Y-93654809D01*
X63587380Y-93892904D01*
X63635000Y-94035761D01*
X64587380Y-94464333D02*
X63587380Y-94464333D01*
X63587380Y-94845285D01*
X63635000Y-94940523D01*
X63682619Y-94988142D01*
X63777857Y-95035761D01*
X63920714Y-95035761D01*
X64015952Y-94988142D01*
X64063571Y-94940523D01*
X64111190Y-94845285D01*
X64111190Y-94464333D01*
X64587380Y-95464333D02*
X63587380Y-95464333D01*
X64587380Y-96702428D02*
X63587380Y-96702428D01*
X64587380Y-97178619D02*
X63587380Y-97178619D01*
X64587380Y-97750047D01*
X63587380Y-97750047D01*
X64206428Y-68993238D02*
X64206428Y-69755142D01*
X64587380Y-69374190D02*
X63825476Y-69374190D01*
X63920714Y-70659904D02*
X64587380Y-70659904D01*
X63539761Y-70421809D02*
X64254047Y-70183714D01*
X64254047Y-70802761D01*
X64015952Y-71326571D02*
X63968333Y-71231333D01*
X63920714Y-71183714D01*
X63825476Y-71136095D01*
X63777857Y-71136095D01*
X63682619Y-71183714D01*
X63635000Y-71231333D01*
X63587380Y-71326571D01*
X63587380Y-71517047D01*
X63635000Y-71612285D01*
X63682619Y-71659904D01*
X63777857Y-71707523D01*
X63825476Y-71707523D01*
X63920714Y-71659904D01*
X63968333Y-71612285D01*
X64015952Y-71517047D01*
X64015952Y-71326571D01*
X64063571Y-71231333D01*
X64111190Y-71183714D01*
X64206428Y-71136095D01*
X64396904Y-71136095D01*
X64492142Y-71183714D01*
X64539761Y-71231333D01*
X64587380Y-71326571D01*
X64587380Y-71517047D01*
X64539761Y-71612285D01*
X64492142Y-71659904D01*
X64396904Y-71707523D01*
X64206428Y-71707523D01*
X64111190Y-71659904D01*
X64063571Y-71612285D01*
X64015952Y-71517047D01*
X63587380Y-71993238D02*
X64587380Y-72326571D01*
X63587380Y-72659904D01*
X64587380Y-72993238D02*
X63587380Y-72993238D01*
X63587380Y-73231333D01*
X63635000Y-73374190D01*
X63730238Y-73469428D01*
X63825476Y-73517047D01*
X64015952Y-73564666D01*
X64158809Y-73564666D01*
X64349285Y-73517047D01*
X64444523Y-73469428D01*
X64539761Y-73374190D01*
X64587380Y-73231333D01*
X64587380Y-72993238D01*
X64492142Y-74564666D02*
X64539761Y-74517047D01*
X64587380Y-74374190D01*
X64587380Y-74278952D01*
X64539761Y-74136095D01*
X64444523Y-74040857D01*
X64349285Y-73993238D01*
X64158809Y-73945619D01*
X64015952Y-73945619D01*
X63825476Y-73993238D01*
X63730238Y-74040857D01*
X63635000Y-74136095D01*
X63587380Y-74278952D01*
X63587380Y-74374190D01*
X63635000Y-74517047D01*
X63682619Y-74564666D01*
X64587380Y-75755142D02*
X63587380Y-75755142D01*
X64587380Y-76231333D02*
X63587380Y-76231333D01*
X64587380Y-76802761D01*
X63587380Y-76802761D01*
D10*
X130952761Y-106029190D02*
X128952761Y-106029190D01*
X128952761Y-106505380D01*
X129048000Y-106791095D01*
X129238476Y-106981571D01*
X129428952Y-107076809D01*
X129809904Y-107172047D01*
X130095619Y-107172047D01*
X130476571Y-107076809D01*
X130667047Y-106981571D01*
X130857523Y-106791095D01*
X130952761Y-106505380D01*
X130952761Y-106029190D01*
X130762285Y-103526094D02*
X130857523Y-103430856D01*
X130952761Y-103145142D01*
X130952761Y-102954666D01*
X130857523Y-102668951D01*
X130667047Y-102478475D01*
X130476571Y-102383237D01*
X130095619Y-102287999D01*
X129809904Y-102287999D01*
X129428952Y-102383237D01*
X129238476Y-102478475D01*
X129048000Y-102668951D01*
X128952761Y-102954666D01*
X128952761Y-103145142D01*
X129048000Y-103430856D01*
X129143238Y-103526094D01*
X129905142Y-99403952D02*
X130000380Y-99689666D01*
X130095619Y-99784904D01*
X130286095Y-99880142D01*
X130571809Y-99880142D01*
X130762285Y-99784904D01*
X130857523Y-99689666D01*
X130952761Y-99499190D01*
X130952761Y-98737285D01*
X128952761Y-98737285D01*
X128952761Y-99403952D01*
X129048000Y-99594428D01*
X129143238Y-99689666D01*
X129333714Y-99784904D01*
X129524190Y-99784904D01*
X129714666Y-99689666D01*
X129809904Y-99594428D01*
X129905142Y-99403952D01*
X129905142Y-98737285D01*
X130381333Y-95281809D02*
X130381333Y-96234190D01*
X130952761Y-95091333D02*
X128952761Y-95758000D01*
X130952761Y-96424666D01*
D11*
X125626761Y-96719047D02*
X125674380Y-96861904D01*
X125674380Y-97100000D01*
X125626761Y-97195238D01*
X125579142Y-97242857D01*
X125483904Y-97290476D01*
X125388666Y-97290476D01*
X125293428Y-97242857D01*
X125245809Y-97195238D01*
X125198190Y-97100000D01*
X125150571Y-96909523D01*
X125102952Y-96814285D01*
X125055333Y-96766666D01*
X124960095Y-96719047D01*
X124864857Y-96719047D01*
X124769619Y-96766666D01*
X124722000Y-96814285D01*
X124674380Y-96909523D01*
X124674380Y-97147619D01*
X124722000Y-97290476D01*
X124674380Y-97576190D02*
X124674380Y-98147619D01*
X125674380Y-97861904D02*
X124674380Y-97861904D01*
X125150571Y-98480952D02*
X125150571Y-98814285D01*
X125674380Y-98957142D02*
X125674380Y-98480952D01*
X124674380Y-98480952D01*
X124674380Y-98957142D01*
X125674380Y-99385714D02*
X124674380Y-99385714D01*
X124674380Y-99766666D01*
X124722000Y-99861904D01*
X124769619Y-99909523D01*
X124864857Y-99957142D01*
X125007714Y-99957142D01*
X125102952Y-99909523D01*
X125150571Y-99861904D01*
X125198190Y-99766666D01*
X125198190Y-99385714D01*
X125674380Y-100385714D02*
X124674380Y-100385714D01*
X124674380Y-100766666D01*
X124722000Y-100861904D01*
X124769619Y-100909523D01*
X124864857Y-100957142D01*
X125007714Y-100957142D01*
X125102952Y-100909523D01*
X125150571Y-100861904D01*
X125198190Y-100766666D01*
X125198190Y-100385714D01*
X125150571Y-101385714D02*
X125150571Y-101719047D01*
X125674380Y-101861904D02*
X125674380Y-101385714D01*
X124674380Y-101385714D01*
X124674380Y-101861904D01*
X125674380Y-102861904D02*
X125198190Y-102528571D01*
X125674380Y-102290476D02*
X124674380Y-102290476D01*
X124674380Y-102671428D01*
X124722000Y-102766666D01*
X124769619Y-102814285D01*
X124864857Y-102861904D01*
X125007714Y-102861904D01*
X125102952Y-102814285D01*
X125150571Y-102766666D01*
X125198190Y-102671428D01*
X125198190Y-102290476D01*
X124674380Y-104242857D02*
X124674380Y-104433333D01*
X124722000Y-104528571D01*
X124817238Y-104623809D01*
X125007714Y-104671428D01*
X125341047Y-104671428D01*
X125531523Y-104623809D01*
X125626761Y-104528571D01*
X125674380Y-104433333D01*
X125674380Y-104242857D01*
X125626761Y-104147619D01*
X125531523Y-104052380D01*
X125341047Y-104004761D01*
X125007714Y-104004761D01*
X124817238Y-104052380D01*
X124722000Y-104147619D01*
X124674380Y-104242857D01*
X124674380Y-105100000D02*
X125483904Y-105100000D01*
X125579142Y-105147619D01*
X125626761Y-105195238D01*
X125674380Y-105290476D01*
X125674380Y-105480952D01*
X125626761Y-105576190D01*
X125579142Y-105623809D01*
X125483904Y-105671428D01*
X124674380Y-105671428D01*
X124674380Y-106004761D02*
X124674380Y-106576190D01*
X125674380Y-106290476D02*
X124674380Y-106290476D01*
X129333047Y-132548380D02*
X129333047Y-133262666D01*
X129380666Y-133405523D01*
X129475904Y-133500761D01*
X129618761Y-133548380D01*
X129714000Y-133548380D01*
X128380666Y-133548380D02*
X128856857Y-133548380D01*
X128856857Y-132548380D01*
X127475904Y-133453142D02*
X127523523Y-133500761D01*
X127666380Y-133548380D01*
X127761619Y-133548380D01*
X127904476Y-133500761D01*
X127999714Y-133405523D01*
X128047333Y-133310285D01*
X128094952Y-133119809D01*
X128094952Y-132976952D01*
X128047333Y-132786476D01*
X127999714Y-132691238D01*
X127904476Y-132596000D01*
X127761619Y-132548380D01*
X127666380Y-132548380D01*
X127523523Y-132596000D01*
X127475904Y-132643619D01*
X126761619Y-132548380D02*
X126761619Y-133262666D01*
X126809238Y-133405523D01*
X126904476Y-133500761D01*
X127047333Y-133548380D01*
X127142571Y-133548380D01*
X125809238Y-133548380D02*
X126285428Y-133548380D01*
X126285428Y-132548380D01*
X124904476Y-133453142D02*
X124952095Y-133500761D01*
X125094952Y-133548380D01*
X125190190Y-133548380D01*
X125333047Y-133500761D01*
X125428285Y-133405523D01*
X125475904Y-133310285D01*
X125523523Y-133119809D01*
X125523523Y-132976952D01*
X125475904Y-132786476D01*
X125428285Y-132691238D01*
X125333047Y-132596000D01*
X125190190Y-132548380D01*
X125094952Y-132548380D01*
X124952095Y-132596000D01*
X124904476Y-132643619D01*
X124190190Y-132548380D02*
X124190190Y-133262666D01*
X124237809Y-133405523D01*
X124333047Y-133500761D01*
X124475904Y-133548380D01*
X124571142Y-133548380D01*
X123237809Y-133548380D02*
X123714000Y-133548380D01*
X123714000Y-132548380D01*
X122333047Y-133453142D02*
X122380666Y-133500761D01*
X122523523Y-133548380D01*
X122618761Y-133548380D01*
X122761619Y-133500761D01*
X122856857Y-133405523D01*
X122904476Y-133310285D01*
X122952095Y-133119809D01*
X122952095Y-132976952D01*
X122904476Y-132786476D01*
X122856857Y-132691238D01*
X122761619Y-132596000D01*
X122618761Y-132548380D01*
X122523523Y-132548380D01*
X122380666Y-132596000D01*
X122333047Y-132643619D01*
X121618761Y-132548380D02*
X121618761Y-133262666D01*
X121666380Y-133405523D01*
X121761619Y-133500761D01*
X121904476Y-133548380D01*
X121999714Y-133548380D01*
X120666380Y-133548380D02*
X121142571Y-133548380D01*
X121142571Y-132548380D01*
X119761619Y-133453142D02*
X119809238Y-133500761D01*
X119952095Y-133548380D01*
X120047333Y-133548380D01*
X120190190Y-133500761D01*
X120285428Y-133405523D01*
X120333047Y-133310285D01*
X120380666Y-133119809D01*
X120380666Y-132976952D01*
X120333047Y-132786476D01*
X120285428Y-132691238D01*
X120190190Y-132596000D01*
X120047333Y-132548380D01*
X119952095Y-132548380D01*
X119809238Y-132596000D01*
X119761619Y-132643619D01*
D12*
X82046578Y-126925000D02*
X81529422Y-126925000D01*
X82046578Y-128345000D02*
X81529422Y-128345000D01*
X102616000Y-106550000D02*
X105376000Y-106550000D01*
X105376000Y-106550000D02*
X105376000Y-107390000D01*
X102616000Y-106550000D02*
X99856000Y-106550000D01*
X99856000Y-106550000D02*
X99856000Y-107390000D01*
X102616000Y-116970000D02*
X105376000Y-116970000D01*
X105376000Y-116970000D02*
X105376000Y-116130000D01*
X102616000Y-116970000D02*
X99856000Y-116970000D01*
X99856000Y-116970000D02*
X99856000Y-116130000D01*
X99856000Y-116130000D02*
X98166000Y-116130000D01*
X91819000Y-120213000D02*
X91819000Y-121143000D01*
X91819000Y-123373000D02*
X91819000Y-122443000D01*
X91819000Y-123373000D02*
X89659000Y-123373000D01*
X91819000Y-120213000D02*
X90359000Y-120213000D01*
X73156578Y-118312000D02*
X72639422Y-118312000D01*
X73156578Y-116892000D02*
X72639422Y-116892000D01*
X73152000Y-117602000D02*
X72644000Y-117602000D01*
X73025000Y-117602000D02*
X73025000Y-117348000D01*
X73025000Y-117348000D02*
X72771000Y-117348000D01*
X72771000Y-117348000D02*
X72771000Y-117856000D01*
X72771000Y-117856000D02*
X73025000Y-117856000D01*
X73025000Y-117856000D02*
X73025000Y-117602000D01*
X72898000Y-117856000D02*
X72898000Y-117348000D01*
X97865000Y-125344422D02*
X97865000Y-125861578D01*
X96445000Y-125344422D02*
X96445000Y-125861578D01*
X97155000Y-125349000D02*
X97155000Y-125857000D01*
X97155000Y-125476000D02*
X96901000Y-125476000D01*
X96901000Y-125476000D02*
X96901000Y-125730000D01*
X96901000Y-125730000D02*
X97409000Y-125730000D01*
X97409000Y-125730000D02*
X97409000Y-125476000D01*
X97409000Y-125476000D02*
X97155000Y-125476000D01*
X97409000Y-125603000D02*
X96901000Y-125603000D01*
X93039000Y-125471422D02*
X93039000Y-125988578D01*
X91619000Y-125471422D02*
X91619000Y-125988578D01*
X92329000Y-125476000D02*
X92329000Y-125984000D01*
X92329000Y-125603000D02*
X92075000Y-125603000D01*
X92075000Y-125603000D02*
X92075000Y-125857000D01*
X92075000Y-125857000D02*
X92583000Y-125857000D01*
X92583000Y-125857000D02*
X92583000Y-125603000D01*
X92583000Y-125603000D02*
X92329000Y-125603000D01*
X92583000Y-125730000D02*
X92075000Y-125730000D01*
X73156578Y-120598000D02*
X72639422Y-120598000D01*
X73156578Y-119178000D02*
X72639422Y-119178000D01*
X73152000Y-119888000D02*
X72644000Y-119888000D01*
X73025000Y-119888000D02*
X73025000Y-119634000D01*
X73025000Y-119634000D02*
X72771000Y-119634000D01*
X72771000Y-119634000D02*
X72771000Y-120142000D01*
X72771000Y-120142000D02*
X73025000Y-120142000D01*
X73025000Y-120142000D02*
X73025000Y-119888000D01*
X72898000Y-120142000D02*
X72898000Y-119634000D01*
X89483000Y-125471422D02*
X89483000Y-125988578D01*
X88063000Y-125471422D02*
X88063000Y-125988578D01*
X88773000Y-125476000D02*
X88773000Y-125984000D01*
X88773000Y-125603000D02*
X88519000Y-125603000D01*
X88519000Y-125603000D02*
X88519000Y-125857000D01*
X88519000Y-125857000D02*
X89027000Y-125857000D01*
X89027000Y-125857000D02*
X89027000Y-125603000D01*
X89027000Y-125603000D02*
X88773000Y-125603000D01*
X89027000Y-125730000D02*
X88519000Y-125730000D01*
X73664578Y-100278000D02*
X73147422Y-100278000D01*
X73664578Y-98858000D02*
X73147422Y-98858000D01*
X73660000Y-99568000D02*
X73152000Y-99568000D01*
X73533000Y-99568000D02*
X73533000Y-99314000D01*
X73533000Y-99314000D02*
X73279000Y-99314000D01*
X73279000Y-99314000D02*
X73279000Y-99822000D01*
X73279000Y-99822000D02*
X73533000Y-99822000D01*
X73533000Y-99822000D02*
X73533000Y-99568000D01*
X73406000Y-99822000D02*
X73406000Y-99314000D01*
X73664578Y-95790666D02*
X73147422Y-95790666D01*
X73664578Y-94370666D02*
X73147422Y-94370666D01*
X73660000Y-95080666D02*
X73152000Y-95080666D01*
X73533000Y-95080666D02*
X73533000Y-94826666D01*
X73533000Y-94826666D02*
X73279000Y-94826666D01*
X73279000Y-94826666D02*
X73279000Y-95334666D01*
X73279000Y-95334666D02*
X73533000Y-95334666D01*
X73533000Y-95334666D02*
X73533000Y-95080666D01*
X73406000Y-95334666D02*
X73406000Y-94826666D01*
X73664578Y-93547000D02*
X73147422Y-93547000D01*
X73664578Y-92127000D02*
X73147422Y-92127000D01*
X73660000Y-92837000D02*
X73152000Y-92837000D01*
X73533000Y-92837000D02*
X73533000Y-92583000D01*
X73533000Y-92583000D02*
X73279000Y-92583000D01*
X73279000Y-92583000D02*
X73279000Y-93091000D01*
X73279000Y-93091000D02*
X73533000Y-93091000D01*
X73533000Y-93091000D02*
X73533000Y-92837000D01*
X73406000Y-93091000D02*
X73406000Y-92583000D01*
X73664578Y-98034332D02*
X73147422Y-98034332D01*
X73664578Y-96614332D02*
X73147422Y-96614332D01*
X73660000Y-97324332D02*
X73152000Y-97324332D01*
X73533000Y-97324332D02*
X73533000Y-97070332D01*
X73533000Y-97070332D02*
X73279000Y-97070332D01*
X73279000Y-97070332D02*
X73279000Y-97578332D01*
X73279000Y-97578332D02*
X73533000Y-97578332D01*
X73533000Y-97578332D02*
X73533000Y-97324332D01*
X73406000Y-97578332D02*
X73406000Y-97070332D01*
X73410578Y-113994000D02*
X72893422Y-113994000D01*
X73410578Y-112574000D02*
X72893422Y-112574000D01*
X73406000Y-113284000D02*
X72898000Y-113284000D01*
X73279000Y-113284000D02*
X73279000Y-113030000D01*
X73279000Y-113030000D02*
X73025000Y-113030000D01*
X73025000Y-113030000D02*
X73025000Y-113538000D01*
X73025000Y-113538000D02*
X73279000Y-113538000D01*
X73279000Y-113538000D02*
X73279000Y-113284000D01*
X73152000Y-113538000D02*
X73152000Y-113030000D01*
X85038000Y-72258422D02*
X85038000Y-72775578D01*
X83618000Y-72258422D02*
X83618000Y-72775578D01*
X84328000Y-72263000D02*
X84328000Y-72771000D01*
X84328000Y-72390000D02*
X84074000Y-72390000D01*
X84074000Y-72390000D02*
X84074000Y-72644000D01*
X84074000Y-72644000D02*
X84582000Y-72644000D01*
X84582000Y-72644000D02*
X84582000Y-72390000D01*
X84582000Y-72390000D02*
X84328000Y-72390000D01*
X84582000Y-72517000D02*
X84074000Y-72517000D01*
X85904000Y-72775578D02*
X85904000Y-72258422D01*
X87324000Y-72775578D02*
X87324000Y-72258422D01*
X86614000Y-72771000D02*
X86614000Y-72263000D01*
X86614000Y-72644000D02*
X86868000Y-72644000D01*
X86868000Y-72644000D02*
X86868000Y-72390000D01*
X86868000Y-72390000D02*
X86360000Y-72390000D01*
X86360000Y-72390000D02*
X86360000Y-72644000D01*
X86360000Y-72644000D02*
X86614000Y-72644000D01*
X86360000Y-72517000D02*
X86868000Y-72517000D01*
X82752000Y-72258422D02*
X82752000Y-72775578D01*
X81332000Y-72258422D02*
X81332000Y-72775578D01*
X82042000Y-72263000D02*
X82042000Y-72771000D01*
X82042000Y-72390000D02*
X81788000Y-72390000D01*
X81788000Y-72390000D02*
X81788000Y-72644000D01*
X81788000Y-72644000D02*
X82296000Y-72644000D01*
X82296000Y-72644000D02*
X82296000Y-72390000D01*
X82296000Y-72390000D02*
X82042000Y-72390000D01*
X82296000Y-72517000D02*
X81788000Y-72517000D01*
X79954000Y-121668000D02*
X80884000Y-121668000D01*
X83114000Y-121668000D02*
X82184000Y-121668000D01*
X83114000Y-121668000D02*
X83114000Y-123828000D01*
X79954000Y-121668000D02*
X79954000Y-123128000D01*
X96391000Y-120213000D02*
X96391000Y-121143000D01*
X96391000Y-123373000D02*
X96391000Y-122443000D01*
X96391000Y-123373000D02*
X94231000Y-123373000D01*
X96391000Y-120213000D02*
X94931000Y-120213000D01*
X75890000Y-121668000D02*
X76820000Y-121668000D01*
X79050000Y-121668000D02*
X78120000Y-121668000D01*
X79050000Y-121668000D02*
X79050000Y-123828000D01*
X75890000Y-121668000D02*
X75890000Y-123128000D01*
X87247000Y-120213000D02*
X87247000Y-121143000D01*
X87247000Y-123373000D02*
X87247000Y-122443000D01*
X87247000Y-123373000D02*
X85087000Y-123373000D01*
X87247000Y-120213000D02*
X85787000Y-120213000D01*
X75763000Y-100967000D02*
X76693000Y-100967000D01*
X78923000Y-100967000D02*
X77993000Y-100967000D01*
X78923000Y-100967000D02*
X78923000Y-103127000D01*
X75763000Y-100967000D02*
X75763000Y-102427000D01*
X82987000Y-90803000D02*
X82057000Y-90803000D01*
X79827000Y-90803000D02*
X80757000Y-90803000D01*
X79827000Y-90803000D02*
X79827000Y-88643000D01*
X82987000Y-90803000D02*
X82987000Y-89343000D01*
X79177000Y-90803000D02*
X78247000Y-90803000D01*
X76017000Y-90803000D02*
X76947000Y-90803000D01*
X76017000Y-90803000D02*
X76017000Y-88643000D01*
X79177000Y-90803000D02*
X79177000Y-89343000D01*
X79827000Y-100967000D02*
X80757000Y-100967000D01*
X82987000Y-100967000D02*
X82057000Y-100967000D01*
X82987000Y-100967000D02*
X82987000Y-103127000D01*
X79827000Y-100967000D02*
X79827000Y-102427000D01*
X79558000Y-111123000D02*
X78628000Y-111123000D01*
X76398000Y-111123000D02*
X77328000Y-111123000D01*
X76398000Y-111123000D02*
X76398000Y-108963000D01*
X79558000Y-111123000D02*
X79558000Y-109663000D01*
X94540000Y-114812578D02*
X94540000Y-114295422D01*
X95960000Y-114812578D02*
X95960000Y-114295422D01*
X95631000Y-114681000D02*
X94996000Y-114681000D01*
X95631000Y-114427000D02*
X94996000Y-114427000D01*
X95250000Y-114681000D02*
X95250000Y-114808000D01*
X95250000Y-114427000D02*
X95250000Y-114300000D01*
X94996000Y-114427000D02*
X94869000Y-114427000D01*
X94996000Y-114681000D02*
X94869000Y-114681000D01*
X92079578Y-104342000D02*
X91562422Y-104342000D01*
X92079578Y-102922000D02*
X91562422Y-102922000D01*
X91948000Y-103251000D02*
X91948000Y-103886000D01*
X91694000Y-103251000D02*
X91694000Y-103886000D01*
X91948000Y-103632000D02*
X92075000Y-103632000D01*
X91694000Y-103632000D02*
X91567000Y-103632000D01*
X91694000Y-103886000D02*
X91694000Y-104013000D01*
X91948000Y-103886000D02*
X91948000Y-104013000D01*
X108383000Y-114685578D02*
X108383000Y-114168422D01*
X109803000Y-114685578D02*
X109803000Y-114168422D01*
X109474000Y-114554000D02*
X108839000Y-114554000D01*
X109474000Y-114300000D02*
X108839000Y-114300000D01*
X109093000Y-114554000D02*
X109093000Y-114681000D01*
X109093000Y-114300000D02*
X109093000Y-114173000D01*
X108839000Y-114300000D02*
X108712000Y-114300000D01*
X108839000Y-114554000D02*
X108712000Y-114554000D01*
X82752000Y-75814422D02*
X82752000Y-76331578D01*
X81332000Y-75814422D02*
X81332000Y-76331578D01*
X81661000Y-75946000D02*
X82296000Y-75946000D01*
X81661000Y-76200000D02*
X82296000Y-76200000D01*
X82042000Y-75946000D02*
X82042000Y-75819000D01*
X82042000Y-76200000D02*
X82042000Y-76327000D01*
X82296000Y-76200000D02*
X82423000Y-76200000D01*
X82296000Y-75946000D02*
X82423000Y-75946000D01*
X80466000Y-72258422D02*
X80466000Y-72775578D01*
X79046000Y-72258422D02*
X79046000Y-72775578D01*
X79375000Y-72390000D02*
X80010000Y-72390000D01*
X79375000Y-72644000D02*
X80010000Y-72644000D01*
X79756000Y-72390000D02*
X79756000Y-72263000D01*
X79756000Y-72644000D02*
X79756000Y-72771000D01*
X80010000Y-72644000D02*
X80137000Y-72644000D01*
X80010000Y-72390000D02*
X80137000Y-72390000D01*
X96134422Y-78919000D02*
X96651578Y-78919000D01*
X96134422Y-80339000D02*
X96651578Y-80339000D01*
X96266000Y-80010000D02*
X96266000Y-79375000D01*
X96520000Y-80010000D02*
X96520000Y-79375000D01*
X96266000Y-79629000D02*
X96139000Y-79629000D01*
X96520000Y-79629000D02*
X96647000Y-79629000D01*
X96520000Y-79375000D02*
X96520000Y-79248000D01*
X96266000Y-79375000D02*
X96266000Y-79248000D01*
X91134000Y-85339422D02*
X91134000Y-85856578D01*
X89714000Y-85339422D02*
X89714000Y-85856578D01*
X90043000Y-85471000D02*
X90678000Y-85471000D01*
X90043000Y-85725000D02*
X90678000Y-85725000D01*
X90424000Y-85471000D02*
X90424000Y-85344000D01*
X90424000Y-85725000D02*
X90424000Y-85852000D01*
X90678000Y-85725000D02*
X90805000Y-85725000D01*
X90678000Y-85471000D02*
X90805000Y-85471000D01*
X96134422Y-81205000D02*
X96651578Y-81205000D01*
X96134422Y-82625000D02*
X96651578Y-82625000D01*
X96266000Y-82296000D02*
X96266000Y-81661000D01*
X96520000Y-82296000D02*
X96520000Y-81661000D01*
X96266000Y-81915000D02*
X96139000Y-81915000D01*
X96520000Y-81915000D02*
X96647000Y-81915000D01*
X96520000Y-81661000D02*
X96520000Y-81534000D01*
X96266000Y-81661000D02*
X96266000Y-81534000D01*
X98477000Y-72394578D02*
X98477000Y-71877422D01*
X99897000Y-72394578D02*
X99897000Y-71877422D01*
X99568000Y-72263000D02*
X98933000Y-72263000D01*
X99568000Y-72009000D02*
X98933000Y-72009000D01*
X99187000Y-72263000D02*
X99187000Y-72390000D01*
X99187000Y-72009000D02*
X99187000Y-71882000D01*
X98933000Y-72009000D02*
X98806000Y-72009000D01*
X98933000Y-72263000D02*
X98806000Y-72263000D01*
X85760779Y-75944000D02*
X85435221Y-75944000D01*
X85760779Y-76964000D02*
X85435221Y-76964000D01*
X87882000Y-85562221D02*
X87882000Y-85887779D01*
X88902000Y-85562221D02*
X88902000Y-85887779D01*
X136908000Y-95031779D02*
X136908000Y-94706221D01*
X135888000Y-95031779D02*
X135888000Y-94706221D01*
X136142000Y-98770221D02*
X136142000Y-99095779D01*
X137162000Y-98770221D02*
X137162000Y-99095779D01*
X137162000Y-103413779D02*
X137162000Y-103088221D01*
X136142000Y-103413779D02*
X136142000Y-103088221D01*
X135761000Y-107279221D02*
X135761000Y-107604779D01*
X136781000Y-107279221D02*
X136781000Y-107604779D01*
X88900000Y-106423000D02*
X91660000Y-106423000D01*
X91660000Y-106423000D02*
X91660000Y-107263000D01*
X88900000Y-106423000D02*
X86140000Y-106423000D01*
X86140000Y-106423000D02*
X86140000Y-107263000D01*
X88900000Y-116843000D02*
X91660000Y-116843000D01*
X91660000Y-116843000D02*
X91660000Y-116003000D01*
X88900000Y-116843000D02*
X86140000Y-116843000D01*
X86140000Y-116843000D02*
X86140000Y-116003000D01*
X86140000Y-116003000D02*
X84450000Y-116003000D01*
X88900000Y-91564000D02*
X91660000Y-91564000D01*
X91660000Y-91564000D02*
X91660000Y-92404000D01*
X88900000Y-91564000D02*
X86140000Y-91564000D01*
X86140000Y-91564000D02*
X86140000Y-92404000D01*
X88900000Y-101984000D02*
X91660000Y-101984000D01*
X91660000Y-101984000D02*
X91660000Y-101144000D01*
X88900000Y-101984000D02*
X86140000Y-101984000D01*
X86140000Y-101984000D02*
X86140000Y-101144000D01*
X86140000Y-101144000D02*
X84450000Y-101144000D01*
X80894000Y-85198000D02*
X80894000Y-83938000D01*
X80894000Y-78378000D02*
X80894000Y-79638000D01*
X84654000Y-85198000D02*
X80894000Y-85198000D01*
X86904000Y-78378000D02*
X80894000Y-78378000D01*
X90667000Y-79543000D02*
X92467000Y-79543000D01*
X92467000Y-82763000D02*
X90017000Y-82763000D01*
X108729000Y-68704000D02*
X108729000Y-66404000D01*
X108729000Y-66404000D02*
X101329000Y-66404000D01*
X101329000Y-66404000D02*
X101329000Y-68704000D01*
X101329000Y-71504000D02*
X101329000Y-73804000D01*
X101329000Y-73804000D02*
X108729000Y-73804000D01*
X108729000Y-73804000D02*
X108729000Y-71504000D01*
X70790000Y-65866000D02*
G75*
G03*
X70790000Y-65866000I-2210000J0D01*
G01*
X70790000Y-80866000D02*
G75*
G03*
X70790000Y-80866000I-2210000J0D01*
G01*
X91432748Y-77545000D02*
X91955252Y-77545000D01*
X91432748Y-76125000D02*
X91955252Y-76125000D01*
X94783000Y-65548000D02*
X94783000Y-67548000D01*
X94783000Y-67548000D02*
X90933000Y-67548000D01*
X94783000Y-65548000D02*
X90933000Y-65548000D01*
D13*
X94706000Y-74226000D02*
X90206000Y-74226000D01*
X95831000Y-68676000D02*
X90206000Y-68676000D01*
D12*
X104953000Y-75065000D02*
X108838000Y-75065000D01*
X108838000Y-75065000D02*
X108838000Y-77335000D01*
X108838000Y-77335000D02*
X104953000Y-77335000D01*
X98842000Y-77200000D02*
X98842000Y-75200000D01*
X98842000Y-75200000D02*
X102742000Y-75200000D01*
X98842000Y-77200000D02*
X102742000Y-77200000D01*
M02*
