G04 #@! TF.GenerationSoftware,KiCad,Pcbnew,(5.1.6)-1*
G04 #@! TF.CreationDate,2020-05-30T22:10:31+02:00*
G04 #@! TF.ProjectId,TMC51604Axis,544d4335-3136-4303-9441-7869732e6b69,rev?*
G04 #@! TF.SameCoordinates,Original*
G04 #@! TF.FileFunction,Paste,Top*
G04 #@! TF.FilePolarity,Positive*
%FSLAX46Y46*%
G04 Gerber Fmt 4.6, Leading zero omitted, Abs format (unit mm)*
G04 Created by KiCad (PCBNEW (5.1.6)-1) date 2020-05-30 22:10:31*
%MOMM*%
%LPD*%
G01*
G04 APERTURE LIST*
%ADD10R,0.650000X0.850000*%
%ADD11R,0.900000X0.800000*%
%ADD12C,0.100000*%
%ADD13R,0.400000X0.700000*%
%ADD14R,3.050000X2.750000*%
%ADD15R,2.200000X1.200000*%
%ADD16R,0.800000X0.900000*%
G04 APERTURE END LIST*
G36*
G01*
X97848000Y-90475750D02*
X97848000Y-91388250D01*
G75*
G02*
X97604250Y-91632000I-243750J0D01*
G01*
X97116750Y-91632000D01*
G75*
G02*
X96873000Y-91388250I0J243750D01*
G01*
X96873000Y-90475750D01*
G75*
G02*
X97116750Y-90232000I243750J0D01*
G01*
X97604250Y-90232000D01*
G75*
G02*
X97848000Y-90475750I0J-243750D01*
G01*
G37*
G36*
G01*
X99723000Y-90475750D02*
X99723000Y-91388250D01*
G75*
G02*
X99479250Y-91632000I-243750J0D01*
G01*
X98991750Y-91632000D01*
G75*
G02*
X98748000Y-91388250I0J243750D01*
G01*
X98748000Y-90475750D01*
G75*
G02*
X98991750Y-90232000I243750J0D01*
G01*
X99479250Y-90232000D01*
G75*
G02*
X99723000Y-90475750I0J-243750D01*
G01*
G37*
G36*
G01*
X129804000Y-113551000D02*
X131054000Y-113551000D01*
G75*
G02*
X131304000Y-113801000I0J-250000D01*
G01*
X131304000Y-114551000D01*
G75*
G02*
X131054000Y-114801000I-250000J0D01*
G01*
X129804000Y-114801000D01*
G75*
G02*
X129554000Y-114551000I0J250000D01*
G01*
X129554000Y-113801000D01*
G75*
G02*
X129804000Y-113551000I250000J0D01*
G01*
G37*
G36*
G01*
X129804000Y-110751000D02*
X131054000Y-110751000D01*
G75*
G02*
X131304000Y-111001000I0J-250000D01*
G01*
X131304000Y-111751000D01*
G75*
G02*
X131054000Y-112001000I-250000J0D01*
G01*
X129804000Y-112001000D01*
G75*
G02*
X129554000Y-111751000I0J250000D01*
G01*
X129554000Y-111001000D01*
G75*
G02*
X129804000Y-110751000I250000J0D01*
G01*
G37*
G36*
G01*
X131054000Y-91179000D02*
X129804000Y-91179000D01*
G75*
G02*
X129554000Y-90929000I0J250000D01*
G01*
X129554000Y-90179000D01*
G75*
G02*
X129804000Y-89929000I250000J0D01*
G01*
X131054000Y-89929000D01*
G75*
G02*
X131304000Y-90179000I0J-250000D01*
G01*
X131304000Y-90929000D01*
G75*
G02*
X131054000Y-91179000I-250000J0D01*
G01*
G37*
G36*
G01*
X131054000Y-88379000D02*
X129804000Y-88379000D01*
G75*
G02*
X129554000Y-88129000I0J250000D01*
G01*
X129554000Y-87379000D01*
G75*
G02*
X129804000Y-87129000I250000J0D01*
G01*
X131054000Y-87129000D01*
G75*
G02*
X131304000Y-87379000I0J-250000D01*
G01*
X131304000Y-88129000D01*
G75*
G02*
X131054000Y-88379000I-250000J0D01*
G01*
G37*
G36*
G01*
X102824500Y-101426000D02*
X103309500Y-101426000D01*
G75*
G02*
X103552000Y-101668500I0J-242500D01*
G01*
X103552000Y-102153500D01*
G75*
G02*
X103309500Y-102396000I-242500J0D01*
G01*
X102824500Y-102396000D01*
G75*
G02*
X102582000Y-102153500I0J242500D01*
G01*
X102582000Y-101668500D01*
G75*
G02*
X102824500Y-101426000I242500J0D01*
G01*
G37*
G36*
G01*
X104024500Y-101426000D02*
X104509500Y-101426000D01*
G75*
G02*
X104752000Y-101668500I0J-242500D01*
G01*
X104752000Y-102153500D01*
G75*
G02*
X104509500Y-102396000I-242500J0D01*
G01*
X104024500Y-102396000D01*
G75*
G02*
X103782000Y-102153500I0J242500D01*
G01*
X103782000Y-101668500D01*
G75*
G02*
X104024500Y-101426000I242500J0D01*
G01*
G37*
G36*
G01*
X105224500Y-101426000D02*
X105709500Y-101426000D01*
G75*
G02*
X105952000Y-101668500I0J-242500D01*
G01*
X105952000Y-102153500D01*
G75*
G02*
X105709500Y-102396000I-242500J0D01*
G01*
X105224500Y-102396000D01*
G75*
G02*
X104982000Y-102153500I0J242500D01*
G01*
X104982000Y-101668500D01*
G75*
G02*
X105224500Y-101426000I242500J0D01*
G01*
G37*
G36*
G01*
X102824500Y-100226000D02*
X103309500Y-100226000D01*
G75*
G02*
X103552000Y-100468500I0J-242500D01*
G01*
X103552000Y-100953500D01*
G75*
G02*
X103309500Y-101196000I-242500J0D01*
G01*
X102824500Y-101196000D01*
G75*
G02*
X102582000Y-100953500I0J242500D01*
G01*
X102582000Y-100468500D01*
G75*
G02*
X102824500Y-100226000I242500J0D01*
G01*
G37*
G36*
G01*
X104024500Y-100226000D02*
X104509500Y-100226000D01*
G75*
G02*
X104752000Y-100468500I0J-242500D01*
G01*
X104752000Y-100953500D01*
G75*
G02*
X104509500Y-101196000I-242500J0D01*
G01*
X104024500Y-101196000D01*
G75*
G02*
X103782000Y-100953500I0J242500D01*
G01*
X103782000Y-100468500D01*
G75*
G02*
X104024500Y-100226000I242500J0D01*
G01*
G37*
G36*
G01*
X105224500Y-100226000D02*
X105709500Y-100226000D01*
G75*
G02*
X105952000Y-100468500I0J-242500D01*
G01*
X105952000Y-100953500D01*
G75*
G02*
X105709500Y-101196000I-242500J0D01*
G01*
X105224500Y-101196000D01*
G75*
G02*
X104982000Y-100953500I0J242500D01*
G01*
X104982000Y-100468500D01*
G75*
G02*
X105224500Y-100226000I242500J0D01*
G01*
G37*
G36*
G01*
X102824500Y-99026000D02*
X103309500Y-99026000D01*
G75*
G02*
X103552000Y-99268500I0J-242500D01*
G01*
X103552000Y-99753500D01*
G75*
G02*
X103309500Y-99996000I-242500J0D01*
G01*
X102824500Y-99996000D01*
G75*
G02*
X102582000Y-99753500I0J242500D01*
G01*
X102582000Y-99268500D01*
G75*
G02*
X102824500Y-99026000I242500J0D01*
G01*
G37*
G36*
G01*
X104024500Y-99026000D02*
X104509500Y-99026000D01*
G75*
G02*
X104752000Y-99268500I0J-242500D01*
G01*
X104752000Y-99753500D01*
G75*
G02*
X104509500Y-99996000I-242500J0D01*
G01*
X104024500Y-99996000D01*
G75*
G02*
X103782000Y-99753500I0J242500D01*
G01*
X103782000Y-99268500D01*
G75*
G02*
X104024500Y-99026000I242500J0D01*
G01*
G37*
G36*
G01*
X105224500Y-99026000D02*
X105709500Y-99026000D01*
G75*
G02*
X105952000Y-99268500I0J-242500D01*
G01*
X105952000Y-99753500D01*
G75*
G02*
X105709500Y-99996000I-242500J0D01*
G01*
X105224500Y-99996000D01*
G75*
G02*
X104982000Y-99753500I0J242500D01*
G01*
X104982000Y-99268500D01*
G75*
G02*
X105224500Y-99026000I242500J0D01*
G01*
G37*
G36*
G01*
X107767000Y-97811000D02*
X109092000Y-97811000D01*
G75*
G02*
X109167000Y-97886000I0J-75000D01*
G01*
X109167000Y-98036000D01*
G75*
G02*
X109092000Y-98111000I-75000J0D01*
G01*
X107767000Y-98111000D01*
G75*
G02*
X107692000Y-98036000I0J75000D01*
G01*
X107692000Y-97886000D01*
G75*
G02*
X107767000Y-97811000I75000J0D01*
G01*
G37*
G36*
G01*
X107767000Y-98311000D02*
X109092000Y-98311000D01*
G75*
G02*
X109167000Y-98386000I0J-75000D01*
G01*
X109167000Y-98536000D01*
G75*
G02*
X109092000Y-98611000I-75000J0D01*
G01*
X107767000Y-98611000D01*
G75*
G02*
X107692000Y-98536000I0J75000D01*
G01*
X107692000Y-98386000D01*
G75*
G02*
X107767000Y-98311000I75000J0D01*
G01*
G37*
G36*
G01*
X107767000Y-98811000D02*
X109092000Y-98811000D01*
G75*
G02*
X109167000Y-98886000I0J-75000D01*
G01*
X109167000Y-99036000D01*
G75*
G02*
X109092000Y-99111000I-75000J0D01*
G01*
X107767000Y-99111000D01*
G75*
G02*
X107692000Y-99036000I0J75000D01*
G01*
X107692000Y-98886000D01*
G75*
G02*
X107767000Y-98811000I75000J0D01*
G01*
G37*
G36*
G01*
X107767000Y-99311000D02*
X109092000Y-99311000D01*
G75*
G02*
X109167000Y-99386000I0J-75000D01*
G01*
X109167000Y-99536000D01*
G75*
G02*
X109092000Y-99611000I-75000J0D01*
G01*
X107767000Y-99611000D01*
G75*
G02*
X107692000Y-99536000I0J75000D01*
G01*
X107692000Y-99386000D01*
G75*
G02*
X107767000Y-99311000I75000J0D01*
G01*
G37*
G36*
G01*
X107767000Y-99811000D02*
X109092000Y-99811000D01*
G75*
G02*
X109167000Y-99886000I0J-75000D01*
G01*
X109167000Y-100036000D01*
G75*
G02*
X109092000Y-100111000I-75000J0D01*
G01*
X107767000Y-100111000D01*
G75*
G02*
X107692000Y-100036000I0J75000D01*
G01*
X107692000Y-99886000D01*
G75*
G02*
X107767000Y-99811000I75000J0D01*
G01*
G37*
G36*
G01*
X107767000Y-100311000D02*
X109092000Y-100311000D01*
G75*
G02*
X109167000Y-100386000I0J-75000D01*
G01*
X109167000Y-100536000D01*
G75*
G02*
X109092000Y-100611000I-75000J0D01*
G01*
X107767000Y-100611000D01*
G75*
G02*
X107692000Y-100536000I0J75000D01*
G01*
X107692000Y-100386000D01*
G75*
G02*
X107767000Y-100311000I75000J0D01*
G01*
G37*
G36*
G01*
X107767000Y-100811000D02*
X109092000Y-100811000D01*
G75*
G02*
X109167000Y-100886000I0J-75000D01*
G01*
X109167000Y-101036000D01*
G75*
G02*
X109092000Y-101111000I-75000J0D01*
G01*
X107767000Y-101111000D01*
G75*
G02*
X107692000Y-101036000I0J75000D01*
G01*
X107692000Y-100886000D01*
G75*
G02*
X107767000Y-100811000I75000J0D01*
G01*
G37*
G36*
G01*
X107767000Y-101311000D02*
X109092000Y-101311000D01*
G75*
G02*
X109167000Y-101386000I0J-75000D01*
G01*
X109167000Y-101536000D01*
G75*
G02*
X109092000Y-101611000I-75000J0D01*
G01*
X107767000Y-101611000D01*
G75*
G02*
X107692000Y-101536000I0J75000D01*
G01*
X107692000Y-101386000D01*
G75*
G02*
X107767000Y-101311000I75000J0D01*
G01*
G37*
G36*
G01*
X107767000Y-101811000D02*
X109092000Y-101811000D01*
G75*
G02*
X109167000Y-101886000I0J-75000D01*
G01*
X109167000Y-102036000D01*
G75*
G02*
X109092000Y-102111000I-75000J0D01*
G01*
X107767000Y-102111000D01*
G75*
G02*
X107692000Y-102036000I0J75000D01*
G01*
X107692000Y-101886000D01*
G75*
G02*
X107767000Y-101811000I75000J0D01*
G01*
G37*
G36*
G01*
X107767000Y-102311000D02*
X109092000Y-102311000D01*
G75*
G02*
X109167000Y-102386000I0J-75000D01*
G01*
X109167000Y-102536000D01*
G75*
G02*
X109092000Y-102611000I-75000J0D01*
G01*
X107767000Y-102611000D01*
G75*
G02*
X107692000Y-102536000I0J75000D01*
G01*
X107692000Y-102386000D01*
G75*
G02*
X107767000Y-102311000I75000J0D01*
G01*
G37*
G36*
G01*
X107767000Y-102811000D02*
X109092000Y-102811000D01*
G75*
G02*
X109167000Y-102886000I0J-75000D01*
G01*
X109167000Y-103036000D01*
G75*
G02*
X109092000Y-103111000I-75000J0D01*
G01*
X107767000Y-103111000D01*
G75*
G02*
X107692000Y-103036000I0J75000D01*
G01*
X107692000Y-102886000D01*
G75*
G02*
X107767000Y-102811000I75000J0D01*
G01*
G37*
G36*
G01*
X107767000Y-103311000D02*
X109092000Y-103311000D01*
G75*
G02*
X109167000Y-103386000I0J-75000D01*
G01*
X109167000Y-103536000D01*
G75*
G02*
X109092000Y-103611000I-75000J0D01*
G01*
X107767000Y-103611000D01*
G75*
G02*
X107692000Y-103536000I0J75000D01*
G01*
X107692000Y-103386000D01*
G75*
G02*
X107767000Y-103311000I75000J0D01*
G01*
G37*
G36*
G01*
X106942000Y-104136000D02*
X107092000Y-104136000D01*
G75*
G02*
X107167000Y-104211000I0J-75000D01*
G01*
X107167000Y-105536000D01*
G75*
G02*
X107092000Y-105611000I-75000J0D01*
G01*
X106942000Y-105611000D01*
G75*
G02*
X106867000Y-105536000I0J75000D01*
G01*
X106867000Y-104211000D01*
G75*
G02*
X106942000Y-104136000I75000J0D01*
G01*
G37*
G36*
G01*
X106442000Y-104136000D02*
X106592000Y-104136000D01*
G75*
G02*
X106667000Y-104211000I0J-75000D01*
G01*
X106667000Y-105536000D01*
G75*
G02*
X106592000Y-105611000I-75000J0D01*
G01*
X106442000Y-105611000D01*
G75*
G02*
X106367000Y-105536000I0J75000D01*
G01*
X106367000Y-104211000D01*
G75*
G02*
X106442000Y-104136000I75000J0D01*
G01*
G37*
G36*
G01*
X105942000Y-104136000D02*
X106092000Y-104136000D01*
G75*
G02*
X106167000Y-104211000I0J-75000D01*
G01*
X106167000Y-105536000D01*
G75*
G02*
X106092000Y-105611000I-75000J0D01*
G01*
X105942000Y-105611000D01*
G75*
G02*
X105867000Y-105536000I0J75000D01*
G01*
X105867000Y-104211000D01*
G75*
G02*
X105942000Y-104136000I75000J0D01*
G01*
G37*
G36*
G01*
X105442000Y-104136000D02*
X105592000Y-104136000D01*
G75*
G02*
X105667000Y-104211000I0J-75000D01*
G01*
X105667000Y-105536000D01*
G75*
G02*
X105592000Y-105611000I-75000J0D01*
G01*
X105442000Y-105611000D01*
G75*
G02*
X105367000Y-105536000I0J75000D01*
G01*
X105367000Y-104211000D01*
G75*
G02*
X105442000Y-104136000I75000J0D01*
G01*
G37*
G36*
G01*
X104942000Y-104136000D02*
X105092000Y-104136000D01*
G75*
G02*
X105167000Y-104211000I0J-75000D01*
G01*
X105167000Y-105536000D01*
G75*
G02*
X105092000Y-105611000I-75000J0D01*
G01*
X104942000Y-105611000D01*
G75*
G02*
X104867000Y-105536000I0J75000D01*
G01*
X104867000Y-104211000D01*
G75*
G02*
X104942000Y-104136000I75000J0D01*
G01*
G37*
G36*
G01*
X104442000Y-104136000D02*
X104592000Y-104136000D01*
G75*
G02*
X104667000Y-104211000I0J-75000D01*
G01*
X104667000Y-105536000D01*
G75*
G02*
X104592000Y-105611000I-75000J0D01*
G01*
X104442000Y-105611000D01*
G75*
G02*
X104367000Y-105536000I0J75000D01*
G01*
X104367000Y-104211000D01*
G75*
G02*
X104442000Y-104136000I75000J0D01*
G01*
G37*
G36*
G01*
X103942000Y-104136000D02*
X104092000Y-104136000D01*
G75*
G02*
X104167000Y-104211000I0J-75000D01*
G01*
X104167000Y-105536000D01*
G75*
G02*
X104092000Y-105611000I-75000J0D01*
G01*
X103942000Y-105611000D01*
G75*
G02*
X103867000Y-105536000I0J75000D01*
G01*
X103867000Y-104211000D01*
G75*
G02*
X103942000Y-104136000I75000J0D01*
G01*
G37*
G36*
G01*
X103442000Y-104136000D02*
X103592000Y-104136000D01*
G75*
G02*
X103667000Y-104211000I0J-75000D01*
G01*
X103667000Y-105536000D01*
G75*
G02*
X103592000Y-105611000I-75000J0D01*
G01*
X103442000Y-105611000D01*
G75*
G02*
X103367000Y-105536000I0J75000D01*
G01*
X103367000Y-104211000D01*
G75*
G02*
X103442000Y-104136000I75000J0D01*
G01*
G37*
G36*
G01*
X102942000Y-104136000D02*
X103092000Y-104136000D01*
G75*
G02*
X103167000Y-104211000I0J-75000D01*
G01*
X103167000Y-105536000D01*
G75*
G02*
X103092000Y-105611000I-75000J0D01*
G01*
X102942000Y-105611000D01*
G75*
G02*
X102867000Y-105536000I0J75000D01*
G01*
X102867000Y-104211000D01*
G75*
G02*
X102942000Y-104136000I75000J0D01*
G01*
G37*
G36*
G01*
X102442000Y-104136000D02*
X102592000Y-104136000D01*
G75*
G02*
X102667000Y-104211000I0J-75000D01*
G01*
X102667000Y-105536000D01*
G75*
G02*
X102592000Y-105611000I-75000J0D01*
G01*
X102442000Y-105611000D01*
G75*
G02*
X102367000Y-105536000I0J75000D01*
G01*
X102367000Y-104211000D01*
G75*
G02*
X102442000Y-104136000I75000J0D01*
G01*
G37*
G36*
G01*
X101942000Y-104136000D02*
X102092000Y-104136000D01*
G75*
G02*
X102167000Y-104211000I0J-75000D01*
G01*
X102167000Y-105536000D01*
G75*
G02*
X102092000Y-105611000I-75000J0D01*
G01*
X101942000Y-105611000D01*
G75*
G02*
X101867000Y-105536000I0J75000D01*
G01*
X101867000Y-104211000D01*
G75*
G02*
X101942000Y-104136000I75000J0D01*
G01*
G37*
G36*
G01*
X101442000Y-104136000D02*
X101592000Y-104136000D01*
G75*
G02*
X101667000Y-104211000I0J-75000D01*
G01*
X101667000Y-105536000D01*
G75*
G02*
X101592000Y-105611000I-75000J0D01*
G01*
X101442000Y-105611000D01*
G75*
G02*
X101367000Y-105536000I0J75000D01*
G01*
X101367000Y-104211000D01*
G75*
G02*
X101442000Y-104136000I75000J0D01*
G01*
G37*
G36*
G01*
X99442000Y-103311000D02*
X100767000Y-103311000D01*
G75*
G02*
X100842000Y-103386000I0J-75000D01*
G01*
X100842000Y-103536000D01*
G75*
G02*
X100767000Y-103611000I-75000J0D01*
G01*
X99442000Y-103611000D01*
G75*
G02*
X99367000Y-103536000I0J75000D01*
G01*
X99367000Y-103386000D01*
G75*
G02*
X99442000Y-103311000I75000J0D01*
G01*
G37*
G36*
G01*
X99442000Y-102811000D02*
X100767000Y-102811000D01*
G75*
G02*
X100842000Y-102886000I0J-75000D01*
G01*
X100842000Y-103036000D01*
G75*
G02*
X100767000Y-103111000I-75000J0D01*
G01*
X99442000Y-103111000D01*
G75*
G02*
X99367000Y-103036000I0J75000D01*
G01*
X99367000Y-102886000D01*
G75*
G02*
X99442000Y-102811000I75000J0D01*
G01*
G37*
G36*
G01*
X99442000Y-102311000D02*
X100767000Y-102311000D01*
G75*
G02*
X100842000Y-102386000I0J-75000D01*
G01*
X100842000Y-102536000D01*
G75*
G02*
X100767000Y-102611000I-75000J0D01*
G01*
X99442000Y-102611000D01*
G75*
G02*
X99367000Y-102536000I0J75000D01*
G01*
X99367000Y-102386000D01*
G75*
G02*
X99442000Y-102311000I75000J0D01*
G01*
G37*
G36*
G01*
X99442000Y-101811000D02*
X100767000Y-101811000D01*
G75*
G02*
X100842000Y-101886000I0J-75000D01*
G01*
X100842000Y-102036000D01*
G75*
G02*
X100767000Y-102111000I-75000J0D01*
G01*
X99442000Y-102111000D01*
G75*
G02*
X99367000Y-102036000I0J75000D01*
G01*
X99367000Y-101886000D01*
G75*
G02*
X99442000Y-101811000I75000J0D01*
G01*
G37*
G36*
G01*
X99442000Y-101311000D02*
X100767000Y-101311000D01*
G75*
G02*
X100842000Y-101386000I0J-75000D01*
G01*
X100842000Y-101536000D01*
G75*
G02*
X100767000Y-101611000I-75000J0D01*
G01*
X99442000Y-101611000D01*
G75*
G02*
X99367000Y-101536000I0J75000D01*
G01*
X99367000Y-101386000D01*
G75*
G02*
X99442000Y-101311000I75000J0D01*
G01*
G37*
G36*
G01*
X99442000Y-100811000D02*
X100767000Y-100811000D01*
G75*
G02*
X100842000Y-100886000I0J-75000D01*
G01*
X100842000Y-101036000D01*
G75*
G02*
X100767000Y-101111000I-75000J0D01*
G01*
X99442000Y-101111000D01*
G75*
G02*
X99367000Y-101036000I0J75000D01*
G01*
X99367000Y-100886000D01*
G75*
G02*
X99442000Y-100811000I75000J0D01*
G01*
G37*
G36*
G01*
X99442000Y-100311000D02*
X100767000Y-100311000D01*
G75*
G02*
X100842000Y-100386000I0J-75000D01*
G01*
X100842000Y-100536000D01*
G75*
G02*
X100767000Y-100611000I-75000J0D01*
G01*
X99442000Y-100611000D01*
G75*
G02*
X99367000Y-100536000I0J75000D01*
G01*
X99367000Y-100386000D01*
G75*
G02*
X99442000Y-100311000I75000J0D01*
G01*
G37*
G36*
G01*
X99442000Y-99811000D02*
X100767000Y-99811000D01*
G75*
G02*
X100842000Y-99886000I0J-75000D01*
G01*
X100842000Y-100036000D01*
G75*
G02*
X100767000Y-100111000I-75000J0D01*
G01*
X99442000Y-100111000D01*
G75*
G02*
X99367000Y-100036000I0J75000D01*
G01*
X99367000Y-99886000D01*
G75*
G02*
X99442000Y-99811000I75000J0D01*
G01*
G37*
G36*
G01*
X99442000Y-99311000D02*
X100767000Y-99311000D01*
G75*
G02*
X100842000Y-99386000I0J-75000D01*
G01*
X100842000Y-99536000D01*
G75*
G02*
X100767000Y-99611000I-75000J0D01*
G01*
X99442000Y-99611000D01*
G75*
G02*
X99367000Y-99536000I0J75000D01*
G01*
X99367000Y-99386000D01*
G75*
G02*
X99442000Y-99311000I75000J0D01*
G01*
G37*
G36*
G01*
X99442000Y-98811000D02*
X100767000Y-98811000D01*
G75*
G02*
X100842000Y-98886000I0J-75000D01*
G01*
X100842000Y-99036000D01*
G75*
G02*
X100767000Y-99111000I-75000J0D01*
G01*
X99442000Y-99111000D01*
G75*
G02*
X99367000Y-99036000I0J75000D01*
G01*
X99367000Y-98886000D01*
G75*
G02*
X99442000Y-98811000I75000J0D01*
G01*
G37*
G36*
G01*
X99442000Y-98311000D02*
X100767000Y-98311000D01*
G75*
G02*
X100842000Y-98386000I0J-75000D01*
G01*
X100842000Y-98536000D01*
G75*
G02*
X100767000Y-98611000I-75000J0D01*
G01*
X99442000Y-98611000D01*
G75*
G02*
X99367000Y-98536000I0J75000D01*
G01*
X99367000Y-98386000D01*
G75*
G02*
X99442000Y-98311000I75000J0D01*
G01*
G37*
G36*
G01*
X99442000Y-97811000D02*
X100767000Y-97811000D01*
G75*
G02*
X100842000Y-97886000I0J-75000D01*
G01*
X100842000Y-98036000D01*
G75*
G02*
X100767000Y-98111000I-75000J0D01*
G01*
X99442000Y-98111000D01*
G75*
G02*
X99367000Y-98036000I0J75000D01*
G01*
X99367000Y-97886000D01*
G75*
G02*
X99442000Y-97811000I75000J0D01*
G01*
G37*
G36*
G01*
X101442000Y-95811000D02*
X101592000Y-95811000D01*
G75*
G02*
X101667000Y-95886000I0J-75000D01*
G01*
X101667000Y-97211000D01*
G75*
G02*
X101592000Y-97286000I-75000J0D01*
G01*
X101442000Y-97286000D01*
G75*
G02*
X101367000Y-97211000I0J75000D01*
G01*
X101367000Y-95886000D01*
G75*
G02*
X101442000Y-95811000I75000J0D01*
G01*
G37*
G36*
G01*
X101942000Y-95811000D02*
X102092000Y-95811000D01*
G75*
G02*
X102167000Y-95886000I0J-75000D01*
G01*
X102167000Y-97211000D01*
G75*
G02*
X102092000Y-97286000I-75000J0D01*
G01*
X101942000Y-97286000D01*
G75*
G02*
X101867000Y-97211000I0J75000D01*
G01*
X101867000Y-95886000D01*
G75*
G02*
X101942000Y-95811000I75000J0D01*
G01*
G37*
G36*
G01*
X102442000Y-95811000D02*
X102592000Y-95811000D01*
G75*
G02*
X102667000Y-95886000I0J-75000D01*
G01*
X102667000Y-97211000D01*
G75*
G02*
X102592000Y-97286000I-75000J0D01*
G01*
X102442000Y-97286000D01*
G75*
G02*
X102367000Y-97211000I0J75000D01*
G01*
X102367000Y-95886000D01*
G75*
G02*
X102442000Y-95811000I75000J0D01*
G01*
G37*
G36*
G01*
X102942000Y-95811000D02*
X103092000Y-95811000D01*
G75*
G02*
X103167000Y-95886000I0J-75000D01*
G01*
X103167000Y-97211000D01*
G75*
G02*
X103092000Y-97286000I-75000J0D01*
G01*
X102942000Y-97286000D01*
G75*
G02*
X102867000Y-97211000I0J75000D01*
G01*
X102867000Y-95886000D01*
G75*
G02*
X102942000Y-95811000I75000J0D01*
G01*
G37*
G36*
G01*
X103442000Y-95811000D02*
X103592000Y-95811000D01*
G75*
G02*
X103667000Y-95886000I0J-75000D01*
G01*
X103667000Y-97211000D01*
G75*
G02*
X103592000Y-97286000I-75000J0D01*
G01*
X103442000Y-97286000D01*
G75*
G02*
X103367000Y-97211000I0J75000D01*
G01*
X103367000Y-95886000D01*
G75*
G02*
X103442000Y-95811000I75000J0D01*
G01*
G37*
G36*
G01*
X103942000Y-95811000D02*
X104092000Y-95811000D01*
G75*
G02*
X104167000Y-95886000I0J-75000D01*
G01*
X104167000Y-97211000D01*
G75*
G02*
X104092000Y-97286000I-75000J0D01*
G01*
X103942000Y-97286000D01*
G75*
G02*
X103867000Y-97211000I0J75000D01*
G01*
X103867000Y-95886000D01*
G75*
G02*
X103942000Y-95811000I75000J0D01*
G01*
G37*
G36*
G01*
X104442000Y-95811000D02*
X104592000Y-95811000D01*
G75*
G02*
X104667000Y-95886000I0J-75000D01*
G01*
X104667000Y-97211000D01*
G75*
G02*
X104592000Y-97286000I-75000J0D01*
G01*
X104442000Y-97286000D01*
G75*
G02*
X104367000Y-97211000I0J75000D01*
G01*
X104367000Y-95886000D01*
G75*
G02*
X104442000Y-95811000I75000J0D01*
G01*
G37*
G36*
G01*
X104942000Y-95811000D02*
X105092000Y-95811000D01*
G75*
G02*
X105167000Y-95886000I0J-75000D01*
G01*
X105167000Y-97211000D01*
G75*
G02*
X105092000Y-97286000I-75000J0D01*
G01*
X104942000Y-97286000D01*
G75*
G02*
X104867000Y-97211000I0J75000D01*
G01*
X104867000Y-95886000D01*
G75*
G02*
X104942000Y-95811000I75000J0D01*
G01*
G37*
G36*
G01*
X105442000Y-95811000D02*
X105592000Y-95811000D01*
G75*
G02*
X105667000Y-95886000I0J-75000D01*
G01*
X105667000Y-97211000D01*
G75*
G02*
X105592000Y-97286000I-75000J0D01*
G01*
X105442000Y-97286000D01*
G75*
G02*
X105367000Y-97211000I0J75000D01*
G01*
X105367000Y-95886000D01*
G75*
G02*
X105442000Y-95811000I75000J0D01*
G01*
G37*
G36*
G01*
X105942000Y-95811000D02*
X106092000Y-95811000D01*
G75*
G02*
X106167000Y-95886000I0J-75000D01*
G01*
X106167000Y-97211000D01*
G75*
G02*
X106092000Y-97286000I-75000J0D01*
G01*
X105942000Y-97286000D01*
G75*
G02*
X105867000Y-97211000I0J75000D01*
G01*
X105867000Y-95886000D01*
G75*
G02*
X105942000Y-95811000I75000J0D01*
G01*
G37*
G36*
G01*
X106442000Y-95811000D02*
X106592000Y-95811000D01*
G75*
G02*
X106667000Y-95886000I0J-75000D01*
G01*
X106667000Y-97211000D01*
G75*
G02*
X106592000Y-97286000I-75000J0D01*
G01*
X106442000Y-97286000D01*
G75*
G02*
X106367000Y-97211000I0J75000D01*
G01*
X106367000Y-95886000D01*
G75*
G02*
X106442000Y-95811000I75000J0D01*
G01*
G37*
G36*
G01*
X106942000Y-95811000D02*
X107092000Y-95811000D01*
G75*
G02*
X107167000Y-95886000I0J-75000D01*
G01*
X107167000Y-97211000D01*
G75*
G02*
X107092000Y-97286000I-75000J0D01*
G01*
X106942000Y-97286000D01*
G75*
G02*
X106867000Y-97211000I0J75000D01*
G01*
X106867000Y-95886000D01*
G75*
G02*
X106942000Y-95811000I75000J0D01*
G01*
G37*
G36*
G01*
X94711000Y-92839250D02*
X94711000Y-92326750D01*
G75*
G02*
X94929750Y-92108000I218750J0D01*
G01*
X95367250Y-92108000D01*
G75*
G02*
X95586000Y-92326750I0J-218750D01*
G01*
X95586000Y-92839250D01*
G75*
G02*
X95367250Y-93058000I-218750J0D01*
G01*
X94929750Y-93058000D01*
G75*
G02*
X94711000Y-92839250I0J218750D01*
G01*
G37*
G36*
G01*
X93136000Y-92839250D02*
X93136000Y-92326750D01*
G75*
G02*
X93354750Y-92108000I218750J0D01*
G01*
X93792250Y-92108000D01*
G75*
G02*
X94011000Y-92326750I0J-218750D01*
G01*
X94011000Y-92839250D01*
G75*
G02*
X93792250Y-93058000I-218750J0D01*
G01*
X93354750Y-93058000D01*
G75*
G02*
X93136000Y-92839250I0J218750D01*
G01*
G37*
G36*
G01*
X94811000Y-95198250D02*
X94811000Y-94285750D01*
G75*
G02*
X95054750Y-94042000I243750J0D01*
G01*
X95542250Y-94042000D01*
G75*
G02*
X95786000Y-94285750I0J-243750D01*
G01*
X95786000Y-95198250D01*
G75*
G02*
X95542250Y-95442000I-243750J0D01*
G01*
X95054750Y-95442000D01*
G75*
G02*
X94811000Y-95198250I0J243750D01*
G01*
G37*
G36*
G01*
X92936000Y-95198250D02*
X92936000Y-94285750D01*
G75*
G02*
X93179750Y-94042000I243750J0D01*
G01*
X93667250Y-94042000D01*
G75*
G02*
X93911000Y-94285750I0J-243750D01*
G01*
X93911000Y-95198250D01*
G75*
G02*
X93667250Y-95442000I-243750J0D01*
G01*
X93179750Y-95442000D01*
G75*
G02*
X92936000Y-95198250I0J243750D01*
G01*
G37*
G36*
G01*
X98748000Y-89229250D02*
X98748000Y-88316750D01*
G75*
G02*
X98991750Y-88073000I243750J0D01*
G01*
X99479250Y-88073000D01*
G75*
G02*
X99723000Y-88316750I0J-243750D01*
G01*
X99723000Y-89229250D01*
G75*
G02*
X99479250Y-89473000I-243750J0D01*
G01*
X98991750Y-89473000D01*
G75*
G02*
X98748000Y-89229250I0J243750D01*
G01*
G37*
G36*
G01*
X96873000Y-89229250D02*
X96873000Y-88316750D01*
G75*
G02*
X97116750Y-88073000I243750J0D01*
G01*
X97604250Y-88073000D01*
G75*
G02*
X97848000Y-88316750I0J-243750D01*
G01*
X97848000Y-89229250D01*
G75*
G02*
X97604250Y-89473000I-243750J0D01*
G01*
X97116750Y-89473000D01*
G75*
G02*
X96873000Y-89229250I0J243750D01*
G01*
G37*
D10*
X97473000Y-93078000D03*
X99123000Y-93078000D03*
X99123000Y-94628000D03*
X97473000Y-94628000D03*
G36*
G01*
X87173750Y-123132000D02*
X88086250Y-123132000D01*
G75*
G02*
X88330000Y-123375750I0J-243750D01*
G01*
X88330000Y-123863250D01*
G75*
G02*
X88086250Y-124107000I-243750J0D01*
G01*
X87173750Y-124107000D01*
G75*
G02*
X86930000Y-123863250I0J243750D01*
G01*
X86930000Y-123375750D01*
G75*
G02*
X87173750Y-123132000I243750J0D01*
G01*
G37*
G36*
G01*
X87173750Y-121257000D02*
X88086250Y-121257000D01*
G75*
G02*
X88330000Y-121500750I0J-243750D01*
G01*
X88330000Y-121988250D01*
G75*
G02*
X88086250Y-122232000I-243750J0D01*
G01*
X87173750Y-122232000D01*
G75*
G02*
X86930000Y-121988250I0J243750D01*
G01*
X86930000Y-121500750D01*
G75*
G02*
X87173750Y-121257000I243750J0D01*
G01*
G37*
G36*
G01*
X84760750Y-123132000D02*
X85673250Y-123132000D01*
G75*
G02*
X85917000Y-123375750I0J-243750D01*
G01*
X85917000Y-123863250D01*
G75*
G02*
X85673250Y-124107000I-243750J0D01*
G01*
X84760750Y-124107000D01*
G75*
G02*
X84517000Y-123863250I0J243750D01*
G01*
X84517000Y-123375750D01*
G75*
G02*
X84760750Y-123132000I243750J0D01*
G01*
G37*
G36*
G01*
X84760750Y-121257000D02*
X85673250Y-121257000D01*
G75*
G02*
X85917000Y-121500750I0J-243750D01*
G01*
X85917000Y-121988250D01*
G75*
G02*
X85673250Y-122232000I-243750J0D01*
G01*
X84760750Y-122232000D01*
G75*
G02*
X84517000Y-121988250I0J243750D01*
G01*
X84517000Y-121500750D01*
G75*
G02*
X84760750Y-121257000I243750J0D01*
G01*
G37*
G36*
G01*
X79934750Y-123132000D02*
X80847250Y-123132000D01*
G75*
G02*
X81091000Y-123375750I0J-243750D01*
G01*
X81091000Y-123863250D01*
G75*
G02*
X80847250Y-124107000I-243750J0D01*
G01*
X79934750Y-124107000D01*
G75*
G02*
X79691000Y-123863250I0J243750D01*
G01*
X79691000Y-123375750D01*
G75*
G02*
X79934750Y-123132000I243750J0D01*
G01*
G37*
G36*
G01*
X79934750Y-121257000D02*
X80847250Y-121257000D01*
G75*
G02*
X81091000Y-121500750I0J-243750D01*
G01*
X81091000Y-121988250D01*
G75*
G02*
X80847250Y-122232000I-243750J0D01*
G01*
X79934750Y-122232000D01*
G75*
G02*
X79691000Y-121988250I0J243750D01*
G01*
X79691000Y-121500750D01*
G75*
G02*
X79934750Y-121257000I243750J0D01*
G01*
G37*
G36*
G01*
X82220750Y-123132000D02*
X83133250Y-123132000D01*
G75*
G02*
X83377000Y-123375750I0J-243750D01*
G01*
X83377000Y-123863250D01*
G75*
G02*
X83133250Y-124107000I-243750J0D01*
G01*
X82220750Y-124107000D01*
G75*
G02*
X81977000Y-123863250I0J243750D01*
G01*
X81977000Y-123375750D01*
G75*
G02*
X82220750Y-123132000I243750J0D01*
G01*
G37*
G36*
G01*
X82220750Y-121257000D02*
X83133250Y-121257000D01*
G75*
G02*
X83377000Y-121500750I0J-243750D01*
G01*
X83377000Y-121988250D01*
G75*
G02*
X83133250Y-122232000I-243750J0D01*
G01*
X82220750Y-122232000D01*
G75*
G02*
X81977000Y-121988250I0J243750D01*
G01*
X81977000Y-121500750D01*
G75*
G02*
X82220750Y-121257000I243750J0D01*
G01*
G37*
G36*
G01*
X89586750Y-123132000D02*
X90499250Y-123132000D01*
G75*
G02*
X90743000Y-123375750I0J-243750D01*
G01*
X90743000Y-123863250D01*
G75*
G02*
X90499250Y-124107000I-243750J0D01*
G01*
X89586750Y-124107000D01*
G75*
G02*
X89343000Y-123863250I0J243750D01*
G01*
X89343000Y-123375750D01*
G75*
G02*
X89586750Y-123132000I243750J0D01*
G01*
G37*
G36*
G01*
X89586750Y-121257000D02*
X90499250Y-121257000D01*
G75*
G02*
X90743000Y-121500750I0J-243750D01*
G01*
X90743000Y-121988250D01*
G75*
G02*
X90499250Y-122232000I-243750J0D01*
G01*
X89586750Y-122232000D01*
G75*
G02*
X89343000Y-121988250I0J243750D01*
G01*
X89343000Y-121500750D01*
G75*
G02*
X89586750Y-121257000I243750J0D01*
G01*
G37*
G36*
G01*
X83768250Y-102420000D02*
X82855750Y-102420000D01*
G75*
G02*
X82612000Y-102176250I0J243750D01*
G01*
X82612000Y-101688750D01*
G75*
G02*
X82855750Y-101445000I243750J0D01*
G01*
X83768250Y-101445000D01*
G75*
G02*
X84012000Y-101688750I0J-243750D01*
G01*
X84012000Y-102176250D01*
G75*
G02*
X83768250Y-102420000I-243750J0D01*
G01*
G37*
G36*
G01*
X83768250Y-104295000D02*
X82855750Y-104295000D01*
G75*
G02*
X82612000Y-104051250I0J243750D01*
G01*
X82612000Y-103563750D01*
G75*
G02*
X82855750Y-103320000I243750J0D01*
G01*
X83768250Y-103320000D01*
G75*
G02*
X84012000Y-103563750I0J-243750D01*
G01*
X84012000Y-104051250D01*
G75*
G02*
X83768250Y-104295000I-243750J0D01*
G01*
G37*
G36*
G01*
X88594250Y-102420000D02*
X87681750Y-102420000D01*
G75*
G02*
X87438000Y-102176250I0J243750D01*
G01*
X87438000Y-101688750D01*
G75*
G02*
X87681750Y-101445000I243750J0D01*
G01*
X88594250Y-101445000D01*
G75*
G02*
X88838000Y-101688750I0J-243750D01*
G01*
X88838000Y-102176250D01*
G75*
G02*
X88594250Y-102420000I-243750J0D01*
G01*
G37*
G36*
G01*
X88594250Y-104295000D02*
X87681750Y-104295000D01*
G75*
G02*
X87438000Y-104051250I0J243750D01*
G01*
X87438000Y-103563750D01*
G75*
G02*
X87681750Y-103320000I243750J0D01*
G01*
X88594250Y-103320000D01*
G75*
G02*
X88838000Y-103563750I0J-243750D01*
G01*
X88838000Y-104051250D01*
G75*
G02*
X88594250Y-104295000I-243750J0D01*
G01*
G37*
G36*
G01*
X86181250Y-102420000D02*
X85268750Y-102420000D01*
G75*
G02*
X85025000Y-102176250I0J243750D01*
G01*
X85025000Y-101688750D01*
G75*
G02*
X85268750Y-101445000I243750J0D01*
G01*
X86181250Y-101445000D01*
G75*
G02*
X86425000Y-101688750I0J-243750D01*
G01*
X86425000Y-102176250D01*
G75*
G02*
X86181250Y-102420000I-243750J0D01*
G01*
G37*
G36*
G01*
X86181250Y-104295000D02*
X85268750Y-104295000D01*
G75*
G02*
X85025000Y-104051250I0J243750D01*
G01*
X85025000Y-103563750D01*
G75*
G02*
X85268750Y-103320000I243750J0D01*
G01*
X86181250Y-103320000D01*
G75*
G02*
X86425000Y-103563750I0J-243750D01*
G01*
X86425000Y-104051250D01*
G75*
G02*
X86181250Y-104295000I-243750J0D01*
G01*
G37*
G36*
G01*
X81228250Y-102420000D02*
X80315750Y-102420000D01*
G75*
G02*
X80072000Y-102176250I0J243750D01*
G01*
X80072000Y-101688750D01*
G75*
G02*
X80315750Y-101445000I243750J0D01*
G01*
X81228250Y-101445000D01*
G75*
G02*
X81472000Y-101688750I0J-243750D01*
G01*
X81472000Y-102176250D01*
G75*
G02*
X81228250Y-102420000I-243750J0D01*
G01*
G37*
G36*
G01*
X81228250Y-104295000D02*
X80315750Y-104295000D01*
G75*
G02*
X80072000Y-104051250I0J243750D01*
G01*
X80072000Y-103563750D01*
G75*
G02*
X80315750Y-103320000I243750J0D01*
G01*
X81228250Y-103320000D01*
G75*
G02*
X81472000Y-103563750I0J-243750D01*
G01*
X81472000Y-104051250D01*
G75*
G02*
X81228250Y-104295000I-243750J0D01*
G01*
G37*
G36*
G01*
X102159750Y-113734000D02*
X103072250Y-113734000D01*
G75*
G02*
X103316000Y-113977750I0J-243750D01*
G01*
X103316000Y-114465250D01*
G75*
G02*
X103072250Y-114709000I-243750J0D01*
G01*
X102159750Y-114709000D01*
G75*
G02*
X101916000Y-114465250I0J243750D01*
G01*
X101916000Y-113977750D01*
G75*
G02*
X102159750Y-113734000I243750J0D01*
G01*
G37*
G36*
G01*
X102159750Y-111859000D02*
X103072250Y-111859000D01*
G75*
G02*
X103316000Y-112102750I0J-243750D01*
G01*
X103316000Y-112590250D01*
G75*
G02*
X103072250Y-112834000I-243750J0D01*
G01*
X102159750Y-112834000D01*
G75*
G02*
X101916000Y-112590250I0J243750D01*
G01*
X101916000Y-112102750D01*
G75*
G02*
X102159750Y-111859000I243750J0D01*
G01*
G37*
G36*
G01*
X90620000Y-65861250D02*
X90620000Y-64948750D01*
G75*
G02*
X90863750Y-64705000I243750J0D01*
G01*
X91351250Y-64705000D01*
G75*
G02*
X91595000Y-64948750I0J-243750D01*
G01*
X91595000Y-65861250D01*
G75*
G02*
X91351250Y-66105000I-243750J0D01*
G01*
X90863750Y-66105000D01*
G75*
G02*
X90620000Y-65861250I0J243750D01*
G01*
G37*
G36*
G01*
X88745000Y-65861250D02*
X88745000Y-64948750D01*
G75*
G02*
X88988750Y-64705000I243750J0D01*
G01*
X89476250Y-64705000D01*
G75*
G02*
X89720000Y-64948750I0J-243750D01*
G01*
X89720000Y-65861250D01*
G75*
G02*
X89476250Y-66105000I-243750J0D01*
G01*
X88988750Y-66105000D01*
G75*
G02*
X88745000Y-65861250I0J243750D01*
G01*
G37*
G36*
G01*
X92144000Y-89483250D02*
X92144000Y-88570750D01*
G75*
G02*
X92387750Y-88327000I243750J0D01*
G01*
X92875250Y-88327000D01*
G75*
G02*
X93119000Y-88570750I0J-243750D01*
G01*
X93119000Y-89483250D01*
G75*
G02*
X92875250Y-89727000I-243750J0D01*
G01*
X92387750Y-89727000D01*
G75*
G02*
X92144000Y-89483250I0J243750D01*
G01*
G37*
G36*
G01*
X90269000Y-89483250D02*
X90269000Y-88570750D01*
G75*
G02*
X90512750Y-88327000I243750J0D01*
G01*
X91000250Y-88327000D01*
G75*
G02*
X91244000Y-88570750I0J-243750D01*
G01*
X91244000Y-89483250D01*
G75*
G02*
X91000250Y-89727000I-243750J0D01*
G01*
X90512750Y-89727000D01*
G75*
G02*
X90269000Y-89483250I0J243750D01*
G01*
G37*
G36*
G01*
X107136250Y-108262000D02*
X106223750Y-108262000D01*
G75*
G02*
X105980000Y-108018250I0J243750D01*
G01*
X105980000Y-107530750D01*
G75*
G02*
X106223750Y-107287000I243750J0D01*
G01*
X107136250Y-107287000D01*
G75*
G02*
X107380000Y-107530750I0J-243750D01*
G01*
X107380000Y-108018250D01*
G75*
G02*
X107136250Y-108262000I-243750J0D01*
G01*
G37*
G36*
G01*
X107136250Y-110137000D02*
X106223750Y-110137000D01*
G75*
G02*
X105980000Y-109893250I0J243750D01*
G01*
X105980000Y-109405750D01*
G75*
G02*
X106223750Y-109162000I243750J0D01*
G01*
X107136250Y-109162000D01*
G75*
G02*
X107380000Y-109405750I0J-243750D01*
G01*
X107380000Y-109893250D01*
G75*
G02*
X107136250Y-110137000I-243750J0D01*
G01*
G37*
G36*
G01*
X91625000Y-82982750D02*
X91625000Y-83895250D01*
G75*
G02*
X91381250Y-84139000I-243750J0D01*
G01*
X90893750Y-84139000D01*
G75*
G02*
X90650000Y-83895250I0J243750D01*
G01*
X90650000Y-82982750D01*
G75*
G02*
X90893750Y-82739000I243750J0D01*
G01*
X91381250Y-82739000D01*
G75*
G02*
X91625000Y-82982750I0J-243750D01*
G01*
G37*
G36*
G01*
X93500000Y-82982750D02*
X93500000Y-83895250D01*
G75*
G02*
X93256250Y-84139000I-243750J0D01*
G01*
X92768750Y-84139000D01*
G75*
G02*
X92525000Y-83895250I0J243750D01*
G01*
X92525000Y-82982750D01*
G75*
G02*
X92768750Y-82739000I243750J0D01*
G01*
X93256250Y-82739000D01*
G75*
G02*
X93500000Y-82982750I0J-243750D01*
G01*
G37*
G36*
G01*
X89339000Y-71425750D02*
X89339000Y-72338250D01*
G75*
G02*
X89095250Y-72582000I-243750J0D01*
G01*
X88607750Y-72582000D01*
G75*
G02*
X88364000Y-72338250I0J243750D01*
G01*
X88364000Y-71425750D01*
G75*
G02*
X88607750Y-71182000I243750J0D01*
G01*
X89095250Y-71182000D01*
G75*
G02*
X89339000Y-71425750I0J-243750D01*
G01*
G37*
G36*
G01*
X91214000Y-71425750D02*
X91214000Y-72338250D01*
G75*
G02*
X90970250Y-72582000I-243750J0D01*
G01*
X90482750Y-72582000D01*
G75*
G02*
X90239000Y-72338250I0J243750D01*
G01*
X90239000Y-71425750D01*
G75*
G02*
X90482750Y-71182000I243750J0D01*
G01*
X90970250Y-71182000D01*
G75*
G02*
X91214000Y-71425750I0J-243750D01*
G01*
G37*
G36*
G01*
X104264750Y-108935000D02*
X104777250Y-108935000D01*
G75*
G02*
X104996000Y-109153750I0J-218750D01*
G01*
X104996000Y-109591250D01*
G75*
G02*
X104777250Y-109810000I-218750J0D01*
G01*
X104264750Y-109810000D01*
G75*
G02*
X104046000Y-109591250I0J218750D01*
G01*
X104046000Y-109153750D01*
G75*
G02*
X104264750Y-108935000I218750J0D01*
G01*
G37*
G36*
G01*
X104264750Y-107360000D02*
X104777250Y-107360000D01*
G75*
G02*
X104996000Y-107578750I0J-218750D01*
G01*
X104996000Y-108016250D01*
G75*
G02*
X104777250Y-108235000I-218750J0D01*
G01*
X104264750Y-108235000D01*
G75*
G02*
X104046000Y-108016250I0J218750D01*
G01*
X104046000Y-107578750D01*
G75*
G02*
X104264750Y-107360000I218750J0D01*
G01*
G37*
G36*
G01*
X104518750Y-113507000D02*
X105031250Y-113507000D01*
G75*
G02*
X105250000Y-113725750I0J-218750D01*
G01*
X105250000Y-114163250D01*
G75*
G02*
X105031250Y-114382000I-218750J0D01*
G01*
X104518750Y-114382000D01*
G75*
G02*
X104300000Y-114163250I0J218750D01*
G01*
X104300000Y-113725750D01*
G75*
G02*
X104518750Y-113507000I218750J0D01*
G01*
G37*
G36*
G01*
X104518750Y-111932000D02*
X105031250Y-111932000D01*
G75*
G02*
X105250000Y-112150750I0J-218750D01*
G01*
X105250000Y-112588250D01*
G75*
G02*
X105031250Y-112807000I-218750J0D01*
G01*
X104518750Y-112807000D01*
G75*
G02*
X104300000Y-112588250I0J218750D01*
G01*
X104300000Y-112150750D01*
G75*
G02*
X104518750Y-111932000I218750J0D01*
G01*
G37*
G36*
G01*
X113315000Y-99057750D02*
X113315000Y-99570250D01*
G75*
G02*
X113096250Y-99789000I-218750J0D01*
G01*
X112658750Y-99789000D01*
G75*
G02*
X112440000Y-99570250I0J218750D01*
G01*
X112440000Y-99057750D01*
G75*
G02*
X112658750Y-98839000I218750J0D01*
G01*
X113096250Y-98839000D01*
G75*
G02*
X113315000Y-99057750I0J-218750D01*
G01*
G37*
G36*
G01*
X114890000Y-99057750D02*
X114890000Y-99570250D01*
G75*
G02*
X114671250Y-99789000I-218750J0D01*
G01*
X114233750Y-99789000D01*
G75*
G02*
X114015000Y-99570250I0J218750D01*
G01*
X114015000Y-99057750D01*
G75*
G02*
X114233750Y-98839000I218750J0D01*
G01*
X114671250Y-98839000D01*
G75*
G02*
X114890000Y-99057750I0J-218750D01*
G01*
G37*
G36*
G01*
X106174250Y-92106000D02*
X105661750Y-92106000D01*
G75*
G02*
X105443000Y-91887250I0J218750D01*
G01*
X105443000Y-91449750D01*
G75*
G02*
X105661750Y-91231000I218750J0D01*
G01*
X106174250Y-91231000D01*
G75*
G02*
X106393000Y-91449750I0J-218750D01*
G01*
X106393000Y-91887250D01*
G75*
G02*
X106174250Y-92106000I-218750J0D01*
G01*
G37*
G36*
G01*
X106174250Y-93681000D02*
X105661750Y-93681000D01*
G75*
G02*
X105443000Y-93462250I0J218750D01*
G01*
X105443000Y-93024750D01*
G75*
G02*
X105661750Y-92806000I218750J0D01*
G01*
X106174250Y-92806000D01*
G75*
G02*
X106393000Y-93024750I0J-218750D01*
G01*
X106393000Y-93462250D01*
G75*
G02*
X106174250Y-93681000I-218750J0D01*
G01*
G37*
G36*
G01*
X113315000Y-92199750D02*
X113315000Y-92712250D01*
G75*
G02*
X113096250Y-92931000I-218750J0D01*
G01*
X112658750Y-92931000D01*
G75*
G02*
X112440000Y-92712250I0J218750D01*
G01*
X112440000Y-92199750D01*
G75*
G02*
X112658750Y-91981000I218750J0D01*
G01*
X113096250Y-91981000D01*
G75*
G02*
X113315000Y-92199750I0J-218750D01*
G01*
G37*
G36*
G01*
X114890000Y-92199750D02*
X114890000Y-92712250D01*
G75*
G02*
X114671250Y-92931000I-218750J0D01*
G01*
X114233750Y-92931000D01*
G75*
G02*
X114015000Y-92712250I0J218750D01*
G01*
X114015000Y-92199750D01*
G75*
G02*
X114233750Y-91981000I218750J0D01*
G01*
X114671250Y-91981000D01*
G75*
G02*
X114890000Y-92199750I0J-218750D01*
G01*
G37*
G36*
G01*
X104650250Y-92106000D02*
X104137750Y-92106000D01*
G75*
G02*
X103919000Y-91887250I0J218750D01*
G01*
X103919000Y-91449750D01*
G75*
G02*
X104137750Y-91231000I218750J0D01*
G01*
X104650250Y-91231000D01*
G75*
G02*
X104869000Y-91449750I0J-218750D01*
G01*
X104869000Y-91887250D01*
G75*
G02*
X104650250Y-92106000I-218750J0D01*
G01*
G37*
G36*
G01*
X104650250Y-93681000D02*
X104137750Y-93681000D01*
G75*
G02*
X103919000Y-93462250I0J218750D01*
G01*
X103919000Y-93024750D01*
G75*
G02*
X104137750Y-92806000I218750J0D01*
G01*
X104650250Y-92806000D01*
G75*
G02*
X104869000Y-93024750I0J-218750D01*
G01*
X104869000Y-93462250D01*
G75*
G02*
X104650250Y-93681000I-218750J0D01*
G01*
G37*
G36*
G01*
X102232750Y-109316000D02*
X102745250Y-109316000D01*
G75*
G02*
X102964000Y-109534750I0J-218750D01*
G01*
X102964000Y-109972250D01*
G75*
G02*
X102745250Y-110191000I-218750J0D01*
G01*
X102232750Y-110191000D01*
G75*
G02*
X102014000Y-109972250I0J218750D01*
G01*
X102014000Y-109534750D01*
G75*
G02*
X102232750Y-109316000I218750J0D01*
G01*
G37*
G36*
G01*
X102232750Y-107741000D02*
X102745250Y-107741000D01*
G75*
G02*
X102964000Y-107959750I0J-218750D01*
G01*
X102964000Y-108397250D01*
G75*
G02*
X102745250Y-108616000I-218750J0D01*
G01*
X102232750Y-108616000D01*
G75*
G02*
X102014000Y-108397250I0J218750D01*
G01*
X102014000Y-107959750D01*
G75*
G02*
X102232750Y-107741000I218750J0D01*
G01*
G37*
G36*
G01*
X96870000Y-101729250D02*
X96870000Y-101216750D01*
G75*
G02*
X97088750Y-100998000I218750J0D01*
G01*
X97526250Y-100998000D01*
G75*
G02*
X97745000Y-101216750I0J-218750D01*
G01*
X97745000Y-101729250D01*
G75*
G02*
X97526250Y-101948000I-218750J0D01*
G01*
X97088750Y-101948000D01*
G75*
G02*
X96870000Y-101729250I0J218750D01*
G01*
G37*
G36*
G01*
X95295000Y-101729250D02*
X95295000Y-101216750D01*
G75*
G02*
X95513750Y-100998000I218750J0D01*
G01*
X95951250Y-100998000D01*
G75*
G02*
X96170000Y-101216750I0J-218750D01*
G01*
X96170000Y-101729250D01*
G75*
G02*
X95951250Y-101948000I-218750J0D01*
G01*
X95513750Y-101948000D01*
G75*
G02*
X95295000Y-101729250I0J218750D01*
G01*
G37*
G36*
G01*
X116202750Y-88869000D02*
X116715250Y-88869000D01*
G75*
G02*
X116934000Y-89087750I0J-218750D01*
G01*
X116934000Y-89525250D01*
G75*
G02*
X116715250Y-89744000I-218750J0D01*
G01*
X116202750Y-89744000D01*
G75*
G02*
X115984000Y-89525250I0J218750D01*
G01*
X115984000Y-89087750D01*
G75*
G02*
X116202750Y-88869000I218750J0D01*
G01*
G37*
G36*
G01*
X116202750Y-87294000D02*
X116715250Y-87294000D01*
G75*
G02*
X116934000Y-87512750I0J-218750D01*
G01*
X116934000Y-87950250D01*
G75*
G02*
X116715250Y-88169000I-218750J0D01*
G01*
X116202750Y-88169000D01*
G75*
G02*
X115984000Y-87950250I0J218750D01*
G01*
X115984000Y-87512750D01*
G75*
G02*
X116202750Y-87294000I218750J0D01*
G01*
G37*
G36*
G01*
X132966750Y-89631000D02*
X133479250Y-89631000D01*
G75*
G02*
X133698000Y-89849750I0J-218750D01*
G01*
X133698000Y-90287250D01*
G75*
G02*
X133479250Y-90506000I-218750J0D01*
G01*
X132966750Y-90506000D01*
G75*
G02*
X132748000Y-90287250I0J218750D01*
G01*
X132748000Y-89849750D01*
G75*
G02*
X132966750Y-89631000I218750J0D01*
G01*
G37*
G36*
G01*
X132966750Y-88056000D02*
X133479250Y-88056000D01*
G75*
G02*
X133698000Y-88274750I0J-218750D01*
G01*
X133698000Y-88712250D01*
G75*
G02*
X133479250Y-88931000I-218750J0D01*
G01*
X132966750Y-88931000D01*
G75*
G02*
X132748000Y-88712250I0J218750D01*
G01*
X132748000Y-88274750D01*
G75*
G02*
X132966750Y-88056000I218750J0D01*
G01*
G37*
G36*
G01*
X113188000Y-109344750D02*
X113188000Y-109857250D01*
G75*
G02*
X112969250Y-110076000I-218750J0D01*
G01*
X112531750Y-110076000D01*
G75*
G02*
X112313000Y-109857250I0J218750D01*
G01*
X112313000Y-109344750D01*
G75*
G02*
X112531750Y-109126000I218750J0D01*
G01*
X112969250Y-109126000D01*
G75*
G02*
X113188000Y-109344750I0J-218750D01*
G01*
G37*
G36*
G01*
X114763000Y-109344750D02*
X114763000Y-109857250D01*
G75*
G02*
X114544250Y-110076000I-218750J0D01*
G01*
X114106750Y-110076000D01*
G75*
G02*
X113888000Y-109857250I0J218750D01*
G01*
X113888000Y-109344750D01*
G75*
G02*
X114106750Y-109126000I218750J0D01*
G01*
X114544250Y-109126000D01*
G75*
G02*
X114763000Y-109344750I0J-218750D01*
G01*
G37*
G36*
G01*
X113188000Y-102613750D02*
X113188000Y-103126250D01*
G75*
G02*
X112969250Y-103345000I-218750J0D01*
G01*
X112531750Y-103345000D01*
G75*
G02*
X112313000Y-103126250I0J218750D01*
G01*
X112313000Y-102613750D01*
G75*
G02*
X112531750Y-102395000I218750J0D01*
G01*
X112969250Y-102395000D01*
G75*
G02*
X113188000Y-102613750I0J-218750D01*
G01*
G37*
G36*
G01*
X114763000Y-102613750D02*
X114763000Y-103126250D01*
G75*
G02*
X114544250Y-103345000I-218750J0D01*
G01*
X114106750Y-103345000D01*
G75*
G02*
X113888000Y-103126250I0J218750D01*
G01*
X113888000Y-102613750D01*
G75*
G02*
X114106750Y-102395000I218750J0D01*
G01*
X114544250Y-102395000D01*
G75*
G02*
X114763000Y-102613750I0J-218750D01*
G01*
G37*
G36*
G01*
X116588250Y-113188000D02*
X116075750Y-113188000D01*
G75*
G02*
X115857000Y-112969250I0J218750D01*
G01*
X115857000Y-112531750D01*
G75*
G02*
X116075750Y-112313000I218750J0D01*
G01*
X116588250Y-112313000D01*
G75*
G02*
X116807000Y-112531750I0J-218750D01*
G01*
X116807000Y-112969250D01*
G75*
G02*
X116588250Y-113188000I-218750J0D01*
G01*
G37*
G36*
G01*
X116588250Y-114763000D02*
X116075750Y-114763000D01*
G75*
G02*
X115857000Y-114544250I0J218750D01*
G01*
X115857000Y-114106750D01*
G75*
G02*
X116075750Y-113888000I218750J0D01*
G01*
X116588250Y-113888000D01*
G75*
G02*
X116807000Y-114106750I0J-218750D01*
G01*
X116807000Y-114544250D01*
G75*
G02*
X116588250Y-114763000I-218750J0D01*
G01*
G37*
G36*
G01*
X133352250Y-112553000D02*
X132839750Y-112553000D01*
G75*
G02*
X132621000Y-112334250I0J218750D01*
G01*
X132621000Y-111896750D01*
G75*
G02*
X132839750Y-111678000I218750J0D01*
G01*
X133352250Y-111678000D01*
G75*
G02*
X133571000Y-111896750I0J-218750D01*
G01*
X133571000Y-112334250D01*
G75*
G02*
X133352250Y-112553000I-218750J0D01*
G01*
G37*
G36*
G01*
X133352250Y-114128000D02*
X132839750Y-114128000D01*
G75*
G02*
X132621000Y-113909250I0J218750D01*
G01*
X132621000Y-113471750D01*
G75*
G02*
X132839750Y-113253000I218750J0D01*
G01*
X133352250Y-113253000D01*
G75*
G02*
X133571000Y-113471750I0J-218750D01*
G01*
X133571000Y-113909250D01*
G75*
G02*
X133352250Y-114128000I-218750J0D01*
G01*
G37*
G36*
G01*
X126248000Y-113551000D02*
X127498000Y-113551000D01*
G75*
G02*
X127748000Y-113801000I0J-250000D01*
G01*
X127748000Y-114551000D01*
G75*
G02*
X127498000Y-114801000I-250000J0D01*
G01*
X126248000Y-114801000D01*
G75*
G02*
X125998000Y-114551000I0J250000D01*
G01*
X125998000Y-113801000D01*
G75*
G02*
X126248000Y-113551000I250000J0D01*
G01*
G37*
G36*
G01*
X126248000Y-110751000D02*
X127498000Y-110751000D01*
G75*
G02*
X127748000Y-111001000I0J-250000D01*
G01*
X127748000Y-111751000D01*
G75*
G02*
X127498000Y-112001000I-250000J0D01*
G01*
X126248000Y-112001000D01*
G75*
G02*
X125998000Y-111751000I0J250000D01*
G01*
X125998000Y-111001000D01*
G75*
G02*
X126248000Y-110751000I250000J0D01*
G01*
G37*
G36*
G01*
X127498000Y-88379000D02*
X126248000Y-88379000D01*
G75*
G02*
X125998000Y-88129000I0J250000D01*
G01*
X125998000Y-87379000D01*
G75*
G02*
X126248000Y-87129000I250000J0D01*
G01*
X127498000Y-87129000D01*
G75*
G02*
X127748000Y-87379000I0J-250000D01*
G01*
X127748000Y-88129000D01*
G75*
G02*
X127498000Y-88379000I-250000J0D01*
G01*
G37*
G36*
G01*
X127498000Y-91179000D02*
X126248000Y-91179000D01*
G75*
G02*
X125998000Y-90929000I0J250000D01*
G01*
X125998000Y-90179000D01*
G75*
G02*
X126248000Y-89929000I250000J0D01*
G01*
X127498000Y-89929000D01*
G75*
G02*
X127748000Y-90179000I0J-250000D01*
G01*
X127748000Y-90929000D01*
G75*
G02*
X127498000Y-91179000I-250000J0D01*
G01*
G37*
G36*
G01*
X96268250Y-112807000D02*
X95755750Y-112807000D01*
G75*
G02*
X95537000Y-112588250I0J218750D01*
G01*
X95537000Y-112150750D01*
G75*
G02*
X95755750Y-111932000I218750J0D01*
G01*
X96268250Y-111932000D01*
G75*
G02*
X96487000Y-112150750I0J-218750D01*
G01*
X96487000Y-112588250D01*
G75*
G02*
X96268250Y-112807000I-218750J0D01*
G01*
G37*
G36*
G01*
X96268250Y-114382000D02*
X95755750Y-114382000D01*
G75*
G02*
X95537000Y-114163250I0J218750D01*
G01*
X95537000Y-113725750D01*
G75*
G02*
X95755750Y-113507000I218750J0D01*
G01*
X96268250Y-113507000D01*
G75*
G02*
X96487000Y-113725750I0J-218750D01*
G01*
X96487000Y-114163250D01*
G75*
G02*
X96268250Y-114382000I-218750J0D01*
G01*
G37*
G36*
G01*
X98837000Y-110360750D02*
X98837000Y-110873250D01*
G75*
G02*
X98618250Y-111092000I-218750J0D01*
G01*
X98180750Y-111092000D01*
G75*
G02*
X97962000Y-110873250I0J218750D01*
G01*
X97962000Y-110360750D01*
G75*
G02*
X98180750Y-110142000I218750J0D01*
G01*
X98618250Y-110142000D01*
G75*
G02*
X98837000Y-110360750I0J-218750D01*
G01*
G37*
G36*
G01*
X100412000Y-110360750D02*
X100412000Y-110873250D01*
G75*
G02*
X100193250Y-111092000I-218750J0D01*
G01*
X99755750Y-111092000D01*
G75*
G02*
X99537000Y-110873250I0J218750D01*
G01*
X99537000Y-110360750D01*
G75*
G02*
X99755750Y-110142000I218750J0D01*
G01*
X100193250Y-110142000D01*
G75*
G02*
X100412000Y-110360750I0J-218750D01*
G01*
G37*
G36*
G01*
X119157000Y-114297750D02*
X119157000Y-114810250D01*
G75*
G02*
X118938250Y-115029000I-218750J0D01*
G01*
X118500750Y-115029000D01*
G75*
G02*
X118282000Y-114810250I0J218750D01*
G01*
X118282000Y-114297750D01*
G75*
G02*
X118500750Y-114079000I218750J0D01*
G01*
X118938250Y-114079000D01*
G75*
G02*
X119157000Y-114297750I0J-218750D01*
G01*
G37*
G36*
G01*
X120732000Y-114297750D02*
X120732000Y-114810250D01*
G75*
G02*
X120513250Y-115029000I-218750J0D01*
G01*
X120075750Y-115029000D01*
G75*
G02*
X119857000Y-114810250I0J218750D01*
G01*
X119857000Y-114297750D01*
G75*
G02*
X120075750Y-114079000I218750J0D01*
G01*
X120513250Y-114079000D01*
G75*
G02*
X120732000Y-114297750I0J-218750D01*
G01*
G37*
G36*
G01*
X119157000Y-112265750D02*
X119157000Y-112778250D01*
G75*
G02*
X118938250Y-112997000I-218750J0D01*
G01*
X118500750Y-112997000D01*
G75*
G02*
X118282000Y-112778250I0J218750D01*
G01*
X118282000Y-112265750D01*
G75*
G02*
X118500750Y-112047000I218750J0D01*
G01*
X118938250Y-112047000D01*
G75*
G02*
X119157000Y-112265750I0J-218750D01*
G01*
G37*
G36*
G01*
X120732000Y-112265750D02*
X120732000Y-112778250D01*
G75*
G02*
X120513250Y-112997000I-218750J0D01*
G01*
X120075750Y-112997000D01*
G75*
G02*
X119857000Y-112778250I0J218750D01*
G01*
X119857000Y-112265750D01*
G75*
G02*
X120075750Y-112047000I218750J0D01*
G01*
X120513250Y-112047000D01*
G75*
G02*
X120732000Y-112265750I0J-218750D01*
G01*
G37*
G36*
G01*
X119157000Y-110360750D02*
X119157000Y-110873250D01*
G75*
G02*
X118938250Y-111092000I-218750J0D01*
G01*
X118500750Y-111092000D01*
G75*
G02*
X118282000Y-110873250I0J218750D01*
G01*
X118282000Y-110360750D01*
G75*
G02*
X118500750Y-110142000I218750J0D01*
G01*
X118938250Y-110142000D01*
G75*
G02*
X119157000Y-110360750I0J-218750D01*
G01*
G37*
G36*
G01*
X120732000Y-110360750D02*
X120732000Y-110873250D01*
G75*
G02*
X120513250Y-111092000I-218750J0D01*
G01*
X120075750Y-111092000D01*
G75*
G02*
X119857000Y-110873250I0J218750D01*
G01*
X119857000Y-110360750D01*
G75*
G02*
X120075750Y-110142000I218750J0D01*
G01*
X120513250Y-110142000D01*
G75*
G02*
X120732000Y-110360750I0J-218750D01*
G01*
G37*
G36*
G01*
X119857000Y-102110250D02*
X119857000Y-101597750D01*
G75*
G02*
X120075750Y-101379000I218750J0D01*
G01*
X120513250Y-101379000D01*
G75*
G02*
X120732000Y-101597750I0J-218750D01*
G01*
X120732000Y-102110250D01*
G75*
G02*
X120513250Y-102329000I-218750J0D01*
G01*
X120075750Y-102329000D01*
G75*
G02*
X119857000Y-102110250I0J218750D01*
G01*
G37*
G36*
G01*
X118282000Y-102110250D02*
X118282000Y-101597750D01*
G75*
G02*
X118500750Y-101379000I218750J0D01*
G01*
X118938250Y-101379000D01*
G75*
G02*
X119157000Y-101597750I0J-218750D01*
G01*
X119157000Y-102110250D01*
G75*
G02*
X118938250Y-102329000I-218750J0D01*
G01*
X118500750Y-102329000D01*
G75*
G02*
X118282000Y-102110250I0J218750D01*
G01*
G37*
G36*
G01*
X119157000Y-108074750D02*
X119157000Y-108587250D01*
G75*
G02*
X118938250Y-108806000I-218750J0D01*
G01*
X118500750Y-108806000D01*
G75*
G02*
X118282000Y-108587250I0J218750D01*
G01*
X118282000Y-108074750D01*
G75*
G02*
X118500750Y-107856000I218750J0D01*
G01*
X118938250Y-107856000D01*
G75*
G02*
X119157000Y-108074750I0J-218750D01*
G01*
G37*
G36*
G01*
X120732000Y-108074750D02*
X120732000Y-108587250D01*
G75*
G02*
X120513250Y-108806000I-218750J0D01*
G01*
X120075750Y-108806000D01*
G75*
G02*
X119857000Y-108587250I0J218750D01*
G01*
X119857000Y-108074750D01*
G75*
G02*
X120075750Y-107856000I218750J0D01*
G01*
X120513250Y-107856000D01*
G75*
G02*
X120732000Y-108074750I0J-218750D01*
G01*
G37*
G36*
G01*
X119857000Y-104269250D02*
X119857000Y-103756750D01*
G75*
G02*
X120075750Y-103538000I218750J0D01*
G01*
X120513250Y-103538000D01*
G75*
G02*
X120732000Y-103756750I0J-218750D01*
G01*
X120732000Y-104269250D01*
G75*
G02*
X120513250Y-104488000I-218750J0D01*
G01*
X120075750Y-104488000D01*
G75*
G02*
X119857000Y-104269250I0J218750D01*
G01*
G37*
G36*
G01*
X118282000Y-104269250D02*
X118282000Y-103756750D01*
G75*
G02*
X118500750Y-103538000I218750J0D01*
G01*
X118938250Y-103538000D01*
G75*
G02*
X119157000Y-103756750I0J-218750D01*
G01*
X119157000Y-104269250D01*
G75*
G02*
X118938250Y-104488000I-218750J0D01*
G01*
X118500750Y-104488000D01*
G75*
G02*
X118282000Y-104269250I0J218750D01*
G01*
G37*
G36*
G01*
X113862500Y-108079250D02*
X113862500Y-107566750D01*
G75*
G02*
X114081250Y-107348000I218750J0D01*
G01*
X114518750Y-107348000D01*
G75*
G02*
X114737500Y-107566750I0J-218750D01*
G01*
X114737500Y-108079250D01*
G75*
G02*
X114518750Y-108298000I-218750J0D01*
G01*
X114081250Y-108298000D01*
G75*
G02*
X113862500Y-108079250I0J218750D01*
G01*
G37*
G36*
G01*
X112287500Y-108079250D02*
X112287500Y-107566750D01*
G75*
G02*
X112506250Y-107348000I218750J0D01*
G01*
X112943750Y-107348000D01*
G75*
G02*
X113162500Y-107566750I0J-218750D01*
G01*
X113162500Y-108079250D01*
G75*
G02*
X112943750Y-108298000I-218750J0D01*
G01*
X112506250Y-108298000D01*
G75*
G02*
X112287500Y-108079250I0J218750D01*
G01*
G37*
G36*
G01*
X113888000Y-104777250D02*
X113888000Y-104264750D01*
G75*
G02*
X114106750Y-104046000I218750J0D01*
G01*
X114544250Y-104046000D01*
G75*
G02*
X114763000Y-104264750I0J-218750D01*
G01*
X114763000Y-104777250D01*
G75*
G02*
X114544250Y-104996000I-218750J0D01*
G01*
X114106750Y-104996000D01*
G75*
G02*
X113888000Y-104777250I0J218750D01*
G01*
G37*
G36*
G01*
X112313000Y-104777250D02*
X112313000Y-104264750D01*
G75*
G02*
X112531750Y-104046000I218750J0D01*
G01*
X112969250Y-104046000D01*
G75*
G02*
X113188000Y-104264750I0J-218750D01*
G01*
X113188000Y-104777250D01*
G75*
G02*
X112969250Y-104996000I-218750J0D01*
G01*
X112531750Y-104996000D01*
G75*
G02*
X112313000Y-104777250I0J218750D01*
G01*
G37*
G36*
G01*
X119157000Y-87373750D02*
X119157000Y-87886250D01*
G75*
G02*
X118938250Y-88105000I-218750J0D01*
G01*
X118500750Y-88105000D01*
G75*
G02*
X118282000Y-87886250I0J218750D01*
G01*
X118282000Y-87373750D01*
G75*
G02*
X118500750Y-87155000I218750J0D01*
G01*
X118938250Y-87155000D01*
G75*
G02*
X119157000Y-87373750I0J-218750D01*
G01*
G37*
G36*
G01*
X120732000Y-87373750D02*
X120732000Y-87886250D01*
G75*
G02*
X120513250Y-88105000I-218750J0D01*
G01*
X120075750Y-88105000D01*
G75*
G02*
X119857000Y-87886250I0J218750D01*
G01*
X119857000Y-87373750D01*
G75*
G02*
X120075750Y-87155000I218750J0D01*
G01*
X120513250Y-87155000D01*
G75*
G02*
X120732000Y-87373750I0J-218750D01*
G01*
G37*
G36*
G01*
X119157000Y-89278750D02*
X119157000Y-89791250D01*
G75*
G02*
X118938250Y-90010000I-218750J0D01*
G01*
X118500750Y-90010000D01*
G75*
G02*
X118282000Y-89791250I0J218750D01*
G01*
X118282000Y-89278750D01*
G75*
G02*
X118500750Y-89060000I218750J0D01*
G01*
X118938250Y-89060000D01*
G75*
G02*
X119157000Y-89278750I0J-218750D01*
G01*
G37*
G36*
G01*
X120732000Y-89278750D02*
X120732000Y-89791250D01*
G75*
G02*
X120513250Y-90010000I-218750J0D01*
G01*
X120075750Y-90010000D01*
G75*
G02*
X119857000Y-89791250I0J218750D01*
G01*
X119857000Y-89278750D01*
G75*
G02*
X120075750Y-89060000I218750J0D01*
G01*
X120513250Y-89060000D01*
G75*
G02*
X120732000Y-89278750I0J-218750D01*
G01*
G37*
G36*
G01*
X119157000Y-99819750D02*
X119157000Y-100332250D01*
G75*
G02*
X118938250Y-100551000I-218750J0D01*
G01*
X118500750Y-100551000D01*
G75*
G02*
X118282000Y-100332250I0J218750D01*
G01*
X118282000Y-99819750D01*
G75*
G02*
X118500750Y-99601000I218750J0D01*
G01*
X118938250Y-99601000D01*
G75*
G02*
X119157000Y-99819750I0J-218750D01*
G01*
G37*
G36*
G01*
X120732000Y-99819750D02*
X120732000Y-100332250D01*
G75*
G02*
X120513250Y-100551000I-218750J0D01*
G01*
X120075750Y-100551000D01*
G75*
G02*
X119857000Y-100332250I0J218750D01*
G01*
X119857000Y-99819750D01*
G75*
G02*
X120075750Y-99601000I218750J0D01*
G01*
X120513250Y-99601000D01*
G75*
G02*
X120732000Y-99819750I0J-218750D01*
G01*
G37*
G36*
G01*
X119857000Y-91569250D02*
X119857000Y-91056750D01*
G75*
G02*
X120075750Y-90838000I218750J0D01*
G01*
X120513250Y-90838000D01*
G75*
G02*
X120732000Y-91056750I0J-218750D01*
G01*
X120732000Y-91569250D01*
G75*
G02*
X120513250Y-91788000I-218750J0D01*
G01*
X120075750Y-91788000D01*
G75*
G02*
X119857000Y-91569250I0J218750D01*
G01*
G37*
G36*
G01*
X118282000Y-91569250D02*
X118282000Y-91056750D01*
G75*
G02*
X118500750Y-90838000I218750J0D01*
G01*
X118938250Y-90838000D01*
G75*
G02*
X119157000Y-91056750I0J-218750D01*
G01*
X119157000Y-91569250D01*
G75*
G02*
X118938250Y-91788000I-218750J0D01*
G01*
X118500750Y-91788000D01*
G75*
G02*
X118282000Y-91569250I0J218750D01*
G01*
G37*
G36*
G01*
X114015000Y-97919250D02*
X114015000Y-97406750D01*
G75*
G02*
X114233750Y-97188000I218750J0D01*
G01*
X114671250Y-97188000D01*
G75*
G02*
X114890000Y-97406750I0J-218750D01*
G01*
X114890000Y-97919250D01*
G75*
G02*
X114671250Y-98138000I-218750J0D01*
G01*
X114233750Y-98138000D01*
G75*
G02*
X114015000Y-97919250I0J218750D01*
G01*
G37*
G36*
G01*
X112440000Y-97919250D02*
X112440000Y-97406750D01*
G75*
G02*
X112658750Y-97188000I218750J0D01*
G01*
X113096250Y-97188000D01*
G75*
G02*
X113315000Y-97406750I0J-218750D01*
G01*
X113315000Y-97919250D01*
G75*
G02*
X113096250Y-98138000I-218750J0D01*
G01*
X112658750Y-98138000D01*
G75*
G02*
X112440000Y-97919250I0J218750D01*
G01*
G37*
G36*
G01*
X119157000Y-97660750D02*
X119157000Y-98173250D01*
G75*
G02*
X118938250Y-98392000I-218750J0D01*
G01*
X118500750Y-98392000D01*
G75*
G02*
X118282000Y-98173250I0J218750D01*
G01*
X118282000Y-97660750D01*
G75*
G02*
X118500750Y-97442000I218750J0D01*
G01*
X118938250Y-97442000D01*
G75*
G02*
X119157000Y-97660750I0J-218750D01*
G01*
G37*
G36*
G01*
X120732000Y-97660750D02*
X120732000Y-98173250D01*
G75*
G02*
X120513250Y-98392000I-218750J0D01*
G01*
X120075750Y-98392000D01*
G75*
G02*
X119857000Y-98173250I0J218750D01*
G01*
X119857000Y-97660750D01*
G75*
G02*
X120075750Y-97442000I218750J0D01*
G01*
X120513250Y-97442000D01*
G75*
G02*
X120732000Y-97660750I0J-218750D01*
G01*
G37*
G36*
G01*
X119857000Y-93728250D02*
X119857000Y-93215750D01*
G75*
G02*
X120075750Y-92997000I218750J0D01*
G01*
X120513250Y-92997000D01*
G75*
G02*
X120732000Y-93215750I0J-218750D01*
G01*
X120732000Y-93728250D01*
G75*
G02*
X120513250Y-93947000I-218750J0D01*
G01*
X120075750Y-93947000D01*
G75*
G02*
X119857000Y-93728250I0J218750D01*
G01*
G37*
G36*
G01*
X118282000Y-93728250D02*
X118282000Y-93215750D01*
G75*
G02*
X118500750Y-92997000I218750J0D01*
G01*
X118938250Y-92997000D01*
G75*
G02*
X119157000Y-93215750I0J-218750D01*
G01*
X119157000Y-93728250D01*
G75*
G02*
X118938250Y-93947000I-218750J0D01*
G01*
X118500750Y-93947000D01*
G75*
G02*
X118282000Y-93728250I0J218750D01*
G01*
G37*
G36*
G01*
X113989500Y-94363250D02*
X113989500Y-93850750D01*
G75*
G02*
X114208250Y-93632000I218750J0D01*
G01*
X114645750Y-93632000D01*
G75*
G02*
X114864500Y-93850750I0J-218750D01*
G01*
X114864500Y-94363250D01*
G75*
G02*
X114645750Y-94582000I-218750J0D01*
G01*
X114208250Y-94582000D01*
G75*
G02*
X113989500Y-94363250I0J218750D01*
G01*
G37*
G36*
G01*
X112414500Y-94363250D02*
X112414500Y-93850750D01*
G75*
G02*
X112633250Y-93632000I218750J0D01*
G01*
X113070750Y-93632000D01*
G75*
G02*
X113289500Y-93850750I0J-218750D01*
G01*
X113289500Y-94363250D01*
G75*
G02*
X113070750Y-94582000I-218750J0D01*
G01*
X112633250Y-94582000D01*
G75*
G02*
X112414500Y-94363250I0J218750D01*
G01*
G37*
G36*
G01*
X102999250Y-92233000D02*
X102486750Y-92233000D01*
G75*
G02*
X102268000Y-92014250I0J218750D01*
G01*
X102268000Y-91576750D01*
G75*
G02*
X102486750Y-91358000I218750J0D01*
G01*
X102999250Y-91358000D01*
G75*
G02*
X103218000Y-91576750I0J-218750D01*
G01*
X103218000Y-92014250D01*
G75*
G02*
X102999250Y-92233000I-218750J0D01*
G01*
G37*
G36*
G01*
X102999250Y-93808000D02*
X102486750Y-93808000D01*
G75*
G02*
X102268000Y-93589250I0J218750D01*
G01*
X102268000Y-93151750D01*
G75*
G02*
X102486750Y-92933000I218750J0D01*
G01*
X102999250Y-92933000D01*
G75*
G02*
X103218000Y-93151750I0J-218750D01*
G01*
X103218000Y-93589250D01*
G75*
G02*
X102999250Y-93808000I-218750J0D01*
G01*
G37*
G36*
G01*
X91760000Y-77752001D02*
X91760000Y-74901999D01*
G75*
G02*
X92009999Y-74652000I249999J0D01*
G01*
X92860001Y-74652000D01*
G75*
G02*
X93110000Y-74901999I0J-249999D01*
G01*
X93110000Y-77752001D01*
G75*
G02*
X92860001Y-78002000I-249999J0D01*
G01*
X92009999Y-78002000D01*
G75*
G02*
X91760000Y-77752001I0J249999D01*
G01*
G37*
G36*
G01*
X85960000Y-77752001D02*
X85960000Y-74901999D01*
G75*
G02*
X86209999Y-74652000I249999J0D01*
G01*
X87060001Y-74652000D01*
G75*
G02*
X87310000Y-74901999I0J-249999D01*
G01*
X87310000Y-77752001D01*
G75*
G02*
X87060001Y-78002000I-249999J0D01*
G01*
X86209999Y-78002000D01*
G75*
G02*
X85960000Y-77752001I0J249999D01*
G01*
G37*
D11*
X99933000Y-113284000D03*
X97933000Y-114234000D03*
X97933000Y-112334000D03*
D12*
G36*
X127465000Y-107472000D02*
G01*
X125265000Y-107472000D01*
X125265000Y-106372000D01*
X127465000Y-106372000D01*
X127465000Y-107472000D01*
G37*
G36*
X127465000Y-105972000D02*
G01*
X125265000Y-105972000D01*
X125265000Y-104872000D01*
X127465000Y-104872000D01*
X127465000Y-105972000D01*
G37*
G36*
X124865000Y-107472000D02*
G01*
X123065000Y-107472000D01*
X123065000Y-104872000D01*
X124865000Y-104872000D01*
X124865000Y-107472000D01*
G37*
D13*
X127255500Y-108222000D03*
X126455500Y-108222000D03*
X125655500Y-108222000D03*
X124855500Y-108222000D03*
X124055500Y-108222000D03*
X123255500Y-108222000D03*
X127255500Y-104122000D03*
X126455500Y-104122000D03*
X125655500Y-104122000D03*
X124855500Y-104122000D03*
X124055500Y-104122000D03*
X123255500Y-104122000D03*
D12*
G36*
X127465000Y-96931000D02*
G01*
X125265000Y-96931000D01*
X125265000Y-95831000D01*
X127465000Y-95831000D01*
X127465000Y-96931000D01*
G37*
G36*
X127465000Y-95431000D02*
G01*
X125265000Y-95431000D01*
X125265000Y-94331000D01*
X127465000Y-94331000D01*
X127465000Y-95431000D01*
G37*
G36*
X124865000Y-96931000D02*
G01*
X123065000Y-96931000D01*
X123065000Y-94331000D01*
X124865000Y-94331000D01*
X124865000Y-96931000D01*
G37*
D13*
X127255500Y-97681000D03*
X126455500Y-97681000D03*
X125655500Y-97681000D03*
X124855500Y-97681000D03*
X124055500Y-97681000D03*
X123255500Y-97681000D03*
X127255500Y-93581000D03*
X126455500Y-93581000D03*
X125655500Y-93581000D03*
X124855500Y-93581000D03*
X124055500Y-93581000D03*
X123255500Y-93581000D03*
D14*
X82169000Y-82042000D03*
X78819000Y-85092000D03*
X82169000Y-85092000D03*
X78819000Y-82042000D03*
D15*
X86794000Y-81287000D03*
X86794000Y-85847000D03*
G36*
G01*
X78420000Y-74774999D02*
X78420000Y-77625001D01*
G75*
G02*
X78170001Y-77875000I-249999J0D01*
G01*
X77319999Y-77875000D01*
G75*
G02*
X77070000Y-77625001I0J249999D01*
G01*
X77070000Y-74774999D01*
G75*
G02*
X77319999Y-74525000I249999J0D01*
G01*
X78170001Y-74525000D01*
G75*
G02*
X78420000Y-74774999I0J-249999D01*
G01*
G37*
G36*
G01*
X84220000Y-74774999D02*
X84220000Y-77625001D01*
G75*
G02*
X83970001Y-77875000I-249999J0D01*
G01*
X83119999Y-77875000D01*
G75*
G02*
X82870000Y-77625001I0J249999D01*
G01*
X82870000Y-74774999D01*
G75*
G02*
X83119999Y-74525000I249999J0D01*
G01*
X83970001Y-74525000D01*
G75*
G02*
X84220000Y-74774999I0J-249999D01*
G01*
G37*
G36*
G01*
X88080001Y-118041000D02*
X87179999Y-118041000D01*
G75*
G02*
X86930000Y-117791001I0J249999D01*
G01*
X86930000Y-117140999D01*
G75*
G02*
X87179999Y-116891000I249999J0D01*
G01*
X88080001Y-116891000D01*
G75*
G02*
X88330000Y-117140999I0J-249999D01*
G01*
X88330000Y-117791001D01*
G75*
G02*
X88080001Y-118041000I-249999J0D01*
G01*
G37*
G36*
G01*
X88080001Y-120091000D02*
X87179999Y-120091000D01*
G75*
G02*
X86930000Y-119841001I0J249999D01*
G01*
X86930000Y-119190999D01*
G75*
G02*
X87179999Y-118941000I249999J0D01*
G01*
X88080001Y-118941000D01*
G75*
G02*
X88330000Y-119190999I0J-249999D01*
G01*
X88330000Y-119841001D01*
G75*
G02*
X88080001Y-120091000I-249999J0D01*
G01*
G37*
G36*
G01*
X85667001Y-118041000D02*
X84766999Y-118041000D01*
G75*
G02*
X84517000Y-117791001I0J249999D01*
G01*
X84517000Y-117140999D01*
G75*
G02*
X84766999Y-116891000I249999J0D01*
G01*
X85667001Y-116891000D01*
G75*
G02*
X85917000Y-117140999I0J-249999D01*
G01*
X85917000Y-117791001D01*
G75*
G02*
X85667001Y-118041000I-249999J0D01*
G01*
G37*
G36*
G01*
X85667001Y-120091000D02*
X84766999Y-120091000D01*
G75*
G02*
X84517000Y-119841001I0J249999D01*
G01*
X84517000Y-119190999D01*
G75*
G02*
X84766999Y-118941000I249999J0D01*
G01*
X85667001Y-118941000D01*
G75*
G02*
X85917000Y-119190999I0J-249999D01*
G01*
X85917000Y-119841001D01*
G75*
G02*
X85667001Y-120091000I-249999J0D01*
G01*
G37*
G36*
G01*
X80841001Y-118041000D02*
X79940999Y-118041000D01*
G75*
G02*
X79691000Y-117791001I0J249999D01*
G01*
X79691000Y-117140999D01*
G75*
G02*
X79940999Y-116891000I249999J0D01*
G01*
X80841001Y-116891000D01*
G75*
G02*
X81091000Y-117140999I0J-249999D01*
G01*
X81091000Y-117791001D01*
G75*
G02*
X80841001Y-118041000I-249999J0D01*
G01*
G37*
G36*
G01*
X80841001Y-120091000D02*
X79940999Y-120091000D01*
G75*
G02*
X79691000Y-119841001I0J249999D01*
G01*
X79691000Y-119190999D01*
G75*
G02*
X79940999Y-118941000I249999J0D01*
G01*
X80841001Y-118941000D01*
G75*
G02*
X81091000Y-119190999I0J-249999D01*
G01*
X81091000Y-119841001D01*
G75*
G02*
X80841001Y-120091000I-249999J0D01*
G01*
G37*
G36*
G01*
X83254001Y-118041000D02*
X82353999Y-118041000D01*
G75*
G02*
X82104000Y-117791001I0J249999D01*
G01*
X82104000Y-117140999D01*
G75*
G02*
X82353999Y-116891000I249999J0D01*
G01*
X83254001Y-116891000D01*
G75*
G02*
X83504000Y-117140999I0J-249999D01*
G01*
X83504000Y-117791001D01*
G75*
G02*
X83254001Y-118041000I-249999J0D01*
G01*
G37*
G36*
G01*
X83254001Y-120091000D02*
X82353999Y-120091000D01*
G75*
G02*
X82104000Y-119841001I0J249999D01*
G01*
X82104000Y-119190999D01*
G75*
G02*
X82353999Y-118941000I249999J0D01*
G01*
X83254001Y-118941000D01*
G75*
G02*
X83504000Y-119190999I0J-249999D01*
G01*
X83504000Y-119841001D01*
G75*
G02*
X83254001Y-120091000I-249999J0D01*
G01*
G37*
G36*
G01*
X90493001Y-118041000D02*
X89592999Y-118041000D01*
G75*
G02*
X89343000Y-117791001I0J249999D01*
G01*
X89343000Y-117140999D01*
G75*
G02*
X89592999Y-116891000I249999J0D01*
G01*
X90493001Y-116891000D01*
G75*
G02*
X90743000Y-117140999I0J-249999D01*
G01*
X90743000Y-117791001D01*
G75*
G02*
X90493001Y-118041000I-249999J0D01*
G01*
G37*
G36*
G01*
X90493001Y-120091000D02*
X89592999Y-120091000D01*
G75*
G02*
X89343000Y-119841001I0J249999D01*
G01*
X89343000Y-119190999D01*
G75*
G02*
X89592999Y-118941000I249999J0D01*
G01*
X90493001Y-118941000D01*
G75*
G02*
X90743000Y-119190999I0J-249999D01*
G01*
X90743000Y-119841001D01*
G75*
G02*
X90493001Y-120091000I-249999J0D01*
G01*
G37*
G36*
G01*
X82777333Y-98367000D02*
X83677335Y-98367000D01*
G75*
G02*
X83927334Y-98616999I0J-249999D01*
G01*
X83927334Y-99267001D01*
G75*
G02*
X83677335Y-99517000I-249999J0D01*
G01*
X82777333Y-99517000D01*
G75*
G02*
X82527334Y-99267001I0J249999D01*
G01*
X82527334Y-98616999D01*
G75*
G02*
X82777333Y-98367000I249999J0D01*
G01*
G37*
G36*
G01*
X82777333Y-96317000D02*
X83677335Y-96317000D01*
G75*
G02*
X83927334Y-96566999I0J-249999D01*
G01*
X83927334Y-97217001D01*
G75*
G02*
X83677335Y-97467000I-249999J0D01*
G01*
X82777333Y-97467000D01*
G75*
G02*
X82527334Y-97217001I0J249999D01*
G01*
X82527334Y-96566999D01*
G75*
G02*
X82777333Y-96317000I249999J0D01*
G01*
G37*
G36*
G01*
X87687999Y-98367000D02*
X88588001Y-98367000D01*
G75*
G02*
X88838000Y-98616999I0J-249999D01*
G01*
X88838000Y-99267001D01*
G75*
G02*
X88588001Y-99517000I-249999J0D01*
G01*
X87687999Y-99517000D01*
G75*
G02*
X87438000Y-99267001I0J249999D01*
G01*
X87438000Y-98616999D01*
G75*
G02*
X87687999Y-98367000I249999J0D01*
G01*
G37*
G36*
G01*
X87687999Y-96317000D02*
X88588001Y-96317000D01*
G75*
G02*
X88838000Y-96566999I0J-249999D01*
G01*
X88838000Y-97217001D01*
G75*
G02*
X88588001Y-97467000I-249999J0D01*
G01*
X87687999Y-97467000D01*
G75*
G02*
X87438000Y-97217001I0J249999D01*
G01*
X87438000Y-96566999D01*
G75*
G02*
X87687999Y-96317000I249999J0D01*
G01*
G37*
G36*
G01*
X85232666Y-98367000D02*
X86132668Y-98367000D01*
G75*
G02*
X86382667Y-98616999I0J-249999D01*
G01*
X86382667Y-99267001D01*
G75*
G02*
X86132668Y-99517000I-249999J0D01*
G01*
X85232666Y-99517000D01*
G75*
G02*
X84982667Y-99267001I0J249999D01*
G01*
X84982667Y-98616999D01*
G75*
G02*
X85232666Y-98367000I249999J0D01*
G01*
G37*
G36*
G01*
X85232666Y-96317000D02*
X86132668Y-96317000D01*
G75*
G02*
X86382667Y-96566999I0J-249999D01*
G01*
X86382667Y-97217001D01*
G75*
G02*
X86132668Y-97467000I-249999J0D01*
G01*
X85232666Y-97467000D01*
G75*
G02*
X84982667Y-97217001I0J249999D01*
G01*
X84982667Y-96566999D01*
G75*
G02*
X85232666Y-96317000I249999J0D01*
G01*
G37*
G36*
G01*
X80321999Y-98367000D02*
X81222001Y-98367000D01*
G75*
G02*
X81472000Y-98616999I0J-249999D01*
G01*
X81472000Y-99267001D01*
G75*
G02*
X81222001Y-99517000I-249999J0D01*
G01*
X80321999Y-99517000D01*
G75*
G02*
X80072000Y-99267001I0J249999D01*
G01*
X80072000Y-98616999D01*
G75*
G02*
X80321999Y-98367000I249999J0D01*
G01*
G37*
G36*
G01*
X80321999Y-96317000D02*
X81222001Y-96317000D01*
G75*
G02*
X81472000Y-96566999I0J-249999D01*
G01*
X81472000Y-97217001D01*
G75*
G02*
X81222001Y-97467000I-249999J0D01*
G01*
X80321999Y-97467000D01*
G75*
G02*
X80072000Y-97217001I0J249999D01*
G01*
X80072000Y-96566999D01*
G75*
G02*
X80321999Y-96317000I249999J0D01*
G01*
G37*
D16*
X107696000Y-114157000D03*
X106746000Y-112157000D03*
X108646000Y-112157000D03*
X111506000Y-114157000D03*
X110556000Y-112157000D03*
X112456000Y-112157000D03*
X111506000Y-87265000D03*
X112456000Y-89265000D03*
X110556000Y-89265000D03*
X107696000Y-87265000D03*
X108646000Y-89265000D03*
X106746000Y-89265000D03*
G36*
G01*
X90747000Y-68274250D02*
X90747000Y-67361750D01*
G75*
G02*
X90990750Y-67118000I243750J0D01*
G01*
X91478250Y-67118000D01*
G75*
G02*
X91722000Y-67361750I0J-243750D01*
G01*
X91722000Y-68274250D01*
G75*
G02*
X91478250Y-68518000I-243750J0D01*
G01*
X90990750Y-68518000D01*
G75*
G02*
X90747000Y-68274250I0J243750D01*
G01*
G37*
G36*
G01*
X88872000Y-68274250D02*
X88872000Y-67361750D01*
G75*
G02*
X89115750Y-67118000I243750J0D01*
G01*
X89603250Y-67118000D01*
G75*
G02*
X89847000Y-67361750I0J-243750D01*
G01*
X89847000Y-68274250D01*
G75*
G02*
X89603250Y-68518000I-243750J0D01*
G01*
X89115750Y-68518000D01*
G75*
G02*
X88872000Y-68274250I0J243750D01*
G01*
G37*
G36*
G01*
X91300000Y-85481000D02*
X91300000Y-86731000D01*
G75*
G02*
X91050000Y-86981000I-250000J0D01*
G01*
X90300000Y-86981000D01*
G75*
G02*
X90050000Y-86731000I0J250000D01*
G01*
X90050000Y-85481000D01*
G75*
G02*
X90300000Y-85231000I250000J0D01*
G01*
X91050000Y-85231000D01*
G75*
G02*
X91300000Y-85481000I0J-250000D01*
G01*
G37*
G36*
G01*
X94100000Y-85481000D02*
X94100000Y-86731000D01*
G75*
G02*
X93850000Y-86981000I-250000J0D01*
G01*
X93100000Y-86981000D01*
G75*
G02*
X92850000Y-86731000I0J250000D01*
G01*
X92850000Y-85481000D01*
G75*
G02*
X93100000Y-85231000I250000J0D01*
G01*
X93850000Y-85231000D01*
G75*
G02*
X94100000Y-85481000I0J-250000D01*
G01*
G37*
G36*
G01*
X124428000Y-122666000D02*
X124428000Y-120666000D01*
G75*
G02*
X124678000Y-120416000I250000J0D01*
G01*
X128578000Y-120416000D01*
G75*
G02*
X128828000Y-120666000I0J-250000D01*
G01*
X128828000Y-122666000D01*
G75*
G02*
X128578000Y-122916000I-250000J0D01*
G01*
X124678000Y-122916000D01*
G75*
G02*
X124428000Y-122666000I0J250000D01*
G01*
G37*
G36*
G01*
X116028000Y-122666000D02*
X116028000Y-120666000D01*
G75*
G02*
X116278000Y-120416000I250000J0D01*
G01*
X120178000Y-120416000D01*
G75*
G02*
X120428000Y-120666000I0J-250000D01*
G01*
X120428000Y-122666000D01*
G75*
G02*
X120178000Y-122916000I-250000J0D01*
G01*
X116278000Y-122916000D01*
G75*
G02*
X116028000Y-122666000I0J250000D01*
G01*
G37*
G36*
G01*
X117716000Y-105547000D02*
X117716000Y-106797000D01*
G75*
G02*
X117466000Y-107047000I-250000J0D01*
G01*
X116716000Y-107047000D01*
G75*
G02*
X116466000Y-106797000I0J250000D01*
G01*
X116466000Y-105547000D01*
G75*
G02*
X116716000Y-105297000I250000J0D01*
G01*
X117466000Y-105297000D01*
G75*
G02*
X117716000Y-105547000I0J-250000D01*
G01*
G37*
G36*
G01*
X120516000Y-105547000D02*
X120516000Y-106797000D01*
G75*
G02*
X120266000Y-107047000I-250000J0D01*
G01*
X119516000Y-107047000D01*
G75*
G02*
X119266000Y-106797000I0J250000D01*
G01*
X119266000Y-105547000D01*
G75*
G02*
X119516000Y-105297000I250000J0D01*
G01*
X120266000Y-105297000D01*
G75*
G02*
X120516000Y-105547000I0J-250000D01*
G01*
G37*
G36*
G01*
X124428000Y-81645000D02*
X124428000Y-79645000D01*
G75*
G02*
X124678000Y-79395000I250000J0D01*
G01*
X128578000Y-79395000D01*
G75*
G02*
X128828000Y-79645000I0J-250000D01*
G01*
X128828000Y-81645000D01*
G75*
G02*
X128578000Y-81895000I-250000J0D01*
G01*
X124678000Y-81895000D01*
G75*
G02*
X124428000Y-81645000I0J250000D01*
G01*
G37*
G36*
G01*
X116028000Y-81645000D02*
X116028000Y-79645000D01*
G75*
G02*
X116278000Y-79395000I250000J0D01*
G01*
X120178000Y-79395000D01*
G75*
G02*
X120428000Y-79645000I0J-250000D01*
G01*
X120428000Y-81645000D01*
G75*
G02*
X120178000Y-81895000I-250000J0D01*
G01*
X116278000Y-81895000D01*
G75*
G02*
X116028000Y-81645000I0J250000D01*
G01*
G37*
G36*
G01*
X117716000Y-95133000D02*
X117716000Y-96383000D01*
G75*
G02*
X117466000Y-96633000I-250000J0D01*
G01*
X116716000Y-96633000D01*
G75*
G02*
X116466000Y-96383000I0J250000D01*
G01*
X116466000Y-95133000D01*
G75*
G02*
X116716000Y-94883000I250000J0D01*
G01*
X117466000Y-94883000D01*
G75*
G02*
X117716000Y-95133000I0J-250000D01*
G01*
G37*
G36*
G01*
X120516000Y-95133000D02*
X120516000Y-96383000D01*
G75*
G02*
X120266000Y-96633000I-250000J0D01*
G01*
X119516000Y-96633000D01*
G75*
G02*
X119266000Y-96383000I0J250000D01*
G01*
X119266000Y-95133000D01*
G75*
G02*
X119516000Y-94883000I250000J0D01*
G01*
X120266000Y-94883000D01*
G75*
G02*
X120516000Y-95133000I0J-250000D01*
G01*
G37*
G36*
G01*
X102176000Y-119266000D02*
X104326000Y-119266000D01*
G75*
G02*
X104576000Y-119516000I0J-250000D01*
G01*
X104576000Y-120441000D01*
G75*
G02*
X104326000Y-120691000I-250000J0D01*
G01*
X102176000Y-120691000D01*
G75*
G02*
X101926000Y-120441000I0J250000D01*
G01*
X101926000Y-119516000D01*
G75*
G02*
X102176000Y-119266000I250000J0D01*
G01*
G37*
G36*
G01*
X102176000Y-116291000D02*
X104326000Y-116291000D01*
G75*
G02*
X104576000Y-116541000I0J-250000D01*
G01*
X104576000Y-117466000D01*
G75*
G02*
X104326000Y-117716000I-250000J0D01*
G01*
X102176000Y-117716000D01*
G75*
G02*
X101926000Y-117466000I0J250000D01*
G01*
X101926000Y-116541000D01*
G75*
G02*
X102176000Y-116291000I250000J0D01*
G01*
G37*
G36*
G01*
X105732000Y-119266000D02*
X107882000Y-119266000D01*
G75*
G02*
X108132000Y-119516000I0J-250000D01*
G01*
X108132000Y-120441000D01*
G75*
G02*
X107882000Y-120691000I-250000J0D01*
G01*
X105732000Y-120691000D01*
G75*
G02*
X105482000Y-120441000I0J250000D01*
G01*
X105482000Y-119516000D01*
G75*
G02*
X105732000Y-119266000I250000J0D01*
G01*
G37*
G36*
G01*
X105732000Y-116291000D02*
X107882000Y-116291000D01*
G75*
G02*
X108132000Y-116541000I0J-250000D01*
G01*
X108132000Y-117466000D01*
G75*
G02*
X107882000Y-117716000I-250000J0D01*
G01*
X105732000Y-117716000D01*
G75*
G02*
X105482000Y-117466000I0J250000D01*
G01*
X105482000Y-116541000D01*
G75*
G02*
X105732000Y-116291000I250000J0D01*
G01*
G37*
G36*
G01*
X110093000Y-72102000D02*
X108093000Y-72102000D01*
G75*
G02*
X107843000Y-71852000I0J250000D01*
G01*
X107843000Y-68352000D01*
G75*
G02*
X108093000Y-68102000I250000J0D01*
G01*
X110093000Y-68102000D01*
G75*
G02*
X110343000Y-68352000I0J-250000D01*
G01*
X110343000Y-71852000D01*
G75*
G02*
X110093000Y-72102000I-250000J0D01*
G01*
G37*
G36*
G01*
X110093000Y-78202000D02*
X108093000Y-78202000D01*
G75*
G02*
X107843000Y-77952000I0J250000D01*
G01*
X107843000Y-74452000D01*
G75*
G02*
X108093000Y-74202000I250000J0D01*
G01*
X110093000Y-74202000D01*
G75*
G02*
X110343000Y-74452000I0J-250000D01*
G01*
X110343000Y-77952000D01*
G75*
G02*
X110093000Y-78202000I-250000J0D01*
G01*
G37*
G36*
G01*
X100822000Y-72102000D02*
X98822000Y-72102000D01*
G75*
G02*
X98572000Y-71852000I0J250000D01*
G01*
X98572000Y-68352000D01*
G75*
G02*
X98822000Y-68102000I250000J0D01*
G01*
X100822000Y-68102000D01*
G75*
G02*
X101072000Y-68352000I0J-250000D01*
G01*
X101072000Y-71852000D01*
G75*
G02*
X100822000Y-72102000I-250000J0D01*
G01*
G37*
G36*
G01*
X100822000Y-78202000D02*
X98822000Y-78202000D01*
G75*
G02*
X98572000Y-77952000I0J250000D01*
G01*
X98572000Y-74452000D01*
G75*
G02*
X98822000Y-74202000I250000J0D01*
G01*
X100822000Y-74202000D01*
G75*
G02*
X101072000Y-74452000I0J-250000D01*
G01*
X101072000Y-77952000D01*
G75*
G02*
X100822000Y-78202000I-250000J0D01*
G01*
G37*
M02*
