G04 #@! TF.GenerationSoftware,KiCad,Pcbnew,(5.1.6)-1*
G04 #@! TF.CreationDate,2020-05-30T22:10:31+02:00*
G04 #@! TF.ProjectId,TMC51604Axis,544d4335-3136-4303-9441-7869732e6b69,rev?*
G04 #@! TF.SameCoordinates,Original*
G04 #@! TF.FileFunction,Legend,Top*
G04 #@! TF.FilePolarity,Positive*
%FSLAX46Y46*%
G04 Gerber Fmt 4.6, Leading zero omitted, Abs format (unit mm)*
G04 Created by KiCad (PCBNEW (5.1.6)-1) date 2020-05-30 22:10:31*
%MOMM*%
%LPD*%
G01*
G04 APERTURE LIST*
%ADD10C,0.150000*%
%ADD11C,0.250000*%
%ADD12C,0.200000*%
%ADD13C,0.300000*%
%ADD14C,0.120000*%
G04 APERTURE END LIST*
D10*
X114892142Y-129301142D02*
X114977857Y-129301142D01*
X115063571Y-129344000D01*
X115106428Y-129386857D01*
X115149285Y-129472571D01*
X115192142Y-129644000D01*
X115192142Y-129858285D01*
X115149285Y-130029714D01*
X115106428Y-130115428D01*
X115063571Y-130158285D01*
X114977857Y-130201142D01*
X114892142Y-130201142D01*
X114806428Y-130158285D01*
X114763571Y-130115428D01*
X114720714Y-130029714D01*
X114677857Y-129858285D01*
X114677857Y-129644000D01*
X114720714Y-129472571D01*
X114763571Y-129386857D01*
X114806428Y-129344000D01*
X114892142Y-129301142D01*
X107953142Y-130201142D02*
X107438857Y-130201142D01*
X107696000Y-130201142D02*
X107696000Y-129301142D01*
X107610285Y-129429714D01*
X107524571Y-129515428D01*
X107438857Y-129558285D01*
X126830142Y-129428142D02*
X126915857Y-129428142D01*
X127001571Y-129471000D01*
X127044428Y-129513857D01*
X127087285Y-129599571D01*
X127130142Y-129771000D01*
X127130142Y-129985285D01*
X127087285Y-130156714D01*
X127044428Y-130242428D01*
X127001571Y-130285285D01*
X126915857Y-130328142D01*
X126830142Y-130328142D01*
X126744428Y-130285285D01*
X126701571Y-130242428D01*
X126658714Y-130156714D01*
X126615857Y-129985285D01*
X126615857Y-129771000D01*
X126658714Y-129599571D01*
X126701571Y-129513857D01*
X126744428Y-129471000D01*
X126830142Y-129428142D01*
X119510142Y-130328142D02*
X118995857Y-130328142D01*
X119253000Y-130328142D02*
X119253000Y-129428142D01*
X119167285Y-129556714D01*
X119081571Y-129642428D01*
X118995857Y-129685285D01*
D11*
X135421714Y-125713238D02*
X136231238Y-125713238D01*
X136326476Y-125760857D01*
X136374095Y-125808476D01*
X136421714Y-125903714D01*
X136421714Y-126046571D01*
X136374095Y-126141809D01*
X136040761Y-125713238D02*
X136088380Y-125808476D01*
X136088380Y-125998952D01*
X136040761Y-126094190D01*
X135993142Y-126141809D01*
X135897904Y-126189428D01*
X135612190Y-126189428D01*
X135516952Y-126141809D01*
X135469333Y-126094190D01*
X135421714Y-125998952D01*
X135421714Y-125808476D01*
X135469333Y-125713238D01*
X136088380Y-125237047D02*
X135421714Y-125237047D01*
X135088380Y-125237047D02*
X135136000Y-125284666D01*
X135183619Y-125237047D01*
X135136000Y-125189428D01*
X135088380Y-125237047D01*
X135183619Y-125237047D01*
X135421714Y-124903714D02*
X135421714Y-124522761D01*
X135088380Y-124760857D02*
X135945523Y-124760857D01*
X136040761Y-124713238D01*
X136088380Y-124618000D01*
X136088380Y-124522761D01*
X136088380Y-124189428D02*
X135088380Y-124189428D01*
X136088380Y-123760857D02*
X135564571Y-123760857D01*
X135469333Y-123808476D01*
X135421714Y-123903714D01*
X135421714Y-124046571D01*
X135469333Y-124141809D01*
X135516952Y-124189428D01*
X135421714Y-122856095D02*
X136088380Y-122856095D01*
X135421714Y-123284666D02*
X135945523Y-123284666D01*
X136040761Y-123237047D01*
X136088380Y-123141809D01*
X136088380Y-122998952D01*
X136040761Y-122903714D01*
X135993142Y-122856095D01*
X136088380Y-122379904D02*
X135088380Y-122379904D01*
X135469333Y-122379904D02*
X135421714Y-122284666D01*
X135421714Y-122094190D01*
X135469333Y-121998952D01*
X135516952Y-121951333D01*
X135612190Y-121903714D01*
X135897904Y-121903714D01*
X135993142Y-121951333D01*
X136040761Y-121998952D01*
X136088380Y-122094190D01*
X136088380Y-122284666D01*
X136040761Y-122379904D01*
X135993142Y-121475142D02*
X136040761Y-121427523D01*
X136088380Y-121475142D01*
X136040761Y-121522761D01*
X135993142Y-121475142D01*
X136088380Y-121475142D01*
X136040761Y-120570380D02*
X136088380Y-120665619D01*
X136088380Y-120856095D01*
X136040761Y-120951333D01*
X135993142Y-120998952D01*
X135897904Y-121046571D01*
X135612190Y-121046571D01*
X135516952Y-120998952D01*
X135469333Y-120951333D01*
X135421714Y-120856095D01*
X135421714Y-120665619D01*
X135469333Y-120570380D01*
X136088380Y-119998952D02*
X136040761Y-120094190D01*
X135993142Y-120141809D01*
X135897904Y-120189428D01*
X135612190Y-120189428D01*
X135516952Y-120141809D01*
X135469333Y-120094190D01*
X135421714Y-119998952D01*
X135421714Y-119856095D01*
X135469333Y-119760857D01*
X135516952Y-119713238D01*
X135612190Y-119665619D01*
X135897904Y-119665619D01*
X135993142Y-119713238D01*
X136040761Y-119760857D01*
X136088380Y-119856095D01*
X136088380Y-119998952D01*
X136088380Y-119237047D02*
X135421714Y-119237047D01*
X135516952Y-119237047D02*
X135469333Y-119189428D01*
X135421714Y-119094190D01*
X135421714Y-118951333D01*
X135469333Y-118856095D01*
X135564571Y-118808476D01*
X136088380Y-118808476D01*
X135564571Y-118808476D02*
X135469333Y-118760857D01*
X135421714Y-118665619D01*
X135421714Y-118522761D01*
X135469333Y-118427523D01*
X135564571Y-118379904D01*
X136088380Y-118379904D01*
X135040761Y-117189428D02*
X136326476Y-118046571D01*
X135421714Y-116856095D02*
X136421714Y-116856095D01*
X135469333Y-116856095D02*
X135421714Y-116760857D01*
X135421714Y-116570380D01*
X135469333Y-116475142D01*
X135516952Y-116427523D01*
X135612190Y-116379904D01*
X135897904Y-116379904D01*
X135993142Y-116427523D01*
X136040761Y-116475142D01*
X136088380Y-116570380D01*
X136088380Y-116760857D01*
X136040761Y-116856095D01*
X136088380Y-115808476D02*
X136040761Y-115903714D01*
X135993142Y-115951333D01*
X135897904Y-115998952D01*
X135612190Y-115998952D01*
X135516952Y-115951333D01*
X135469333Y-115903714D01*
X135421714Y-115808476D01*
X135421714Y-115665619D01*
X135469333Y-115570380D01*
X135516952Y-115522761D01*
X135612190Y-115475142D01*
X135897904Y-115475142D01*
X135993142Y-115522761D01*
X136040761Y-115570380D01*
X136088380Y-115665619D01*
X136088380Y-115808476D01*
X136088380Y-115046571D02*
X135421714Y-115046571D01*
X135516952Y-115046571D02*
X135469333Y-114998952D01*
X135421714Y-114903714D01*
X135421714Y-114760857D01*
X135469333Y-114665619D01*
X135564571Y-114618000D01*
X136088380Y-114618000D01*
X135564571Y-114618000D02*
X135469333Y-114570380D01*
X135421714Y-114475142D01*
X135421714Y-114332285D01*
X135469333Y-114237047D01*
X135564571Y-114189428D01*
X136088380Y-114189428D01*
X136088380Y-113713238D02*
X135421714Y-113713238D01*
X135516952Y-113713238D02*
X135469333Y-113665619D01*
X135421714Y-113570380D01*
X135421714Y-113427523D01*
X135469333Y-113332285D01*
X135564571Y-113284666D01*
X136088380Y-113284666D01*
X135564571Y-113284666D02*
X135469333Y-113237047D01*
X135421714Y-113141809D01*
X135421714Y-112998952D01*
X135469333Y-112903714D01*
X135564571Y-112856095D01*
X136088380Y-112856095D01*
X136040761Y-111998952D02*
X136088380Y-112094190D01*
X136088380Y-112284666D01*
X136040761Y-112379904D01*
X135945523Y-112427523D01*
X135564571Y-112427523D01*
X135469333Y-112379904D01*
X135421714Y-112284666D01*
X135421714Y-112094190D01*
X135469333Y-111998952D01*
X135564571Y-111951333D01*
X135659809Y-111951333D01*
X135755047Y-112427523D01*
X135421714Y-111522761D02*
X136088380Y-111522761D01*
X135516952Y-111522761D02*
X135469333Y-111475142D01*
X135421714Y-111379904D01*
X135421714Y-111237047D01*
X135469333Y-111141809D01*
X135564571Y-111094190D01*
X136088380Y-111094190D01*
X134721380Y-91319809D02*
X134721380Y-90748380D01*
X135721380Y-91034095D02*
X134721380Y-91034095D01*
X135721380Y-90415047D02*
X134721380Y-90415047D01*
X135435666Y-90081714D01*
X134721380Y-89748380D01*
X135721380Y-89748380D01*
X135626142Y-88700761D02*
X135673761Y-88748380D01*
X135721380Y-88891238D01*
X135721380Y-88986476D01*
X135673761Y-89129333D01*
X135578523Y-89224571D01*
X135483285Y-89272190D01*
X135292809Y-89319809D01*
X135149952Y-89319809D01*
X134959476Y-89272190D01*
X134864238Y-89224571D01*
X134769000Y-89129333D01*
X134721380Y-88986476D01*
X134721380Y-88891238D01*
X134769000Y-88748380D01*
X134816619Y-88700761D01*
X134721380Y-87796000D02*
X134721380Y-88272190D01*
X135197571Y-88319809D01*
X135149952Y-88272190D01*
X135102333Y-88176952D01*
X135102333Y-87938857D01*
X135149952Y-87843619D01*
X135197571Y-87796000D01*
X135292809Y-87748380D01*
X135530904Y-87748380D01*
X135626142Y-87796000D01*
X135673761Y-87843619D01*
X135721380Y-87938857D01*
X135721380Y-88176952D01*
X135673761Y-88272190D01*
X135626142Y-88319809D01*
X135721380Y-86796000D02*
X135721380Y-87367428D01*
X135721380Y-87081714D02*
X134721380Y-87081714D01*
X134864238Y-87176952D01*
X134959476Y-87272190D01*
X135007095Y-87367428D01*
X134721380Y-85938857D02*
X134721380Y-86129333D01*
X134769000Y-86224571D01*
X134816619Y-86272190D01*
X134959476Y-86367428D01*
X135149952Y-86415047D01*
X135530904Y-86415047D01*
X135626142Y-86367428D01*
X135673761Y-86319809D01*
X135721380Y-86224571D01*
X135721380Y-86034095D01*
X135673761Y-85938857D01*
X135626142Y-85891238D01*
X135530904Y-85843619D01*
X135292809Y-85843619D01*
X135197571Y-85891238D01*
X135149952Y-85938857D01*
X135102333Y-86034095D01*
X135102333Y-86224571D01*
X135149952Y-86319809D01*
X135197571Y-86367428D01*
X135292809Y-86415047D01*
X134721380Y-85224571D02*
X134721380Y-85129333D01*
X134769000Y-85034095D01*
X134816619Y-84986476D01*
X134911857Y-84938857D01*
X135102333Y-84891238D01*
X135340428Y-84891238D01*
X135530904Y-84938857D01*
X135626142Y-84986476D01*
X135673761Y-85034095D01*
X135721380Y-85129333D01*
X135721380Y-85224571D01*
X135673761Y-85319809D01*
X135626142Y-85367428D01*
X135530904Y-85415047D01*
X135340428Y-85462666D01*
X135102333Y-85462666D01*
X134911857Y-85415047D01*
X134816619Y-85367428D01*
X134769000Y-85319809D01*
X134721380Y-85224571D01*
X135673761Y-83748380D02*
X135721380Y-83605523D01*
X135721380Y-83367428D01*
X135673761Y-83272190D01*
X135626142Y-83224571D01*
X135530904Y-83176952D01*
X135435666Y-83176952D01*
X135340428Y-83224571D01*
X135292809Y-83272190D01*
X135245190Y-83367428D01*
X135197571Y-83557904D01*
X135149952Y-83653142D01*
X135102333Y-83700761D01*
X135007095Y-83748380D01*
X134911857Y-83748380D01*
X134816619Y-83700761D01*
X134769000Y-83653142D01*
X134721380Y-83557904D01*
X134721380Y-83319809D01*
X134769000Y-83176952D01*
X135054714Y-82891238D02*
X135054714Y-82510285D01*
X134721380Y-82748380D02*
X135578523Y-82748380D01*
X135673761Y-82700761D01*
X135721380Y-82605523D01*
X135721380Y-82510285D01*
X135673761Y-81796000D02*
X135721380Y-81891238D01*
X135721380Y-82081714D01*
X135673761Y-82176952D01*
X135578523Y-82224571D01*
X135197571Y-82224571D01*
X135102333Y-82176952D01*
X135054714Y-82081714D01*
X135054714Y-81891238D01*
X135102333Y-81796000D01*
X135197571Y-81748380D01*
X135292809Y-81748380D01*
X135388047Y-82224571D01*
X135054714Y-81319809D02*
X136054714Y-81319809D01*
X135102333Y-81319809D02*
X135054714Y-81224571D01*
X135054714Y-81034095D01*
X135102333Y-80938857D01*
X135149952Y-80891238D01*
X135245190Y-80843619D01*
X135530904Y-80843619D01*
X135626142Y-80891238D01*
X135673761Y-80938857D01*
X135721380Y-81034095D01*
X135721380Y-81224571D01*
X135673761Y-81319809D01*
X135054714Y-80415047D02*
X136054714Y-80415047D01*
X135102333Y-80415047D02*
X135054714Y-80319809D01*
X135054714Y-80129333D01*
X135102333Y-80034095D01*
X135149952Y-79986476D01*
X135245190Y-79938857D01*
X135530904Y-79938857D01*
X135626142Y-79986476D01*
X135673761Y-80034095D01*
X135721380Y-80129333D01*
X135721380Y-80319809D01*
X135673761Y-80415047D01*
X135673761Y-79129333D02*
X135721380Y-79224571D01*
X135721380Y-79415047D01*
X135673761Y-79510285D01*
X135578523Y-79557904D01*
X135197571Y-79557904D01*
X135102333Y-79510285D01*
X135054714Y-79415047D01*
X135054714Y-79224571D01*
X135102333Y-79129333D01*
X135197571Y-79081714D01*
X135292809Y-79081714D01*
X135388047Y-79557904D01*
X135721380Y-78653142D02*
X135054714Y-78653142D01*
X135245190Y-78653142D02*
X135149952Y-78605523D01*
X135102333Y-78557904D01*
X135054714Y-78462666D01*
X135054714Y-78367428D01*
X135721380Y-77272190D02*
X134721380Y-77272190D01*
X134721380Y-77034095D01*
X134769000Y-76891238D01*
X134864238Y-76796000D01*
X134959476Y-76748380D01*
X135149952Y-76700761D01*
X135292809Y-76700761D01*
X135483285Y-76748380D01*
X135578523Y-76796000D01*
X135673761Y-76891238D01*
X135721380Y-77034095D01*
X135721380Y-77272190D01*
X135721380Y-76272190D02*
X135054714Y-76272190D01*
X135245190Y-76272190D02*
X135149952Y-76224571D01*
X135102333Y-76176952D01*
X135054714Y-76081714D01*
X135054714Y-75986476D01*
X135721380Y-75653142D02*
X135054714Y-75653142D01*
X134721380Y-75653142D02*
X134769000Y-75700761D01*
X134816619Y-75653142D01*
X134769000Y-75605523D01*
X134721380Y-75653142D01*
X134816619Y-75653142D01*
X135054714Y-75272190D02*
X135721380Y-75034095D01*
X135054714Y-74796000D01*
X135673761Y-74034095D02*
X135721380Y-74129333D01*
X135721380Y-74319809D01*
X135673761Y-74415047D01*
X135578523Y-74462666D01*
X135197571Y-74462666D01*
X135102333Y-74415047D01*
X135054714Y-74319809D01*
X135054714Y-74129333D01*
X135102333Y-74034095D01*
X135197571Y-73986476D01*
X135292809Y-73986476D01*
X135388047Y-74462666D01*
X135721380Y-73557904D02*
X135054714Y-73557904D01*
X135245190Y-73557904D02*
X135149952Y-73510285D01*
X135102333Y-73462666D01*
X135054714Y-73367428D01*
X135054714Y-73272190D01*
X136804714Y-86153142D02*
X137471380Y-86153142D01*
X136423761Y-86391238D02*
X137138047Y-86629333D01*
X137138047Y-86010285D01*
X136899952Y-85486476D02*
X136852333Y-85581714D01*
X136804714Y-85629333D01*
X136709476Y-85676952D01*
X136661857Y-85676952D01*
X136566619Y-85629333D01*
X136519000Y-85581714D01*
X136471380Y-85486476D01*
X136471380Y-85296000D01*
X136519000Y-85200761D01*
X136566619Y-85153142D01*
X136661857Y-85105523D01*
X136709476Y-85105523D01*
X136804714Y-85153142D01*
X136852333Y-85200761D01*
X136899952Y-85296000D01*
X136899952Y-85486476D01*
X136947571Y-85581714D01*
X136995190Y-85629333D01*
X137090428Y-85676952D01*
X137280904Y-85676952D01*
X137376142Y-85629333D01*
X137423761Y-85581714D01*
X137471380Y-85486476D01*
X137471380Y-85296000D01*
X137423761Y-85200761D01*
X137376142Y-85153142D01*
X137280904Y-85105523D01*
X137090428Y-85105523D01*
X136995190Y-85153142D01*
X136947571Y-85200761D01*
X136899952Y-85296000D01*
X136471380Y-84819809D02*
X137471380Y-84486476D01*
X136471380Y-84153142D01*
X136471380Y-82629333D02*
X136471380Y-82819809D01*
X136519000Y-82915047D01*
X136566619Y-82962666D01*
X136709476Y-83057904D01*
X136899952Y-83105523D01*
X137280904Y-83105523D01*
X137376142Y-83057904D01*
X137423761Y-83010285D01*
X137471380Y-82915047D01*
X137471380Y-82724571D01*
X137423761Y-82629333D01*
X137376142Y-82581714D01*
X137280904Y-82534095D01*
X137042809Y-82534095D01*
X136947571Y-82581714D01*
X136899952Y-82629333D01*
X136852333Y-82724571D01*
X136852333Y-82915047D01*
X136899952Y-83010285D01*
X136947571Y-83057904D01*
X137042809Y-83105523D01*
X137185666Y-82153142D02*
X137185666Y-81676952D01*
X137471380Y-82248380D02*
X136471380Y-81915047D01*
X137471380Y-81581714D01*
X137471380Y-80486476D02*
X136471380Y-80486476D01*
X137185666Y-80153142D01*
X136471380Y-79819809D01*
X137471380Y-79819809D01*
X137185666Y-79391238D02*
X137185666Y-78915047D01*
X137471380Y-79486476D02*
X136471380Y-79153142D01*
X137471380Y-78819809D01*
X136471380Y-78581714D02*
X137471380Y-77915047D01*
X136471380Y-77915047D02*
X137471380Y-78581714D01*
D12*
X112395000Y-79883000D02*
X112395000Y-78994000D01*
X112141000Y-80645000D02*
X112649000Y-80645000D01*
X111760000Y-80264000D02*
X113030000Y-80264000D01*
X111506000Y-79883000D02*
X113284000Y-79883000D01*
D13*
X108172285Y-81069571D02*
X107315142Y-81069571D01*
X107743714Y-81069571D02*
X107743714Y-79569571D01*
X107600857Y-79783857D01*
X107458000Y-79926714D01*
X107315142Y-79998142D01*
X108743714Y-79712428D02*
X108815142Y-79641000D01*
X108958000Y-79569571D01*
X109315142Y-79569571D01*
X109458000Y-79641000D01*
X109529428Y-79712428D01*
X109600857Y-79855285D01*
X109600857Y-79998142D01*
X109529428Y-80212428D01*
X108672285Y-81069571D01*
X109600857Y-81069571D01*
X102909928Y-79569571D02*
X103838499Y-79569571D01*
X103338499Y-80141000D01*
X103552785Y-80141000D01*
X103695642Y-80212428D01*
X103767071Y-80283857D01*
X103838499Y-80426714D01*
X103838499Y-80783857D01*
X103767071Y-80926714D01*
X103695642Y-80998142D01*
X103552785Y-81069571D01*
X103124214Y-81069571D01*
X102981357Y-80998142D01*
X102909928Y-80926714D01*
X104552785Y-80998142D02*
X104552785Y-81069571D01*
X104481357Y-81212428D01*
X104409928Y-81283857D01*
X105052785Y-79569571D02*
X105981357Y-79569571D01*
X105481357Y-80141000D01*
X105695642Y-80141000D01*
X105838499Y-80212428D01*
X105909928Y-80283857D01*
X105981357Y-80426714D01*
X105981357Y-80783857D01*
X105909928Y-80926714D01*
X105838499Y-80998142D01*
X105695642Y-81069571D01*
X105267071Y-81069571D01*
X105124214Y-80998142D01*
X105052785Y-80926714D01*
X101576142Y-79569571D02*
X100861857Y-79569571D01*
X100790428Y-80283857D01*
X100861857Y-80212428D01*
X101004714Y-80141000D01*
X101361857Y-80141000D01*
X101504714Y-80212428D01*
X101576142Y-80283857D01*
X101647571Y-80426714D01*
X101647571Y-80783857D01*
X101576142Y-80926714D01*
X101504714Y-80998142D01*
X101361857Y-81069571D01*
X101004714Y-81069571D01*
X100861857Y-80998142D01*
X100790428Y-80926714D01*
X71917428Y-132756285D02*
X72317428Y-132756285D01*
X72488857Y-133384857D02*
X71917428Y-133384857D01*
X71917428Y-132184857D01*
X72488857Y-132184857D01*
X73003142Y-133384857D02*
X73003142Y-132184857D01*
X73688857Y-133384857D01*
X73688857Y-132184857D01*
X74946000Y-133270571D02*
X74888857Y-133327714D01*
X74717428Y-133384857D01*
X74603142Y-133384857D01*
X74431714Y-133327714D01*
X74317428Y-133213428D01*
X74260285Y-133099142D01*
X74203142Y-132870571D01*
X74203142Y-132699142D01*
X74260285Y-132470571D01*
X74317428Y-132356285D01*
X74431714Y-132242000D01*
X74603142Y-132184857D01*
X74717428Y-132184857D01*
X74888857Y-132242000D01*
X74946000Y-132299142D01*
X75174571Y-133499142D02*
X76088857Y-133499142D01*
X76203142Y-132184857D02*
X76603142Y-133384857D01*
X77003142Y-132184857D01*
X77631714Y-132184857D02*
X77860285Y-132184857D01*
X77974571Y-132242000D01*
X78088857Y-132356285D01*
X78146000Y-132584857D01*
X78146000Y-132984857D01*
X78088857Y-133213428D01*
X77974571Y-133327714D01*
X77860285Y-133384857D01*
X77631714Y-133384857D01*
X77517428Y-133327714D01*
X77403142Y-133213428D01*
X77346000Y-132984857D01*
X77346000Y-132584857D01*
X77403142Y-132356285D01*
X77517428Y-132242000D01*
X77631714Y-132184857D01*
X79231714Y-133384857D02*
X78660285Y-133384857D01*
X78660285Y-132184857D01*
X79460285Y-132184857D02*
X80146000Y-132184857D01*
X79803142Y-133384857D02*
X79803142Y-132184857D01*
X107775857Y-133200714D02*
X107947285Y-133257857D01*
X108233000Y-133257857D01*
X108347285Y-133200714D01*
X108404428Y-133143571D01*
X108461571Y-133029285D01*
X108461571Y-132915000D01*
X108404428Y-132800714D01*
X108347285Y-132743571D01*
X108233000Y-132686428D01*
X108004428Y-132629285D01*
X107890142Y-132572142D01*
X107833000Y-132515000D01*
X107775857Y-132400714D01*
X107775857Y-132286428D01*
X107833000Y-132172142D01*
X107890142Y-132115000D01*
X108004428Y-132057857D01*
X108290142Y-132057857D01*
X108461571Y-132115000D01*
X108975857Y-133257857D02*
X108975857Y-132057857D01*
X109261571Y-132057857D01*
X109433000Y-132115000D01*
X109547285Y-132229285D01*
X109604428Y-132343571D01*
X109661571Y-132572142D01*
X109661571Y-132743571D01*
X109604428Y-132972142D01*
X109547285Y-133086428D01*
X109433000Y-133200714D01*
X109261571Y-133257857D01*
X108975857Y-133257857D01*
X109890142Y-133372142D02*
X110804428Y-133372142D01*
X111090142Y-133257857D02*
X111090142Y-132057857D01*
X111490142Y-132915000D01*
X111890142Y-132057857D01*
X111890142Y-133257857D01*
X112690142Y-132057857D02*
X112918714Y-132057857D01*
X113033000Y-132115000D01*
X113147285Y-132229285D01*
X113204428Y-132457857D01*
X113204428Y-132857857D01*
X113147285Y-133086428D01*
X113033000Y-133200714D01*
X112918714Y-133257857D01*
X112690142Y-133257857D01*
X112575857Y-133200714D01*
X112461571Y-133086428D01*
X112404428Y-132857857D01*
X112404428Y-132457857D01*
X112461571Y-132229285D01*
X112575857Y-132115000D01*
X112690142Y-132057857D01*
X113718714Y-133257857D02*
X113718714Y-132057857D01*
X114004428Y-132057857D01*
X114175857Y-132115000D01*
X114290142Y-132229285D01*
X114347285Y-132343571D01*
X114404428Y-132572142D01*
X114404428Y-132743571D01*
X114347285Y-132972142D01*
X114290142Y-133086428D01*
X114175857Y-133200714D01*
X114004428Y-133257857D01*
X113718714Y-133257857D01*
X114918714Y-132629285D02*
X115318714Y-132629285D01*
X115490142Y-133257857D02*
X114918714Y-133257857D01*
X114918714Y-132057857D01*
X115490142Y-132057857D01*
X119174142Y-133200714D02*
X119345571Y-133257857D01*
X119631285Y-133257857D01*
X119745571Y-133200714D01*
X119802714Y-133143571D01*
X119859857Y-133029285D01*
X119859857Y-132915000D01*
X119802714Y-132800714D01*
X119745571Y-132743571D01*
X119631285Y-132686428D01*
X119402714Y-132629285D01*
X119288428Y-132572142D01*
X119231285Y-132515000D01*
X119174142Y-132400714D01*
X119174142Y-132286428D01*
X119231285Y-132172142D01*
X119288428Y-132115000D01*
X119402714Y-132057857D01*
X119688428Y-132057857D01*
X119859857Y-132115000D01*
X120374142Y-133257857D02*
X120374142Y-132057857D01*
X120831285Y-132057857D01*
X120945571Y-132115000D01*
X121002714Y-132172142D01*
X121059857Y-132286428D01*
X121059857Y-132457857D01*
X121002714Y-132572142D01*
X120945571Y-132629285D01*
X120831285Y-132686428D01*
X120374142Y-132686428D01*
X121574142Y-133257857D02*
X121574142Y-132057857D01*
X121859857Y-133372142D02*
X122774142Y-133372142D01*
X123059857Y-133257857D02*
X123059857Y-132057857D01*
X123459857Y-132915000D01*
X123859857Y-132057857D01*
X123859857Y-133257857D01*
X124659857Y-132057857D02*
X124888428Y-132057857D01*
X125002714Y-132115000D01*
X125117000Y-132229285D01*
X125174142Y-132457857D01*
X125174142Y-132857857D01*
X125117000Y-133086428D01*
X125002714Y-133200714D01*
X124888428Y-133257857D01*
X124659857Y-133257857D01*
X124545571Y-133200714D01*
X124431285Y-133086428D01*
X124374142Y-132857857D01*
X124374142Y-132457857D01*
X124431285Y-132229285D01*
X124545571Y-132115000D01*
X124659857Y-132057857D01*
X125688428Y-133257857D02*
X125688428Y-132057857D01*
X125974142Y-132057857D01*
X126145571Y-132115000D01*
X126259857Y-132229285D01*
X126317000Y-132343571D01*
X126374142Y-132572142D01*
X126374142Y-132743571D01*
X126317000Y-132972142D01*
X126259857Y-133086428D01*
X126145571Y-133200714D01*
X125974142Y-133257857D01*
X125688428Y-133257857D01*
X126888428Y-132629285D02*
X127288428Y-132629285D01*
X127459857Y-133257857D02*
X126888428Y-133257857D01*
X126888428Y-132057857D01*
X127459857Y-132057857D01*
D14*
X78359000Y-105283000D02*
X92964000Y-105283000D01*
X78359000Y-121031000D02*
X78359000Y-105283000D01*
X92964000Y-121031000D02*
X78359000Y-121031000D01*
X92964000Y-105283000D02*
X92964000Y-121031000D01*
D13*
X71929714Y-126432571D02*
X71215428Y-126432571D01*
X71144000Y-127146857D01*
X71215428Y-127075428D01*
X71358285Y-127004000D01*
X71715428Y-127004000D01*
X71858285Y-127075428D01*
X71929714Y-127146857D01*
X72001142Y-127289714D01*
X72001142Y-127646857D01*
X71929714Y-127789714D01*
X71858285Y-127861142D01*
X71715428Y-127932571D01*
X71358285Y-127932571D01*
X71215428Y-127861142D01*
X71144000Y-127789714D01*
X72644000Y-127789714D02*
X72715428Y-127861142D01*
X72644000Y-127932571D01*
X72572571Y-127861142D01*
X72644000Y-127789714D01*
X72644000Y-127932571D01*
X73644000Y-126432571D02*
X73786857Y-126432571D01*
X73929714Y-126504000D01*
X74001142Y-126575428D01*
X74072571Y-126718285D01*
X74144000Y-127004000D01*
X74144000Y-127361142D01*
X74072571Y-127646857D01*
X74001142Y-127789714D01*
X73929714Y-127861142D01*
X73786857Y-127932571D01*
X73644000Y-127932571D01*
X73501142Y-127861142D01*
X73429714Y-127789714D01*
X73358285Y-127646857D01*
X73286857Y-127361142D01*
X73286857Y-127004000D01*
X73358285Y-126718285D01*
X73429714Y-126575428D01*
X73501142Y-126504000D01*
X73644000Y-126432571D01*
X77803571Y-126432571D02*
X78732142Y-126432571D01*
X78232142Y-127004000D01*
X78446428Y-127004000D01*
X78589285Y-127075428D01*
X78660714Y-127146857D01*
X78732142Y-127289714D01*
X78732142Y-127646857D01*
X78660714Y-127789714D01*
X78589285Y-127861142D01*
X78446428Y-127932571D01*
X78017857Y-127932571D01*
X77875000Y-127861142D01*
X77803571Y-127789714D01*
X79375000Y-127789714D02*
X79446428Y-127861142D01*
X79375000Y-127932571D01*
X79303571Y-127861142D01*
X79375000Y-127789714D01*
X79375000Y-127932571D01*
X79946428Y-126432571D02*
X80875000Y-126432571D01*
X80375000Y-127004000D01*
X80589285Y-127004000D01*
X80732142Y-127075428D01*
X80803571Y-127146857D01*
X80875000Y-127289714D01*
X80875000Y-127646857D01*
X80803571Y-127789714D01*
X80732142Y-127861142D01*
X80589285Y-127932571D01*
X80160714Y-127932571D01*
X80017857Y-127861142D01*
X79946428Y-127789714D01*
D12*
X79905285Y-105871000D02*
X79848142Y-106042428D01*
X79848142Y-106328142D01*
X79905285Y-106442428D01*
X79962428Y-106499571D01*
X80076714Y-106556714D01*
X80191000Y-106556714D01*
X80305285Y-106499571D01*
X80362428Y-106442428D01*
X80419571Y-106328142D01*
X80476714Y-106099571D01*
X80533857Y-105985285D01*
X80591000Y-105928142D01*
X80705285Y-105871000D01*
X80819571Y-105871000D01*
X80933857Y-105928142D01*
X80991000Y-105985285D01*
X81048142Y-106099571D01*
X81048142Y-106385285D01*
X80991000Y-106556714D01*
X81048142Y-106899571D02*
X81048142Y-107585285D01*
X79848142Y-107242428D02*
X81048142Y-107242428D01*
X80476714Y-107985285D02*
X80476714Y-108385285D01*
X79848142Y-108556714D02*
X79848142Y-107985285D01*
X81048142Y-107985285D01*
X81048142Y-108556714D01*
X79848142Y-109071000D02*
X81048142Y-109071000D01*
X81048142Y-109528142D01*
X80991000Y-109642428D01*
X80933857Y-109699571D01*
X80819571Y-109756714D01*
X80648142Y-109756714D01*
X80533857Y-109699571D01*
X80476714Y-109642428D01*
X80419571Y-109528142D01*
X80419571Y-109071000D01*
X79733857Y-109985285D02*
X79733857Y-110899571D01*
X79848142Y-111871000D02*
X80419571Y-111471000D01*
X79848142Y-111185285D02*
X81048142Y-111185285D01*
X81048142Y-111642428D01*
X80991000Y-111756714D01*
X80933857Y-111813857D01*
X80819571Y-111871000D01*
X80648142Y-111871000D01*
X80533857Y-111813857D01*
X80476714Y-111756714D01*
X80419571Y-111642428D01*
X80419571Y-111185285D01*
X80476714Y-112385285D02*
X80476714Y-112785285D01*
X79848142Y-112956714D02*
X79848142Y-112385285D01*
X81048142Y-112385285D01*
X81048142Y-112956714D01*
X80476714Y-113871000D02*
X80476714Y-113471000D01*
X79848142Y-113471000D02*
X81048142Y-113471000D01*
X81048142Y-114042428D01*
X79733857Y-114213857D02*
X79733857Y-115128142D01*
X79848142Y-115985285D02*
X79848142Y-115413857D01*
X81048142Y-115413857D01*
X82134142Y-107261571D02*
X83334142Y-107261571D01*
X83334142Y-107547285D01*
X83277000Y-107718714D01*
X83162714Y-107833000D01*
X83048428Y-107890142D01*
X82819857Y-107947285D01*
X82648428Y-107947285D01*
X82419857Y-107890142D01*
X82305571Y-107833000D01*
X82191285Y-107718714D01*
X82134142Y-107547285D01*
X82134142Y-107261571D01*
X82134142Y-108461571D02*
X83334142Y-108461571D01*
X82134142Y-109718714D02*
X82705571Y-109318714D01*
X82134142Y-109033000D02*
X83334142Y-109033000D01*
X83334142Y-109490142D01*
X83277000Y-109604428D01*
X83219857Y-109661571D01*
X83105571Y-109718714D01*
X82934142Y-109718714D01*
X82819857Y-109661571D01*
X82762714Y-109604428D01*
X82705571Y-109490142D01*
X82705571Y-109033000D01*
X82019857Y-109947285D02*
X82019857Y-110861571D01*
X82134142Y-111833000D02*
X82705571Y-111433000D01*
X82134142Y-111147285D02*
X83334142Y-111147285D01*
X83334142Y-111604428D01*
X83277000Y-111718714D01*
X83219857Y-111775857D01*
X83105571Y-111833000D01*
X82934142Y-111833000D01*
X82819857Y-111775857D01*
X82762714Y-111718714D01*
X82705571Y-111604428D01*
X82705571Y-111147285D01*
X82762714Y-112347285D02*
X82762714Y-112747285D01*
X82134142Y-112918714D02*
X82134142Y-112347285D01*
X83334142Y-112347285D01*
X83334142Y-112918714D01*
X82762714Y-113833000D02*
X82762714Y-113433000D01*
X82134142Y-113433000D02*
X83334142Y-113433000D01*
X83334142Y-114004428D01*
X82019857Y-114175857D02*
X82019857Y-115090142D01*
X82134142Y-116061571D02*
X82705571Y-115661571D01*
X82134142Y-115375857D02*
X83334142Y-115375857D01*
X83334142Y-115833000D01*
X83277000Y-115947285D01*
X83219857Y-116004428D01*
X83105571Y-116061571D01*
X82934142Y-116061571D01*
X82819857Y-116004428D01*
X82762714Y-115947285D01*
X82705571Y-115833000D01*
X82705571Y-115375857D01*
X84674142Y-107915571D02*
X85874142Y-107915571D01*
X85874142Y-108201285D01*
X85817000Y-108372714D01*
X85702714Y-108487000D01*
X85588428Y-108544142D01*
X85359857Y-108601285D01*
X85188428Y-108601285D01*
X84959857Y-108544142D01*
X84845571Y-108487000D01*
X84731285Y-108372714D01*
X84674142Y-108201285D01*
X84674142Y-107915571D01*
X84674142Y-109115571D02*
X85874142Y-109115571D01*
X85017000Y-109629857D02*
X85017000Y-110201285D01*
X84674142Y-109515571D02*
X85874142Y-109915571D01*
X84674142Y-110315571D01*
X85817000Y-111344142D02*
X85874142Y-111229857D01*
X85874142Y-111058428D01*
X85817000Y-110887000D01*
X85702714Y-110772714D01*
X85588428Y-110715571D01*
X85359857Y-110658428D01*
X85188428Y-110658428D01*
X84959857Y-110715571D01*
X84845571Y-110772714D01*
X84731285Y-110887000D01*
X84674142Y-111058428D01*
X84674142Y-111172714D01*
X84731285Y-111344142D01*
X84788428Y-111401285D01*
X85188428Y-111401285D01*
X85188428Y-111172714D01*
X84559857Y-111629857D02*
X84559857Y-112544142D01*
X84731285Y-112772714D02*
X84674142Y-112944142D01*
X84674142Y-113229857D01*
X84731285Y-113344142D01*
X84788428Y-113401285D01*
X84902714Y-113458428D01*
X85017000Y-113458428D01*
X85131285Y-113401285D01*
X85188428Y-113344142D01*
X85245571Y-113229857D01*
X85302714Y-113001285D01*
X85359857Y-112887000D01*
X85417000Y-112829857D01*
X85531285Y-112772714D01*
X85645571Y-112772714D01*
X85759857Y-112829857D01*
X85817000Y-112887000D01*
X85874142Y-113001285D01*
X85874142Y-113287000D01*
X85817000Y-113458428D01*
X85874142Y-113858428D02*
X84674142Y-114144142D01*
X85531285Y-114372714D01*
X84674142Y-114601285D01*
X85874142Y-114887000D01*
X85474142Y-115344142D02*
X84274142Y-115344142D01*
X85417000Y-115344142D02*
X85474142Y-115458428D01*
X85474142Y-115687000D01*
X85417000Y-115801285D01*
X85359857Y-115858428D01*
X85245571Y-115915571D01*
X84902714Y-115915571D01*
X84788428Y-115858428D01*
X84731285Y-115801285D01*
X84674142Y-115687000D01*
X84674142Y-115458428D01*
X84731285Y-115344142D01*
X86960142Y-107915571D02*
X88160142Y-107915571D01*
X88160142Y-108201285D01*
X88103000Y-108372714D01*
X87988714Y-108487000D01*
X87874428Y-108544142D01*
X87645857Y-108601285D01*
X87474428Y-108601285D01*
X87245857Y-108544142D01*
X87131571Y-108487000D01*
X87017285Y-108372714D01*
X86960142Y-108201285D01*
X86960142Y-107915571D01*
X86960142Y-109115571D02*
X88160142Y-109115571D01*
X87303000Y-109629857D02*
X87303000Y-110201285D01*
X86960142Y-109515571D02*
X88160142Y-109915571D01*
X86960142Y-110315571D01*
X88103000Y-111344142D02*
X88160142Y-111229857D01*
X88160142Y-111058428D01*
X88103000Y-110887000D01*
X87988714Y-110772714D01*
X87874428Y-110715571D01*
X87645857Y-110658428D01*
X87474428Y-110658428D01*
X87245857Y-110715571D01*
X87131571Y-110772714D01*
X87017285Y-110887000D01*
X86960142Y-111058428D01*
X86960142Y-111172714D01*
X87017285Y-111344142D01*
X87074428Y-111401285D01*
X87474428Y-111401285D01*
X87474428Y-111172714D01*
X86845857Y-111629857D02*
X86845857Y-112544142D01*
X87017285Y-112772714D02*
X86960142Y-112944142D01*
X86960142Y-113229857D01*
X87017285Y-113344142D01*
X87074428Y-113401285D01*
X87188714Y-113458428D01*
X87303000Y-113458428D01*
X87417285Y-113401285D01*
X87474428Y-113344142D01*
X87531571Y-113229857D01*
X87588714Y-113001285D01*
X87645857Y-112887000D01*
X87703000Y-112829857D01*
X87817285Y-112772714D01*
X87931571Y-112772714D01*
X88045857Y-112829857D01*
X88103000Y-112887000D01*
X88160142Y-113001285D01*
X88160142Y-113287000D01*
X88103000Y-113458428D01*
X88160142Y-113858428D02*
X86960142Y-114144142D01*
X87817285Y-114372714D01*
X86960142Y-114601285D01*
X88160142Y-114887000D01*
X87760142Y-115344142D02*
X86960142Y-115344142D01*
X87645857Y-115344142D02*
X87703000Y-115401285D01*
X87760142Y-115515571D01*
X87760142Y-115687000D01*
X87703000Y-115801285D01*
X87588714Y-115858428D01*
X86960142Y-115858428D01*
X90001714Y-113281000D02*
X90001714Y-113681000D01*
X89373142Y-113852428D02*
X89373142Y-113281000D01*
X90573142Y-113281000D01*
X90573142Y-113852428D01*
X89373142Y-114366714D02*
X90573142Y-114366714D01*
X89373142Y-115052428D01*
X90573142Y-115052428D01*
X89716000Y-115566714D02*
X89716000Y-116138142D01*
X89373142Y-115452428D02*
X90573142Y-115852428D01*
X89373142Y-116252428D01*
X87709428Y-92897428D02*
X87652285Y-92840285D01*
X87595142Y-92668857D01*
X87595142Y-92554571D01*
X87652285Y-92383142D01*
X87766571Y-92268857D01*
X87880857Y-92211714D01*
X88109428Y-92154571D01*
X88280857Y-92154571D01*
X88509428Y-92211714D01*
X88623714Y-92268857D01*
X88738000Y-92383142D01*
X88795142Y-92554571D01*
X88795142Y-92668857D01*
X88738000Y-92840285D01*
X88680857Y-92897428D01*
X87652285Y-93354571D02*
X87595142Y-93526000D01*
X87595142Y-93811714D01*
X87652285Y-93926000D01*
X87709428Y-93983142D01*
X87823714Y-94040285D01*
X87938000Y-94040285D01*
X88052285Y-93983142D01*
X88109428Y-93926000D01*
X88166571Y-93811714D01*
X88223714Y-93583142D01*
X88280857Y-93468857D01*
X88338000Y-93411714D01*
X88452285Y-93354571D01*
X88566571Y-93354571D01*
X88680857Y-93411714D01*
X88738000Y-93468857D01*
X88795142Y-93583142D01*
X88795142Y-93868857D01*
X88738000Y-94040285D01*
X87595142Y-94554571D02*
X88795142Y-94554571D01*
X87595142Y-95240285D01*
X88795142Y-95240285D01*
X80159285Y-92183142D02*
X80102142Y-92354571D01*
X80102142Y-92640285D01*
X80159285Y-92754571D01*
X80216428Y-92811714D01*
X80330714Y-92868857D01*
X80445000Y-92868857D01*
X80559285Y-92811714D01*
X80616428Y-92754571D01*
X80673571Y-92640285D01*
X80730714Y-92411714D01*
X80787857Y-92297428D01*
X80845000Y-92240285D01*
X80959285Y-92183142D01*
X81073571Y-92183142D01*
X81187857Y-92240285D01*
X81245000Y-92297428D01*
X81302142Y-92411714D01*
X81302142Y-92697428D01*
X81245000Y-92868857D01*
X80216428Y-94068857D02*
X80159285Y-94011714D01*
X80102142Y-93840285D01*
X80102142Y-93726000D01*
X80159285Y-93554571D01*
X80273571Y-93440285D01*
X80387857Y-93383142D01*
X80616428Y-93326000D01*
X80787857Y-93326000D01*
X81016428Y-93383142D01*
X81130714Y-93440285D01*
X81245000Y-93554571D01*
X81302142Y-93726000D01*
X81302142Y-93840285D01*
X81245000Y-94011714D01*
X81187857Y-94068857D01*
X80102142Y-94583142D02*
X81302142Y-94583142D01*
X80102142Y-95268857D02*
X80787857Y-94754571D01*
X81302142Y-95268857D02*
X80616428Y-94583142D01*
X85154619Y-92497428D02*
X85097476Y-92668857D01*
X85097476Y-92954571D01*
X85154619Y-93068857D01*
X85211762Y-93126000D01*
X85326048Y-93183142D01*
X85440334Y-93183142D01*
X85554619Y-93126000D01*
X85611762Y-93068857D01*
X85668905Y-92954571D01*
X85726048Y-92726000D01*
X85783191Y-92611714D01*
X85840334Y-92554571D01*
X85954619Y-92497428D01*
X86068905Y-92497428D01*
X86183191Y-92554571D01*
X86240334Y-92611714D01*
X86297476Y-92726000D01*
X86297476Y-93011714D01*
X86240334Y-93183142D01*
X85097476Y-93697428D02*
X86297476Y-93697428D01*
X86297476Y-93983142D01*
X86240334Y-94154571D01*
X86126048Y-94268857D01*
X86011762Y-94326000D01*
X85783191Y-94383142D01*
X85611762Y-94383142D01*
X85383191Y-94326000D01*
X85268905Y-94268857D01*
X85154619Y-94154571D01*
X85097476Y-93983142D01*
X85097476Y-93697428D01*
X85097476Y-94897428D02*
X86297476Y-94897428D01*
X82656953Y-92154571D02*
X82599810Y-92326000D01*
X82599810Y-92611714D01*
X82656953Y-92726000D01*
X82714096Y-92783142D01*
X82828382Y-92840285D01*
X82942668Y-92840285D01*
X83056953Y-92783142D01*
X83114096Y-92726000D01*
X83171239Y-92611714D01*
X83228382Y-92383142D01*
X83285525Y-92268857D01*
X83342668Y-92211714D01*
X83456953Y-92154571D01*
X83571239Y-92154571D01*
X83685525Y-92211714D01*
X83742668Y-92268857D01*
X83799810Y-92383142D01*
X83799810Y-92668857D01*
X83742668Y-92840285D01*
X82599810Y-93354571D02*
X83799810Y-93354571D01*
X83799810Y-93640285D01*
X83742668Y-93811714D01*
X83628382Y-93926000D01*
X83514096Y-93983142D01*
X83285525Y-94040285D01*
X83114096Y-94040285D01*
X82885525Y-93983142D01*
X82771239Y-93926000D01*
X82656953Y-93811714D01*
X82599810Y-93640285D01*
X82599810Y-93354571D01*
X83799810Y-94783142D02*
X83799810Y-95011714D01*
X83742668Y-95126000D01*
X83628382Y-95240285D01*
X83399810Y-95297428D01*
X82999810Y-95297428D01*
X82771239Y-95240285D01*
X82656953Y-95126000D01*
X82599810Y-95011714D01*
X82599810Y-94783142D01*
X82656953Y-94668857D01*
X82771239Y-94554571D01*
X82999810Y-94497428D01*
X83399810Y-94497428D01*
X83628382Y-94554571D01*
X83742668Y-94668857D01*
X83799810Y-94783142D01*
X87709428Y-92897428D02*
X87652285Y-92840285D01*
X87595142Y-92668857D01*
X87595142Y-92554571D01*
X87652285Y-92383142D01*
X87766571Y-92268857D01*
X87880857Y-92211714D01*
X88109428Y-92154571D01*
X88280857Y-92154571D01*
X88509428Y-92211714D01*
X88623714Y-92268857D01*
X88738000Y-92383142D01*
X88795142Y-92554571D01*
X88795142Y-92668857D01*
X88738000Y-92840285D01*
X88680857Y-92897428D01*
X87652285Y-93354571D02*
X87595142Y-93526000D01*
X87595142Y-93811714D01*
X87652285Y-93926000D01*
X87709428Y-93983142D01*
X87823714Y-94040285D01*
X87938000Y-94040285D01*
X88052285Y-93983142D01*
X88109428Y-93926000D01*
X88166571Y-93811714D01*
X88223714Y-93583142D01*
X88280857Y-93468857D01*
X88338000Y-93411714D01*
X88452285Y-93354571D01*
X88566571Y-93354571D01*
X88680857Y-93411714D01*
X88738000Y-93468857D01*
X88795142Y-93583142D01*
X88795142Y-93868857D01*
X88738000Y-94040285D01*
X87595142Y-94554571D02*
X88795142Y-94554571D01*
X87595142Y-95240285D01*
X88795142Y-95240285D01*
X90446285Y-96815428D02*
X90389142Y-96986857D01*
X90389142Y-97272571D01*
X90446285Y-97386857D01*
X90503428Y-97444000D01*
X90617714Y-97501142D01*
X90732000Y-97501142D01*
X90846285Y-97444000D01*
X90903428Y-97386857D01*
X90960571Y-97272571D01*
X91017714Y-97044000D01*
X91074857Y-96929714D01*
X91132000Y-96872571D01*
X91246285Y-96815428D01*
X91360571Y-96815428D01*
X91474857Y-96872571D01*
X91532000Y-96929714D01*
X91589142Y-97044000D01*
X91589142Y-97329714D01*
X91532000Y-97501142D01*
X90389142Y-98015428D02*
X91589142Y-98015428D01*
X91589142Y-98472571D01*
X91532000Y-98586857D01*
X91474857Y-98644000D01*
X91360571Y-98701142D01*
X91189142Y-98701142D01*
X91074857Y-98644000D01*
X91017714Y-98586857D01*
X90960571Y-98472571D01*
X90960571Y-98015428D01*
X90389142Y-99215428D02*
X91589142Y-99215428D01*
D14*
X79375000Y-91567000D02*
X89535000Y-91567000D01*
X79248000Y-100330000D02*
X79375000Y-91567000D01*
X89535000Y-100330000D02*
X79248000Y-100330000D01*
X89535000Y-91567000D02*
X89535000Y-100330000D01*
X98556578Y-90222000D02*
X98039422Y-90222000D01*
X98556578Y-91642000D02*
X98039422Y-91642000D01*
X98425000Y-91313000D02*
X98425000Y-90678000D01*
X98171000Y-91313000D02*
X98171000Y-90678000D01*
X98425000Y-90932000D02*
X98552000Y-90932000D01*
X98171000Y-90932000D02*
X98044000Y-90932000D01*
X98171000Y-90678000D02*
X98171000Y-90551000D01*
X98425000Y-90678000D02*
X98425000Y-90551000D01*
X93787000Y-70866000D02*
G75*
G03*
X93787000Y-70866000I-950000J0D01*
G01*
X87691000Y-70866000D02*
G75*
G03*
X87691000Y-70866000I-950000J0D01*
G01*
X111318000Y-81727000D02*
X113218000Y-81727000D01*
X113218000Y-81727000D02*
X113218000Y-83627000D01*
X113218000Y-83627000D02*
X111318000Y-83627000D01*
X111318000Y-83627000D02*
X111318000Y-81727000D01*
X131339000Y-112173936D02*
X131339000Y-113378064D01*
X129519000Y-112173936D02*
X129519000Y-113378064D01*
X131339000Y-89756064D02*
X131339000Y-88551936D01*
X129519000Y-89756064D02*
X129519000Y-88551936D01*
X103562499Y-81854000D02*
X105462499Y-81854000D01*
X105462499Y-81854000D02*
X105462499Y-83754000D01*
X105462499Y-83754000D02*
X103562499Y-83754000D01*
X103562499Y-83754000D02*
X103562499Y-81854000D01*
X100269000Y-81854000D02*
X102169000Y-81854000D01*
X102169000Y-81854000D02*
X102169000Y-83754000D01*
X102169000Y-83754000D02*
X100269000Y-83754000D01*
X100269000Y-83754000D02*
X100269000Y-81854000D01*
X107381000Y-81854000D02*
X109281000Y-81854000D01*
X109281000Y-81854000D02*
X109281000Y-83754000D01*
X109281000Y-83754000D02*
X107381000Y-83754000D01*
X107381000Y-83754000D02*
X107381000Y-81854000D01*
X107427000Y-97101000D02*
X107427000Y-95811000D01*
X107877000Y-97101000D02*
X107427000Y-97101000D01*
X107877000Y-97551000D02*
X107877000Y-97101000D01*
X107877000Y-104321000D02*
X107427000Y-104321000D01*
X107877000Y-103871000D02*
X107877000Y-104321000D01*
X100657000Y-97101000D02*
X101107000Y-97101000D01*
X100657000Y-97551000D02*
X100657000Y-97101000D01*
X100657000Y-104321000D02*
X101107000Y-104321000D01*
X100657000Y-103871000D02*
X100657000Y-104321000D01*
X108637605Y-96139000D02*
G75*
G03*
X108637605Y-96139000I-179605J0D01*
G01*
X94198221Y-92073000D02*
X94523779Y-92073000D01*
X94198221Y-93093000D02*
X94523779Y-93093000D01*
X94102422Y-95452000D02*
X94619578Y-95452000D01*
X94102422Y-94032000D02*
X94619578Y-94032000D01*
X94107000Y-94742000D02*
X94615000Y-94742000D01*
X94234000Y-94742000D02*
X94234000Y-94488000D01*
X94234000Y-94488000D02*
X94488000Y-94488000D01*
X94488000Y-94488000D02*
X94488000Y-94996000D01*
X94488000Y-94996000D02*
X94234000Y-94996000D01*
X94234000Y-94996000D02*
X94234000Y-94742000D01*
X94361000Y-94996000D02*
X94361000Y-94488000D01*
X98039422Y-89483000D02*
X98556578Y-89483000D01*
X98039422Y-88063000D02*
X98556578Y-88063000D01*
X98044000Y-88773000D02*
X98552000Y-88773000D01*
X98171000Y-88773000D02*
X98171000Y-88519000D01*
X98171000Y-88519000D02*
X98425000Y-88519000D01*
X98425000Y-88519000D02*
X98425000Y-89027000D01*
X98425000Y-89027000D02*
X98171000Y-89027000D01*
X98171000Y-89027000D02*
X98171000Y-88773000D01*
X98298000Y-89027000D02*
X98298000Y-88519000D01*
X96948000Y-93853000D02*
X96948000Y-94993000D01*
X92173326Y-128494901D02*
G75*
G02*
X93068000Y-128735000I28674J-1680099D01*
G01*
X93627358Y-129285106D02*
G75*
G02*
X93642000Y-131041000I-1425358J-889894D01*
G01*
X93091894Y-131600358D02*
G75*
G02*
X91336000Y-131615000I-889894J1425358D01*
G01*
X90776495Y-131065193D02*
G75*
G02*
X90777000Y-129284000I1425505J890193D01*
G01*
X91311736Y-128750279D02*
G75*
G02*
X92202000Y-128495000I890264J-1424721D01*
G01*
X90382000Y-130175000D02*
G75*
G03*
X90382000Y-130175000I-1680000J0D01*
G01*
X86882000Y-130175000D02*
G75*
G03*
X86882000Y-130175000I-1680000J0D01*
G01*
X94012000Y-126075000D02*
X83392000Y-126075000D01*
X94012000Y-127175000D02*
X83392000Y-127175000D01*
X94012000Y-133335000D02*
X83392000Y-133335000D01*
X94012000Y-125615000D02*
X83392000Y-125615000D01*
X94012000Y-133335000D02*
X94012000Y-125615000D01*
X83392000Y-133335000D02*
X83392000Y-125615000D01*
X87427000Y-131244000D02*
X87556000Y-131116000D01*
X89677000Y-128994000D02*
X89771000Y-128901000D01*
X87632000Y-131450000D02*
X87726000Y-131356000D01*
X89847000Y-129234000D02*
X89976000Y-129106000D01*
X83927000Y-131244000D02*
X84056000Y-131116000D01*
X86177000Y-128994000D02*
X86271000Y-128901000D01*
X84132000Y-131450000D02*
X84226000Y-131356000D01*
X86347000Y-129234000D02*
X86476000Y-129106000D01*
X94252000Y-126015000D02*
X94252000Y-125375000D01*
X94252000Y-125375000D02*
X93852000Y-125375000D01*
X86920000Y-122423422D02*
X86920000Y-122940578D01*
X88340000Y-122423422D02*
X88340000Y-122940578D01*
X87630000Y-122428000D02*
X87630000Y-122936000D01*
X87630000Y-122555000D02*
X87884000Y-122555000D01*
X87884000Y-122555000D02*
X87884000Y-122809000D01*
X87884000Y-122809000D02*
X87376000Y-122809000D01*
X87376000Y-122809000D02*
X87376000Y-122555000D01*
X87376000Y-122555000D02*
X87630000Y-122555000D01*
X87376000Y-122682000D02*
X87884000Y-122682000D01*
X84507000Y-122423422D02*
X84507000Y-122940578D01*
X85927000Y-122423422D02*
X85927000Y-122940578D01*
X85217000Y-122428000D02*
X85217000Y-122936000D01*
X85217000Y-122555000D02*
X85471000Y-122555000D01*
X85471000Y-122555000D02*
X85471000Y-122809000D01*
X85471000Y-122809000D02*
X84963000Y-122809000D01*
X84963000Y-122809000D02*
X84963000Y-122555000D01*
X84963000Y-122555000D02*
X85217000Y-122555000D01*
X84963000Y-122682000D02*
X85471000Y-122682000D01*
X79681000Y-122423422D02*
X79681000Y-122940578D01*
X81101000Y-122423422D02*
X81101000Y-122940578D01*
X80391000Y-122428000D02*
X80391000Y-122936000D01*
X80391000Y-122555000D02*
X80645000Y-122555000D01*
X80645000Y-122555000D02*
X80645000Y-122809000D01*
X80645000Y-122809000D02*
X80137000Y-122809000D01*
X80137000Y-122809000D02*
X80137000Y-122555000D01*
X80137000Y-122555000D02*
X80391000Y-122555000D01*
X80137000Y-122682000D02*
X80645000Y-122682000D01*
X81967000Y-122423422D02*
X81967000Y-122940578D01*
X83387000Y-122423422D02*
X83387000Y-122940578D01*
X82677000Y-122428000D02*
X82677000Y-122936000D01*
X82677000Y-122555000D02*
X82931000Y-122555000D01*
X82931000Y-122555000D02*
X82931000Y-122809000D01*
X82931000Y-122809000D02*
X82423000Y-122809000D01*
X82423000Y-122809000D02*
X82423000Y-122555000D01*
X82423000Y-122555000D02*
X82677000Y-122555000D01*
X82423000Y-122682000D02*
X82931000Y-122682000D01*
X89333000Y-122423422D02*
X89333000Y-122940578D01*
X90753000Y-122423422D02*
X90753000Y-122940578D01*
X90043000Y-122428000D02*
X90043000Y-122936000D01*
X90043000Y-122555000D02*
X90297000Y-122555000D01*
X90297000Y-122555000D02*
X90297000Y-122809000D01*
X90297000Y-122809000D02*
X89789000Y-122809000D01*
X89789000Y-122809000D02*
X89789000Y-122555000D01*
X89789000Y-122555000D02*
X90043000Y-122555000D01*
X89789000Y-122682000D02*
X90297000Y-122682000D01*
X84022000Y-103128578D02*
X84022000Y-102611422D01*
X82602000Y-103128578D02*
X82602000Y-102611422D01*
X83312000Y-103124000D02*
X83312000Y-102616000D01*
X83312000Y-102997000D02*
X83058000Y-102997000D01*
X83058000Y-102997000D02*
X83058000Y-102743000D01*
X83058000Y-102743000D02*
X83566000Y-102743000D01*
X83566000Y-102743000D02*
X83566000Y-102997000D01*
X83566000Y-102997000D02*
X83312000Y-102997000D01*
X83566000Y-102870000D02*
X83058000Y-102870000D01*
X88848000Y-103128578D02*
X88848000Y-102611422D01*
X87428000Y-103128578D02*
X87428000Y-102611422D01*
X88138000Y-103124000D02*
X88138000Y-102616000D01*
X88138000Y-102997000D02*
X87884000Y-102997000D01*
X87884000Y-102997000D02*
X87884000Y-102743000D01*
X87884000Y-102743000D02*
X88392000Y-102743000D01*
X88392000Y-102743000D02*
X88392000Y-102997000D01*
X88392000Y-102997000D02*
X88138000Y-102997000D01*
X88392000Y-102870000D02*
X87884000Y-102870000D01*
X86435000Y-103128578D02*
X86435000Y-102611422D01*
X85015000Y-103128578D02*
X85015000Y-102611422D01*
X85725000Y-103124000D02*
X85725000Y-102616000D01*
X85725000Y-102997000D02*
X85471000Y-102997000D01*
X85471000Y-102997000D02*
X85471000Y-102743000D01*
X85471000Y-102743000D02*
X85979000Y-102743000D01*
X85979000Y-102743000D02*
X85979000Y-102997000D01*
X85979000Y-102997000D02*
X85725000Y-102997000D01*
X85979000Y-102870000D02*
X85471000Y-102870000D01*
X81482000Y-103128578D02*
X81482000Y-102611422D01*
X80062000Y-103128578D02*
X80062000Y-102611422D01*
X80772000Y-103124000D02*
X80772000Y-102616000D01*
X80772000Y-102997000D02*
X80518000Y-102997000D01*
X80518000Y-102997000D02*
X80518000Y-102743000D01*
X80518000Y-102743000D02*
X81026000Y-102743000D01*
X81026000Y-102743000D02*
X81026000Y-102997000D01*
X81026000Y-102997000D02*
X80772000Y-102997000D01*
X81026000Y-102870000D02*
X80518000Y-102870000D01*
X101906000Y-113025422D02*
X101906000Y-113542578D01*
X103326000Y-113025422D02*
X103326000Y-113542578D01*
X102616000Y-113030000D02*
X102616000Y-113538000D01*
X102616000Y-113157000D02*
X102870000Y-113157000D01*
X102870000Y-113157000D02*
X102870000Y-113411000D01*
X102870000Y-113411000D02*
X102362000Y-113411000D01*
X102362000Y-113411000D02*
X102362000Y-113157000D01*
X102362000Y-113157000D02*
X102616000Y-113157000D01*
X102362000Y-113284000D02*
X102870000Y-113284000D01*
X89911422Y-66115000D02*
X90428578Y-66115000D01*
X89911422Y-64695000D02*
X90428578Y-64695000D01*
X89916000Y-65405000D02*
X90424000Y-65405000D01*
X90043000Y-65405000D02*
X90043000Y-65151000D01*
X90043000Y-65151000D02*
X90297000Y-65151000D01*
X90297000Y-65151000D02*
X90297000Y-65659000D01*
X90297000Y-65659000D02*
X90043000Y-65659000D01*
X90043000Y-65659000D02*
X90043000Y-65405000D01*
X90170000Y-65659000D02*
X90170000Y-65151000D01*
X91435422Y-89737000D02*
X91952578Y-89737000D01*
X91435422Y-88317000D02*
X91952578Y-88317000D01*
X91440000Y-89027000D02*
X91948000Y-89027000D01*
X91567000Y-89027000D02*
X91567000Y-88773000D01*
X91567000Y-88773000D02*
X91821000Y-88773000D01*
X91821000Y-88773000D02*
X91821000Y-89281000D01*
X91821000Y-89281000D02*
X91567000Y-89281000D01*
X91567000Y-89281000D02*
X91567000Y-89027000D01*
X91694000Y-89281000D02*
X91694000Y-88773000D01*
X99757000Y-122490000D02*
X101157000Y-122490000D01*
X101157000Y-122490000D02*
X101157000Y-123890000D01*
X101157000Y-123890000D02*
X99757000Y-123890000D01*
X99757000Y-123890000D02*
X99757000Y-122490000D01*
X107390000Y-108970578D02*
X107390000Y-108453422D01*
X105970000Y-108970578D02*
X105970000Y-108453422D01*
X106299000Y-108839000D02*
X106934000Y-108839000D01*
X106299000Y-108585000D02*
X106934000Y-108585000D01*
X106680000Y-108839000D02*
X106680000Y-108966000D01*
X106680000Y-108585000D02*
X106680000Y-108458000D01*
X106934000Y-108585000D02*
X107061000Y-108585000D01*
X106934000Y-108839000D02*
X107061000Y-108839000D01*
X92333578Y-82729000D02*
X91816422Y-82729000D01*
X92333578Y-84149000D02*
X91816422Y-84149000D01*
X92202000Y-83820000D02*
X92202000Y-83185000D01*
X91948000Y-83820000D02*
X91948000Y-83185000D01*
X92202000Y-83439000D02*
X92329000Y-83439000D01*
X91948000Y-83439000D02*
X91821000Y-83439000D01*
X91948000Y-83185000D02*
X91948000Y-83058000D01*
X92202000Y-83185000D02*
X92202000Y-83058000D01*
X90047578Y-71172000D02*
X89530422Y-71172000D01*
X90047578Y-72592000D02*
X89530422Y-72592000D01*
X89916000Y-72263000D02*
X89916000Y-71628000D01*
X89662000Y-72263000D02*
X89662000Y-71628000D01*
X89916000Y-71882000D02*
X90043000Y-71882000D01*
X89662000Y-71882000D02*
X89535000Y-71882000D01*
X89662000Y-71628000D02*
X89662000Y-71501000D01*
X89916000Y-71628000D02*
X89916000Y-71501000D01*
X105031000Y-108422221D02*
X105031000Y-108747779D01*
X104011000Y-108422221D02*
X104011000Y-108747779D01*
X105285000Y-112994221D02*
X105285000Y-113319779D01*
X104265000Y-112994221D02*
X104265000Y-113319779D01*
X113827779Y-99824000D02*
X113502221Y-99824000D01*
X113827779Y-98804000D02*
X113502221Y-98804000D01*
X105408000Y-92618779D02*
X105408000Y-92293221D01*
X106428000Y-92618779D02*
X106428000Y-92293221D01*
X113827779Y-92966000D02*
X113502221Y-92966000D01*
X113827779Y-91946000D02*
X113502221Y-91946000D01*
X103884000Y-92618779D02*
X103884000Y-92293221D01*
X104904000Y-92618779D02*
X104904000Y-92293221D01*
X102999000Y-108803221D02*
X102999000Y-109128779D01*
X101979000Y-108803221D02*
X101979000Y-109128779D01*
X96357221Y-100963000D02*
X96682779Y-100963000D01*
X96357221Y-101983000D02*
X96682779Y-101983000D01*
X116969000Y-88356221D02*
X116969000Y-88681779D01*
X115949000Y-88356221D02*
X115949000Y-88681779D01*
X133733000Y-89118221D02*
X133733000Y-89443779D01*
X132713000Y-89118221D02*
X132713000Y-89443779D01*
X113700779Y-110111000D02*
X113375221Y-110111000D01*
X113700779Y-109091000D02*
X113375221Y-109091000D01*
X113700779Y-103380000D02*
X113375221Y-103380000D01*
X113700779Y-102360000D02*
X113375221Y-102360000D01*
X115822000Y-113700779D02*
X115822000Y-113375221D01*
X116842000Y-113700779D02*
X116842000Y-113375221D01*
X132586000Y-113065779D02*
X132586000Y-112740221D01*
X133606000Y-113065779D02*
X133606000Y-112740221D01*
X127783000Y-112173936D02*
X127783000Y-113378064D01*
X125963000Y-112173936D02*
X125963000Y-113378064D01*
X125963000Y-89756064D02*
X125963000Y-88551936D01*
X127783000Y-89756064D02*
X127783000Y-88551936D01*
X95502000Y-113319779D02*
X95502000Y-112994221D01*
X96522000Y-113319779D02*
X96522000Y-112994221D01*
X99349779Y-111127000D02*
X99024221Y-111127000D01*
X99349779Y-110107000D02*
X99024221Y-110107000D01*
X119669779Y-115064000D02*
X119344221Y-115064000D01*
X119669779Y-114044000D02*
X119344221Y-114044000D01*
X119669779Y-113032000D02*
X119344221Y-113032000D01*
X119669779Y-112012000D02*
X119344221Y-112012000D01*
X119669779Y-111127000D02*
X119344221Y-111127000D01*
X119669779Y-110107000D02*
X119344221Y-110107000D01*
X119344221Y-101344000D02*
X119669779Y-101344000D01*
X119344221Y-102364000D02*
X119669779Y-102364000D01*
X119669779Y-108841000D02*
X119344221Y-108841000D01*
X119669779Y-107821000D02*
X119344221Y-107821000D01*
X119344221Y-103503000D02*
X119669779Y-103503000D01*
X119344221Y-104523000D02*
X119669779Y-104523000D01*
X113349721Y-107313000D02*
X113675279Y-107313000D01*
X113349721Y-108333000D02*
X113675279Y-108333000D01*
X113375221Y-104011000D02*
X113700779Y-104011000D01*
X113375221Y-105031000D02*
X113700779Y-105031000D01*
X119669779Y-88140000D02*
X119344221Y-88140000D01*
X119669779Y-87120000D02*
X119344221Y-87120000D01*
X119669779Y-90045000D02*
X119344221Y-90045000D01*
X119669779Y-89025000D02*
X119344221Y-89025000D01*
X119669779Y-100586000D02*
X119344221Y-100586000D01*
X119669779Y-99566000D02*
X119344221Y-99566000D01*
X119344221Y-90803000D02*
X119669779Y-90803000D01*
X119344221Y-91823000D02*
X119669779Y-91823000D01*
X113502221Y-97153000D02*
X113827779Y-97153000D01*
X113502221Y-98173000D02*
X113827779Y-98173000D01*
X119669779Y-98427000D02*
X119344221Y-98427000D01*
X119669779Y-97407000D02*
X119344221Y-97407000D01*
X119344221Y-92962000D02*
X119669779Y-92962000D01*
X119344221Y-93982000D02*
X119669779Y-93982000D01*
X113476721Y-93597000D02*
X113802279Y-93597000D01*
X113476721Y-94617000D02*
X113802279Y-94617000D01*
X102233000Y-92745779D02*
X102233000Y-92420221D01*
X103253000Y-92745779D02*
X103253000Y-92420221D01*
X87482936Y-74617000D02*
X91587064Y-74617000D01*
X87482936Y-78037000D02*
X91587064Y-78037000D01*
X99693000Y-114864000D02*
X99693000Y-113934000D01*
X99693000Y-111704000D02*
X99693000Y-112634000D01*
X99693000Y-111704000D02*
X97533000Y-111704000D01*
X99693000Y-114864000D02*
X98233000Y-114864000D01*
X122598000Y-103886000D02*
X122598000Y-108839000D01*
X122598000Y-108839000D02*
X127805000Y-108839000D01*
X127805000Y-108839000D02*
X127805000Y-103378000D01*
X127805000Y-103378000D02*
X123106000Y-103378000D01*
X122725000Y-103378000D02*
G75*
G03*
X122725000Y-103378000I-127000J0D01*
G01*
X123106000Y-103378000D02*
X122598000Y-103886000D01*
X122598000Y-93345000D02*
X122598000Y-98298000D01*
X122598000Y-98298000D02*
X127805000Y-98298000D01*
X127805000Y-98298000D02*
X127805000Y-92837000D01*
X127805000Y-92837000D02*
X123106000Y-92837000D01*
X122725000Y-92837000D02*
G75*
G03*
X122725000Y-92837000I-127000J0D01*
G01*
X123106000Y-92837000D02*
X122598000Y-93345000D01*
X83564000Y-87017000D02*
X85064000Y-87017000D01*
X85064000Y-87017000D02*
X85064000Y-86747000D01*
X85064000Y-86747000D02*
X87894000Y-86747000D01*
X83564000Y-80117000D02*
X85064000Y-80117000D01*
X85064000Y-80117000D02*
X85064000Y-80387000D01*
X85064000Y-80387000D02*
X86164000Y-80387000D01*
X74719000Y-131421000D02*
X74419000Y-131121000D01*
X74119000Y-131421000D02*
X74719000Y-131421000D01*
X74419000Y-131121000D02*
X74119000Y-131421000D01*
X73069000Y-130871000D02*
X73069000Y-128921000D01*
X78569000Y-130871000D02*
X73069000Y-130871000D01*
X78569000Y-128921000D02*
X78569000Y-130871000D01*
X73069000Y-128921000D02*
X78569000Y-128921000D01*
X112479000Y-128421000D02*
X112779000Y-128721000D01*
X113079000Y-128421000D02*
X112479000Y-128421000D01*
X112779000Y-128721000D02*
X113079000Y-128421000D01*
X114129000Y-128971000D02*
X114129000Y-130921000D01*
X108629000Y-128971000D02*
X114129000Y-128971000D01*
X108629000Y-130921000D02*
X108629000Y-128971000D01*
X114129000Y-130921000D02*
X108629000Y-130921000D01*
X124163000Y-128421000D02*
X124463000Y-128721000D01*
X124763000Y-128421000D02*
X124163000Y-128421000D01*
X124463000Y-128721000D02*
X124763000Y-128421000D01*
X125813000Y-128971000D02*
X125813000Y-130921000D01*
X120313000Y-128971000D02*
X125813000Y-128971000D01*
X120313000Y-130921000D02*
X120313000Y-128971000D01*
X125813000Y-130921000D02*
X120313000Y-130921000D01*
X103857326Y-128494901D02*
G75*
G02*
X104752000Y-128735000I28674J-1680099D01*
G01*
X105311358Y-129285106D02*
G75*
G02*
X105326000Y-131041000I-1425358J-889894D01*
G01*
X104775894Y-131600358D02*
G75*
G02*
X103020000Y-131615000I-889894J1425358D01*
G01*
X102460495Y-131065193D02*
G75*
G02*
X102461000Y-129284000I1425505J890193D01*
G01*
X102995736Y-128750279D02*
G75*
G02*
X103886000Y-128495000I890264J-1424721D01*
G01*
X102066000Y-130175000D02*
G75*
G03*
X102066000Y-130175000I-1680000J0D01*
G01*
X98566000Y-130175000D02*
G75*
G03*
X98566000Y-130175000I-1680000J0D01*
G01*
X105696000Y-126075000D02*
X95076000Y-126075000D01*
X105696000Y-127175000D02*
X95076000Y-127175000D01*
X105696000Y-133335000D02*
X95076000Y-133335000D01*
X105696000Y-125615000D02*
X95076000Y-125615000D01*
X105696000Y-133335000D02*
X105696000Y-125615000D01*
X95076000Y-133335000D02*
X95076000Y-125615000D01*
X99111000Y-131244000D02*
X99240000Y-131116000D01*
X101361000Y-128994000D02*
X101455000Y-128901000D01*
X99316000Y-131450000D02*
X99410000Y-131356000D01*
X101531000Y-129234000D02*
X101660000Y-129106000D01*
X95611000Y-131244000D02*
X95740000Y-131116000D01*
X97861000Y-128994000D02*
X97955000Y-128901000D01*
X95816000Y-131450000D02*
X95910000Y-131356000D01*
X98031000Y-129234000D02*
X98160000Y-129106000D01*
X105936000Y-126015000D02*
X105936000Y-125375000D01*
X105936000Y-125375000D02*
X105536000Y-125375000D01*
X75692000Y-103632000D02*
X75184000Y-103632000D01*
X75692000Y-87122000D02*
X75692000Y-103632000D01*
X60706000Y-87122000D02*
X75692000Y-87122000D01*
X60706000Y-103632000D02*
X60706000Y-87122000D01*
X75184000Y-103632000D02*
X60706000Y-103632000D01*
X75692000Y-123825000D02*
X75184000Y-123825000D01*
X75692000Y-107315000D02*
X75692000Y-123825000D01*
X60706000Y-107315000D02*
X75692000Y-107315000D01*
X60706000Y-123825000D02*
X60706000Y-107315000D01*
X75184000Y-123825000D02*
X60706000Y-123825000D01*
X132685901Y-95913674D02*
G75*
G02*
X132926000Y-95019000I1680099J28674D01*
G01*
X133476106Y-94459642D02*
G75*
G02*
X135232000Y-94445000I889894J-1425358D01*
G01*
X135791358Y-94995106D02*
G75*
G02*
X135806000Y-96751000I-1425358J-889894D01*
G01*
X135256193Y-97310505D02*
G75*
G02*
X133475000Y-97310000I-890193J1425505D01*
G01*
X132941279Y-96775264D02*
G75*
G02*
X132686000Y-95885000I1424721J890264D01*
G01*
X136046000Y-99385000D02*
G75*
G03*
X136046000Y-99385000I-1680000J0D01*
G01*
X136046000Y-102885000D02*
G75*
G03*
X136046000Y-102885000I-1680000J0D01*
G01*
X136046000Y-106385000D02*
G75*
G03*
X136046000Y-106385000I-1680000J0D01*
G01*
X130266000Y-94075000D02*
X130266000Y-108195000D01*
X131366000Y-94075000D02*
X131366000Y-108195000D01*
X137526000Y-94075000D02*
X137526000Y-108195000D01*
X129806000Y-94075000D02*
X129806000Y-108195000D01*
X137526000Y-94075000D02*
X129806000Y-94075000D01*
X137526000Y-108195000D02*
X129806000Y-108195000D01*
X135435000Y-100660000D02*
X135307000Y-100531000D01*
X133185000Y-98410000D02*
X133092000Y-98316000D01*
X135641000Y-100455000D02*
X135547000Y-100361000D01*
X133425000Y-98240000D02*
X133297000Y-98111000D01*
X135435000Y-104160000D02*
X135307000Y-104031000D01*
X133185000Y-101910000D02*
X133092000Y-101816000D01*
X135641000Y-103955000D02*
X135547000Y-103861000D01*
X133425000Y-101740000D02*
X133297000Y-101611000D01*
X135435000Y-107660000D02*
X135307000Y-107531000D01*
X133185000Y-105410000D02*
X133092000Y-105316000D01*
X135641000Y-107455000D02*
X135547000Y-107361000D01*
X133425000Y-105240000D02*
X133297000Y-105111000D01*
X130206000Y-93835000D02*
X129566000Y-93835000D01*
X129566000Y-93835000D02*
X129566000Y-94235000D01*
X73190000Y-63256000D02*
X60970000Y-63256000D01*
X60970000Y-63256000D02*
X60970000Y-83476000D01*
X60970000Y-83476000D02*
X73190000Y-83476000D01*
X73190000Y-83476000D02*
X73190000Y-63256000D01*
X62470000Y-63256000D02*
X64270000Y-63256000D01*
X64270000Y-63256000D02*
X64270000Y-83476000D01*
X64270000Y-83476000D02*
X62470000Y-83476000D01*
X62470000Y-83476000D02*
X62470000Y-63256000D01*
X60970000Y-64866000D02*
X60970000Y-66866000D01*
X60970000Y-66866000D02*
X62470000Y-66616000D01*
X62470000Y-66616000D02*
X62470000Y-65116000D01*
X62470000Y-65116000D02*
X60970000Y-64866000D01*
X60970000Y-79866000D02*
X60970000Y-81866000D01*
X60970000Y-81866000D02*
X62470000Y-81616000D01*
X62470000Y-81616000D02*
X62470000Y-80116000D01*
X62470000Y-80116000D02*
X60970000Y-79866000D01*
X60970000Y-69866000D02*
X60970000Y-71866000D01*
X60970000Y-71866000D02*
X62470000Y-71616000D01*
X62470000Y-71616000D02*
X62470000Y-70116000D01*
X62470000Y-70116000D02*
X60970000Y-69866000D01*
X60970000Y-74866000D02*
X60970000Y-76866000D01*
X60970000Y-76866000D02*
X62470000Y-76616000D01*
X62470000Y-76616000D02*
X62470000Y-75116000D01*
X62470000Y-75116000D02*
X60970000Y-74866000D01*
X73990000Y-71166000D02*
X73390000Y-70866000D01*
X73390000Y-70866000D02*
X73990000Y-70566000D01*
X73990000Y-70566000D02*
X73990000Y-71166000D01*
X82697064Y-77910000D02*
X78592936Y-77910000D01*
X82697064Y-74490000D02*
X78592936Y-74490000D01*
X88590000Y-120351000D02*
X88590000Y-117491000D01*
X86670000Y-120351000D02*
X88590000Y-120351000D01*
X86670000Y-117491000D02*
X86670000Y-120351000D01*
X87630000Y-118745000D02*
X87630000Y-118618000D01*
X87630000Y-118618000D02*
X87376000Y-118364000D01*
X87376000Y-118364000D02*
X87757000Y-118364000D01*
X87757000Y-118364000D02*
X87884000Y-118364000D01*
X87884000Y-118364000D02*
X87630000Y-118618000D01*
X87376000Y-118618000D02*
X87884000Y-118618000D01*
X87630000Y-118364000D02*
X87630000Y-118237000D01*
X86177000Y-120351000D02*
X86177000Y-117491000D01*
X84257000Y-120351000D02*
X86177000Y-120351000D01*
X84257000Y-117491000D02*
X84257000Y-120351000D01*
X85217000Y-118745000D02*
X85217000Y-118618000D01*
X85217000Y-118618000D02*
X84963000Y-118364000D01*
X84963000Y-118364000D02*
X85344000Y-118364000D01*
X85344000Y-118364000D02*
X85471000Y-118364000D01*
X85471000Y-118364000D02*
X85217000Y-118618000D01*
X84963000Y-118618000D02*
X85471000Y-118618000D01*
X85217000Y-118364000D02*
X85217000Y-118237000D01*
X81351000Y-120351000D02*
X81351000Y-117491000D01*
X79431000Y-120351000D02*
X81351000Y-120351000D01*
X79431000Y-117491000D02*
X79431000Y-120351000D01*
X80391000Y-118745000D02*
X80391000Y-118618000D01*
X80391000Y-118618000D02*
X80137000Y-118364000D01*
X80137000Y-118364000D02*
X80518000Y-118364000D01*
X80518000Y-118364000D02*
X80645000Y-118364000D01*
X80645000Y-118364000D02*
X80391000Y-118618000D01*
X80137000Y-118618000D02*
X80645000Y-118618000D01*
X80391000Y-118364000D02*
X80391000Y-118237000D01*
X83764000Y-120351000D02*
X83764000Y-117491000D01*
X81844000Y-120351000D02*
X83764000Y-120351000D01*
X81844000Y-117491000D02*
X81844000Y-120351000D01*
X82804000Y-118745000D02*
X82804000Y-118618000D01*
X82804000Y-118618000D02*
X82550000Y-118364000D01*
X82550000Y-118364000D02*
X82931000Y-118364000D01*
X82931000Y-118364000D02*
X83058000Y-118364000D01*
X83058000Y-118364000D02*
X82804000Y-118618000D01*
X82550000Y-118618000D02*
X83058000Y-118618000D01*
X82804000Y-118364000D02*
X82804000Y-118237000D01*
X91003000Y-120351000D02*
X91003000Y-117491000D01*
X89083000Y-120351000D02*
X91003000Y-120351000D01*
X89083000Y-117491000D02*
X89083000Y-120351000D01*
X90043000Y-118745000D02*
X90043000Y-118618000D01*
X90043000Y-118618000D02*
X89789000Y-118364000D01*
X89789000Y-118364000D02*
X90170000Y-118364000D01*
X90170000Y-118364000D02*
X90297000Y-118364000D01*
X90297000Y-118364000D02*
X90043000Y-118618000D01*
X89789000Y-118618000D02*
X90297000Y-118618000D01*
X90043000Y-118364000D02*
X90043000Y-118237000D01*
X82267334Y-96057000D02*
X82267334Y-98917000D01*
X84187334Y-96057000D02*
X82267334Y-96057000D01*
X84187334Y-98917000D02*
X84187334Y-96057000D01*
X83227334Y-97663000D02*
X83227334Y-97790000D01*
X83227334Y-97790000D02*
X83481334Y-98044000D01*
X83481334Y-98044000D02*
X83100334Y-98044000D01*
X83100334Y-98044000D02*
X82973334Y-98044000D01*
X82973334Y-98044000D02*
X83227334Y-97790000D01*
X83481334Y-97790000D02*
X82973334Y-97790000D01*
X83227334Y-98044000D02*
X83227334Y-98171000D01*
X87178000Y-96057000D02*
X87178000Y-98917000D01*
X89098000Y-96057000D02*
X87178000Y-96057000D01*
X89098000Y-98917000D02*
X89098000Y-96057000D01*
X88138000Y-97663000D02*
X88138000Y-97790000D01*
X88138000Y-97790000D02*
X88392000Y-98044000D01*
X88392000Y-98044000D02*
X88011000Y-98044000D01*
X88011000Y-98044000D02*
X87884000Y-98044000D01*
X87884000Y-98044000D02*
X88138000Y-97790000D01*
X88392000Y-97790000D02*
X87884000Y-97790000D01*
X88138000Y-98044000D02*
X88138000Y-98171000D01*
X84722667Y-96057000D02*
X84722667Y-98917000D01*
X86642667Y-96057000D02*
X84722667Y-96057000D01*
X86642667Y-98917000D02*
X86642667Y-96057000D01*
X85682667Y-97663000D02*
X85682667Y-97790000D01*
X85682667Y-97790000D02*
X85936667Y-98044000D01*
X85936667Y-98044000D02*
X85555667Y-98044000D01*
X85555667Y-98044000D02*
X85428667Y-98044000D01*
X85428667Y-98044000D02*
X85682667Y-97790000D01*
X85936667Y-97790000D02*
X85428667Y-97790000D01*
X85682667Y-98044000D02*
X85682667Y-98171000D01*
X79812000Y-96057000D02*
X79812000Y-98917000D01*
X81732000Y-96057000D02*
X79812000Y-96057000D01*
X81732000Y-98917000D02*
X81732000Y-96057000D01*
X80772000Y-97663000D02*
X80772000Y-97790000D01*
X80772000Y-97790000D02*
X81026000Y-98044000D01*
X81026000Y-98044000D02*
X80645000Y-98044000D01*
X80645000Y-98044000D02*
X80518000Y-98044000D01*
X80518000Y-98044000D02*
X80772000Y-97790000D01*
X81026000Y-97790000D02*
X80518000Y-97790000D01*
X80772000Y-98044000D02*
X80772000Y-98171000D01*
X106116000Y-113917000D02*
X107046000Y-113917000D01*
X109276000Y-113917000D02*
X108346000Y-113917000D01*
X109276000Y-113917000D02*
X109276000Y-111757000D01*
X106116000Y-113917000D02*
X106116000Y-112457000D01*
X109926000Y-113917000D02*
X110856000Y-113917000D01*
X113086000Y-113917000D02*
X112156000Y-113917000D01*
X113086000Y-113917000D02*
X113086000Y-111757000D01*
X109926000Y-113917000D02*
X109926000Y-112457000D01*
X113086000Y-87505000D02*
X112156000Y-87505000D01*
X109926000Y-87505000D02*
X110856000Y-87505000D01*
X109926000Y-87505000D02*
X109926000Y-89665000D01*
X113086000Y-87505000D02*
X113086000Y-88965000D01*
X109276000Y-87505000D02*
X108346000Y-87505000D01*
X106116000Y-87505000D02*
X107046000Y-87505000D01*
X106116000Y-87505000D02*
X106116000Y-89665000D01*
X109276000Y-87505000D02*
X109276000Y-88965000D01*
X91297000Y-66858000D02*
X88612000Y-66858000D01*
X88612000Y-66858000D02*
X88612000Y-68778000D01*
X88612000Y-68778000D02*
X91297000Y-68778000D01*
X90475000Y-87241000D02*
X94360000Y-87241000D01*
X94360000Y-87241000D02*
X94360000Y-84971000D01*
X94360000Y-84971000D02*
X90475000Y-84971000D01*
X127788000Y-127026000D02*
X127788000Y-123176000D01*
X127788000Y-116306000D02*
X127788000Y-120156000D01*
X118132437Y-116306000D02*
X127788000Y-116306000D01*
X118132437Y-127026000D02*
X127788000Y-127026000D01*
X117068000Y-125961563D02*
X117068000Y-123176000D01*
X117068000Y-117370437D02*
X117068000Y-120156000D01*
X117068000Y-117370437D02*
X118132437Y-116306000D01*
X117068000Y-125961563D02*
X118132437Y-127026000D01*
X115578000Y-118906000D02*
X116828000Y-118906000D01*
X116203000Y-118281000D02*
X116203000Y-119531000D01*
X119093064Y-107082000D02*
X117888936Y-107082000D01*
X119093064Y-105262000D02*
X117888936Y-105262000D01*
X127788000Y-86005000D02*
X127788000Y-82155000D01*
X127788000Y-75285000D02*
X127788000Y-79135000D01*
X118132437Y-75285000D02*
X127788000Y-75285000D01*
X118132437Y-86005000D02*
X127788000Y-86005000D01*
X117068000Y-84940563D02*
X117068000Y-82155000D01*
X117068000Y-76349437D02*
X117068000Y-79135000D01*
X117068000Y-76349437D02*
X118132437Y-75285000D01*
X117068000Y-84940563D02*
X118132437Y-86005000D01*
X115578000Y-77885000D02*
X116828000Y-77885000D01*
X116203000Y-77260000D02*
X116203000Y-78510000D01*
X119093064Y-96668000D02*
X117888936Y-96668000D01*
X119093064Y-94848000D02*
X117888936Y-94848000D01*
X104611000Y-117888936D02*
X104611000Y-119093064D01*
X101891000Y-117888936D02*
X101891000Y-119093064D01*
X108167000Y-117888936D02*
X108167000Y-119093064D01*
X105447000Y-117888936D02*
X105447000Y-119093064D01*
X124841000Y-67818000D02*
G75*
G03*
X124841000Y-67818000I-5120000J0D01*
G01*
X119721000Y-62738000D02*
X119721000Y-72898000D01*
X119761000Y-62738000D02*
X119761000Y-72898000D01*
X119801000Y-62738000D02*
X119801000Y-72898000D01*
X119841000Y-62739000D02*
X119841000Y-72897000D01*
X119881000Y-62740000D02*
X119881000Y-72896000D01*
X119921000Y-62741000D02*
X119921000Y-72895000D01*
X119961000Y-62743000D02*
X119961000Y-72893000D01*
X120001000Y-62745000D02*
X120001000Y-72891000D01*
X120041000Y-62748000D02*
X120041000Y-72888000D01*
X120081000Y-62750000D02*
X120081000Y-72886000D01*
X120121000Y-62753000D02*
X120121000Y-72883000D01*
X120161000Y-62756000D02*
X120161000Y-72880000D01*
X120201000Y-62760000D02*
X120201000Y-72876000D01*
X120241000Y-62764000D02*
X120241000Y-72872000D01*
X120281000Y-62768000D02*
X120281000Y-72868000D01*
X120321000Y-62773000D02*
X120321000Y-72863000D01*
X120361000Y-62778000D02*
X120361000Y-72858000D01*
X120401000Y-62783000D02*
X120401000Y-72853000D01*
X120442000Y-62788000D02*
X120442000Y-72848000D01*
X120482000Y-62794000D02*
X120482000Y-72842000D01*
X120522000Y-62800000D02*
X120522000Y-72836000D01*
X120562000Y-62807000D02*
X120562000Y-72829000D01*
X120602000Y-62814000D02*
X120602000Y-72822000D01*
X120642000Y-62821000D02*
X120642000Y-72815000D01*
X120682000Y-62828000D02*
X120682000Y-72808000D01*
X120722000Y-62836000D02*
X120722000Y-72800000D01*
X120762000Y-62844000D02*
X120762000Y-72792000D01*
X120802000Y-62853000D02*
X120802000Y-72783000D01*
X120842000Y-62862000D02*
X120842000Y-72774000D01*
X120882000Y-62871000D02*
X120882000Y-72765000D01*
X120922000Y-62880000D02*
X120922000Y-72756000D01*
X120962000Y-62890000D02*
X120962000Y-72746000D01*
X121002000Y-62900000D02*
X121002000Y-66577000D01*
X121002000Y-69059000D02*
X121002000Y-72736000D01*
X121042000Y-62911000D02*
X121042000Y-66577000D01*
X121042000Y-69059000D02*
X121042000Y-72725000D01*
X121082000Y-62921000D02*
X121082000Y-66577000D01*
X121082000Y-69059000D02*
X121082000Y-72715000D01*
X121122000Y-62933000D02*
X121122000Y-66577000D01*
X121122000Y-69059000D02*
X121122000Y-72703000D01*
X121162000Y-62944000D02*
X121162000Y-66577000D01*
X121162000Y-69059000D02*
X121162000Y-72692000D01*
X121202000Y-62956000D02*
X121202000Y-66577000D01*
X121202000Y-69059000D02*
X121202000Y-72680000D01*
X121242000Y-62968000D02*
X121242000Y-66577000D01*
X121242000Y-69059000D02*
X121242000Y-72668000D01*
X121282000Y-62981000D02*
X121282000Y-66577000D01*
X121282000Y-69059000D02*
X121282000Y-72655000D01*
X121322000Y-62994000D02*
X121322000Y-66577000D01*
X121322000Y-69059000D02*
X121322000Y-72642000D01*
X121362000Y-63007000D02*
X121362000Y-66577000D01*
X121362000Y-69059000D02*
X121362000Y-72629000D01*
X121402000Y-63021000D02*
X121402000Y-66577000D01*
X121402000Y-69059000D02*
X121402000Y-72615000D01*
X121442000Y-63035000D02*
X121442000Y-66577000D01*
X121442000Y-69059000D02*
X121442000Y-72601000D01*
X121482000Y-63050000D02*
X121482000Y-66577000D01*
X121482000Y-69059000D02*
X121482000Y-72586000D01*
X121522000Y-63064000D02*
X121522000Y-66577000D01*
X121522000Y-69059000D02*
X121522000Y-72572000D01*
X121562000Y-63080000D02*
X121562000Y-66577000D01*
X121562000Y-69059000D02*
X121562000Y-72556000D01*
X121602000Y-63095000D02*
X121602000Y-66577000D01*
X121602000Y-69059000D02*
X121602000Y-72541000D01*
X121642000Y-63111000D02*
X121642000Y-66577000D01*
X121642000Y-69059000D02*
X121642000Y-72525000D01*
X121682000Y-63128000D02*
X121682000Y-66577000D01*
X121682000Y-69059000D02*
X121682000Y-72508000D01*
X121722000Y-63144000D02*
X121722000Y-66577000D01*
X121722000Y-69059000D02*
X121722000Y-72492000D01*
X121762000Y-63161000D02*
X121762000Y-66577000D01*
X121762000Y-69059000D02*
X121762000Y-72475000D01*
X121802000Y-63179000D02*
X121802000Y-66577000D01*
X121802000Y-69059000D02*
X121802000Y-72457000D01*
X121842000Y-63197000D02*
X121842000Y-66577000D01*
X121842000Y-69059000D02*
X121842000Y-72439000D01*
X121882000Y-63215000D02*
X121882000Y-66577000D01*
X121882000Y-69059000D02*
X121882000Y-72421000D01*
X121922000Y-63234000D02*
X121922000Y-66577000D01*
X121922000Y-69059000D02*
X121922000Y-72402000D01*
X121962000Y-63254000D02*
X121962000Y-66577000D01*
X121962000Y-69059000D02*
X121962000Y-72382000D01*
X122002000Y-63273000D02*
X122002000Y-66577000D01*
X122002000Y-69059000D02*
X122002000Y-72363000D01*
X122042000Y-63293000D02*
X122042000Y-66577000D01*
X122042000Y-69059000D02*
X122042000Y-72343000D01*
X122082000Y-63314000D02*
X122082000Y-66577000D01*
X122082000Y-69059000D02*
X122082000Y-72322000D01*
X122122000Y-63335000D02*
X122122000Y-66577000D01*
X122122000Y-69059000D02*
X122122000Y-72301000D01*
X122162000Y-63356000D02*
X122162000Y-66577000D01*
X122162000Y-69059000D02*
X122162000Y-72280000D01*
X122202000Y-63378000D02*
X122202000Y-66577000D01*
X122202000Y-69059000D02*
X122202000Y-72258000D01*
X122242000Y-63401000D02*
X122242000Y-66577000D01*
X122242000Y-69059000D02*
X122242000Y-72235000D01*
X122282000Y-63423000D02*
X122282000Y-66577000D01*
X122282000Y-69059000D02*
X122282000Y-72213000D01*
X122322000Y-63447000D02*
X122322000Y-66577000D01*
X122322000Y-69059000D02*
X122322000Y-72189000D01*
X122362000Y-63471000D02*
X122362000Y-66577000D01*
X122362000Y-69059000D02*
X122362000Y-72165000D01*
X122402000Y-63495000D02*
X122402000Y-66577000D01*
X122402000Y-69059000D02*
X122402000Y-72141000D01*
X122442000Y-63520000D02*
X122442000Y-66577000D01*
X122442000Y-69059000D02*
X122442000Y-72116000D01*
X122482000Y-63545000D02*
X122482000Y-66577000D01*
X122482000Y-69059000D02*
X122482000Y-72091000D01*
X122522000Y-63571000D02*
X122522000Y-66577000D01*
X122522000Y-69059000D02*
X122522000Y-72065000D01*
X122562000Y-63597000D02*
X122562000Y-66577000D01*
X122562000Y-69059000D02*
X122562000Y-72039000D01*
X122602000Y-63624000D02*
X122602000Y-66577000D01*
X122602000Y-69059000D02*
X122602000Y-72012000D01*
X122642000Y-63652000D02*
X122642000Y-66577000D01*
X122642000Y-69059000D02*
X122642000Y-71984000D01*
X122682000Y-63680000D02*
X122682000Y-66577000D01*
X122682000Y-69059000D02*
X122682000Y-71956000D01*
X122722000Y-63708000D02*
X122722000Y-66577000D01*
X122722000Y-69059000D02*
X122722000Y-71928000D01*
X122762000Y-63738000D02*
X122762000Y-66577000D01*
X122762000Y-69059000D02*
X122762000Y-71898000D01*
X122802000Y-63768000D02*
X122802000Y-66577000D01*
X122802000Y-69059000D02*
X122802000Y-71868000D01*
X122842000Y-63798000D02*
X122842000Y-66577000D01*
X122842000Y-69059000D02*
X122842000Y-71838000D01*
X122882000Y-63829000D02*
X122882000Y-66577000D01*
X122882000Y-69059000D02*
X122882000Y-71807000D01*
X122922000Y-63861000D02*
X122922000Y-66577000D01*
X122922000Y-69059000D02*
X122922000Y-71775000D01*
X122962000Y-63893000D02*
X122962000Y-66577000D01*
X122962000Y-69059000D02*
X122962000Y-71743000D01*
X123002000Y-63926000D02*
X123002000Y-66577000D01*
X123002000Y-69059000D02*
X123002000Y-71710000D01*
X123042000Y-63960000D02*
X123042000Y-66577000D01*
X123042000Y-69059000D02*
X123042000Y-71676000D01*
X123082000Y-63994000D02*
X123082000Y-66577000D01*
X123082000Y-69059000D02*
X123082000Y-71642000D01*
X123122000Y-64029000D02*
X123122000Y-66577000D01*
X123122000Y-69059000D02*
X123122000Y-71607000D01*
X123162000Y-64065000D02*
X123162000Y-66577000D01*
X123162000Y-69059000D02*
X123162000Y-71571000D01*
X123202000Y-64102000D02*
X123202000Y-66577000D01*
X123202000Y-69059000D02*
X123202000Y-71534000D01*
X123242000Y-64139000D02*
X123242000Y-66577000D01*
X123242000Y-69059000D02*
X123242000Y-71497000D01*
X123282000Y-64178000D02*
X123282000Y-66577000D01*
X123282000Y-69059000D02*
X123282000Y-71458000D01*
X123322000Y-64217000D02*
X123322000Y-66577000D01*
X123322000Y-69059000D02*
X123322000Y-71419000D01*
X123362000Y-64257000D02*
X123362000Y-66577000D01*
X123362000Y-69059000D02*
X123362000Y-71379000D01*
X123402000Y-64298000D02*
X123402000Y-66577000D01*
X123402000Y-69059000D02*
X123402000Y-71338000D01*
X123442000Y-64340000D02*
X123442000Y-66577000D01*
X123442000Y-69059000D02*
X123442000Y-71296000D01*
X123482000Y-64382000D02*
X123482000Y-71254000D01*
X123522000Y-64426000D02*
X123522000Y-71210000D01*
X123562000Y-64471000D02*
X123562000Y-71165000D01*
X123602000Y-64517000D02*
X123602000Y-71119000D01*
X123642000Y-64564000D02*
X123642000Y-71072000D01*
X123682000Y-64612000D02*
X123682000Y-71024000D01*
X123722000Y-64662000D02*
X123722000Y-70974000D01*
X123762000Y-64712000D02*
X123762000Y-70924000D01*
X123802000Y-64764000D02*
X123802000Y-70872000D01*
X123842000Y-64818000D02*
X123842000Y-70818000D01*
X123882000Y-64873000D02*
X123882000Y-70763000D01*
X123922000Y-64929000D02*
X123922000Y-70707000D01*
X123962000Y-64988000D02*
X123962000Y-70648000D01*
X124002000Y-65048000D02*
X124002000Y-70588000D01*
X124042000Y-65109000D02*
X124042000Y-70527000D01*
X124082000Y-65173000D02*
X124082000Y-70463000D01*
X124122000Y-65239000D02*
X124122000Y-70397000D01*
X124162000Y-65308000D02*
X124162000Y-70328000D01*
X124202000Y-65379000D02*
X124202000Y-70257000D01*
X124242000Y-65453000D02*
X124242000Y-70183000D01*
X124282000Y-65529000D02*
X124282000Y-70107000D01*
X124322000Y-65609000D02*
X124322000Y-70027000D01*
X124362000Y-65693000D02*
X124362000Y-69943000D01*
X124402000Y-65781000D02*
X124402000Y-69855000D01*
X124442000Y-65874000D02*
X124442000Y-69762000D01*
X124482000Y-65972000D02*
X124482000Y-69664000D01*
X124522000Y-66076000D02*
X124522000Y-69560000D01*
X124562000Y-66188000D02*
X124562000Y-69448000D01*
X124602000Y-66308000D02*
X124602000Y-69328000D01*
X124642000Y-66440000D02*
X124642000Y-69196000D01*
X124682000Y-66588000D02*
X124682000Y-69048000D01*
X124722000Y-66756000D02*
X124722000Y-68880000D01*
X124762000Y-66956000D02*
X124762000Y-68680000D01*
X124802000Y-67219000D02*
X124802000Y-68417000D01*
X114241354Y-64943000D02*
X115241354Y-64943000D01*
X114741354Y-64443000D02*
X114741354Y-65443000D01*
X113353000Y-68892000D02*
X110603000Y-68892000D01*
X104833000Y-68892000D02*
X107583000Y-68892000D01*
X104833000Y-76347563D02*
X104833000Y-68892000D01*
X113353000Y-76347563D02*
X113353000Y-68892000D01*
X112288563Y-77412000D02*
X110603000Y-77412000D01*
X105897437Y-77412000D02*
X107583000Y-77412000D01*
X105897437Y-77412000D02*
X104833000Y-76347563D01*
X112288563Y-77412000D02*
X113353000Y-76347563D01*
X106583000Y-78652000D02*
X106583000Y-77652000D01*
X106083000Y-78152000D02*
X107083000Y-78152000D01*
X104082000Y-68892000D02*
X101332000Y-68892000D01*
X95562000Y-68892000D02*
X98312000Y-68892000D01*
X95562000Y-76347563D02*
X95562000Y-68892000D01*
X104082000Y-76347563D02*
X104082000Y-68892000D01*
X103017563Y-77412000D02*
X101332000Y-77412000D01*
X96626437Y-77412000D02*
X98312000Y-77412000D01*
X96626437Y-77412000D02*
X95562000Y-76347563D01*
X103017563Y-77412000D02*
X104082000Y-76347563D01*
X97312000Y-78652000D02*
X97312000Y-77652000D01*
X96812000Y-78152000D02*
X97812000Y-78152000D01*
M02*
